<svg xmlns="http://www.w3.org/2000/svg" viewBox="0 0 330 182.95"><defs><style>.cls-1{fill:#fff;}.cls-2{fill:#2a3646;}.cls-3{fill:#d72a17;}.cls-4{fill:#c9c9c9;}.cls-5{fill:#52c8d1;}</style></defs><title>balance</title><g id="圖層_2" data-name="圖層 2"><g id="text"><rect class="cls-1" x="176.7" y="52.34" width="144.02" height="95.05"/><rect class="cls-1" x="170.58" y="46.01" width="158.43" height="109.28"/><path class="cls-2" d="M330,156.28H169.58V45H330Zm-158.43-2H328V47H171.57Z"/><rect class="cls-1" x="170.58" y="46.01" width="158.43" height="109.28"/><path class="cls-2" d="M330,156.28H169.58V45H330Zm-158.43-2H328V47H171.57Z"/><rect class="cls-1" x="177.61" y="53.04" width="144.36" height="95.21"/><path class="cls-2" d="M322,149.24H177.61a1,1,0,0,1-1-1V53a1,1,0,0,1,1-1H322a1,1,0,0,1,1,1v95.21A1,1,0,0,1,322,149.24Zm-143.36-2H321V54H178.61Z"/><polygon class="cls-1" points="270.83 175.23 231.3 175.23 237.56 155.27 264.43 155.27 270.83 175.23"/><path class="cls-2" d="M272.2,176.22H229.94l6.89-21.95h28.33Zm-39.55-2h36.82l-5.76-18H238.29Z"/><rect class="cls-1" x="224.31" y="175.23" width="53.51" height="6.73"/><path class="cls-2" d="M278.81,183h-55.5v-8.72h55.5Zm-53.5-2h51.51v-4.74H225.31Z"/><rect class="cls-2" x="192.91" y="67.48" width="23.08" height="1.99"/><path class="cls-3" d="M221.4,70.66V66.52a6.26,6.26,0,0,1-.73.14V66a1.62,1.62,0,0,0,1-.5h.67v5.15Z"/><path class="cls-3" d="M226.5,66.27h-2.09c0,.35-.12,1-.16,1.26a1.42,1.42,0,0,1,1-.32,1.49,1.49,0,0,1,1.55,1.68A1.67,1.67,0,0,1,225,70.73a1.54,1.54,0,0,1-1.69-1.42h.9A.78.78,0,0,0,225,70c.57,0,.84-.37.84-1.09s-.27-1-.83-1a.82.82,0,0,0-.87.57l-.77-.12c.08-.65.29-2.14.35-2.86h2.91Z"/><path class="cls-3" d="M231,68c0,1.43-.33,2.76-1.79,2.76s-1.81-1.33-1.81-2.73.5-2.55,1.82-2.55S231,66.54,231,68Zm-2.67,0c0,1.16.21,2,.88,2s.86-.81.86-2-.23-1.82-.85-1.82S228.36,66.89,228.36,68Z"/><path class="cls-3" d="M235.34,68c0,1.43-.33,2.76-1.79,2.76s-1.8-1.33-1.8-2.73.49-2.55,1.81-2.55S235.34,66.54,235.34,68Zm-2.67,0c0,1.16.21,2,.88,2s.86-.81.86-2-.22-1.82-.85-1.82S232.67,66.89,232.67,68Z"/><rect class="cls-2" x="192.91" y="78.86" width="23.08" height="1.99"/><path class="cls-3" d="M225.31,77.65h-2.09c0,.35-.12,1-.15,1.26a1.37,1.37,0,0,1,1-.32,1.49,1.49,0,0,1,1.55,1.67,1.67,1.67,0,0,1-1.81,1.85,1.53,1.53,0,0,1-1.68-1.43h.9a.78.78,0,0,0,.81.73c.57,0,.85-.37.85-1.09s-.27-1-.84-1a.83.83,0,0,0-.87.57l-.77-.13c.08-.65.29-2.14.35-2.85h2.91Z"/><path class="cls-3" d="M229.84,79.34c0,1.43-.33,2.77-1.79,2.77s-1.8-1.34-1.8-2.73.49-2.55,1.82-2.55S229.84,77.92,229.84,79.34Zm-2.66,0c0,1.16.2,2,.87,2s.86-.81.86-2-.22-1.82-.85-1.82S227.18,78.27,227.18,79.36Z"/><path class="cls-3" d="M234.15,79.34c0,1.43-.33,2.77-1.79,2.77s-1.8-1.34-1.8-2.73.49-2.55,1.82-2.55S234.15,77.92,234.15,79.34Zm-2.66,0c0,1.16.21,2,.87,2s.86-.81.86-2-.22-1.82-.85-1.82S231.49,78.27,231.49,79.36Z"/><rect class="cls-2" x="192.91" y="90.24" width="23.08" height="1.99"/><path class="cls-3" d="M222.05,93.41v0c0-.93.43-1.59,1.61-2.52.62-.5.84-.69.84-1.19a.68.68,0,0,0-.73-.76c-.56,0-.77.36-.83.92h-.87a1.59,1.59,0,0,1,1.73-1.61,1.42,1.42,0,0,1,1.62,1.45c0,.75-.32,1.13-1.2,1.77a2.75,2.75,0,0,0-1.08,1.24h2.42l-.11.74Z"/><path class="cls-3" d="M229.74,90.72c0,1.43-.33,2.77-1.79,2.77s-1.8-1.34-1.8-2.73.49-2.55,1.82-2.55S229.74,89.3,229.74,90.72Zm-2.66,0c0,1.15.2,2,.87,2s.86-.82.86-2-.22-1.82-.85-1.82S227.08,89.64,227.08,90.74Z"/><path class="cls-3" d="M234.05,90.72c0,1.43-.33,2.77-1.79,2.77s-1.8-1.34-1.8-2.73.49-2.55,1.82-2.55S234.05,89.3,234.05,90.72Zm-2.66,0c0,1.15.21,2,.87,2s.86-.82.86-2-.22-1.82-.85-1.82S231.39,89.64,231.39,90.74Z"/><rect class="cls-2" x="192.91" y="101.62" width="23.08" height="1.99"/><path class="cls-3" d="M225.45,99.65v.71a11.92,11.92,0,0,0-1.86,4.43h-1a11.69,11.69,0,0,1,1.9-4.38h-2.42v-.76Z"/><path class="cls-3" d="M229.54,102.1c0,1.43-.33,2.77-1.79,2.77s-1.8-1.34-1.8-2.73.49-2.56,1.82-2.56S229.54,100.68,229.54,102.1Zm-2.66,0c0,1.16.21,2,.87,2s.86-.82.86-2-.22-1.81-.85-1.81S226.88,101,226.88,102.11Z"/><path class="cls-3" d="M233.85,102.1c0,1.43-.33,2.77-1.79,2.77s-1.8-1.34-1.8-2.73.49-2.56,1.82-2.56S233.85,100.68,233.85,102.1Zm-2.66,0c0,1.16.21,2,.87,2s.86-.82.86-2-.22-1.81-.85-1.81S231.19,101,231.19,102.11Z"/><rect class="cls-2" x="192.91" y="113" width="23.08" height="1.99"/><path class="cls-3" d="M222.13,112.35a1.51,1.51,0,0,1,1.65-1.39c1,0,1.57.57,1.57,1.35a1,1,0,0,1-.68,1v0a1.26,1.26,0,0,1,.89,1.27c0,.85-.51,1.62-1.82,1.62a1.54,1.54,0,0,1-1.73-1.43h.91a.8.8,0,0,0,.87.74.78.78,0,0,0,.84-.89c0-.64-.39-.88-1-.88h-.36v-.72h.31c.53,0,.85-.18.85-.7a.64.64,0,0,0-.71-.71.74.74,0,0,0-.76.7Z"/><path class="cls-3" d="M229.78,113.48c0,1.43-.33,2.76-1.79,2.76s-1.81-1.33-1.81-2.73.5-2.55,1.82-2.55S229.78,112.05,229.78,113.48Zm-2.67,0c0,1.16.21,2,.88,2s.86-.81.86-2-.23-1.82-.85-1.82S227.11,112.4,227.11,113.49Z"/><path class="cls-3" d="M234.09,113.48c0,1.43-.33,2.76-1.79,2.76s-1.8-1.33-1.8-2.73S231,111,232.31,111,234.09,112.05,234.09,113.48Zm-2.67,0c0,1.16.21,2,.88,2s.86-.81.86-2-.22-1.82-.85-1.82S231.42,112.4,231.42,113.49Z"/><path class="cls-3" d="M220.14,131.2a1.52,1.52,0,0,1,1.66-1.38c1,0,1.57.57,1.57,1.34a1,1,0,0,1-.68,1h0a1.28,1.28,0,0,1,.89,1.28,1.59,1.59,0,0,1-1.82,1.62,1.55,1.55,0,0,1-1.73-1.44h.91a.8.8,0,0,0,.86.74.78.78,0,0,0,.85-.89c0-.63-.39-.87-1-.87h-.36v-.73h.31c.53,0,.84-.18.84-.69a.63.63,0,0,0-.7-.71.73.73,0,0,0-.76.69Z"/><path class="cls-3" d="M224.07,135V135c0-.93.43-1.59,1.61-2.52.62-.5.84-.69.84-1.19a.68.68,0,0,0-.73-.76c-.56,0-.77.36-.83.92h-.86a1.57,1.57,0,0,1,1.72-1.61,1.42,1.42,0,0,1,1.62,1.45c0,.75-.32,1.13-1.2,1.77a2.8,2.8,0,0,0-1.08,1.24h2.42l-.11.75Z"/><path class="cls-3" d="M231.76,132.33c0,1.43-.33,2.77-1.79,2.77s-1.8-1.34-1.8-2.73.49-2.55,1.82-2.55S231.76,130.91,231.76,132.33Zm-2.66,0c0,1.16.2,2,.87,2s.86-.82.86-2-.22-1.82-.85-1.82S229.1,131.25,229.1,132.35Z"/><path class="cls-3" d="M236.07,132.33c0,1.43-.33,2.77-1.79,2.77s-1.8-1.34-1.8-2.73.49-2.55,1.82-2.55S236.07,130.91,236.07,132.33Zm-2.66,0c0,1.16.21,2,.87,2s.86-.82.86-2-.22-1.82-.85-1.82S233.41,131.25,233.41,132.35Z"/><rect class="cls-2" x="192.91" y="124.37" width="43.24" height="1.99"/><rect class="cls-2" x="263.13" y="67.48" width="23.08" height="1.99"/><path class="cls-3" d="M292.27,70.66v0c0-.92.43-1.58,1.61-2.52.62-.49.84-.69.84-1.19a.68.68,0,0,0-.74-.75c-.55,0-.76.36-.82.92h-.87A1.58,1.58,0,0,1,294,65.45a1.43,1.43,0,0,1,1.63,1.45c0,.75-.32,1.13-1.2,1.78a2.74,2.74,0,0,0-1.08,1.23h2.42l-.11.75Z"/><path class="cls-3" d="M300,68c0,1.43-.33,2.76-1.79,2.76s-1.8-1.33-1.8-2.73.49-2.55,1.81-2.55S300,66.54,300,68Zm-2.67,0c0,1.16.21,2,.88,2s.86-.81.86-2-.23-1.82-.85-1.82S297.29,66.89,297.29,68Z"/><path class="cls-3" d="M304.27,68c0,1.43-.33,2.76-1.79,2.76s-1.8-1.33-1.8-2.73.49-2.55,1.82-2.55S304.27,66.54,304.27,68Zm-2.66,0c0,1.16.2,2,.87,2s.86-.81.86-2-.22-1.82-.85-1.82S301.61,66.89,301.61,68Z"/><rect class="cls-2" x="263.13" y="78.86" width="23.08" height="1.99"/><path class="cls-3" d="M292.34,78.21A1.52,1.52,0,0,1,294,76.83c1,0,1.57.57,1.57,1.35a1,1,0,0,1-.68,1v0a1.24,1.24,0,0,1,.89,1.27A1.59,1.59,0,0,1,294,82.11a1.55,1.55,0,0,1-1.73-1.43h.91a.8.8,0,0,0,.87.74.78.78,0,0,0,.84-.89c0-.64-.39-.88-1-.88h-.36v-.73h.31c.53,0,.84-.18.84-.69a.63.63,0,0,0-.7-.71.73.73,0,0,0-.76.69Z"/><path class="cls-3" d="M300,79.34c0,1.43-.32,2.77-1.78,2.77s-1.81-1.34-1.81-2.73.5-2.55,1.82-2.55S300,77.92,300,79.34Zm-2.66,0c0,1.16.21,2,.88,2s.86-.81.86-2-.23-1.82-.86-1.82S297.33,78.27,297.33,79.36Z"/><path class="cls-3" d="M304.31,79.34c0,1.43-.33,2.77-1.79,2.77s-1.81-1.34-1.81-2.73.5-2.55,1.82-2.55S304.31,77.92,304.31,79.34Zm-2.67,0c0,1.16.21,2,.88,2s.86-.81.86-2-.23-1.82-.85-1.82S301.64,78.27,301.64,79.36Z"/><rect class="cls-2" x="263.13" y="90.24" width="23.08" height="1.99"/><path class="cls-3" d="M292.27,93.41v0c0-.93.43-1.59,1.61-2.52.62-.5.84-.69.84-1.19a.68.68,0,0,0-.74-.76c-.55,0-.76.36-.82.92h-.87A1.58,1.58,0,0,1,294,88.21a1.42,1.42,0,0,1,1.63,1.45c0,.75-.32,1.13-1.2,1.77a2.75,2.75,0,0,0-1.08,1.24h2.42l-.11.74Z"/><path class="cls-3" d="M300,90.72c0,1.43-.33,2.77-1.79,2.77s-1.8-1.34-1.8-2.73.49-2.55,1.81-2.55S300,89.3,300,90.72Zm-2.67,0c0,1.15.21,2,.88,2s.86-.82.86-2-.23-1.82-.85-1.82S297.29,89.64,297.29,90.74Z"/><path class="cls-3" d="M304.27,90.72c0,1.43-.33,2.77-1.79,2.77s-1.8-1.34-1.8-2.73.49-2.55,1.82-2.55S304.27,89.3,304.27,90.72Zm-2.66,0c0,1.15.2,2,.87,2s.86-.82.86-2-.22-1.82-.85-1.82S301.61,89.64,301.61,90.74Z"/><rect class="cls-2" x="263.13" y="101.62" width="23.08" height="1.99"/><path class="cls-3" d="M292.34,101A1.53,1.53,0,0,1,294,99.58c1,0,1.57.57,1.57,1.35a1,1,0,0,1-.68,1h0a1.26,1.26,0,0,1,.89,1.27,1.59,1.59,0,0,1-1.82,1.63,1.55,1.55,0,0,1-1.73-1.44h.91a.8.8,0,0,0,.87.74.78.78,0,0,0,.84-.89c0-.63-.39-.87-1-.87h-.36v-.73h.31c.53,0,.84-.18.84-.7a.64.64,0,0,0-.7-.71.74.74,0,0,0-.76.7Z"/><path class="cls-3" d="M300,102.1c0,1.43-.32,2.77-1.78,2.77s-1.81-1.34-1.81-2.73.5-2.56,1.82-2.56S300,100.68,300,102.1Zm-2.66,0c0,1.16.21,2,.88,2s.86-.82.86-2-.23-1.81-.86-1.81S297.33,101,297.33,102.11Z"/><path class="cls-3" d="M304.31,102.1c0,1.43-.33,2.77-1.79,2.77s-1.81-1.34-1.81-2.73.5-2.56,1.82-2.56S304.31,100.68,304.31,102.1Zm-2.67,0c0,1.16.21,2,.88,2s.86-.82.86-2-.23-1.81-.85-1.81S301.64,101,301.64,102.11Z"/><rect class="cls-2" x="263.13" y="113" width="23.08" height="1.99"/><path class="cls-3" d="M292.34,112.35A1.52,1.52,0,0,1,294,111c1,0,1.57.57,1.57,1.35a1,1,0,0,1-.68,1v0a1.26,1.26,0,0,1,.89,1.27c0,.85-.51,1.62-1.82,1.62a1.54,1.54,0,0,1-1.73-1.43h.91a.8.8,0,0,0,.87.74.78.78,0,0,0,.84-.89c0-.64-.39-.88-1-.88h-.36v-.72h.31c.53,0,.84-.18.84-.7a.63.63,0,0,0-.7-.71.73.73,0,0,0-.76.7Z"/><path class="cls-3" d="M300,113.48c0,1.43-.32,2.76-1.78,2.76s-1.81-1.33-1.81-2.73.5-2.55,1.82-2.55S300,112.05,300,113.48Zm-2.66,0c0,1.16.21,2,.88,2s.86-.81.86-2-.23-1.82-.86-1.82S297.33,112.4,297.33,113.49Z"/><path class="cls-3" d="M304.31,113.48c0,1.43-.33,2.76-1.79,2.76s-1.81-1.33-1.81-2.73.5-2.55,1.82-2.55S304.31,112.05,304.31,113.48Zm-2.67,0c0,1.16.21,2,.88,2s.86-.81.86-2-.23-1.82-.85-1.82S301.64,112.4,301.64,113.49Z"/><path class="cls-3" d="M290.23,135V135c0-.93.42-1.59,1.6-2.52.63-.5.84-.69.84-1.19a.68.68,0,0,0-.73-.76c-.55,0-.76.36-.82.92h-.87a1.58,1.58,0,0,1,1.72-1.61,1.42,1.42,0,0,1,1.62,1.45c0,.75-.32,1.13-1.19,1.77a2.73,2.73,0,0,0-1.08,1.24h2.42l-.12.75Z"/><path class="cls-3" d="M294.35,131.2a1.52,1.52,0,0,1,1.65-1.38c1,0,1.58.57,1.58,1.34a1.06,1.06,0,0,1-.68,1h0a1.28,1.28,0,0,1,.89,1.28A1.59,1.59,0,0,1,296,135.1a1.55,1.55,0,0,1-1.73-1.44h.9a.81.81,0,0,0,.87.74.78.78,0,0,0,.85-.89c0-.63-.39-.87-1-.87h-.36v-.73h.31c.53,0,.84-.18.84-.69a.64.64,0,0,0-.7-.71.74.74,0,0,0-.77.69Z"/><path class="cls-3" d="M302,132.33c0,1.43-.33,2.77-1.79,2.77s-1.8-1.34-1.8-2.73.49-2.55,1.82-2.55S302,130.91,302,132.33Zm-2.66,0c0,1.16.21,2,.87,2s.86-.82.86-2-.22-1.82-.85-1.82S299.34,131.25,299.34,132.35Z"/><path class="cls-3" d="M306.31,132.33c0,1.43-.33,2.77-1.79,2.77s-1.8-1.34-1.8-2.73.49-2.55,1.82-2.55S306.31,130.91,306.31,132.33Zm-2.66,0c0,1.16.21,2,.87,2s.86-.82.86-2-.22-1.82-.85-1.82S303.65,131.25,303.65,132.35Z"/><rect class="cls-2" x="263.13" y="124.37" width="43.24" height="1.99"/><path class="cls-2" d="M251.44,138.65h-2v-2.29h2Zm0-4.28h-2v-3h2Zm0-5h-2v-3h2Zm0-5h-2v-3h2Zm0-5h-2v-3h2Zm0-5h-2v-3h2Zm0-5h-2v-3h2Zm0-5h-2v-3h2Zm0-5h-2v-3h2Zm0-5h-2v-3h2Zm0-5h-2v-3h2Zm0-5h-2v-3h2Zm0-5h-2v-3h2Zm0-5h-2v-3h2Zm0-5h-2v-3h2Zm0-5h-2v-3h2Z"/><circle class="cls-4" cx="236.65" cy="51.23" r="11.38" transform="translate(33.09 182.34) rotate(-45)"/><path class="cls-2" d="M236.65,63.6A12.38,12.38,0,1,1,249,51.23,12.39,12.39,0,0,1,236.65,63.6Zm0-22.76A10.39,10.39,0,1,0,247,51.23,10.4,10.4,0,0,0,236.65,40.84Z"/><path class="cls-2" d="M238.33,48.57a2.13,2.13,0,0,0-1.53-.69,1,1,0,0,0-1.14,1c0,1.58,3.58,1.26,3.58,3.93a2.33,2.33,0,0,1-2,2.41v1.35h-1.06V55.31a4.14,4.14,0,0,1-2.28-1l.69-1a3.14,3.14,0,0,0,1.95.81c.86,0,1.28-.42,1.28-1.13,0-1.74-3.59-1.49-3.59-4a2.25,2.25,0,0,1,1.95-2.31V45.35h1.06v1.31a3.12,3.12,0,0,1,1.91,1Z"/><circle class="cls-4" cx="233.07" cy="12.38" r="11.38"/><path class="cls-2" d="M233.07,24.75a12.38,12.38,0,1,1,12.37-12.37A12.39,12.39,0,0,1,233.07,24.75Zm0-22.76a10.39,10.39,0,1,0,10.38,10.39A10.4,10.4,0,0,0,233.07,2Z"/><path class="cls-2" d="M234.75,9.72A2.13,2.13,0,0,0,233.22,9c-.71,0-1.15.36-1.15,1.05,0,1.58,3.59,1.26,3.59,3.93a2.33,2.33,0,0,1-2,2.41v1.35h-1.05V16.46a4.11,4.11,0,0,1-2.28-1l.69-1a3.09,3.09,0,0,0,1.95.81c.85,0,1.27-.42,1.27-1.13,0-1.74-3.58-1.49-3.58-4a2.24,2.24,0,0,1,1.95-2.31V6.5h1.05V7.81a3.07,3.07,0,0,1,1.91,1Z"/><rect class="cls-1" x="7.3" y="173.79" width="144.92" height="8.17"/><path class="cls-2" d="M153.22,183H6.31V172.79H153.22ZM8.3,181H151.22v-6.18H8.3Z"/><path class="cls-1" d="M145.3,173.79V91.23a3.07,3.07,0,0,0-3.07-3.07H17.29a3.06,3.06,0,0,0-3.06,3.07v82.56Z"/><path class="cls-2" d="M146.29,174.78H13.23V91.23a4.07,4.07,0,0,1,4.06-4.07H142.23a4.07,4.07,0,0,1,4.06,4.07Zm-131.07-2H144.3V91.23a2.08,2.08,0,0,0-2.07-2.08H17.29a2.08,2.08,0,0,0-2.07,2.08Z"/><rect class="cls-5" x="20.84" y="94.77" width="117.85" height="79.02"/><path class="cls-2" d="M139.68,174.78H19.84v-81H139.68Zm-117.85-2H137.69v-77H21.83Z"/><path class="cls-2" d="M41.61,159.06l-.78-1.83c45.76-19.36,66.61-47.11,71.91-55.16l1.67,1.1C109,111.33,87.88,139.48,41.61,159.06Z"/><path class="cls-2" d="M115.44,99.59a17.84,17.84,0,0,1-5.08,2.75l2.92.65,1.82,2.36A17.58,17.58,0,0,1,115.44,99.59Z"/><path class="cls-4" d="M63,149a2.7,2.7,0,1,1-2.7-2.7A2.7,2.7,0,0,1,63,149Z"/><path class="cls-2" d="M60.27,152.65A3.7,3.7,0,1,1,64,149,3.7,3.7,0,0,1,60.27,152.65Zm0-5.4a1.71,1.71,0,1,0,0,3.41,1.71,1.71,0,0,0,0-3.41Z"/><path class="cls-4" d="M82.37,136.59a2.7,2.7,0,1,1-2.7-2.7A2.7,2.7,0,0,1,82.37,136.59Z"/><path class="cls-2" d="M79.67,140.29a3.7,3.7,0,1,1,3.69-3.7A3.7,3.7,0,0,1,79.67,140.29Zm0-5.4a1.71,1.71,0,1,0,1.7,1.7A1.71,1.71,0,0,0,79.67,134.89Z"/><path class="cls-4" d="M98.13,124a2.71,2.71,0,1,1-2.71-2.7A2.7,2.7,0,0,1,98.13,124Z"/><path class="cls-2" d="M95.42,127.67a3.7,3.7,0,1,1,3.7-3.7A3.7,3.7,0,0,1,95.42,127.67Zm0-5.41A1.71,1.71,0,1,0,97.13,124,1.71,1.71,0,0,0,95.42,122.26Z"/><path class="cls-4" d="M110.66,110a2.7,2.7,0,1,1-2.7-2.7A2.7,2.7,0,0,1,110.66,110Z"/><path class="cls-2" d="M108,113.69a3.7,3.7,0,1,1,3.7-3.7A3.7,3.7,0,0,1,108,113.69Zm0-5.4a1.7,1.7,0,1,0,1.71,1.7A1.7,1.7,0,0,0,108,108.29Z"/><rect class="cls-2" x="41.81" y="162.18" width="1.99" height="6.64"/><rect class="cls-2" x="46.04" y="162.18" width="1.99" height="6.64"/><rect class="cls-2" x="50.28" y="160.31" width="1.99" height="8.51"/><rect class="cls-2" x="54.52" y="158.96" width="1.99" height="9.86"/><rect class="cls-2" x="58.75" y="158.96" width="1.99" height="9.86"/><rect class="cls-2" x="62.99" y="157.43" width="1.99" height="11.39"/><rect class="cls-2" x="67.22" y="154.38" width="1.99" height="14.44"/><rect class="cls-2" x="71.46" y="152.01" width="1.99" height="16.81"/><rect class="cls-2" x="75.69" y="148.62" width="1.99" height="20.2"/><rect class="cls-2" x="79.93" y="144.22" width="1.99" height="24.6"/><rect class="cls-2" x="84.17" y="140.49" width="1.99" height="28.33"/><rect class="cls-2" x="88.4" y="137.1" width="1.99" height="31.72"/><rect class="cls-2" x="92.64" y="135.41" width="1.99" height="33.41"/><rect class="cls-2" x="96.87" y="132.36" width="1.99" height="36.46"/><rect class="cls-2" x="101.11" y="128.29" width="1.99" height="40.53"/><rect class="cls-2" x="105.35" y="125.75" width="1.99" height="43.07"/><rect class="cls-2" x="109.58" y="120.16" width="1.99" height="48.66"/><rect class="cls-2" x="113.82" y="116.6" width="1.99" height="52.22"/><rect class="cls-2" x="118.05" y="110.84" width="1.99" height="57.98"/><path class="cls-4" d="M4.35,105.17v21.08A13.58,13.58,0,0,0,13.21,139l.47.15v4.81l-.47.15A13.56,13.56,0,0,0,4.35,156.8v21.08H31V156.8a13.56,13.56,0,0,0-8.86-12.72l-.39-.13v-4.86l.38-.12A13.57,13.57,0,0,0,31,126.25V105.17Z"/><path class="cls-2" d="M31,178.87H4.35a1,1,0,0,1-1-1V156.8a14.62,14.62,0,0,1,9.33-13.59v-3.38a14.6,14.6,0,0,1-9.33-13.58V105.17a1,1,0,0,1,1-1H31a1,1,0,0,1,1,1v21.08a14.61,14.61,0,0,1-9.24,13.55v3.44A14.62,14.62,0,0,1,32,156.8v21.08A1,1,0,0,1,31,178.87Zm-25.63-2H30V156.8A12.62,12.62,0,0,0,21.76,145l-.19-.06-.16,0a1,1,0,0,1-.69-1v-4.86a1,1,0,0,1,.68-.94l.18-.06.18-.06A12.61,12.61,0,0,0,30,126.25V106.17H5.34v20.08A12.62,12.62,0,0,0,13.56,138l.24.08.19.06a1,1,0,0,1,.69,1v4.81a1,1,0,0,1-.7.95l-.17.05-.26.08A12.63,12.63,0,0,0,5.34,156.8Z"/><rect class="cls-1" x="1" y="101.09" width="33.32" height="4.08"/><path class="cls-2" d="M35.32,106.17H0v-6.08H35.32ZM2,104.17H33.33v-2.08H2Z"/><rect class="cls-1" x="1" y="177.88" width="33.32" height="4.08"/><path class="cls-2" d="M35.32,183H0v-6.07H35.32ZM2,181H33.33v-2.09H2Z"/><path class="cls-1" d="M13.64,125.23a1.31,1.31,0,1,1-1.3-1.31A1.31,1.31,0,0,1,13.64,125.23Z"/><path class="cls-1" d="M18.56,125.23a1.31,1.31,0,1,1-1.31-1.31A1.31,1.31,0,0,1,18.56,125.23Z"/><path class="cls-1" d="M23.47,125.23a1.31,1.31,0,1,1-1.31-1.31A1.31,1.31,0,0,1,23.47,125.23Z"/><path class="cls-1" d="M18.56,134a1.31,1.31,0,1,1-1.31-1.31A1.31,1.31,0,0,1,18.56,134Z"/><path class="cls-1" d="M25.46,120.85a1.31,1.31,0,1,1-1.3-1.31A1.3,1.3,0,0,1,25.46,120.85Z"/><path class="cls-1" d="M11.65,120.85a1.31,1.31,0,1,1-1.31-1.31A1.3,1.3,0,0,1,11.65,120.85Z"/><path class="cls-1" d="M16.25,120.85a1.31,1.31,0,1,1-1.3-1.31A1.3,1.3,0,0,1,16.25,120.85Z"/><path class="cls-1" d="M20.86,120.85a1.31,1.31,0,1,1-1.3-1.31A1.3,1.3,0,0,1,20.86,120.85Z"/><path class="cls-1" d="M25.46,129.61a1.31,1.31,0,1,1-1.3-1.3A1.31,1.31,0,0,1,25.46,129.61Z"/><path class="cls-1" d="M11.65,129.61a1.31,1.31,0,1,1-1.31-1.3A1.31,1.31,0,0,1,11.65,129.61Z"/><path class="cls-1" d="M16.25,129.61a1.31,1.31,0,1,1-1.3-1.3A1.31,1.31,0,0,1,16.25,129.61Z"/><path class="cls-1" d="M20.86,129.61a1.31,1.31,0,1,1-1.3-1.3A1.31,1.31,0,0,1,20.86,129.61Z"/><path class="cls-1" d="M13.64,169.8a1.31,1.31,0,0,0-2.61,0,1.31,1.31,0,1,0,2.61,0Z"/><path class="cls-1" d="M18.56,169.8a1.31,1.31,0,1,0-1.31,1.31A1.31,1.31,0,0,0,18.56,169.8Z"/><path class="cls-1" d="M23.47,169.8a1.31,1.31,0,1,0-1.31,1.31A1.3,1.3,0,0,0,23.47,169.8Z"/><path class="cls-1" d="M18.56,161A1.31,1.31,0,1,0,16,161a1.31,1.31,0,0,0,2.61,0Z"/><path class="cls-1" d="M25.46,174.19a1.31,1.31,0,1,0-1.3,1.3A1.3,1.3,0,0,0,25.46,174.19Z"/><path class="cls-1" d="M11.65,174.19a1.31,1.31,0,1,0-1.31,1.3A1.3,1.3,0,0,0,11.65,174.19Z"/><path class="cls-1" d="M16.25,174.19a1.31,1.31,0,1,0-1.3,1.3A1.3,1.3,0,0,0,16.25,174.19Z"/><path class="cls-1" d="M20.86,174.19a1.31,1.31,0,1,0-1.3,1.3A1.31,1.31,0,0,0,20.86,174.19Z"/><path class="cls-1" d="M25.46,165.42a1.31,1.31,0,1,0-1.3,1.3A1.31,1.31,0,0,0,25.46,165.42Z"/><path class="cls-1" d="M11.65,165.42a1.31,1.31,0,1,0-1.31,1.3A1.31,1.31,0,0,0,11.65,165.42Z"/><path class="cls-1" d="M16.25,165.42a1.31,1.31,0,1,0-1.3,1.3A1.31,1.31,0,0,0,16.25,165.42Z"/><path class="cls-1" d="M20.86,165.42a1.31,1.31,0,1,0-1.3,1.3A1.31,1.31,0,0,0,20.86,165.42Z"/><rect class="cls-1" x="67.58" y="72.78" width="161.89" height="101.12"/><path class="cls-2" d="M230.46,174.9H66.58V71.78H230.46Zm-161.89-2h159.9V73.77H68.57Z"/><rect class="cls-1" x="67.58" y="64.72" width="161.89" height="8.05"/><path class="cls-2" d="M230.46,73.77H66.58v-10H230.46Zm-161.89-2h159.9V65.72H68.57Z"/><rect class="cls-1" x="67.58" y="173.9" width="161.89" height="8.05"/><path class="cls-2" d="M230.46,183H66.58v-10H230.46ZM68.57,181h159.9V174.9H68.57Z"/><path class="cls-4" d="M210.87,165.15H83.56V83.59H210.87Zm-125.31-2H208.88V85.59H85.56Z"/><rect class="cls-4" x="96.07" y="84.59" width="1.99" height="78.71"/><rect class="cls-4" x="108.57" y="84.59" width="1.99" height="79.57"/><rect class="cls-4" x="121.07" y="84.59" width="1.99" height="79.57"/><rect class="cls-4" x="133.58" y="84.59" width="1.99" height="79.57"/><rect class="cls-4" x="146.08" y="84.59" width="1.99" height="79.57"/><rect class="cls-4" x="158.58" y="84.59" width="1.99" height="79.57"/><rect class="cls-4" x="171.09" y="84.59" width="1.99" height="79.57"/><rect class="cls-4" x="183.59" y="84.59" width="1.99" height="79.57"/><rect class="cls-4" x="196.09" y="84.59" width="1.99" height="79.57"/><path class="cls-3" d="M98.28,132.87l-2-.22c.07-.68.17-1.36.28-2l2,.33Q98.39,131.91,98.28,132.87Zm.63-3.82L97,128.62c.14-.67.31-1.33.49-2l1.92.53C99.21,127.78,99.05,128.41,98.91,129.05ZM186,125.5c-.2-.6-.41-1.19-.63-1.78l1.86-.7c.24.61.46,1.24.66,1.86Zm-86.07-.2-1.89-.63q.33-1,.69-1.92l1.86.72Q100.26,124.37,99.94,125.3Zm84.71-3.37c-.27-.59-.54-1.18-.83-1.76l1.78-.89c.31.61.6,1.22.87,1.85Zm-83.3-.26-1.82-.81c.28-.62.57-1.24.88-1.84l1.78.9C101.89,120.5,101.61,121.08,101.35,121.67Zm81.56-3.22c-.32-.56-.65-1.12-1-1.67l1.69-1.06c.36.58.71,1.16,1,1.76Zm-79.8-.24-1.73-1c.34-.59.69-1.17,1.06-1.74l1.68,1.07C103.77,117.1,103.43,117.65,103.11,118.21Zm77.72-3c-.37-.53-.75-1-1.15-1.57l1.58-1.21c.42.53.82,1.08,1.21,1.64Zm-75.63-.22-1.62-1.15c.39-.56.8-1.1,1.22-1.64l1.57,1.23Q105.77,114.15,105.2,114.94Zm73.25-2.86c-.42-.49-.85-1-1.29-1.45l1.46-1.36c.46.49.91,1,1.35,1.52Zm-70.85-.2-1.51-1.3c.44-.51.9-1,1.36-1.51l1.45,1.37C108.46,110.91,108,111.39,107.6,111.88Zm68.19-2.65c-.46-.45-.94-.9-1.42-1.33l1.33-1.49c.51.46,1,.92,1.49,1.4Zm-65.52-.17-1.39-1.44q.74-.7,1.5-1.38l1.32,1.5C111.21,108.17,110.73,108.61,110.27,109.06Zm62.62-2.43c-.51-.41-1-.81-1.55-1.2l1.2-1.6c.54.41,1.08.83,1.6,1.26Zm-59.71-.15-1.25-1.55c.53-.42,1.06-.84,1.61-1.24l1.18,1.6C114.2,105.68,113.69,106.08,113.18,106.48Zm56.57-2.18c-.53-.37-1.08-.72-1.64-1.06l1-1.7c.58.36,1.15.73,1.72,1.11Zm-53.43-.13-1.12-1.65c.57-.38,1.14-.75,1.72-1.1l1,1.7C117.4,103.46,116.85,103.81,116.32,104.17Zm50.11-1.93c-.57-.31-1.14-.62-1.72-.92l.9-1.77c.6.3,1.2.62,1.79,1Zm-46.79-.1-1-1.75c.59-.32,1.19-.64,1.8-.94l.89,1.78C120.79,101.52,120.21,101.82,119.64,102.14ZM163,100.48c-.59-.27-1.19-.52-1.8-.77l.75-1.85c.63.26,1.26.53,1.87.81Zm-39.82-.09-.81-1.82c.61-.27,1.24-.54,1.87-.79l.74,1.85C124.32,99.87,123.73,100.13,123.13,100.39ZM159.33,99c-.61-.22-1.23-.43-1.85-.62l.59-1.91c.65.21,1.29.42,1.93.65Zm-32.57-.08-.67-1.88c.64-.22,1.29-.43,1.94-.63l.58,1.9Zm28.84-1.08c-.62-.17-1.26-.33-1.89-.47l.43-2c.67.15,1.32.31,2,.49Zm-25.11-.06L130,95.87c.65-.17,1.31-.33,2-.47l.43,1.94C131.75,97.48,131.12,97.64,130.49,97.8Zm21.3-.8c-.64-.12-1.28-.22-1.93-.31l.28-2q1,.15,2,.33ZM134.3,97,134,95c.67-.12,1.34-.22,2-.32l.27,2C135.58,96.75,134.94,96.85,134.3,97Zm13.62-.5c-.64-.07-1.29-.12-1.94-.16l.12-2c.68,0,1.35.09,2,.16Zm-9.75,0-.19-2c.67-.07,1.35-.12,2-.16l.11,2Q139.14,96.34,138.17,96.43Zm5.86-.21c-.65,0-1.31,0-2,0l0-2c.67,0,1.35,0,2,0Z"/><polygon class="cls-3" points="188.54 132.3 182.1 123.28 186.74 124.68 190.25 121.35 188.54 132.3"/><path class="cls-2" d="M93.59,132.38,97,135.83l3.4-3.4,1.16,1.16L98.2,137l3.5,3.5-1.16,1.16L97,138.14l-3.4,3.41-1.16-1.16,3.4-3.4-3.45-3.46Z"/><path class="cls-1" d="M186.45,139.05a3.93,3.93,0,1,1,3.93,3.93A3.94,3.94,0,0,1,186.45,139.05Z"/><path class="cls-2" d="M190.38,144a4.93,4.93,0,1,1,4.93-4.93A4.93,4.93,0,0,1,190.38,144Zm0-7.87a2.94,2.94,0,1,0,2.94,2.94A2.94,2.94,0,0,0,190.38,136.11Z"/><path class="cls-1" d="M165.35,132.5h-.06a1.23,1.23,0,0,0,.14-.52c0-2.42-7.59-4.37-16.94-4.37s-16.93,2-16.93,4.37v31.24c0,2.41,7.59,4.37,17,4.37s17-2,17-4.37Z"/><path class="cls-2" d="M148.52,168.58c-8.65,0-18-1.68-18-5.37V132c0-3.69,9.3-5.37,17.93-5.37s17.93,1.68,17.93,5.37a1.86,1.86,0,0,1-.07.52l.13,30.71C166.48,166.9,157.17,168.58,148.52,168.58Zm0-40c-10.51,0-15.94,2.37-15.94,3.38v31.24c0,1,5.44,3.37,16,3.37s16-2.36,16-3.37l-.13-29.73h-.62l.65-1.4a.3.3,0,0,0,0-.11C164.43,131,159,128.59,148.49,128.59Z"/><path class="cls-2" d="M148.49,137.33c-8.63,0-17.93-1.68-17.93-5.36s9.3-5.37,17.93-5.37,17.93,1.68,17.93,5.37S157.13,137.33,148.49,137.33Zm0-8.74c-10.51,0-15.94,2.37-15.94,3.38s5.43,3.37,15.94,3.37S164.43,133,164.43,132,159,128.59,148.49,128.59Z"/><path class="cls-2" d="M148.49,143.58c-8.63,0-17.93-1.68-17.93-5.36a1,1,0,1,1,2,0c0,1,5.43,3.37,15.94,3.37s15.94-2.36,15.94-3.37a1,1,0,1,1,2,0C166.42,141.9,157.13,143.58,148.49,143.58Z"/><path class="cls-2" d="M148.49,149.83c-8.63,0-17.93-1.68-17.93-5.37a1,1,0,0,1,2,0c0,1,5.43,3.38,15.94,3.38s15.94-2.37,15.94-3.38a1,1,0,0,1,2,0C166.42,148.15,157.13,149.83,148.49,149.83Z"/><path class="cls-2" d="M148.49,156.08c-8.63,0-17.93-1.68-17.93-5.37a1,1,0,1,1,2,0c0,1,5.43,3.38,15.94,3.38s15.94-2.37,15.94-3.38a1,1,0,1,1,2,0C166.42,154.4,157.13,156.08,148.49,156.08Z"/><path class="cls-2" d="M148.49,162.33c-8.63,0-17.93-1.68-17.93-5.37a1,1,0,1,1,2,0c0,1,5.43,3.37,15.94,3.37S164.43,158,164.43,157a1,1,0,1,1,2,0C166.42,160.65,157.13,162.33,148.49,162.33Z"/><path class="cls-2" d="M133.83,137.64a1,1,0,0,1-1-1v-2.36a1,1,0,0,1,2,0v2.36A1,1,0,0,1,133.83,137.64Z"/><path class="cls-2" d="M136.73,138.63a1,1,0,0,1-1-1v-2.36a1,1,0,0,1,2,0v2.36A1,1,0,0,1,136.73,138.63Z"/><path class="cls-2" d="M140.1,139.4a1,1,0,0,1-1-1v-2.36a1,1,0,1,1,2,0v2.36A1,1,0,0,1,140.1,139.4Z"/><path class="cls-2" d="M144.07,139.8a1,1,0,0,1-1-1v-2.36a1,1,0,1,1,2,0v2.36A1,1,0,0,1,144.07,139.8Z"/><path class="cls-2" d="M163.07,137.54a1,1,0,0,1-1-1v-2.36a1,1,0,1,1,2,0v2.36A1,1,0,0,1,163.07,137.54Z"/><path class="cls-2" d="M160.17,138.53a1,1,0,0,1-1-1v-2.36a1,1,0,0,1,2,0v2.36A1,1,0,0,1,160.17,138.53Z"/><path class="cls-2" d="M156.79,139.31a1,1,0,0,1-1-1V136a1,1,0,0,1,2,0v2.36A1,1,0,0,1,156.79,139.31Z"/><path class="cls-2" d="M152.82,139.71a1,1,0,0,1-1-1v-2.35a1,1,0,0,1,2,0v2.35A1,1,0,0,1,152.82,139.71Z"/><path class="cls-2" d="M148.49,140a1,1,0,0,1-1-1v-2.36a1,1,0,0,1,2,0V139A1,1,0,0,1,148.49,140Z"/><path class="cls-2" d="M133.83,143.93a1,1,0,0,1-1-1v-2.35a1,1,0,0,1,2,0v2.35A1,1,0,0,1,133.83,143.93Z"/><path class="cls-2" d="M136.73,144.92a1,1,0,0,1-1-1v-2.35a1,1,0,1,1,2,0v2.35A1,1,0,0,1,136.73,144.92Z"/><path class="cls-2" d="M140.1,145.69a1,1,0,0,1-1-1v-2.36a1,1,0,0,1,2,0v2.36A1,1,0,0,1,140.1,145.69Z"/><path class="cls-2" d="M144.07,146.1a1,1,0,0,1-1-1v-2.36a1,1,0,0,1,2,0v2.36A1,1,0,0,1,144.07,146.1Z"/><path class="cls-2" d="M163.07,143.84a1,1,0,0,1-1-1v-2.36a1,1,0,0,1,2,0v2.36A1,1,0,0,1,163.07,143.84Z"/><path class="cls-2" d="M160.17,144.82a1,1,0,0,1-1-1v-2.36a1,1,0,0,1,2,0v2.36A1,1,0,0,1,160.17,144.82Z"/><path class="cls-2" d="M156.79,145.6a1,1,0,0,1-1-1v-2.35a1,1,0,0,1,2,0v2.35A1,1,0,0,1,156.79,145.6Z"/><path class="cls-2" d="M152.82,146a1,1,0,0,1-1-1v-2.36a1,1,0,0,1,2,0V145A1,1,0,0,1,152.82,146Z"/><path class="cls-2" d="M148.49,146.29a1,1,0,0,1-1-1v-2.36a1,1,0,0,1,2,0v2.36A1,1,0,0,1,148.49,146.29Z"/><path class="cls-2" d="M133.83,150.22a1,1,0,0,1-1-1v-2.36a1,1,0,0,1,2,0v2.36A1,1,0,0,1,133.83,150.22Z"/><path class="cls-2" d="M136.73,151.21a1,1,0,0,1-1-1v-2.36a1,1,0,1,1,2,0v2.36A1,1,0,0,1,136.73,151.21Z"/><path class="cls-2" d="M140.1,152a1,1,0,0,1-1-1v-2.36a1,1,0,0,1,2,0V151A1,1,0,0,1,140.1,152Z"/><path class="cls-2" d="M144.07,152.39a1,1,0,0,1-1-1V149a1,1,0,1,1,2,0v2.35A1,1,0,0,1,144.07,152.39Z"/><path class="cls-2" d="M163.07,150.13a1,1,0,0,1-1-1v-2.35a1,1,0,1,1,2,0v2.35A1,1,0,0,1,163.07,150.13Z"/><path class="cls-2" d="M160.17,151.12a1,1,0,0,1-1-1v-2.36a1,1,0,0,1,2,0v2.36A1,1,0,0,1,160.17,151.12Z"/><path class="cls-2" d="M156.79,151.89a1,1,0,0,1-1-1v-2.36a1,1,0,0,1,2,0v2.36A1,1,0,0,1,156.79,151.89Z"/><path class="cls-2" d="M152.82,152.3a1,1,0,0,1-1-1v-2.36a1,1,0,0,1,2,0v2.36A1,1,0,0,1,152.82,152.3Z"/><path class="cls-2" d="M148.49,152.58a1,1,0,0,1-1-1v-2.35a1,1,0,0,1,2,0v2.35A1,1,0,0,1,148.49,152.58Z"/><path class="cls-2" d="M133.83,156.52a1,1,0,0,1-1-1v-2.36a1,1,0,0,1,2,0v2.36A1,1,0,0,1,133.83,156.52Z"/><path class="cls-2" d="M136.73,157.51a1,1,0,0,1-1-1v-2.36a1,1,0,0,1,2,0v2.36A1,1,0,0,1,136.73,157.51Z"/><path class="cls-2" d="M140.1,158.28a1,1,0,0,1-1-1v-2.35a1,1,0,1,1,2,0v2.35A1,1,0,0,1,140.1,158.28Z"/><path class="cls-2" d="M144.07,158.68a1,1,0,0,1-1-1v-2.36a1,1,0,1,1,2,0v2.36A1,1,0,0,1,144.07,158.68Z"/><path class="cls-2" d="M163.07,156.42a1,1,0,0,1-1-1v-2.36a1,1,0,1,1,2,0v2.36A1,1,0,0,1,163.07,156.42Z"/><path class="cls-2" d="M160.17,157.41a1,1,0,0,1-1-1v-2.35a1,1,0,0,1,2,0v2.35A1,1,0,0,1,160.17,157.41Z"/><path class="cls-2" d="M156.79,158.19a1,1,0,0,1-1-1v-2.36a1,1,0,0,1,2,0v2.36A1,1,0,0,1,156.79,158.19Z"/><path class="cls-2" d="M152.82,158.59a1,1,0,0,1-1-1v-2.35a1,1,0,0,1,2,0v2.35A1,1,0,0,1,152.82,158.59Z"/><path class="cls-2" d="M148.49,158.87a1,1,0,0,1-1-1v-2.36a1,1,0,1,1,2,0v2.36A1,1,0,0,1,148.49,158.87Z"/><path class="cls-2" d="M133.83,162.81a1,1,0,0,1-1-1v-2.35a1,1,0,0,1,2,0v2.35A1,1,0,0,1,133.83,162.81Z"/><path class="cls-2" d="M136.73,163.8a1,1,0,0,1-1-1v-2.36a1,1,0,0,1,2,0v2.36A1,1,0,0,1,136.73,163.8Z"/><path class="cls-2" d="M140.1,164.57a1,1,0,0,1-1-1v-2.36a1,1,0,1,1,2,0v2.36A1,1,0,0,1,140.1,164.57Z"/><path class="cls-2" d="M144.07,165a1,1,0,0,1-1-1v-2.36a1,1,0,0,1,2,0V164A1,1,0,0,1,144.07,165Z"/><path class="cls-2" d="M163.07,162.71a1,1,0,0,1-1-1v-2.36a1,1,0,1,1,2,0v2.36A1,1,0,0,1,163.07,162.71Z"/><path class="cls-2" d="M160.17,163.7a1,1,0,0,1-1-1v-2.36a1,1,0,0,1,2,0v2.36A1,1,0,0,1,160.17,163.7Z"/><path class="cls-2" d="M156.79,164.48a1,1,0,0,1-1-1v-2.35a1,1,0,0,1,2,0v2.35A1,1,0,0,1,156.79,164.48Z"/><path class="cls-2" d="M152.82,164.88a1,1,0,0,1-1-1v-2.35a1,1,0,0,1,2,0v2.35A1,1,0,0,1,152.82,164.88Z"/><path class="cls-2" d="M148.49,165.17a1,1,0,0,1-1-1v-2.36a1,1,0,0,1,2,0v2.36A1,1,0,0,1,148.49,165.17Z"/><circle class="cls-4" cx="194.79" cy="30.3" r="11.38" transform="translate(35.63 146.61) rotate(-45)"/><path class="cls-2" d="M194.79,42.67A12.38,12.38,0,1,1,207.17,30.3,12.39,12.39,0,0,1,194.79,42.67Zm0-22.76A10.39,10.39,0,1,0,205.17,30.3,10.39,10.39,0,0,0,194.79,19.91Z"/><path class="cls-2" d="M196.47,27.64a2.13,2.13,0,0,0-1.53-.69c-.71,0-1.15.36-1.15,1.05,0,1.58,3.59,1.26,3.59,3.93a2.33,2.33,0,0,1-2,2.41v1.35h-1.06V34.38a4.14,4.14,0,0,1-2.28-1l.69-1a3.2,3.2,0,0,0,1.95.81c.85,0,1.28-.42,1.28-1.13,0-1.74-3.59-1.49-3.59-4a2.25,2.25,0,0,1,1.95-2.31V24.42h1.06v1.31a3.12,3.12,0,0,1,1.91,1Z"/></g></g></svg>