<svg xmlns="http://www.w3.org/2000/svg" viewBox="0 0 330 231.5"><defs><style>.cls-1{fill:#fff;}.cls-2{fill:#2a3646;}.cls-3{fill:#d72a17;}.cls-4{fill:#c9c9c9;}.cls-5{fill:#065da4;}</style></defs><title>allocation</title><g id="圖層_2" data-name="圖層 2"><g id="text"><rect class="cls-1" x="193.23" y="34.95" width="65.81" height="19.8"/><path class="cls-2" d="M260.18,55.89H192.1V33.81h68.08Zm-65.81-2.28H257.9V36.09H194.37Z"/><rect class="cls-2" x="220.81" y="46.17" width="8.88" height="2.28"/><rect class="cls-2" x="220.81" y="41.26" width="8.88" height="2.28"/><rect class="cls-2" x="233.07" y="41.26" width="16.77" height="2.28"/><rect class="cls-2" x="233.07" y="46.17" width="16.77" height="2.28"/><path class="cls-3" d="M208,49.4a1.71,1.71,0,0,1-1.08-.38L198.26,42a1.71,1.71,0,0,1,2.16-2.65l7,5.7,7-14.35a1.7,1.7,0,1,1,3.07,1.48l-7.89,16.3a1.7,1.7,0,0,1-1.17.92A1.5,1.5,0,0,1,208,49.4Z"/><rect class="cls-1" x="193.23" y="5.26" width="65.81" height="19.8"/><path class="cls-2" d="M260.18,26.2H192.1V4.12h68.08Zm-65.81-2.28H257.9V6.4H194.37Z"/><rect class="cls-2" x="220.81" y="16.47" width="8.88" height="2.28"/><rect class="cls-2" x="220.81" y="11.57" width="8.88" height="2.28"/><rect class="cls-2" x="233.07" y="11.57" width="16.77" height="2.28"/><rect class="cls-2" x="233.07" y="16.47" width="16.77" height="2.28"/><path class="cls-3" d="M208,19.71a1.71,1.71,0,0,1-1.08-.38l-8.63-7.07a1.71,1.71,0,1,1,2.16-2.64l7,5.69,7-14.35a1.71,1.71,0,0,1,3.07,1.49l-7.89,16.3a1.7,1.7,0,0,1-1.17.92A1.5,1.5,0,0,1,208,19.71Z"/><path class="cls-4" d="M62.78,117.89v-6.74c0-7.63,17.17-13.76,24.77-13.85h0l-67.38-.05h0c-7.6.09-12.45,6.27-12.45,13.9v6.74Z"/><path class="cls-2" d="M63.92,119H6.58v-7.88c0-8.21,5.17-14.33,12.45-15v0h1.14l68.52.06v2.26l-1.13,0c-7.58.09-23.64,6.16-23.64,12.71ZM8.86,116.75H61.64v-5.6c0-5.66,7.56-10.18,15-12.73l-56.15,0h-.27c-6.66.08-11.32,5.33-11.32,12.77Z"/><path class="cls-1" d="M100.25,189.44V111.15a13.9,13.9,0,0,0-13.74-13.9h-66c7.6.09,11.33,6.27,11.33,13.9v78.29A17.54,17.54,0,0,0,49.35,207h63.8v-.64A17.53,17.53,0,0,1,100.25,189.44Z"/><path class="cls-2" d="M113.15,208.12H49.35a18.7,18.7,0,0,1-18.68-18.68V111.15c0-6.11-2.68-12.68-10.2-12.77a1.13,1.13,0,0,1-1.13-1.13,1.15,1.15,0,0,1,1.14-1.15H86.63a15.1,15.1,0,0,1,14.76,15v78.29a16.44,16.44,0,0,0,12.06,15.82,1.13,1.13,0,0,1,.83,1.09V207a1.13,1.13,0,0,1-1.13,1.14ZM27.57,98.38c3.4,2.52,5.38,7,5.38,12.77v78.29a16.42,16.42,0,0,0,16.4,16.4h59.51a18.76,18.76,0,0,1-9.75-16.41V111.15A12.81,12.81,0,0,0,86.5,98.38H27.57Z"/><path class="cls-1" d="M60.75,191.45v1.63c0,7.62-4.87,13.81-12.48,13.9h67.18a13.91,13.91,0,0,0,13.74-13.9v-1.63Z"/><path class="cls-2" d="M115.45,208.12H48.27a1.14,1.14,0,0,1,0-2.28c6.68-.08,11.35-5.32,11.35-12.76v-1.63a1.14,1.14,0,0,1,1.14-1.14h68.44a1.14,1.14,0,0,1,1.14,1.14v1.63a15.11,15.11,0,0,1-14.77,15Zm-59.76-2.27h59.74a12.81,12.81,0,0,0,12.62-12.76v-.49H61.89v.49C61.89,198.64,59.5,203.25,55.69,205.85Z"/><path class="cls-2" d="M82.8,127.27H47.58v-6.85H82.8ZM49.86,125H80.52v-2.31H49.86Z"/><path class="cls-2" d="M87.74,143.59H44.22a2.88,2.88,0,0,1-2.88-2.88V116.23a2.88,2.88,0,0,1,2.88-2.88H87.74a2.89,2.89,0,0,1,2.89,2.88v24.48A2.89,2.89,0,0,1,87.74,143.59Zm-43.52-28a.61.61,0,0,0-.61.6v24.48a.62.62,0,0,0,.61.61H87.74a.61.61,0,0,0,.61-.61V116.23a.6.6,0,0,0-.61-.6Z"/><rect class="cls-2" x="48.58" y="117.55" width="10.12" height="2.28"/><path class="cls-2" d="M63.85,138H47.58v-6.86H63.85Zm-14-2.28H61.57v-2.31H49.86Z"/><path class="cls-2" d="M81.8,138H65.53v-6.86H81.8Zm-14-2.28H79.52v-2.31H67.81Z"/><rect class="cls-2" x="48.58" y="128.24" width="10.12" height="2.28"/><rect class="cls-2" x="65.96" y="128.24" width="10.12" height="2.28"/><rect class="cls-2" x="72.45" y="151.33" width="17.04" height="2.28"/><rect class="cls-2" x="53.43" y="151.33" width="14.04" height="2.28"/><rect class="cls-2" x="75.45" y="156.57" width="14.04" height="2.28"/><rect class="cls-2" x="43.44" y="156.57" width="27.03" height="2.28"/><rect class="cls-2" x="72.45" y="163.33" width="17.04" height="2.28"/><rect class="cls-2" x="53.43" y="163.33" width="14.04" height="2.28"/><rect class="cls-2" x="75.45" y="168.57" width="14.04" height="2.28"/><rect class="cls-2" x="43.44" y="168.57" width="27.03" height="2.28"/><rect class="cls-1" x="66.15" y="212.07" width="165.45" height="9.33"/><path class="cls-2" d="M232.74,222.54H65v-11.6H232.74ZM67.29,220.26H230.46v-7H67.29Z"/><path class="cls-1" d="M223.69,212.07V117.81a3.5,3.5,0,0,0-3.5-3.5H77.56a3.5,3.5,0,0,0-3.5,3.5v94.26Z"/><path class="cls-2" d="M224.83,213.21H72.92v-95.4a4.65,4.65,0,0,1,4.64-4.64H220.19a4.65,4.65,0,0,1,4.64,4.64ZM75.19,210.94H222.56V117.81a2.37,2.37,0,0,0-2.37-2.36H77.56a2.37,2.37,0,0,0-2.37,2.36Z"/><rect class="cls-4" x="81.6" y="121.86" width="134.55" height="90.22"/><path class="cls-2" d="M217.29,213.21H80.46V120.72H217.29ZM82.74,210.94H215V123H82.74Z"/><path class="cls-2" d="M105.31,195.26l-.88-2.09c52.24-22.11,76-53.79,82.1-63l1.9,1.25C182.29,140.77,158.14,172.91,105.31,195.26Z"/><path class="cls-2" d="M189.6,127.37a20.27,20.27,0,0,1-5.79,3.13l3.33.74,2.08,2.7A20.31,20.31,0,0,1,189.6,127.37Z"/><path class="cls-4" d="M129.7,183.72a3.09,3.09,0,1,1-3.08-3.08A3.08,3.08,0,0,1,129.7,183.72Z"/><path class="cls-2" d="M126.62,188a4.23,4.23,0,1,1,4.22-4.23A4.23,4.23,0,0,1,126.62,188Zm0-6.17a1.95,1.95,0,1,0,1.94,1.94A2,2,0,0,0,126.62,181.78Z"/><path class="cls-4" d="M151.85,169.61a3.09,3.09,0,1,1-3.08-3.09A3.08,3.08,0,0,1,151.85,169.61Z"/><path class="cls-2" d="M148.77,173.83a4.22,4.22,0,1,1,4.22-4.22A4.22,4.22,0,0,1,148.77,173.83Zm0-6.17a1.95,1.95,0,1,0,1.94,2A1.95,1.95,0,0,0,148.77,167.66Z"/><path class="cls-4" d="M169.84,155.2a3.09,3.09,0,1,1-3.08-3.09A3.08,3.08,0,0,1,169.84,155.2Z"/><path class="cls-2" d="M166.76,159.42A4.22,4.22,0,1,1,171,155.2,4.23,4.23,0,0,1,166.76,159.42Zm0-6.17a1.95,1.95,0,1,0,1.94,1.95A1.95,1.95,0,0,0,166.76,153.25Z"/><path class="cls-4" d="M184.15,139.24a3.08,3.08,0,1,1-3.08-3.09A3.08,3.08,0,0,1,184.15,139.24Z"/><path class="cls-2" d="M181.07,143.46a4.22,4.22,0,1,1,4.22-4.22A4.23,4.23,0,0,1,181.07,143.46Zm0-6.17a1.95,1.95,0,1,0,2,2A1.94,1.94,0,0,0,181.07,137.29Z"/><rect class="cls-2" x="105.54" y="198.82" width="2.28" height="7.58"/><rect class="cls-2" x="110.38" y="198.82" width="2.28" height="7.58"/><rect class="cls-2" x="115.22" y="196.69" width="2.28" height="9.71"/><rect class="cls-2" x="120.05" y="195.14" width="2.28" height="11.26"/><rect class="cls-2" x="124.89" y="195.14" width="2.28" height="11.26"/><rect class="cls-2" x="129.72" y="193.4" width="2.28" height="13"/><rect class="cls-2" x="134.56" y="189.92" width="2.28" height="16.48"/><rect class="cls-2" x="139.4" y="187.21" width="2.28" height="19.19"/><rect class="cls-2" x="144.23" y="183.34" width="2.28" height="23.06"/><rect class="cls-2" x="149.07" y="178.31" width="2.28" height="28.09"/><rect class="cls-2" x="153.9" y="174.06" width="2.28" height="32.34"/><rect class="cls-2" x="158.74" y="170.19" width="2.28" height="36.21"/><rect class="cls-2" x="163.58" y="168.25" width="2.28" height="38.15"/><rect class="cls-2" x="168.41" y="164.77" width="2.28" height="41.63"/><rect class="cls-2" x="173.25" y="160.13" width="2.28" height="46.27"/><rect class="cls-2" x="178.08" y="157.23" width="2.28" height="49.17"/><rect class="cls-2" x="182.92" y="150.84" width="2.28" height="55.56"/><rect class="cls-2" x="187.76" y="146.78" width="2.28" height="59.62"/><rect class="cls-2" x="192.59" y="140.2" width="2.28" height="66.2"/><rect class="cls-1" x="17.3" y="186.36" width="67.16" height="35.04" rx="2.51"/><path class="cls-2" d="M81.6,222.54H20.16a4,4,0,0,1-4-4V189.22a4,4,0,0,1,4-4H81.6a4,4,0,0,1,4,4v29.32A4,4,0,0,1,81.6,222.54Zm-61.44-35a1.72,1.72,0,0,0-1.72,1.72v29.32a1.72,1.72,0,0,0,1.72,1.72H81.6a1.72,1.72,0,0,0,1.72-1.72V189.22a1.72,1.72,0,0,0-1.72-1.72Z"/><rect class="cls-1" x="17.3" y="195.05" width="67.16" height="5.84"/><path class="cls-2" d="M85.6,202H16.16v-8.12H85.6Zm-67.16-2.28H83.32v-3.56H18.44Z"/><path class="cls-1" d="M46.68,206.59H67.47"/><rect class="cls-2" x="46.68" y="205.45" width="20.78" height="2.28"/><path class="cls-1" d="M21.59,206.59h22.3"/><rect class="cls-2" x="21.6" y="205.45" width="22.29" height="2.28"/><line class="cls-1" x1="21.59" y1="211.59" x2="37.32" y2="211.59"/><rect class="cls-2" x="21.6" y="210.45" width="15.73" height="2.28"/><line class="cls-1" x1="39.17" y1="211.59" x2="47.76" y2="211.59"/><rect class="cls-2" x="39.17" y="210.45" width="8.6" height="2.28"/><line class="cls-1" x1="21.59" y1="214.99" x2="37.32" y2="214.99"/><rect class="cls-2" x="21.6" y="213.85" width="15.73" height="2.28"/><line class="cls-1" x1="39.17" y1="214.99" x2="47.76" y2="214.99"/><rect class="cls-2" x="39.17" y="213.85" width="8.6" height="2.28"/><line class="cls-1" x1="49.5" y1="211.59" x2="58.1" y2="211.59"/><rect class="cls-2" x="49.5" y="210.45" width="8.6" height="2.28"/><path class="cls-4" d="M70.74,133.73V157.8a15.48,15.48,0,0,0,10.12,14.52l.54.17V178l-.54.17a15.49,15.49,0,0,0-10.12,14.53v24.06h30.39V192.68A15.48,15.48,0,0,0,91,178.15l-.44-.14v-5.55l.43-.14a15.46,15.46,0,0,0,10.12-14.52V133.73Z"/><path class="cls-2" d="M101.13,217.88H70.74a1.14,1.14,0,0,1-1.14-1.14V192.68a16.7,16.7,0,0,1,10.66-15.52v-3.85A16.7,16.7,0,0,1,69.6,157.8V133.73a1.13,1.13,0,0,1,1.14-1.13h30.39a1.13,1.13,0,0,1,1.14,1.13V157.8a16.68,16.68,0,0,1-10.56,15.47v3.93a16.69,16.69,0,0,1,10.56,15.48v24.06A1.14,1.14,0,0,1,101.13,217.88ZM71.88,215.6H100V192.68a14.39,14.39,0,0,0-9.37-13.46l-.21-.07-.19-.06a1.13,1.13,0,0,1-.78-1.08v-5.55a1.14,1.14,0,0,1,.78-1.08l.2-.06.2-.07A14.38,14.38,0,0,0,100,157.8V134.87H71.88V157.8a14.39,14.39,0,0,0,9.38,13.45l.27.09.22.07a1.14,1.14,0,0,1,.79,1.08V178a1.15,1.15,0,0,1-.8,1.09l-.19.06-.3.09a14.41,14.41,0,0,0-9.37,13.46Z"/><rect class="cls-1" x="66.92" y="129.08" width="38.05" height="4.66"/><path class="cls-2" d="M106.1,134.87H65.78v-6.93H106.1Zm-38-2.27h35.77v-2.39H68.05Z"/><rect class="cls-1" x="66.92" y="216.74" width="38.05" height="4.66"/><path class="cls-2" d="M106.1,222.54H65.78V215.6H106.1Zm-38-2.28h35.77v-2.38H68.05Z"/><path class="cls-1" d="M81.35,156.64a1.49,1.49,0,1,1-1.49-1.5A1.49,1.49,0,0,1,81.35,156.64Z"/><path class="cls-1" d="M87,156.64a1.49,1.49,0,1,1-1.49-1.5A1.49,1.49,0,0,1,87,156.64Z"/><path class="cls-1" d="M92.57,156.64a1.49,1.49,0,1,1-1.49-1.5A1.49,1.49,0,0,1,92.57,156.64Z"/><path class="cls-1" d="M87,166.65a1.49,1.49,0,0,1-3,0,1.49,1.49,0,1,1,3,0Z"/><path class="cls-1" d="M94.85,151.63a1.49,1.49,0,1,1-1.49-1.49A1.48,1.48,0,0,1,94.85,151.63Z"/><path class="cls-1" d="M79.08,151.63a1.49,1.49,0,1,1-1.49-1.49A1.49,1.49,0,0,1,79.08,151.63Z"/><path class="cls-1" d="M84.33,151.63a1.49,1.49,0,1,1-1.49-1.49A1.48,1.48,0,0,1,84.33,151.63Z"/><path class="cls-1" d="M89.59,151.63a1.49,1.49,0,1,1-1.49-1.49A1.49,1.49,0,0,1,89.59,151.63Z"/><path class="cls-1" d="M94.85,161.64a1.49,1.49,0,1,1-1.49-1.49A1.49,1.49,0,0,1,94.85,161.64Z"/><path class="cls-1" d="M79.08,161.64a1.49,1.49,0,1,1-1.49-1.49A1.49,1.49,0,0,1,79.08,161.64Z"/><path class="cls-1" d="M84.33,161.64a1.49,1.49,0,1,1-1.49-1.49A1.49,1.49,0,0,1,84.33,161.64Z"/><path class="cls-1" d="M89.59,161.64a1.49,1.49,0,1,1-1.49-1.49A1.49,1.49,0,0,1,89.59,161.64Z"/><path class="cls-1" d="M81.35,207.52A1.49,1.49,0,1,0,79.86,209,1.49,1.49,0,0,0,81.35,207.52Z"/><path class="cls-1" d="M87,207.52A1.49,1.49,0,1,0,85.47,209,1.49,1.49,0,0,0,87,207.52Z"/><path class="cls-1" d="M92.57,207.52A1.49,1.49,0,1,0,91.08,209,1.49,1.49,0,0,0,92.57,207.52Z"/><path class="cls-1" d="M87,197.52A1.49,1.49,0,1,0,85.47,199,1.49,1.49,0,0,0,87,197.52Z"/><path class="cls-1" d="M94.85,212.53A1.49,1.49,0,1,0,93.36,214,1.48,1.48,0,0,0,94.85,212.53Z"/><path class="cls-1" d="M79.08,212.53A1.49,1.49,0,1,0,77.59,214,1.49,1.49,0,0,0,79.08,212.53Z"/><path class="cls-1" d="M84.33,212.53A1.49,1.49,0,1,0,82.84,214,1.48,1.48,0,0,0,84.33,212.53Z"/><path class="cls-1" d="M89.59,212.53A1.49,1.49,0,1,0,88.1,214,1.49,1.49,0,0,0,89.59,212.53Z"/><path class="cls-1" d="M94.85,202.52A1.49,1.49,0,1,0,93.36,204,1.49,1.49,0,0,0,94.85,202.52Z"/><path class="cls-1" d="M79.08,202.52A1.49,1.49,0,1,0,77.59,204,1.49,1.49,0,0,0,79.08,202.52Z"/><path class="cls-1" d="M84.33,202.52A1.49,1.49,0,1,0,82.84,204,1.49,1.49,0,0,0,84.33,202.52Z"/><path class="cls-1" d="M89.59,202.52A1.49,1.49,0,1,0,88.1,204,1.49,1.49,0,0,0,89.59,202.52Z"/><rect class="cls-1" x="148" y="70.17" width="168.04" height="110.9"/><rect class="cls-1" x="140.86" y="62.77" width="184.85" height="127.5"/><path class="cls-2" d="M326.84,191.41H139.72V61.64H326.84ZM142,189.14H324.57V63.91H142Z"/><rect class="cls-1" x="140.86" y="62.77" width="184.85" height="127.5"/><path class="cls-2" d="M326.84,191.41H139.72V61.64H326.84ZM142,189.14H324.57V63.91H142Z"/><rect class="cls-1" x="149.06" y="70.98" width="168.43" height="111.08"/><path class="cls-2" d="M317.5,183.2H149.06a1.13,1.13,0,0,1-1.13-1.13V71a1.13,1.13,0,0,1,1.13-1.13H317.5A1.13,1.13,0,0,1,318.63,71V182.07A1.13,1.13,0,0,1,317.5,183.2Zm-167.3-2.27H316.36V72.12H150.2Z"/><polygon class="cls-1" points="257.83 213.55 211.7 213.55 219.09 190.02 250.44 190.02 257.83 213.55"/><path class="cls-2" d="M259.38,214.69H210.15l8.11-25.81h33Zm-46.13-2.28h43l-6.67-21.25H219.93Z"/><rect class="cls-1" x="203.55" y="213.55" width="62.43" height="7.85"/><path class="cls-2" d="M267.12,222.54H202.41V212.41h64.71Zm-62.43-2.28h60.15v-5.57H204.69Z"/><path class="cls-4" d="M303.24,172.17H162.66V82.08H303.24Zm-138.3-2.28H301V84.35h-136Z"/><rect class="cls-4" x="176.46" y="83.22" width="2.28" height="87.82"/><rect class="cls-4" x="190.26" y="83.22" width="2.28" height="87.82"/><rect class="cls-4" x="204.06" y="83.22" width="2.28" height="87.82"/><rect class="cls-4" x="217.86" y="83.22" width="2.28" height="87.82"/><rect class="cls-4" x="231.66" y="83.22" width="2.28" height="87.82"/><rect class="cls-4" x="245.45" y="83.22" width="2.28" height="87.82"/><rect class="cls-4" x="259.25" y="83.22" width="2.28" height="87.82"/><rect class="cls-4" x="273.05" y="83.22" width="2.28" height="87.82"/><rect class="cls-4" x="286.85" y="83.22" width="2.28" height="87.82"/><rect class="cls-4" x="173.65" y="148.74" width="8.13" height="21.15"/><rect class="cls-4" x="187.33" y="137.37" width="8.13" height="32.53"/><rect class="cls-4" x="201.02" y="133.95" width="8.13" height="35.94"/><rect class="cls-4" x="214.7" y="125.99" width="8.13" height="43.91"/><rect class="cls-4" x="228.38" y="137.37" width="8.13" height="32.53"/><rect class="cls-4" x="242.07" y="114.61" width="8.13" height="55.29"/><rect class="cls-4" x="255.75" y="111.19" width="8.13" height="58.7"/><rect class="cls-4" x="269.43" y="114.61" width="8.13" height="55.29"/><rect class="cls-4" x="283.12" y="97.54" width="8.13" height="72.36"/><polygon class="cls-3" points="164.67 171.84 163.36 169.99 177.35 160.08 191.49 153.71 204.82 151.52 219.45 128.06 233.28 154.38 246.17 125.43 260.58 117.19 274.28 116.47 287.73 104.06 301.81 82.69 303.71 83.94 289.37 105.64 275.22 118.7 261.24 119.43 247.95 127.03 233.45 159.6 219.28 132.63 206.21 153.6 192 155.93 178.39 162.11 164.67 171.84"/><rect class="cls-4" x="167.92" y="111.19" width="17.35" height="8.09"/><path class="cls-1" d="M172.05,114.46v1.33h1.3v.61h-1.3v1.33h-.61V116.4h-1.3v-.61h1.3v-1.33Z"/><path class="cls-1" d="M174.46,117.77v-3.69c-.17,0-.49.09-.66.12v-.58a1.52,1.52,0,0,0,.86-.45h.6v4.6Z"/><path class="cls-1" d="M176.07,117.77v0c0-.83.38-1.42,1.44-2.25.55-.44.75-.62.75-1.06a.62.62,0,0,0-.66-.68c-.49,0-.68.32-.73.82h-.78a1.41,1.41,0,0,1,1.54-1.44,1.27,1.27,0,0,1,1.45,1.3c0,.66-.29,1-1.07,1.58a2.4,2.4,0,0,0-1,1.1h2.16l-.1.67Z"/><path class="cls-1" d="M182.55,113.86h-1.87c0,.3-.1.92-.14,1.12a1.24,1.24,0,0,1,.86-.29,1.33,1.33,0,0,1,1.38,1.5,1.49,1.49,0,0,1-1.61,1.65,1.38,1.38,0,0,1-1.51-1.28h.8a.71.71,0,0,0,.73.65c.51,0,.76-.33.76-1s-.24-.9-.75-.9a.74.74,0,0,0-.78.52l-.68-.12c.07-.58.26-1.91.31-2.55h2.6Z"/><rect class="cls-4" x="196.4" y="98.87" width="17.35" height="8.09"/><path class="cls-1" d="M199.4,102.14v1.32h1.3v.61h-1.3v1.33h-.61v-1.33h-1.3v-.61h1.3v-1.32Z"/><path class="cls-1" d="M201.34,102a1.34,1.34,0,0,1,1.47-1.24c.93,0,1.41.51,1.41,1.21a.93.93,0,0,1-.61.91h0a1.14,1.14,0,0,1,.79,1.14,1.41,1.41,0,0,1-1.62,1.45,1.38,1.38,0,0,1-1.55-1.28H202a.72.72,0,0,0,.78.66c.54,0,.75-.33.75-.8s-.34-.78-.87-.78h-.32v-.65h.27c.48,0,.76-.16.76-.62a.57.57,0,0,0-.63-.63.66.66,0,0,0-.68.62Z"/><path class="cls-1" d="M208.16,103c0,1.28-.29,2.47-1.59,2.47s-1.62-1.19-1.62-2.44.45-2.28,1.63-2.28S208.16,101.77,208.16,103Zm-2.38,0c0,1,.19,1.83.79,1.83s.76-.73.76-1.83-.2-1.62-.76-1.62S205.78,102.08,205.78,103.05Z"/><path class="cls-1" d="M212,103c0,1.28-.29,2.47-1.6,2.47s-1.61-1.19-1.61-2.44.44-2.28,1.63-2.28S212,101.77,212,103Zm-2.38,0c0,1,.19,1.83.78,1.83s.77-.73.77-1.83-.2-1.62-.76-1.62S209.63,102.08,209.63,103.05Z"/><rect class="cls-4" x="223.77" y="96.9" width="17.35" height="8.09"/><path class="cls-1" d="M228.76,100.83v.67h-1.69v-.67Z"/><path class="cls-1" d="M232.26,99.56h-1.87c0,.31-.11.92-.14,1.12a1.27,1.27,0,0,1,.86-.29,1.33,1.33,0,0,1,1.38,1.5,1.5,1.5,0,0,1-1.62,1.65,1.37,1.37,0,0,1-1.5-1.28h.8a.69.69,0,0,0,.73.65c.51,0,.75-.32.75-1s-.24-.9-.74-.9a.73.73,0,0,0-.78.51l-.69-.11c.08-.59.26-1.92.32-2.56h2.6Z"/><path class="cls-1" d="M236.3,101.07c0,1.28-.3,2.47-1.6,2.47s-1.61-1.19-1.61-2.44.44-2.28,1.62-2.28S236.3,99.8,236.3,101.07Zm-2.38,0c0,1,.18,1.83.78,1.83s.77-.73.77-1.83-.2-1.62-.76-1.62S233.92,100.11,233.92,101.08Z"/><rect class="cls-4" x="251.48" y="91.22" width="17.35" height="8.09"/><path class="cls-1" d="M256.76,94.49v1.32h1.29v.61h-1.29v1.33h-.61V96.42h-1.3v-.61h1.3V94.49Z"/><path class="cls-1" d="M258.46,97.79v0c0-.83.39-1.41,1.44-2.25.56-.44.75-.61.75-1.06a.61.61,0,0,0-.65-.68c-.5,0-.69.32-.74.83h-.78A1.42,1.42,0,0,1,260,93.14a1.27,1.27,0,0,1,1.45,1.3c0,.67-.28,1-1.07,1.58a2.36,2.36,0,0,0-1,1.11h2.16l-.1.66Z"/><path class="cls-1" d="M265.33,95.39c0,1.27-.3,2.47-1.6,2.47s-1.61-1.2-1.61-2.44.44-2.28,1.62-2.28S265.33,94.12,265.33,95.39Zm-2.38,0c0,1,.18,1.83.78,1.83s.77-.73.77-1.83-.2-1.62-.76-1.62S263,94.42,263,95.4Z"/><polygon class="cls-1" points="104.05 25.22 104.05 100.6 182.49 100.6 182.49 29.99 173.44 25.22 104.05 25.22"/><path class="cls-2" d="M182.49,101.74H104.05a1.14,1.14,0,0,1-1.14-1.14V25.22a1.14,1.14,0,0,1,1.14-1.14h69.39a1.22,1.22,0,0,1,.53.13L183,29a1.14,1.14,0,0,1,.6,1V100.6A1.14,1.14,0,0,1,182.49,101.74Zm-77.3-2.27h76.16V30.67l-8.19-4.31h-68Z"/><polygon class="cls-1" points="173.44 25.22 182.49 29.99 174.97 32.25 173.44 25.22"/><path class="cls-2" d="M175,33.39a1.1,1.1,0,0,1-.58-.16,1.17,1.17,0,0,1-.54-.74l-1.52-7a1.14,1.14,0,0,1,.42-1.15,1.17,1.17,0,0,1,1.22-.1L183,29a1.14,1.14,0,0,1-.21,2.1l-7.52,2.26A1.13,1.13,0,0,1,175,33.39Zm.1-6,.75,3.45,3.68-1.11Z"/><rect class="cls-2" x="153.04" y="81.38" width="18.29" height="2.28"/><rect class="cls-2" x="159.7" y="86.11" width="11.64" height="2.28"/><rect class="cls-2" x="112.4" y="45.18" width="58.93" height="2.28"/><path class="cls-2" d="M171.34,54.11h-2.28V51.84h2.28Zm-4.56,0H144V51.84h22.75Zm-25,0h-2.27V51.84h2.27Zm-25,0h-2.28V51.84h2.28Z"/><path class="cls-2" d="M171.34,60.77h-2.28V58.49h2.28Zm-4.56,0H144V58.49h22.75Zm-25,0h-2.27V58.49h2.27Zm-25,0h-2.28V58.49h2.28Z"/><path class="cls-2" d="M171.34,67.43h-2.28V65.15h2.28Zm-4.56,0H144V65.15h22.75Zm-25,0h-2.27V65.15h2.27Zm-25,0h-2.28V65.15h2.28Z"/><path class="cls-2" d="M171.34,74.08h-2.28V71.81h2.28Zm-4.56,0H144V71.81h22.75Zm-25,0h-2.27V71.81h2.27Zm-25,0h-2.28V71.81h2.28Z"/><path class="cls-3" d="M129.26,39.56V33.4h1.6c1.83,3.75,2.13,4.37,2.22,4.66h0c-.07-.74-.07-1.74-.07-2.75V33.4h1.15v6.16h-1.54c-2-4.12-2.19-4.62-2.28-4.85h0c.05.78.05,1.84.05,2.95v1.9Z"/><path class="cls-3" d="M139.47,36.87h-2.68v1.66h3l-.16,1h-4V33.4h4v1h-2.79v1.39h2.68Z"/><path class="cls-3" d="M141.69,39.56l-1.45-6.16h1.34c.31,1.52.7,3.57.83,4.74h0c.22-1.15.77-3.25,1.11-4.74h1.13c.29,1.19.86,3.51,1.05,4.68h0c.2-1.38.75-3.72.93-4.68h1.23l-1.55,6.16H145c-.3-1.37-.79-3.28-1-4.38h0c-.22,1.12-.73,3.16-1,4.38Z"/><path class="cls-3" d="M149.52,37.75a1,1,0,0,0,1.11.92c.7,0,1-.3,1-.74s-.34-.79-1.23-1c-1.43-.39-1.92-.9-1.92-1.79,0-1.15.92-1.77,2.09-1.77,1.48,0,2.1.77,2.17,1.76h-1.23a.85.85,0,0,0-1-.8c-.56,0-.83.26-.83.69s.32.58,1.19.83c1.57.46,2,1.09,2,2s-.67,1.87-2.28,1.87a2,2,0,0,1-2.29-1.9Z"/><rect class="cls-3" x="114.21" y="51.87" width="7.97" height="23.04"/><rect class="cls-3" x="126.45" y="51.87" width="7.97" height="23.04"/><path class="cls-1" d="M36,184.82A4.42,4.42,0,0,1,34,180.87c.05-.88,7-20.56,3.72-22.46a1.7,1.7,0,0,0-1.78,0l-.45.28a1.92,1.92,0,0,1-2,0l-2.33-1.45a1.73,1.73,0,0,0-1.81,0L27,158.71a1.92,1.92,0,0,1-2,0l-2.33-1.45a1.73,1.73,0,0,0-1.81,0l-2.33,1.45a1.92,1.92,0,0,1-2,0l-.46-.28a1.7,1.7,0,0,0-1.78,0c-3.25,1.91,3.68,21.58,3.72,22.46a4.42,4.42,0,0,1-2.05,3.95c-7,4.43-14.7,12.06-14.7,20.75a24.8,24.8,0,0,0,49.59,0C50.73,196.88,43.06,189.25,36,184.82Z"/><path class="cls-2" d="M25.94,231.5A26,26,0,0,1,0,205.57c0-11.24,11.66-19.46,15.23-21.71a3.27,3.27,0,0,0,1.52-2.93c0-.12-.33-1.13-.63-2.11-4.31-14.14-5-19.94-2.52-21.39a2.84,2.84,0,0,1,3,0l.46.28a.77.77,0,0,0,.84,0l2.33-1.44a2.82,2.82,0,0,1,3,0l2.33,1.44a.8.8,0,0,0,.84,0l2.33-1.44a2.82,2.82,0,0,1,3,0L34,157.74a.77.77,0,0,0,.84,0l.45-.28a2.86,2.86,0,0,1,3,0c2.46,1.45,1.77,7.24-2.53,21.38-.29,1-.6,2-.64,2.21a3.25,3.25,0,0,0,1.53,2.84h0c3.57,2.25,15.23,10.47,15.23,21.71A26,26,0,0,1,25.94,231.5ZM15.05,159.31a.52.52,0,0,0-.3.08c-.51.44-1.21,3.16,3.55,18.77a17.7,17.7,0,0,1,.73,2.66,5.54,5.54,0,0,1-2.58,5c-3.33,2.1-14.17,9.72-14.17,19.79a23.66,23.66,0,0,0,47.32,0c0-10.07-10.85-17.69-14.17-19.79a5.54,5.54,0,0,1-2.58-5,15.23,15.23,0,0,1,.73-2.67c4.74-15.58,4.05-18.32,3.53-18.77a.59.59,0,0,0-.59,0l-.45.29a3.05,3.05,0,0,1-3.24,0l-2.33-1.45a.56.56,0,0,0-.61,0l-2.33,1.45a3.05,3.05,0,0,1-3.24,0L22,158.23a.6.6,0,0,0-.61,0l-2.33,1.45a3.05,3.05,0,0,1-3.24,0l-.46-.29A.64.64,0,0,0,15.05,159.31Z"/><rect class="cls-4" x="13.1" y="177.1" width="25.68" height="4.7" rx="1.85"/><path class="cls-2" d="M36.67,182.93H15.2A3.24,3.24,0,0,1,12,179.69v-.49A3.25,3.25,0,0,1,15.2,176H36.67a3.25,3.25,0,0,1,3.24,3.24v.49A3.24,3.24,0,0,1,36.67,182.93ZM15.2,178.24a1,1,0,0,0-1,1v.49a1,1,0,0,0,1,1H36.67a1,1,0,0,0,1-1v-.49a1,1,0,0,0-1-1Z"/><path class="cls-2" d="M30,200.68a4.74,4.74,0,0,0-3.47-1.59,2.28,2.28,0,0,0-2.6,2.4c0,3.59,8.14,2.87,8.14,8.91a5.3,5.3,0,0,1-4.64,5.48V219H25v-3a9.24,9.24,0,0,1-5.18-2.27l1.56-2.33a7.21,7.21,0,0,0,4.43,1.85c1.94,0,2.9-1,2.9-2.57,0-3.95-8.14-3.38-8.14-9A5.09,5.09,0,0,1,25,196.4v-3.05H27.4v3a7,7,0,0,1,4.34,2.33Z"/><path class="cls-5" d="M285.88,39a24.57,24.57,0,1,0,40.46,26.5l-22.63-9.62Z"/><path class="cls-3" d="M303.71,31.31A24.48,24.48,0,0,0,285.88,39l17.83,16.88,22.63,9.62a24.6,24.6,0,0,0-22.63-34.2Z"/><path class="cls-2" d="M303.71,29.6A26.29,26.29,0,1,0,330,55.89,26.31,26.31,0,0,0,303.71,29.6Zm22.88,26.29a22.63,22.63,0,0,1-1.2,7.25l-20.76-8.73L288.16,39.16a22.85,22.85,0,0,1,38.43,16.73ZM303.71,78.76a22.84,22.84,0,0,1-17.87-37.1l16.91,15.66,21.31,9A22.87,22.87,0,0,1,303.71,78.76Z"/></g></g></svg>