<svg xmlns="http://www.w3.org/2000/svg" viewBox="0 0 283.26 350"><defs><style>.cls-1,.cls-4{fill:#fff;}.cls-2{fill:#cc234b;}.cls-3{opacity:0.1;}.cls-4{font-size:20px;font-family:MicrosoftJhengHeiRegular, Microsoft JhengHei;letter-spacing:-0.05em;}</style></defs><title>flow6</title><g id="圖層_2" data-name="圖層 2"><g id="text"><polygon class="cls-1" points="270.94 175 230 215.94 230 228.26 283.26 175 230 121.74 230 134.06 270.94 175"/><path class="cls-2" d="M230,215.94,270.94,175,230,134.06V17A17,17,0,0,0,213,0H17A17,17,0,0,0,0,17V333a17,17,0,0,0,17,17H213a17,17,0,0,0,17-17V215.94Z"/><g class="cls-3"><path class="cls-1" d="M152,275.42a62.86,62.86,0,0,1-2,17,37.67,37.67,0,0,1-5.47,12,22.82,22.82,0,0,1-8,7.1,20.21,20.21,0,0,1-9.42,2.34,15.31,15.31,0,0,1-6.83-1.55,15,15,0,0,1-5.43-4.67,23.69,23.69,0,0,1-3.57-7.77A41.07,41.07,0,0,1,110,289,62.76,62.76,0,0,1,112,272a38.1,38.1,0,0,1,5.47-12,23,23,0,0,1,7.93-7.13,19.94,19.94,0,0,1,9.44-2.37,14.68,14.68,0,0,1,12.24,6.22,23.48,23.48,0,0,1,3.59,7.8A41.2,41.2,0,0,1,152,275.42Zm-4.2-.22a38.89,38.89,0,0,0-1-9.52,20.45,20.45,0,0,0-2.85-6.62,12,12,0,0,0-4.25-3.87,11.08,11.08,0,0,0-5.23-1.27,15.51,15.51,0,0,0-7.56,2,18.74,18.74,0,0,0-6.48,6.31,36.39,36.39,0,0,0-4.53,10.95,64.77,64.77,0,0,0-1.71,15.94,38.78,38.78,0,0,0,1,9.55,20.2,20.2,0,0,0,2.85,6.63,11.8,11.8,0,0,0,4.24,3.86,11.33,11.33,0,0,0,5.24,1.24,15.45,15.45,0,0,0,7.55-2,18.84,18.84,0,0,0,6.49-6.28,36.15,36.15,0,0,0,4.53-10.93A65,65,0,0,0,147.8,275.2Z"/><path class="cls-1" d="M176.09,275.38c-.94,1.11-1.8,2.17-2.59,3.19s-1.51,2-2.19,2.94a20,20,0,0,1,6-3.92,18.08,18.08,0,0,1,7.1-1.42,15.85,15.85,0,0,1,6.07,1.13,13.5,13.5,0,0,1,4.68,3.22,14.45,14.45,0,0,1,3,5,18.59,18.59,0,0,1,1.08,6.48,22.84,22.84,0,0,1-1.65,8.78,21,21,0,0,1-4.51,6.92,20.22,20.22,0,0,1-6.79,4.53,21.92,21.92,0,0,1-8.47,1.62,17.11,17.11,0,0,1-6.53-1.18,13.56,13.56,0,0,1-4.92-3.41,15.24,15.24,0,0,1-3.13-5.44,22,22,0,0,1-1.1-7.18,22.8,22.8,0,0,1,.57-5.08,27.24,27.24,0,0,1,1.75-5.12,40.54,40.54,0,0,1,3-5.43q1.84-2.8,4.38-6l18.31-22.82a2.34,2.34,0,0,1,1-.75,3.41,3.41,0,0,1,1.32-.26H196Zm2.1,35.12a17.19,17.19,0,0,0,6.94-1.36,15.78,15.78,0,0,0,5.37-3.76,17.12,17.12,0,0,0,3.46-5.7,20.37,20.37,0,0,0,1.22-7.13,16.59,16.59,0,0,0-.85-5.48,11.7,11.7,0,0,0-2.45-4.16,11,11,0,0,0-3.88-2.65,13.14,13.14,0,0,0-5.08-.94,15.85,15.85,0,0,0-6.92,1.49,16.68,16.68,0,0,0-5.32,4,18.34,18.34,0,0,0-3.44,5.63,18.26,18.26,0,0,0-.42,11.91,12.64,12.64,0,0,0,2.37,4.32,10.78,10.78,0,0,0,3.83,2.84A12.36,12.36,0,0,0,178.19,310.5Z"/></g><path class="cls-1" d="M91.37,76.53h-16a1.55,1.55,0,0,0-1.48,1.62V95.5a1.55,1.55,0,0,0,1.48,1.61h16a1.55,1.55,0,0,0,1.48-1.61V78.15A1.55,1.55,0,0,0,91.37,76.53ZM89.88,93.88h-13V79.76h13Z"/><path class="cls-1" d="M114.7,76.53h-16a1.56,1.56,0,0,0-1.48,1.62V95.5a1.55,1.55,0,0,0,1.48,1.61h16a1.55,1.55,0,0,0,1.49-1.61V78.15A1.56,1.56,0,0,0,114.7,76.53Zm-1.48,17.35h-13V79.76h13Z"/><path class="cls-1" d="M122.06,97.11H129a1.62,1.62,0,0,0,0-3.23h-5.45V79.76h13v6a1.49,1.49,0,1,0,3,0V78.15A1.56,1.56,0,0,0,138,76.53h-16a1.56,1.56,0,0,0-1.49,1.62V95.5A1.55,1.55,0,0,0,122.06,97.11Z"/><path class="cls-1" d="M91.37,105h-16a1.55,1.55,0,0,0-1.48,1.61V124a1.55,1.55,0,0,0,1.48,1.61h16A1.55,1.55,0,0,0,92.85,124V106.6A1.55,1.55,0,0,0,91.37,105Zm-1.49,17.35h-13V108.22h13Z"/><path class="cls-1" d="M114.7,105h-16a1.55,1.55,0,0,0-1.48,1.61V124a1.55,1.55,0,0,0,1.48,1.61h16a1.55,1.55,0,0,0,1.49-1.61V106.6A1.55,1.55,0,0,0,114.7,105Zm-1.48,17.35h-13V108.22h13Z"/><path class="cls-1" d="M129.74,125.57a1.62,1.62,0,0,0,0-3.23h-6.2V108.22h.34a1.62,1.62,0,0,0,0-3.23h-1.82a1.55,1.55,0,0,0-1.49,1.61V124a1.55,1.55,0,0,0,1.49,1.61Z"/><path class="cls-1" d="M162.37,119.56a14.84,14.84,0,0,0-5.89-4.7,55.32,55.32,0,0,0-7.55-2.51c-2-.55-3.6-1-4.69-1.45a5.49,5.49,0,0,1-2-1.2,1.11,1.11,0,0,1-.3-.9,2.19,2.19,0,0,1,.9-1.92,5.81,5.81,0,0,1,3.67-1,9.57,9.57,0,0,1,3.84.65,21.07,21.07,0,0,1,3.11,1.72,2.54,2.54,0,0,0,3.55-.83l4.21-6.65a3.14,3.14,0,0,0,.41-2.21,2.86,2.86,0,0,0-1.14-1.83A24.67,24.67,0,0,0,152.42,93V90.51a2.77,2.77,0,0,0-2.64-2.88h-1.35v-22c0-4.4-3.3-8-7.34-8h-1V54.84a4.47,4.47,0,1,0-8.91,0v2.78h-5.58V54.84a4.47,4.47,0,1,0-8.91,0v2.78h-5.57V54.84a4.47,4.47,0,1,0-8.91,0v2.78H96.68V54.84a4.47,4.47,0,1,0-8.91,0v2.78H82.2V54.84a4.47,4.47,0,1,0-8.91,0v2.78h-1c-4,0-7.34,3.57-7.34,8v68.12c0,4.39,3.29,8,7.34,8h59.19a24.92,24.92,0,0,0,3.89,1.86,26.87,26.87,0,0,0,4.68,1.32v2.27a2.77,2.77,0,0,0,2.65,2.87H150a2.77,2.77,0,0,0,2.64-2.87v-2.67a17.67,17.67,0,0,0,8.28-5,15.67,15.67,0,0,0,4.12-11A14.39,14.39,0,0,0,162.37,119.56ZM134.2,54.84a1.49,1.49,0,1,1,3,0v9.49a1.49,1.49,0,1,1-3,0Zm-14.49,0a1.49,1.49,0,1,1,3,0v9.49a1.49,1.49,0,1,1-3,0Zm-14.48,0a1.49,1.49,0,1,1,3,0v9.49a1.49,1.49,0,1,1-3,0Zm-14.49,0a1.49,1.49,0,1,1,3,0v9.49a1.49,1.49,0,1,1-3,0Zm-14.48,0a1.49,1.49,0,1,1,3,0v9.49a1.49,1.49,0,1,1-3,0ZM68,133.71V65.59a4.58,4.58,0,0,1,4.37-4.75h1v3.49a4.47,4.47,0,1,0,8.91,0V60.84h5.57v3.49a4.47,4.47,0,1,0,8.91,0V60.84h5.58v3.49a4.47,4.47,0,1,0,8.91,0V60.84h5.57v3.49a4.47,4.47,0,1,0,8.91,0V60.84h5.58v3.49a4.47,4.47,0,1,0,8.91,0V60.84h1a4.57,4.57,0,0,1,4.36,4.75v22h-2.89a2.77,2.77,0,0,0-2.64,2.88v2.67a18,18,0,0,0-8.34,5.14,16,16,0,0,0-4.24,11.14,14.43,14.43,0,0,0,2.7,9.05,15.15,15.15,0,0,0,6,4.76,61.73,61.73,0,0,0,7.64,2.59c2,.61,3.59,1.11,4.59,1.47a5.46,5.46,0,0,1,1.88,1.1.61.61,0,0,1,.21.53,2,2,0,0,1-.82,1.85,6.91,6.91,0,0,1-4.06,1,14.48,14.48,0,0,1-4.48-.7,20,20,0,0,1-3.84-1.78,2.52,2.52,0,0,0-3.46.9l-4.16,6.7a3,3,0,0,0-.45,1.56H72.34A4.57,4.57,0,0,1,68,133.71Zm90.81,3.49a15,15,0,0,1-7.55,4.31l-1.6.4v4.86h-6.56v-4.69l-1.76-.28a25,25,0,0,1-4.91-1.3,21.81,21.81,0,0,1-4.18-2.11l3.8-6.12a22.72,22.72,0,0,0,4.15,1.89,17.3,17.3,0,0,0,5.34.84,9.44,9.44,0,0,0,5.76-1.55,5.36,5.36,0,0,0,2.09-4.49,3.9,3.9,0,0,0-1.24-3,8.24,8.24,0,0,0-2.88-1.72c-1.05-.38-2.65-.89-4.77-1.53a57.9,57.9,0,0,1-7.3-2.47,12.16,12.16,0,0,1-4.86-3.83,11.24,11.24,0,0,1-2-7,12.77,12.77,0,0,1,3.38-8.87,15.27,15.27,0,0,1,7.62-4.46l1.58-.41V90.86h6.56V95.6l1.66.35a21.52,21.52,0,0,1,7.49,3.28l-3.85,6.08a23.94,23.94,0,0,0-3.28-1.79,12.51,12.51,0,0,0-4.94-.88,8.47,8.47,0,0,0-5.43,1.65A5.51,5.51,0,0,0,139,108.8a4.44,4.44,0,0,0,1.26,3.27,8.38,8.38,0,0,0,3,1.88c1.17.44,2.83,1,4.94,1.53a51.17,51.17,0,0,1,7.17,2.38,11.75,11.75,0,0,1,4.7,3.76,11.14,11.14,0,0,1,1.95,6.89A12.39,12.39,0,0,1,158.78,137.2Z"/><text class="cls-4" transform="translate(47.93 186.64)">系統每日監控，<tspan x="-9.5" y="30">定時調整資產配置</tspan></text></g></g></svg>