<svg xmlns="http://www.w3.org/2000/svg" viewBox="0 0 660 241.98"><defs><style>.cls-1{fill:#fff;}.cls-2{fill:#cc234b;}.cls-3{opacity:0.1;}</style></defs><title>flow6-min</title><g id="圖層_2" data-name="圖層 2"><g id="架構"><polygon class="cls-1" points="123.74 227.84 75.91 180 61.76 180 123.74 241.98 185.72 180 171.57 180 123.74 227.84"/><path class="cls-2" d="M631.72,0H28.28A28.28,28.28,0,0,0,0,28.28V151.72A28.28,28.28,0,0,0,28.28,180H75.91l47.83,47.83L171.58,180H631.72A28.28,28.28,0,0,0,660,151.72V28.28A28.28,28.28,0,0,0,631.72,0Z"/><g class="cls-3"><path class="cls-1" d="M549.85,82.22q0,15.7-3.28,27.31a60.52,60.52,0,0,1-8.8,19.26A36.76,36.76,0,0,1,525,140.19,32.46,32.46,0,0,1,509.86,144a24.58,24.58,0,0,1-11-2.5,23.93,23.93,0,0,1-8.73-7.5,38.2,38.2,0,0,1-5.73-12.49,65.66,65.66,0,0,1-2.08-17.5,101.1,101.1,0,0,1,3.27-27.24,61.34,61.34,0,0,1,8.8-19.29A37.09,37.09,0,0,1,507.15,46a32,32,0,0,1,15.17-3.8,23.69,23.69,0,0,1,19.68,10,37.86,37.86,0,0,1,5.77,12.53A66.52,66.52,0,0,1,549.85,82.22Zm-6.76-.35a62.28,62.28,0,0,0-1.65-15.31,32.73,32.73,0,0,0-4.58-10.63A19.23,19.23,0,0,0,530,49.7a17.89,17.89,0,0,0-8.41-2,24.9,24.9,0,0,0-12.14,3.23A30,30,0,0,0,499.06,61a58.32,58.32,0,0,0-7.29,17.6A104.3,104.3,0,0,0,489,104.26a62.71,62.71,0,0,0,1.65,15.34,32.66,32.66,0,0,0,4.58,10.67,18.89,18.89,0,0,0,6.82,6.19,18.15,18.15,0,0,0,8.42,2,24.86,24.86,0,0,0,12.14-3.24,30.23,30.23,0,0,0,10.42-10.1,58.05,58.05,0,0,0,7.28-17.57A104.49,104.49,0,0,0,543.09,81.87Z"/><path class="cls-1" d="M588.56,82.15c-1.5,1.78-2.88,3.5-4.15,5.14S582,90.5,580.89,92a31.77,31.77,0,0,1,9.64-6.3,29,29,0,0,1,11.41-2.29,25.2,25.2,0,0,1,9.75,1.83,21.5,21.5,0,0,1,7.53,5.17,23.39,23.39,0,0,1,4.86,8.06,30.17,30.17,0,0,1,1.72,10.42A36.81,36.81,0,0,1,623.16,123a34.09,34.09,0,0,1-7.25,11.13A32.48,32.48,0,0,1,605,141.42,35.23,35.23,0,0,1,591.38,144a27.62,27.62,0,0,1-10.49-1.9,21.7,21.7,0,0,1-7.92-5.49,24.68,24.68,0,0,1-5-8.73,35.37,35.37,0,0,1-1.76-11.55,36.52,36.52,0,0,1,.91-8.16,43.73,43.73,0,0,1,2.82-8.24,62.93,62.93,0,0,1,4.85-8.73q3-4.5,7-9.64l29.43-36.68a3.61,3.61,0,0,1,1.55-1.19,5.17,5.17,0,0,1,2.11-.43h5.7Zm3.38,56.46a27.88,27.88,0,0,0,11.16-2.18,25.48,25.48,0,0,0,8.62-6.06,27.18,27.18,0,0,0,5.56-9.15,32.4,32.4,0,0,0,2-11.47,26.51,26.51,0,0,0-1.37-8.8,18.54,18.54,0,0,0-3.94-6.69A17.64,17.64,0,0,0,607.71,90a21.16,21.16,0,0,0-8.17-1.51,25.35,25.35,0,0,0-11.12,2.39,27,27,0,0,0-8.55,6.37,29.61,29.61,0,0,0-5.53,9,29.13,29.13,0,0,0-.67,19.14,20,20,0,0,0,3.81,6.94,17.27,17.27,0,0,0,6.15,4.57A19.86,19.86,0,0,0,591.94,138.61Z"/></g><path class="cls-1" d="M216.51,69a36.42,36.42,0,0,1-11.39,6.25l-1.33-1.78q7.77-2.87,11-5.84Zm21.13-3.08-1.8,1.21A33.32,33.32,0,0,0,233.48,64q-7.77.83-10.76,1.08V75.17a2.08,2.08,0,0,1-.59,1.49,2.64,2.64,0,0,1-1.31.76,15.22,15.22,0,0,1-2.67.16c-.73,0-1.41,0-2-.06l-.88-2.11c.74,0,1.51.06,2.32.06a18.76,18.76,0,0,0,2.52-.1c.31-.07.47-.37.47-.92v-9.2q-8.79.54-13.24.7l-.63-1.75a112.79,112.79,0,0,0,14.4-6.43q-6.93.4-12.37.55l-.52-1.47a42.93,42.93,0,0,0,14.49-8.28l2,1.15a45.75,45.75,0,0,1-10,6.45l3.74-.17c1.19-.06,2.36-.13,3.51-.22a18.08,18.08,0,0,0,3.65-.49,59.39,59.39,0,0,0,5-3.5l1.85,1.29Q226,58,213.15,63.77q9.69-.36,18.73-1.53a34.18,34.18,0,0,0-3-2.91l1.8-1.21A45.2,45.2,0,0,1,237.64,65.88ZM225.43,43.57q-5.58,5.06-16.79,8L207,49.72q11.16-2.41,16.61-7.32Zm13.21,30-1.37,1.72A46.3,46.3,0,0,0,227.19,69l1.37-1.68A51,51,0,0,1,238.64,73.57Z"/><path class="cls-1" d="M248.19,68.08a39.94,39.94,0,0,1-2.43,9.4l-1.89-.69a37.54,37.54,0,0,0,2.36-9.2Zm9.64-2.48-1.83.65a17.06,17.06,0,0,0-.65-2.33,103.12,103.12,0,0,1-10.56,2.76l-.59-1.84A62.22,62.22,0,0,0,252.07,55c-2.11.44-4.46.83-7.07,1.17l-.52-1.89a42.39,42.39,0,0,0,6.6-11.76l1.87.68a40.77,40.77,0,0,1-5.84,10.72,48.58,48.58,0,0,0,6.29-1.15,22.86,22.86,0,0,0,1.6-3l1.84.8A61.46,61.46,0,0,1,247.68,64a51,51,0,0,0,7-2c-.27-.78-.61-1.61-1-2.48l1.8-.76A35.63,35.63,0,0,1,257.83,65.6Zm-4.72,10.2-2,.41A30.06,30.06,0,0,0,249.79,68l2-.31A50.55,50.55,0,0,1,253.11,75.8Zm4.57-3.17-1.88.61a36.45,36.45,0,0,0-1.6-5.68L256,67A35.53,35.53,0,0,1,257.68,72.63ZM278.6,49.12H266.35a50.09,50.09,0,0,1-5.35,9,106.69,106.69,0,0,0,12.52-1.33,34,34,0,0,0-3-3.71L272.31,52a52.36,52.36,0,0,1,5.88,8.36l-1.68,1.23a22.26,22.26,0,0,0-1.84-3l-3.71.59V74.08c0,.59.31.88.92.88h2.83a1.27,1.27,0,0,0,.92-.35,5.62,5.62,0,0,0,.59-2.44,46.16,46.16,0,0,0,.29-4.73l2,.72a26.61,26.61,0,0,1-.61,6.16,3.38,3.38,0,0,1-1.49,2.16,7.83,7.83,0,0,1-3.33.51,6.48,6.48,0,0,1-3.26-.57,2.36,2.36,0,0,1-.88-2.15V59.41c-2.22.26-3.59.39-4.12.39q0,12-7.44,17.79L256,76.17a18,18,0,0,0,5-6.3A23.78,23.78,0,0,0,262.8,60c-.67.1-2.13.18-4.4.25L258,58.43a33.45,33.45,0,0,0,6.21-9.31h-6.77V47.17h7.69c.46-1,1.08-2.61,1.88-4.73l2,.6c-.68,1.85-1.24,3.23-1.68,4.13H278.6Z"/><path class="cls-1" d="M318.15,47.89H291.23A33.79,33.79,0,0,1,285,53.81l-1.48-1.57a31.08,31.08,0,0,0,9-10l2,.8a30.42,30.42,0,0,1-1.71,2.84h25.35Zm.41,15.39h-4.2l-.65,7.64h4.69V73h-4.88q-.45,4.64-4.85,4.63h-3.43l-.92-2h4.84c1.29,0,2-.86,2.23-2.6H287.15q.81-3.45,1.68-9.72h-5.27v-2h5.52c.32-2.06.66-5.21,1-9.44h24.51q0,2.32-.19,9.44h4.12Zm-6.37,0H290.92q-.44,3.77-1.21,7.64H311.6Zm.33-9.36H292c-.13,2-.39,4.46-.8,7.37h21.08C312.45,58.51,312.52,56.06,312.52,53.92Zm-7,14.32L304.32,70a36.25,36.25,0,0,0-7.72-3.68l1.27-1.83A47,47,0,0,1,305.51,68.24Zm-.16-9.81-1.15,1.78A31.08,31.08,0,0,0,296.92,57l1.23-1.8A36.84,36.84,0,0,1,305.35,58.43Z"/><path class="cls-1" d="M354.24,77.73H352V74.2H330.88v3.53h-2.32V43.53h25.68ZM352,57.59V45.68H330.88V57.59Zm0,14.46V59.72H330.88V72.05Z"/><path class="cls-1" d="M398.64,76.6H363.91v-2h4.32V64.92h26v9.65h4.36ZM383.07,45.45h-7.68v3.32H381V56.4h-5.57V60h7.21v2h-17V43.49h17.4Zm-9.63,3.32V45.45h-5.68v3.32Zm5.47,5.72V50.72H367.76v3.77ZM373.44,60V56.4h-5.68V60Zm2.79,14.61V67h-6v7.6Zm8,0V67h-6v7.6Zm14.24-24.32H387.39a23.57,23.57,0,0,1-3.6,5l-1.64-1.33q3.83-3.75,6.33-11.52l1.95.64a31.75,31.75,0,0,1-2.07,5.24h10.16Zm-1,9H384.83v-2h12.73Zm-5.41,15.3V67h-5.84v7.6Z"/><path class="cls-1" d="M415.67,60q-2.7,1.2-4.44,1.89V74.37a3.19,3.19,0,0,1-.85,2.55c-.56.48-1.73.71-3.5.71-.56,0-1.16,0-1.8,0l-.68-2.1c.83.05,1.61.07,2.32.07a4.21,4.21,0,0,0,2-.29,1.09,1.09,0,0,0,.44-1V62.85q-1.95.8-4.8,1.8l-.69-2.09q2.61-.84,5.49-2V51.68h-5.25v-2h5.25V42.59h2.07v7.09H415v2h-3.81v8c1.67-.67,3-1.26,4.09-1.75Zm23,16.85H415v-2h11.27v-9.2h-9.51V63.65h21.39v2.07h-9.83v9.2h10.39Zm0-16.85h-6.16c-2,0-3-1-3-2.95V49h-3.89q-.51,8.41-7.27,12.48l-1.48-1.6Q423,56.55,423.44,49h-4.88v4.73h-2.05V47h9.8a28,28,0,0,0-2-3.69l1.87-.8A20.88,20.88,0,0,1,428.52,47h9.59v6.83h-2V49h-4.69v7.81c0,.77.43,1.15,1.29,1.15h5.92Z"/><path class="cls-1" d="M460.69,63.81a2.24,2.24,0,0,1-1.45-1.94,1.83,1.83,0,0,1,.49-1.16,1.68,1.68,0,0,1,1.39-.6c1.25,0,1.87.82,1.87,2.47q0,2-2.36,3.88l-.84-.64A3.65,3.65,0,0,0,460.69,63.81Z"/><path class="cls-1" d="M238.67,134.72l-.48,2.07q-3.81.11-5.94.1a57.56,57.56,0,0,1-10-.67,17.42,17.42,0,0,1-6.49-2.56,13.76,13.76,0,0,1-4.43-4.66,36.23,36.23,0,0,1-6.23,8.59l-1.64-1.54a31.66,31.66,0,0,0,8.63-16.17l2.17.23a57.81,57.81,0,0,1-1.93,6.49,12.72,12.72,0,0,0,8.61,7.09V116.4H208.91v-2.13h25v2.13H223.15v6.72H236v2H223.15v9a115.84,115.84,0,0,0,11.72.58C236.13,134.78,237.4,134.76,238.67,134.72Zm-1.23-19.8h-2.09v-6.11H207.44v6.07h-2.16v-8.13h15a19.37,19.37,0,0,0-1.57-3.82l2.13-.45a19.36,19.36,0,0,1,1.6,4.27h15Z"/><path class="cls-1" d="M254.92,135.64h-2.09v-3.16h-5.56v4H245.2V105h9.72Zm-2.09-18v-10.5h-5.56v10.5Zm0,12.78V119.65h-5.56v10.76Zm25-21.37h-9.31v5.8h8.24v2H258.07v-2h8.4V109h-9.79v-2.11h9.79v-4.37h2.09v4.37h9.31Zm.92,14.77h-4.43v10.35a2.84,2.84,0,0,1-1.1,2.66,9.11,9.11,0,0,1-4.23.66c-.63,0-1.4,0-2.31,0l-.84-2.15c1.29.09,2.42.14,3.4.14a6,6,0,0,0,2.5-.31,1.1,1.1,0,0,0,.53-1V123.81H256.68v-2.06h15.63V118h2.05v3.71h4.43Zm-12,8.08L265,133a33,33,0,0,0-5.17-6.12l1.76-1.21A41.63,41.63,0,0,1,266.76,131.89Z"/><path class="cls-1" d="M296.43,108.69H283.91v-1.84h5.8a23.79,23.79,0,0,0-1.68-3.49l1.89-.88a29.11,29.11,0,0,1,2,4.37h4.47Zm-1.11,5.72H284.79v-1.89h10.53Zm0,6H284.79v-1.84h10.53Zm-.57,16.48H292.8v-2.2h-5.45v3h-2V124.41h9.43Zm-2-4.12v-6.37h-5.41v6.37Zm25,1.92a2.47,2.47,0,0,1-1.06,2.29,6.24,6.24,0,0,1-3.24.65h-2.19l-.76-2c.82,0,2.25,0,4.28,0a.85.85,0,0,0,.61-.29.83.83,0,0,0,.31-.62V119.27h-15.2q.27,12.12-2.71,18.32L296,136.52a39.37,39.37,0,0,0,2.44-14.63V103.61h19.28ZM307,110.49v-5h-6.53v5Zm0,6.83V112.4h-6.53v4.92Zm5.83,15.27h-9.76V122.44h9.76Zm-1.95-2v-6.23H305v6.23Zm4.79-20.11v-5H309v5Zm0,6.83V112.4h-6.59v4.92Z"/><path class="cls-1" d="M342.64,106.89h-8v2.56h6.52v6.64h-6.52v.84a39.67,39.67,0,0,1,5.88,3l-.88,1.8a40.91,40.91,0,0,0-5-2.76V123h-1.95v-4.88a38.32,38.32,0,0,1-7.52,5l-1.37-1.68a29.73,29.73,0,0,0,8.24-5.43h-6.23v-6.64h6.88v-2.56h-8.56V105h8.56v-2.15h1.95V105h8ZM358.71,137h-34.8v-1.9h7v-6.3h2v6.3h7.6v-8.43H324.87V124.8h33v1.88H342.64v3.08h13.79v1.8H342.64v3.55h16.07Zm-26-22.85v-2.87h-4.81v2.87Zm6.48,0v-2.87h-4.53v2.87Zm19.71,7.09-1.08,1.87a20.07,20.07,0,0,1-7.07-3.59,37.49,37.49,0,0,1-7.69,3.67l-1.43-1.72a27.7,27.7,0,0,0,7.72-3.44,16.08,16.08,0,0,1-2.76-4.61l1.8-.87a13.11,13.11,0,0,0,2.56,4.19,12.38,12.38,0,0,0,3.52-7.67H348a22.25,22.25,0,0,1-4.55,5.41L342,113.16a22.12,22.12,0,0,0,6.84-10.53l1.8.77a18.6,18.6,0,0,1-1.55,3.77h9.44v1.91h-2.13q-.89,6.26-4.08,9.08A17.5,17.5,0,0,0,358.91,121.25Z"/><path class="cls-1" d="M392.87,132H377l1,1.31a53.42,53.42,0,0,1-13.12,4.57l-1-1.9A42.44,42.44,0,0,0,376,132h-6.21V117.32h23Zm-17.55-18.44h-11.2v-2h11.2Zm-.32-7.2H364.92v-1.92H375Zm15.8,15.15V119.2H372v2.28Zm0,4.28v-2.48H372v2.48Zm0,4.32v-2.52H372v2.52Zm8.07-15.28-.88,2q-7.68-1.12-11.95-4.66a18.71,18.71,0,0,1-9.16,4.55l-1.08-1.92q7.36-1.12,10.16-6l2.19.39a5.63,5.63,0,0,1-.92,1.56Q391.27,114,398.87,114.8Zm-.84-7.32a32.15,32.15,0,0,1-3.75,4.53l-1.52-1.45a32,32,0,0,0,2.91-3.39H381a20.66,20.66,0,0,1-3.65,3.59L376,109.37a20.81,20.81,0,0,0,5.8-7.05l1.95.68-1.27,2.21H398Zm.61,28.57-1,1.84a76.16,76.16,0,0,0-11.6-3.36l1-1.8A72.66,72.66,0,0,1,398.64,136.05Z"/><path class="cls-1" d="M438.71,119.08H409.32v4q0,10.2-4.12,14.77l-1.45-1.45a14.52,14.52,0,0,0,2.6-5.05,20,20,0,0,0,.92-5.82v-8.4h31.44Zm-1-11H431.6a19.48,19.48,0,0,1-4.29,3.85,74,74,0,0,1,8.53,2.68l-1.13,1.64a72.46,72.46,0,0,0-9.88-3,38.82,38.82,0,0,1-14.2,2.79l-.71-1.83a58.17,58.17,0,0,0,11.68-1.76c-3.12-.72-6.25-1.32-9.37-1.8l.92-1.64q6.23,1,11.4,2.29a16.89,16.89,0,0,0,4.28-3.17H406v-2h15a11.65,11.65,0,0,0-1.72-2.77l1.88-.84a17.84,17.84,0,0,1,2.11,3.61h14.49Zm.64,28.6H409.63v-1.92H423.4V131h-9.76V129h9.76v-3.51h-8.57a19.59,19.59,0,0,1-3.11,3.32l-1.25-1.68a21.85,21.85,0,0,0,5.24-6.88l1.93.63a29.34,29.34,0,0,1-1.48,2.69h7.24v-3.28h2v3.28h11v1.92h-11V129h10.16V131H425.39v3.77h13Z"/><path class="cls-1" d="M462.11,105.76h-6V111H461v26.49h-2v-2.33H447.11v2.29h-2V111H450v-5.19h-6.09v-1.92h18.24ZM459,133.12V122.85h-1.84c-2,0-2.95-.89-2.95-2.68v-7.28h-2.44q.06,9.12-3.73,12.56l-.84-.73v8.4Zm-9.12-20.23h-2.68v10.47Q449.84,120.41,449.83,112.89Zm7.44,15.84h-8.63v-1.84h8.63ZM454.16,111v-5.19h-2.32V111Zm4.79,9.89v-8h-2.83v7c0,.66.38,1,1.15,1Zm19.61,7.56q-.24,5.15-.84,6.42a3.1,3.1,0,0,1-1.7,1.68,17.86,17.86,0,0,1-4.9.41,42.85,42.85,0,0,1-5-.15,2.32,2.32,0,0,1-1.37-.84,3.09,3.09,0,0,1-.61-2.08V116.17h10.67V105.72H463.56v-2h13.36v14.43H466.16v15.49a1.06,1.06,0,0,0,.35.78,1.36,1.36,0,0,0,1,.38q.61,0,6.48,0c1.21,0,1.94-.69,2.21-2.07a27.49,27.49,0,0,0,.39-5Z"/><path class="cls-1" d="M518.6,136.72H484V135h4.68V118H498l1-2.83H484.28V113.4h15.35l.76-2.64H485.88v-7.19h30.67v7.19h-14l-.8,2.64H518v1.81H501.12L500.2,118h13.63V135h4.77Zm-23.21-27.6v-3.83h-7.48v3.83ZM511.8,122.2v-2.48h-21v2.48Zm0,4.13v-2.49h-21v2.49Zm0,4.35v-2.75h-21v2.75Zm0,4.28v-2.6h-21V135ZM505,109.12v-3.83h-7.52v3.83Zm9.48,0v-3.83h-7.41v3.83Z"/><path class="cls-1" d="M82.24,66.53H64.66A1.63,1.63,0,0,0,63,68.15V85.5a1.62,1.62,0,0,0,1.63,1.61H82.24a1.62,1.62,0,0,0,1.63-1.61V68.15A1.63,1.63,0,0,0,82.24,66.53ZM80.6,83.88H66.3V69.76H80.6Z"/><path class="cls-1" d="M107.9,66.53H90.33a1.64,1.64,0,0,0-1.64,1.62V85.5a1.63,1.63,0,0,0,1.64,1.61H107.9a1.63,1.63,0,0,0,1.64-1.61V68.15A1.64,1.64,0,0,0,107.9,66.53Zm-1.63,17.35H92V69.76h14.31Z"/><path class="cls-1" d="M116,87.11h7.63a1.62,1.62,0,1,0,0-3.23h-6V69.76h14.3v6a1.64,1.64,0,0,0,3.27,0V68.15a1.63,1.63,0,0,0-1.63-1.62H116a1.63,1.63,0,0,0-1.63,1.62V85.5A1.62,1.62,0,0,0,116,87.11Z"/><path class="cls-1" d="M82.24,95H64.66A1.62,1.62,0,0,0,63,96.6V114a1.62,1.62,0,0,0,1.63,1.61H82.24A1.62,1.62,0,0,0,83.87,114V96.6A1.62,1.62,0,0,0,82.24,95ZM80.6,112.34H66.3V98.22H80.6Z"/><path class="cls-1" d="M107.9,95H90.33a1.63,1.63,0,0,0-1.64,1.61V114a1.63,1.63,0,0,0,1.64,1.61H107.9a1.63,1.63,0,0,0,1.64-1.61V96.6A1.63,1.63,0,0,0,107.9,95Zm-1.63,17.35H92V98.22h14.31Z"/><path class="cls-1" d="M124.45,115.57a1.62,1.62,0,1,0,0-3.23h-6.82V98.22H118A1.62,1.62,0,1,0,118,95h-2a1.62,1.62,0,0,0-1.63,1.61V114a1.62,1.62,0,0,0,1.63,1.61Z"/><path class="cls-1" d="M160.34,109.56a16.13,16.13,0,0,0-6.48-4.7,65.53,65.53,0,0,0-8.31-2.51c-2.23-.55-4-1-5.16-1.45a6.14,6.14,0,0,1-2.17-1.2,1.05,1.05,0,0,1-.34-.9,2.12,2.12,0,0,1,1-1.92,6.84,6.84,0,0,1,4-1,11.55,11.55,0,0,1,4.22.65,24.27,24.27,0,0,1,3.42,1.72,3,3,0,0,0,3.9-.83l4.63-6.65a2.85,2.85,0,0,0-.8-4,28.33,28.33,0,0,0-8.9-3.76V80.51a2.89,2.89,0,0,0-2.9-2.88H145v-22a8,8,0,0,0-8.08-8h-1V44.84a4.9,4.9,0,0,0-9.8,0v2.78H120V44.84a4.9,4.9,0,0,0-9.8,0v2.78H104V44.84a4.91,4.91,0,0,0-9.81,0v2.78H88.08V44.84a4.9,4.9,0,0,0-9.8,0v2.78H72.15V44.84a4.9,4.9,0,0,0-9.8,0v2.78h-1a8,8,0,0,0-8.08,8v68.12a8,8,0,0,0,8.08,8h65.1a29.08,29.08,0,0,0,4.28,1.86,32.42,32.42,0,0,0,5.15,1.32v2.27a2.9,2.9,0,0,0,2.91,2.87h7.93a2.89,2.89,0,0,0,2.91-2.87v-2.67a19.87,19.87,0,0,0,9.11-5,14.9,14.9,0,0,0,4.53-11A13.52,13.52,0,0,0,160.34,109.56Zm-31-64.72a1.63,1.63,0,0,1,3.26,0v9.49a1.63,1.63,0,0,1-3.26,0Zm-15.94,0a1.64,1.64,0,0,1,3.27,0v9.49a1.64,1.64,0,0,1-3.27,0Zm-15.93,0a1.64,1.64,0,0,1,3.27,0v9.49a1.64,1.64,0,0,1-3.27,0Zm-15.93,0a1.64,1.64,0,0,1,3.27,0v9.49a1.64,1.64,0,0,1-3.27,0Zm-15.93,0a1.63,1.63,0,0,1,3.26,0v9.49a1.63,1.63,0,0,1-3.26,0ZM56.5,123.71V55.59a4.78,4.78,0,0,1,4.81-4.75h1v3.49a4.9,4.9,0,0,0,9.8,0V50.84h6.13v3.49a4.9,4.9,0,0,0,9.8,0V50.84h6.13v3.49a4.91,4.91,0,0,0,9.81,0V50.84h6.13v3.49a4.9,4.9,0,0,0,9.8,0V50.84h6.13v3.49a4.9,4.9,0,0,0,9.8,0V50.84h1a4.79,4.79,0,0,1,4.81,4.75v22h-3.18a2.9,2.9,0,0,0-2.91,2.88v2.67a20.18,20.18,0,0,0-9.17,5.14,15.2,15.2,0,0,0-4.66,11.14,13.53,13.53,0,0,0,3,9.05,16.42,16.42,0,0,0,6.63,4.76,72.39,72.39,0,0,0,8.4,2.59c2.25.61,3.95,1.11,5.05,1.47a6.17,6.17,0,0,1,2.06,1.1.56.56,0,0,1,.23.54,2,2,0,0,1-.9,1.84,8.16,8.16,0,0,1-4.46,1,17.43,17.43,0,0,1-4.93-.7,23.53,23.53,0,0,1-4.22-1.78,2.94,2.94,0,0,0-3.81.9l-4.58,6.7a2.9,2.9,0,0,0-.49,1.56H61.31A4.78,4.78,0,0,1,56.5,123.71Zm99.88,3.49a16.89,16.89,0,0,1-8.3,4.31l-1.76.4v4.86h-7.21v-4.69l-1.94-.28a29.74,29.74,0,0,1-5.4-1.3,25.23,25.23,0,0,1-4.6-2.11l4.19-6.12a25.86,25.86,0,0,0,4.56,1.89,20.72,20.72,0,0,0,5.87.84,11.08,11.08,0,0,0,6.34-1.55,5.17,5.17,0,0,0,2.29-4.48,3.75,3.75,0,0,0-1.36-3,9.4,9.4,0,0,0-3.16-1.72c-1.16-.38-2.92-.89-5.25-1.53a69,69,0,0,1-8-2.47,13.24,13.24,0,0,1-5.33-3.83,10.48,10.48,0,0,1-2.21-7,12.12,12.12,0,0,1,3.72-8.87,17.17,17.17,0,0,1,8.38-4.46l1.74-.41V80.86h7.22V85.6L148,86a24.79,24.79,0,0,1,8.24,3.28L152,95.31a27.89,27.89,0,0,0-3.61-1.79,15,15,0,0,0-5.43-.88,10,10,0,0,0-6,1.65,5.33,5.33,0,0,0-2.32,4.51,4.24,4.24,0,0,0,1.38,3.27,9.29,9.29,0,0,0,3.33,1.88c1.28.44,3.11,1,5.43,1.53a61.69,61.69,0,0,1,7.89,2.38,12.86,12.86,0,0,1,5.17,3.76,10.42,10.42,0,0,1,2.14,6.89A11.76,11.76,0,0,1,156.38,127.2Z"/></g></g></svg>