<svg xmlns="http://www.w3.org/2000/svg" viewBox="0 0 230 350"><defs><style>.cls-1{fill:#cc234b;}.cls-2{opacity:0.1;}.cls-3,.cls-4{fill:#fff;}.cls-4{font-size:20px;font-family:MicrosoftJhengHeiRegular, Microsoft JhengHei;letter-spacing:-0.05em;}</style></defs><title>flow7</title><g id="圖層_2" data-name="圖層 2"><g id="text"><rect class="cls-1" width="230" height="350" rx="17"/><g class="cls-2"><path class="cls-3" d="M152,275.42a62.86,62.86,0,0,1-2,17,37.67,37.67,0,0,1-5.47,12,22.82,22.82,0,0,1-8,7.1,20.21,20.21,0,0,1-9.42,2.34,15.31,15.31,0,0,1-6.83-1.55,15,15,0,0,1-5.43-4.67,23.69,23.69,0,0,1-3.57-7.77A41.07,41.07,0,0,1,110,289,62.76,62.76,0,0,1,112,272a38.1,38.1,0,0,1,5.47-12,23,23,0,0,1,7.93-7.13,19.94,19.94,0,0,1,9.44-2.37,14.68,14.68,0,0,1,12.24,6.22,23.48,23.48,0,0,1,3.59,7.8A41.2,41.2,0,0,1,152,275.42Zm-4.2-.22a38.89,38.89,0,0,0-1-9.52,20.45,20.45,0,0,0-2.85-6.62,12,12,0,0,0-4.25-3.87,11.08,11.08,0,0,0-5.23-1.27,15.51,15.51,0,0,0-7.56,2,18.74,18.74,0,0,0-6.48,6.31,36.39,36.39,0,0,0-4.53,10.95,64.77,64.77,0,0,0-1.71,15.94,38.78,38.78,0,0,0,1,9.55,20.2,20.2,0,0,0,2.85,6.63,11.8,11.8,0,0,0,4.24,3.86,11.36,11.36,0,0,0,5.24,1.24,15.45,15.45,0,0,0,7.55-2,18.84,18.84,0,0,0,6.49-6.28,36.15,36.15,0,0,0,4.53-10.93A65,65,0,0,0,147.8,275.2Z"/><path class="cls-3" d="M205,251.2l-.22,1.84a4.27,4.27,0,0,1-.33,1.27,7.77,7.77,0,0,1-.46.88L171,311.64a3.6,3.6,0,0,1-1,1.1,2.7,2.7,0,0,1-1.56.43h-2.76L198.73,257c.26-.41.52-.78.77-1.12a10.3,10.3,0,0,1,.81-.94H167.64a1,1,0,0,1-.77-.32,1,1,0,0,1-.24-.82l.3-2.58Z"/></g><path class="cls-3" d="M111.24,137.3H109l.35-15.56a10.88,10.88,0,0,0-3.17-7.89l-16.5-16.5a7.72,7.72,0,0,0-8.94-1.44V77.11A8.08,8.08,0,0,0,73.11,69a7.71,7.71,0,0,0-5.72,2.22A7.82,7.82,0,0,0,65,76.85v32.54a9.08,9.08,0,0,0,2.68,6.47l20.45,20.45,0,1H86.51a1.61,1.61,0,0,0-1.61,1.61v9.48A1.61,1.61,0,0,0,86.51,150h24.73a1.61,1.61,0,0,0,1.61-1.61v-9.48A1.61,1.61,0,0,0,111.24,137.3Zm-20.35-2.79L70,113.58a5.87,5.87,0,0,1-1.73-4.19V76.85a4.59,4.59,0,0,1,1.41-3.33A4.67,4.67,0,0,1,73,72.21a4.81,4.81,0,0,1,4.5,4.9V99.3a7.26,7.26,0,0,0-.69,3A7.38,7.38,0,0,0,79,107.69L91.5,120.2a1.61,1.61,0,0,0,2.28-2.28L81.27,105.41a4.2,4.2,0,0,1,.1-6,4.38,4.38,0,0,1,6,.26l16.5,16.5a7.61,7.61,0,0,1,2.22,5.54l-.35,15.63H91.33l0-1.61A1.59,1.59,0,0,0,90.89,134.51Zm18.74,12.26H88.13v-6.24h21.5Z"/><path class="cls-3" d="M162.61,71.2A7.85,7.85,0,0,0,156.89,69a8.08,8.08,0,0,0-7.63,8.13v18.8a7.7,7.7,0,0,0-8.94,1.44l-16.5,16.5a10.88,10.88,0,0,0-3.17,7.89L121,137.3h-2.24a1.61,1.61,0,0,0-1.61,1.61v9.48a1.61,1.61,0,0,0,1.61,1.61h24.72a1.61,1.61,0,0,0,1.62-1.61v-9.48a1.61,1.61,0,0,0-1.62-1.61H141.9l0-1,20.45-20.45a9.08,9.08,0,0,0,2.68-6.47V76.85A7.82,7.82,0,0,0,162.61,71.2Zm-20.74,75.57h-21.5v-6.24h21.5Zm19.9-37.38a5.87,5.87,0,0,1-1.73,4.19l-20.93,20.93a1.59,1.59,0,0,0-.48,1.18l0,1.61H124.23l-.35-15.63a7.61,7.61,0,0,1,2.22-5.54l16.5-16.5a4.38,4.38,0,0,1,6-.26,4.2,4.2,0,0,1,.1,6l-12.51,12.51a1.61,1.61,0,0,0,2.28,2.28L151,107.69a7.38,7.38,0,0,0,2.17-5.37,7.26,7.26,0,0,0-.69-3V77.11a4.81,4.81,0,0,1,4.5-4.9,4.64,4.64,0,0,1,3.37,1.31,4.59,4.59,0,0,1,1.41,3.33Z"/><path class="cls-3" d="M104.92,82.85a62.38,62.38,0,0,0,7.6,2.37c2,.56,3.54,1,4.55,1.34a5.51,5.51,0,0,1,1.82,1,.4.4,0,0,1,.16.39,1.66,1.66,0,0,1-.76,1.57,6.84,6.84,0,0,1-4,.86,15.32,15.32,0,0,1-4.41-.64,20.16,20.16,0,0,1-3.78-1.62,2.77,2.77,0,0,0-3.62.87L98.4,95.1A2.79,2.79,0,0,0,98,97.22,2.68,2.68,0,0,0,99.18,99a25.29,25.29,0,0,0,5.1,2.43,30.23,30.23,0,0,0,4.56,1.19v2a2.77,2.77,0,0,0,2.76,2.76h7.16a2.77,2.77,0,0,0,2.76-2.76v-2.33a18,18,0,0,0,8.18-4.56,13.88,13.88,0,0,0,4.14-10.14,12.57,12.57,0,0,0-2.65-8.27,14.6,14.6,0,0,0-5.9-4.34,59.73,59.73,0,0,0-7.52-2.3c-2-.5-3.57-.94-4.64-1.31a5.58,5.58,0,0,1-1.92-1.08.81.81,0,0,1-.26-.72,1.79,1.79,0,0,1,.85-1.64,5.94,5.94,0,0,1,3.56-.9,10.28,10.28,0,0,1,3.76.58,21.9,21.9,0,0,1,3.07,1.57,2.78,2.78,0,0,0,3.7-.8l4.18-6.08a2.76,2.76,0,0,0,.44-2.12,2.73,2.73,0,0,0-1.2-1.77,25.57,25.57,0,0,0-8-3.43V52.76A2.76,2.76,0,0,0,118.58,50h-7.16a2.77,2.77,0,0,0-2.76,2.76V55.1a18.28,18.28,0,0,0-8.25,4.71,14.16,14.16,0,0,0-4.25,10.28,12.63,12.63,0,0,0,2.72,8.37A15.09,15.09,0,0,0,104.92,82.85ZM102.7,62.08a15.37,15.37,0,0,1,7.5-4l1.68-.4V53.23h6.24v4.3l1.76.35a22.29,22.29,0,0,1,7.27,2.9l-3.67,5.33a24.26,24.26,0,0,0-3.16-1.57,13.31,13.31,0,0,0-5-.82,9,9,0,0,0-5.48,1.54,5,5,0,0,0-2.15,4.23,4,4,0,0,0,1.3,3.09,8.5,8.5,0,0,0,3,1.76c1.16.4,2.81.87,4.91,1.39a56.57,56.57,0,0,1,7.11,2.17,11.49,11.49,0,0,1,4.61,3.4,9.51,9.51,0,0,1,1.9,6.21,10.68,10.68,0,0,1-3.19,7.85,15,15,0,0,1-7.43,3.9l-1.69.4v4.42h-6.24V99.8l-1.87-.27a25.65,25.65,0,0,1-4.85-1.19,21.57,21.57,0,0,1-4-1.84L105,91.13a23.1,23.1,0,0,0,4,1.68,18.54,18.54,0,0,0,5.34.77,10.06,10.06,0,0,0,5.81-1.44,4.87,4.87,0,0,0,2.12-4.21A3.57,3.57,0,0,0,121,85.1a8.74,8.74,0,0,0-2.89-1.6c-1.07-.35-2.66-.82-4.75-1.39a62.48,62.48,0,0,1-7.24-2.26,11.83,11.83,0,0,1-4.76-3.47,9.49,9.49,0,0,1-2-6.29A11,11,0,0,1,102.7,62.08Z"/><text class="cls-4" transform="translate(57.43 186.64)">穩健達成目標</text></g></g></svg>