<svg xmlns="http://www.w3.org/2000/svg" viewBox="0 0 660 180"><defs><style>.cls-1{fill:#cc234b;}.cls-2{opacity:0.1;}.cls-3{fill:#fff;}</style></defs><title>flow7-min</title><g id="圖層_2" data-name="圖層 2"><g id="架構"><rect class="cls-1" width="660" height="180" rx="28.28"/><g class="cls-2"><path class="cls-3" d="M546.58,82.22a101.3,101.3,0,0,1-3.28,27.31,60.52,60.52,0,0,1-8.8,19.26,36.76,36.76,0,0,1-12.77,11.4A32.46,32.46,0,0,1,506.59,144a24.58,24.58,0,0,1-11-2.5,23.93,23.93,0,0,1-8.73-7.5,38.42,38.42,0,0,1-5.74-12.49,66.1,66.1,0,0,1-2.07-17.5,101,101,0,0,1,3.27-27.24,61.11,61.11,0,0,1,8.8-19.29A37.09,37.09,0,0,1,503.88,46a32,32,0,0,1,15.17-3.8,23.69,23.69,0,0,1,19.68,10,38.06,38.06,0,0,1,5.77,12.53A66.52,66.52,0,0,1,546.58,82.22Zm-6.76-.35a62.24,62.24,0,0,0-1.66-15.31,32.73,32.73,0,0,0-4.57-10.63,19.31,19.31,0,0,0-6.83-6.23,17.92,17.92,0,0,0-8.41-2,25,25,0,0,0-12.15,3.23A30,30,0,0,0,495.79,61a58.32,58.32,0,0,0-7.29,17.6,104.26,104.26,0,0,0-2.75,25.63,62.19,62.19,0,0,0,1.66,15.34A32.87,32.87,0,0,0,492,130.27a19,19,0,0,0,6.83,6.19,18.14,18.14,0,0,0,8.41,2,24.86,24.86,0,0,0,12.15-3.24,30.23,30.23,0,0,0,10.42-10.1,58.05,58.05,0,0,0,7.28-17.57A104.49,104.49,0,0,0,539.82,81.87Z"/><path class="cls-3" d="M631.68,43.29l-.35,3a6.89,6.89,0,0,1-.53,2,12.75,12.75,0,0,1-.74,1.41l-52.94,90.74a5.66,5.66,0,0,1-1.65,1.76,4.28,4.28,0,0,1-2.5.7h-4.43l53.14-90.31c.43-.66.84-1.26,1.24-1.8a12.47,12.47,0,0,1,1.3-1.51H571.7a1.57,1.57,0,0,1-1.23-.53,1.72,1.72,0,0,1-.39-1.3l.5-4.16Z"/></g><path class="cls-3" d="M215.63,90.48,214.4,92a26,26,0,0,0-3-3.28V108h-1.8V88.88a47.32,47.32,0,0,1-4.92,9.84L203.48,97a49.74,49.74,0,0,0,6-12.48h-5.15V82.65h5.27V76.73q-1.31.39-4.47,1l-.72-1.83a31.33,31.33,0,0,0,10-3.09l1,1.49a16.76,16.76,0,0,1-4,1.83v6.53h3.81v1.87h-3.81v1.84A28.12,28.12,0,0,1,215.63,90.48Zm3.16,10.21a22.07,22.07,0,0,1-3.59,5.88l-1.56-1.09a23.43,23.43,0,0,0,3.55-5.7Zm19.85-7.32h-2.21v3.87H218.87V95.62h15.68V93.37H216.08V91.69h18.47V89.56H218.87V87.88h17.56v3.81h2.21Zm-.57-7.4H216.84V84.29h9.32V82.2h-8.29V80.56h19.28V82.2h-9v2.09h10Zm-1.72-11.29q-5.67,1.5-18.55,2l-.8-1.84A85.46,85.46,0,0,0,235.51,73Zm-14.47,4.57-1.8.8c-.66-.67-1.4-1.38-2.21-2.13l1.68-.88C220,77.42,220.78,78.15,221.88,79.25Zm11.27,23.24a9.75,9.75,0,0,1-1.07,3.86,2.32,2.32,0,0,1-2,.89h-6.33a2.73,2.73,0,0,1-1.94-.7,2.43,2.43,0,0,1-.73-1.86V99.4H223v4.89a1.08,1.08,0,0,0,1.21,1.23h5.24a1.44,1.44,0,0,0,1-.38,1.43,1.43,0,0,0,.52-.81l.39-2.29Zm-3.83-1.33-1.49,1.25c-1.79-2.11-2.75-3.21-2.87-3.32l1.39-1.29A29.82,29.82,0,0,1,229.32,101.16Zm-.65-22-1.71.76a17.82,17.82,0,0,0-1.88-2.36l1.56-.8A9,9,0,0,1,228.67,79.17Zm8.09-2.32a20.6,20.6,0,0,1-3.2,3l-1.72-1.09A28.31,28.31,0,0,0,235,76Zm2,28.77-1.56.87a29.77,29.77,0,0,0-3.67-5.76l1.48-1A29.05,29.05,0,0,1,238.79,105.62Z"/><path class="cls-3" d="M252.27,73.13c-.27,1-.73,2.43-1.37,4.28L250,80.13V108h-2.05V84.68a55.86,55.86,0,0,1-3.12,5.88l-1.31-1.76a74.33,74.33,0,0,0,6.87-16.11Zm26.33,32.49-.53,1.95q-10.21.14-14.49-.95a12.44,12.44,0,0,1-6.7-4,27.44,27.44,0,0,1-4.32,5.43l-1.37-1.43a25.28,25.28,0,0,0,4.4-5.72,36.76,36.76,0,0,1-3.4-7.17l1.68-.84a35.56,35.56,0,0,0,2.64,5.8,35.85,35.85,0,0,0,1.56-9.28H253V87.53a84.71,84.71,0,0,0,4.65-9.16H253V76.49h6.84v1.88q-2.7,5.7-4.55,9.12h4.84a41.31,41.31,0,0,1-2.25,13.36,11.05,11.05,0,0,0,6.21,4Q267.77,105.74,278.6,105.62Zm-.24-5.73h-8.61V104h-2V99.89h-7.29V98h7.29V94.33H261.6V92.45h6.16v-3.2H263V87.37h4.77V83.76h-7V81.85h7V78.37h-5v-2h5V73.08h2V76.4h6.05v5.45h2.39v1.91H275.8v5.49h-6.05v3.2h8v1.88h-8V98h8.61Zm-4.53-18V78.37h-4.08v3.48Zm0,5.52V83.76h-4.08v3.61Z"/><path class="cls-3" d="M319.08,105.32l-.6,2.05H304q-10.26,0-14.36-4.65a29.16,29.16,0,0,1-4.47,5.45l-1.64-1.4A23.75,23.75,0,0,0,291,93.64h-6.49V91.53q3-3.61,6.08-8h-6.76v-2H293v1.92q-2.71,4-6.07,8.24h6.19v2a36.24,36.24,0,0,1-2.48,7.17,11.22,11.22,0,0,0,4.43,3.33,21.27,21.27,0,0,0,8.09,1.18ZM292,78.56l-1.52,1.61a25.68,25.68,0,0,0-5.51-5.8l1.55-1.49A40.55,40.55,0,0,1,292,78.56Zm26.68,21.22H307.87v4.31H305.8V99.78h-11v-2h11V94.68h-8.61V92.76h8.61V89.68h-10v-2h5.71a25.69,25.69,0,0,0-1.8-3.67h-4.79v-2h10.84V78.41h-9.6V76.49h9.6V73h2.07v3.45h9.32v1.92h-9.32v3.67H318.6v2h-4.85a30.08,30.08,0,0,1-1.87,3.67h5.92v2h-9.93v3.08h8.6v1.92h-8.6V97.8h10.84Zm-7.28-15.73h-9.36a25.36,25.36,0,0,1,1.6,3.67h5.92A15.88,15.88,0,0,0,311.43,84.05Z"/><path class="cls-3" d="M358.64,100.2a19,19,0,0,1-1.29,5.76c-.67,1.54-1.47,2.31-2.43,2.31s-2.22-.86-3.63-2.58a17.42,17.42,0,0,1-3.06-5.33,56.2,56.2,0,0,1-9.52,7.81l-1.56-1.64A46,46,0,0,0,347.35,98a79.4,79.4,0,0,1-2.48-16.27H330.08V87.2h10.68q0,5-.47,8.84a16.35,16.35,0,0,1-.94,4.77,3.76,3.76,0,0,1-1.46,1.42,8.25,8.25,0,0,1-3.53.51c-.54,0-1.19,0-2,0l-.67-2.17a18.2,18.2,0,0,0,2.72.21,6.23,6.23,0,0,0,2.24-.26,2.54,2.54,0,0,0,.88-.67,12.65,12.65,0,0,0,.76-3.76,52.74,52.74,0,0,0,.43-6.75h-8.63a42.84,42.84,0,0,1-4.69,19l-1.64-1.48q4.27-7.72,4.28-19.69V79.72h16.64c-.1-2.92-.16-5.16-.16-6.72h2.09q0,3.06.2,6.72h11v2H346.92a70.06,70.06,0,0,0,2,14.35,38.08,38.08,0,0,0,5.41-11.07l2.11.68a49.94,49.94,0,0,1-6.76,12.91,17.2,17.2,0,0,0,2.77,5.17c1.12,1.37,1.87,2.06,2.23,2.06s.81-.76,1.22-2.27a17,17,0,0,0,.62-4.47Zm-2.17-22.32-1.8,1.29a25.08,25.08,0,0,0-4.59-4.2l1.68-1.37A20.6,20.6,0,0,1,356.47,77.88Z"/><path class="cls-3" d="M393.67,108.08h-2.12V105.4H370.76v2.68H368.6v-34h25.07Zm-2.12-24.24V76.08H370.76v7.76Zm0,9.57V86H370.76v7.4Zm0,9.92V95.62H370.76v7.71Z"/><path class="cls-3" d="M416.16,90.56l-1.57,1.36a25.71,25.71,0,0,0-3.16-5.23V108h-2V88.6A60.32,60.32,0,0,1,405.08,97l-1.44-1.68a42.33,42.33,0,0,0,5.56-12.07h-5.08v-2h5.28V73.08h2v8.16h4v2h-4v.47A38.52,38.52,0,0,1,416.16,90.56Zm7.59,10.33a35.49,35.49,0,0,1-7.11,6.31l-1.4-1.58a30.84,30.84,0,0,0,6.95-6.1Zm14.92-3.56H428.36V108h-2.09V97.33H415.71V95.4h23Zm-.07-21.48h-7.33v3h6.12v8.73H417.07V78.88h6v-3H416v-2H438.6Zm-1.37,16.44H417.39V90.4h19.84Zm-14.12-6.56v-5h-4v5Zm6.13-6.85v-3h-4.08v3Zm0,6.85v-5h-4.08v5Zm9.59,20-1.48,1.43a42.94,42.94,0,0,0-6.59-6.08l1.39-1.44A55.57,55.57,0,0,1,438.83,105.73Zm-3.44-25h-4.12v5h4.12Z"/><path class="cls-3" d="M104.47,127.3h-2.24l.35-15.56a10.88,10.88,0,0,0-3.17-7.89l-16.5-16.5A7.72,7.72,0,0,0,74,85.91V67.11A8.08,8.08,0,0,0,66.34,59a7.71,7.71,0,0,0-5.72,2.22,7.82,7.82,0,0,0-2.39,5.65V99.39a9.08,9.08,0,0,0,2.68,6.47l20.45,20.45,0,1H79.74a1.61,1.61,0,0,0-1.61,1.61v9.48A1.61,1.61,0,0,0,79.74,140h24.73a1.61,1.61,0,0,0,1.61-1.61v-9.48A1.61,1.61,0,0,0,104.47,127.3Zm-20.35-2.79L63.19,103.58a5.87,5.87,0,0,1-1.73-4.19V66.85a4.59,4.59,0,0,1,1.41-3.33,4.67,4.67,0,0,1,3.37-1.31,4.81,4.81,0,0,1,4.5,4.9V89.3a7.26,7.26,0,0,0-.69,3,7.38,7.38,0,0,0,2.17,5.37L84.73,110.2A1.61,1.61,0,0,0,87,107.92L74.5,95.41a4.2,4.2,0,0,1,.1-6,4.38,4.38,0,0,1,6,.26l16.5,16.5a7.61,7.61,0,0,1,2.22,5.54L99,127.3H84.56l0-1.61A1.59,1.59,0,0,0,84.12,124.51Zm18.74,12.26H81.36v-6.24h21.5Z"/><path class="cls-3" d="M155.84,61.2A7.85,7.85,0,0,0,150.12,59a8.08,8.08,0,0,0-7.63,8.13v18.8a7.7,7.7,0,0,0-8.94,1.44l-16.5,16.5a10.88,10.88,0,0,0-3.17,7.89l.35,15.56H112a1.61,1.61,0,0,0-1.61,1.61v9.48A1.61,1.61,0,0,0,112,140h24.73a1.61,1.61,0,0,0,1.61-1.61v-9.48a1.61,1.61,0,0,0-1.61-1.61h-1.59l0-1,20.45-20.45a9.08,9.08,0,0,0,2.68-6.47V66.85A7.82,7.82,0,0,0,155.84,61.2ZM135.1,136.77H113.6v-6.24h21.5ZM155,99.39a5.87,5.87,0,0,1-1.73,4.19l-20.93,20.93a1.59,1.59,0,0,0-.48,1.18l0,1.61H117.46l-.35-15.63a7.61,7.61,0,0,1,2.22-5.54l16.5-16.5a4.38,4.38,0,0,1,6-.26,4.2,4.2,0,0,1,.1,6l-12.51,12.51a1.61,1.61,0,1,0,2.28,2.28l12.51-12.51a7.38,7.38,0,0,0,2.17-5.37,7.26,7.26,0,0,0-.69-3V67.11a4.81,4.81,0,0,1,4.5-4.9,4.68,4.68,0,0,1,3.38,1.31,4.62,4.62,0,0,1,1.4,3.33Z"/><path class="cls-3" d="M98.15,72.85a62.38,62.38,0,0,0,7.6,2.37c2,.56,3.54,1,4.55,1.34a5.51,5.51,0,0,1,1.82,1,.4.4,0,0,1,.16.39,1.66,1.66,0,0,1-.76,1.57,6.84,6.84,0,0,1-4,.86,15.32,15.32,0,0,1-4.41-.64,20.16,20.16,0,0,1-3.78-1.62,2.77,2.77,0,0,0-3.62.87L91.63,85.1a2.79,2.79,0,0,0-.42,2.12A2.68,2.68,0,0,0,92.41,89a25.29,25.29,0,0,0,5.1,2.43,30.23,30.23,0,0,0,4.56,1.19v2a2.77,2.77,0,0,0,2.76,2.76H112a2.77,2.77,0,0,0,2.76-2.76V92.21a18,18,0,0,0,8.18-4.56,13.84,13.84,0,0,0,4.14-10.14,12.62,12.62,0,0,0-2.64-8.27,14.69,14.69,0,0,0-5.91-4.34A59.73,59.73,0,0,0,111,62.6c-2-.5-3.57-.94-4.64-1.31a5.58,5.58,0,0,1-1.92-1.08.81.81,0,0,1-.26-.72,1.79,1.79,0,0,1,.85-1.64,6,6,0,0,1,3.56-.9,10.28,10.28,0,0,1,3.76.58,21.9,21.9,0,0,1,3.07,1.57,2.78,2.78,0,0,0,3.7-.8l4.18-6.08a2.76,2.76,0,0,0,.44-2.12,2.73,2.73,0,0,0-1.2-1.77,25.57,25.57,0,0,0-8-3.43V42.76A2.76,2.76,0,0,0,111.81,40h-7.16a2.77,2.77,0,0,0-2.76,2.76V45.1a18.28,18.28,0,0,0-8.25,4.71,14.16,14.16,0,0,0-4.25,10.28,12.63,12.63,0,0,0,2.72,8.37A15.09,15.09,0,0,0,98.15,72.85ZM95.93,52.08a15.37,15.37,0,0,1,7.5-4l1.68-.4V43.23h6.24v4.3l1.76.35a22.29,22.29,0,0,1,7.27,2.9l-3.67,5.33a24.26,24.26,0,0,0-3.16-1.57,13.31,13.31,0,0,0-5-.82,9,9,0,0,0-5.48,1.54A5,5,0,0,0,101,59.49a4,4,0,0,0,1.3,3.09,8.5,8.5,0,0,0,3,1.76c1.16.4,2.81.87,4.91,1.39a56.57,56.57,0,0,1,7.11,2.17,11.49,11.49,0,0,1,4.61,3.4,9.51,9.51,0,0,1,1.9,6.21,10.68,10.68,0,0,1-3.19,7.85,15,15,0,0,1-7.43,3.9l-1.69.4v4.42h-6.24V89.8l-1.87-.27a25.65,25.65,0,0,1-4.85-1.19,21.57,21.57,0,0,1-4-1.84l3.63-5.37a23.1,23.1,0,0,0,4,1.68,18.54,18.54,0,0,0,5.34.77,10.06,10.06,0,0,0,5.81-1.44,4.87,4.87,0,0,0,2.12-4.21,3.57,3.57,0,0,0-1.28-2.83,8.74,8.74,0,0,0-2.89-1.6c-1.07-.35-2.66-.82-4.75-1.39a62.48,62.48,0,0,1-7.24-2.26,11.83,11.83,0,0,1-4.76-3.47,9.49,9.49,0,0,1-2-6.29A11,11,0,0,1,95.93,52.08Z"/></g></g></svg>