<svg xmlns="http://www.w3.org/2000/svg" viewBox="0 0 282.81 350"><defs><style>.cls-1,.cls-4{fill:#fff;}.cls-2{fill:#4f6b84;}.cls-3{opacity:0.1;}.cls-4{font-size:20px;font-family:MicrosoftJhengHeiRegular, Microsoft JhengHei;letter-spacing:-0.05em;}</style></defs><title>flow5</title><g id="圖層_2" data-name="圖層 2"><g id="text"><polygon class="cls-1" points="270.82 175 230 215.82 230 227.81 282.81 175 230 122.19 230 134.18 270.82 175"/><path class="cls-2" d="M230,215.82,270.82,175,230,134.18V17A17,17,0,0,0,213,0H17A17,17,0,0,0,0,17V333a17,17,0,0,0,17,17H213a17,17,0,0,0,17-17V215.82Z"/><g class="cls-3"><path class="cls-1" d="M152,275.42a63.29,63.29,0,0,1-2,17,37.9,37.9,0,0,1-5.48,12,22.82,22.82,0,0,1-8,7.1,20.2,20.2,0,0,1-9.41,2.34,15.32,15.32,0,0,1-6.84-1.55,15,15,0,0,1-5.43-4.67,23.69,23.69,0,0,1-3.57-7.77A41.07,41.07,0,0,1,110,289,62.76,62.76,0,0,1,112,272a38.1,38.1,0,0,1,5.47-12,23,23,0,0,1,7.93-7.13,19.94,19.94,0,0,1,9.44-2.37,14.68,14.68,0,0,1,12.24,6.22,23.48,23.48,0,0,1,3.59,7.8A41.2,41.2,0,0,1,152,275.42Zm-4.2-.22a38.89,38.89,0,0,0-1-9.52,20.45,20.45,0,0,0-2.85-6.62,12,12,0,0,0-4.25-3.87,11.08,11.08,0,0,0-5.23-1.27,15.51,15.51,0,0,0-7.56,2,18.82,18.82,0,0,0-6.48,6.31,36.39,36.39,0,0,0-4.53,10.95,64.77,64.77,0,0,0-1.71,15.94,38.78,38.78,0,0,0,1,9.55,20.2,20.2,0,0,0,2.85,6.63,11.74,11.74,0,0,0,4.25,3.86,11.29,11.29,0,0,0,5.23,1.24,15.45,15.45,0,0,0,7.55-2,18.84,18.84,0,0,0,6.49-6.28,36.15,36.15,0,0,0,4.53-10.93A65,65,0,0,0,147.8,275.2Z"/><path class="cls-1" d="M201,251.2l-.22,1.75a2.08,2.08,0,0,1-.73,1.43,2.85,2.85,0,0,1-1.9.54H177.71l-6,20.81a40.6,40.6,0,0,1,9.81-1.36,18.89,18.89,0,0,1,7,1.2,13.88,13.88,0,0,1,5,3.33,14.2,14.2,0,0,1,3,5,19.27,19.27,0,0,1,1,6.33,25,25,0,0,1-1.86,9.85,22.73,22.73,0,0,1-5,7.45,21.66,21.66,0,0,1-7.21,4.68,22.73,22.73,0,0,1-8.49,1.62,20.65,20.65,0,0,1-4.47-.46,21.43,21.43,0,0,1-3.9-1.22,20.1,20.1,0,0,1-3.26-1.75,19.1,19.1,0,0,1-2.56-2l1.4-1.66a1.62,1.62,0,0,1,1.31-.66,2.76,2.76,0,0,1,1.43.66,24.5,24.5,0,0,0,2.34,1.46,19.16,19.16,0,0,0,3.48,1.47,15.78,15.78,0,0,0,4.84.66,17.83,17.83,0,0,0,6.92-1.36,16.42,16.42,0,0,0,5.65-3.92,18.62,18.62,0,0,0,3.81-6.2,22.83,22.83,0,0,0,1.4-8.23,16.15,16.15,0,0,0-.79-5.17,10.47,10.47,0,0,0-6.46-6.74,15.77,15.77,0,0,0-5.8-1,31.09,31.09,0,0,0-4.9.42,45.84,45.84,0,0,0-5.61,1.29l-2.45-.83,7.79-27.42Z"/></g><path class="cls-1" d="M118.76,94.73a1.71,1.71,0,0,1-.78-.2,1.63,1.63,0,0,1-.83-1.41V51.62a1.64,1.64,0,0,1,.52-1.19,1.54,1.54,0,0,1,1.22-.42A49.91,49.91,0,0,1,155.2,70.15a1.61,1.61,0,0,1-.44,2.33l-35.14,22A1.64,1.64,0,0,1,118.76,94.73Zm1.61-41.34V90.21l31.18-19.53A46.72,46.72,0,0,0,120.37,53.39Z"/><path class="cls-1" d="M136.09,145.17a1.52,1.52,0,0,1-.59-.12,1.57,1.57,0,0,1-.91-.91l-16.45-42.09a1.62,1.62,0,0,1,.65-2l38.26-24a1.63,1.63,0,0,1,2.28.62A50.14,50.14,0,0,1,136.79,145,1.57,1.57,0,0,1,136.09,145.17Zm-14.46-43,15.31,39.19a47.2,47.2,0,0,0,24.84-41.39,46.29,46.29,0,0,0-4.53-20.11Z"/><path class="cls-1" d="M115,150a50.07,50.07,0,0,1-3.89-100,1.61,1.61,0,0,1,1.22.42,1.64,1.64,0,0,1,.52,1.19v48.3a2.13,2.13,0,0,0,.15.79l17.57,45a1.61,1.61,0,0,1-1,2.13A50,50,0,0,1,115,150Zm-5.37-96.61A46.85,46.85,0,0,0,115,146.77a46.54,46.54,0,0,0,11.93-1.54L110,101.88h0a5.49,5.49,0,0,1-.36-2Z"/><text class="cls-4" transform="translate(38.43 186.64)">建立專屬投資組合</text></g></g></svg>