<svg xmlns="http://www.w3.org/2000/svg" viewBox="0 0 660 241.98"><defs><style>.cls-1{fill:#fff;}.cls-2{fill:#2a3646;}.cls-3{opacity:0.1;}</style></defs><title>flow1-min</title><g id="圖層_2" data-name="圖層 2"><g id="架構"><polygon class="cls-1" points="123.74 228.09 75.65 180 61.76 180 123.74 241.98 185.72 180 171.83 180 123.74 228.09"/><path class="cls-2" d="M631.72,0H28.28A28.28,28.28,0,0,0,0,28.28V151.72A28.28,28.28,0,0,0,28.28,180H75.65l48.09,48.09L171.83,180H631.72A28.28,28.28,0,0,0,660,151.72V28.28A28.28,28.28,0,0,0,631.72,0Z"/><g class="cls-3"><path class="cls-1" d="M546.58,82.22a101.3,101.3,0,0,1-3.28,27.31,60.52,60.52,0,0,1-8.8,19.26,36.76,36.76,0,0,1-12.77,11.4A32.46,32.46,0,0,1,506.59,144a24.58,24.58,0,0,1-11-2.5,23.93,23.93,0,0,1-8.73-7.5,38.42,38.42,0,0,1-5.74-12.49,66.1,66.1,0,0,1-2.07-17.5,101,101,0,0,1,3.27-27.24,61.11,61.11,0,0,1,8.8-19.29A37.09,37.09,0,0,1,503.88,46a32,32,0,0,1,15.17-3.8,23.62,23.62,0,0,1,19.68,10,38,38,0,0,1,5.77,12.53A66.47,66.47,0,0,1,546.58,82.22Zm-6.76-.35a62.24,62.24,0,0,0-1.66-15.31,32.73,32.73,0,0,0-4.57-10.63,19.31,19.31,0,0,0-6.83-6.23,17.92,17.92,0,0,0-8.41-2,25,25,0,0,0-12.15,3.23A30,30,0,0,0,495.79,61a58.32,58.32,0,0,0-7.29,17.6,104.23,104.23,0,0,0-2.75,25.62,62.22,62.22,0,0,0,1.66,15.35A32.87,32.87,0,0,0,492,130.27a19,19,0,0,0,6.83,6.19,18.14,18.14,0,0,0,8.41,2,24.86,24.86,0,0,0,12.15-3.24,30.23,30.23,0,0,0,10.42-10.1,58.05,58.05,0,0,0,7.28-17.57A104.49,104.49,0,0,0,539.82,81.87Z"/><path class="cls-1" d="M616.55,137.9l-.64,5H568.47l.7-5h21l9.92-81.3c.1-.8.21-1.61.35-2.43s.31-1.66.5-2.5L578.53,71.24a2.57,2.57,0,0,1-2,.56,2.24,2.24,0,0,1-1.34-.77l-1.62-2.75,29.64-25.41h5.14l-11.62,95Z"/></g><path class="cls-1" d="M215,95c-2.52,1.35-6.2,3.12-11,5.31l-.43-2.09c1.31-.55,3-1.3,5-2.27V83.35h-4.48v-2h4.48V72h2v9.35h4v2h-4V95q1.6-.7,4.2-2.13Zm8.83,6a35.76,35.76,0,0,1-9.47,4.92l-1-1.89a33.79,33.79,0,0,0,9.16-4.59Zm14.8-2.63H215v-1.9h2.72v-18h6.75a21.89,21.89,0,0,0,.81-2.48h-9.85V74h10.29a28,28,0,0,0,.75-3.48l2,.33c-.2,1.23-.4,2.28-.61,3.15h9.93v1.93H227.39a20.61,20.61,0,0,1-.67,2.48h8.52v18h3.43ZM233.15,82.7V80.3H219.83v2.4Zm0,4.43V84.58H219.83v2.55Zm0,4.65V89H219.83v2.81Zm0,4.63V93.62H219.83v2.79Zm5.41,7.56-1.21,1.76a45.69,45.69,0,0,0-8.83-4.71l1.15-1.68A50,50,0,0,1,238.56,104Z"/><path class="cls-1" d="M277.15,92.94a52,52,0,0,1-.72,8.54q-.58,2.83-1.71,3.51a9.63,9.63,0,0,1-4.35.66c-.7,0-1.57,0-2.61-.08l-.84-2.07c1.16.09,2.35.14,3.57.14a10,10,0,0,0,2.72-.21,1.53,1.53,0,0,0,.79-.72,10.41,10.41,0,0,0,.57-2.76c.2-1.5.34-3.21.43-5.14H251.92a32.36,32.36,0,0,1-7,4L243.56,97q6.78-2.37,10.27-6.64h-4.75v-10a50.27,50.27,0,0,0,10-3l1,1.83a54.81,54.81,0,0,1-9,2.56v2h8.67v1.88h-8.67V88.5h20.27V85.73h-8.56V83.85h8.56V81.22h-9.24V79.3h11.33V90.38h-17a26.89,26.89,0,0,1-2.31,2.56Zm0-12h-2v-4.8H247.35v4.8h-2.07V74.19h15a11.25,11.25,0,0,0-1.49-2.93l1.93-.81a16.14,16.14,0,0,1,1.76,3.74h14.67ZM253,98a34.22,34.22,0,0,1-5,7.13l-1.8-1a33.26,33.26,0,0,0,5-7Zm5.37,6.37-2,.39a33.92,33.92,0,0,0-1.11-7.34l1.87-.37A36.68,36.68,0,0,1,258.36,104.38Zm6.72-1.37-1.89.61A27.72,27.72,0,0,0,261,97.25l1.83-.62A31.79,31.79,0,0,1,265.08,103Zm6.08-2.32-1.84.8a27,27,0,0,0-2.64-4.86l1.72-.8A29.79,29.79,0,0,1,271.16,100.69Z"/><path class="cls-1" d="M287.91,79.58a49.55,49.55,0,0,1-2,9.68l-2.05-.56a48.32,48.32,0,0,0,2-9.4Zm8.48,3.69-1.31,1.54a35.09,35.09,0,0,0-3.2-3.36v24.16h-2.09v-35h2.09v8.12A42.55,42.55,0,0,1,296.39,83.27Zm22.21,21.5H295.76V102.7h11.16V92.25h-9.24v-2h9.24V81.37h-5.8a32.56,32.56,0,0,1-3.48,6.84l-1.72-1.08a40.76,40.76,0,0,0,5.2-13.92l2.07.45a40.12,40.12,0,0,1-1.35,5.6h5.08V70.79h2.2v8.47h8.79v2.11h-8.79v8.85H317v2h-7.88V102.7h9.48Z"/><path class="cls-1" d="M343.19,89.54q.06,4.32-.12,8.32a32.1,32.1,0,0,1-.45,5,3.45,3.45,0,0,1-.94,1.62,3.62,3.62,0,0,1-1.44.87,13.2,13.2,0,0,1-3.17.24c-.7,0-1.62,0-2.75-.06l-.72-2.11,5,.12a2,2,0,0,0,2-1.41c.35-.93.5-4.45.45-10.54h-9.2a24.93,24.93,0,0,1-6.92,14.1l-1.4-1.8q7-6.6,6.75-20.23h-3.71v-12h16.47v12H332.48a51.88,51.88,0,0,1-.33,5.88Zm-2.15-8V73.7H328.67v7.89Zm8.83,16.62h-2V73.46h2Zm7.77,4.33q0,3.08-3.48,3.07l-5.25,0-.84-2.07,6.44,0a.88.88,0,0,0,.72-.47,1.62,1.62,0,0,0,.32-.89V70.73h2.09Z"/><path class="cls-1" d="M385.08,90.65l-1.41,1.52a41.3,41.3,0,0,0-6.44-5.72l1.48-1.56A39.93,39.93,0,0,1,385.08,90.65Z"/><path class="cls-1" d="M438.6,97.13H423.83v8.56h-2.15V97.13h-17.6V95h5.79V84.05h11.81V76.94h-9.57a28.67,28.67,0,0,1-6.64,7.25l-1.64-1.49q5.18-3.58,9.53-12.28l2.19.64a43.09,43.09,0,0,1-2.11,3.79h23.48v2.09H423.83v7.11h12.44v2.09H423.83V95H438.6ZM421.68,95V86.14H412V95Z"/><path class="cls-1" d="M462.07,80.61h-5.23a24.77,24.77,0,0,1-.84,3.77,30.43,30.43,0,0,1,2.67,4.12l-1.4,1a24.7,24.7,0,0,0-1.88-3.4,16.09,16.09,0,0,1-1.91,3.55l-1.41-1a10.79,10.79,0,0,0,.84-1.33,17.08,17.08,0,0,0-1.79-2.07A32.8,32.8,0,0,1,449,89.54l-1.31-1.08a24.53,24.53,0,0,0,2.91-7.85H444V78.85h3.28V71.78h1.89v7.07h4.24V70.73h1.84v2.81h6.07v1.72h-6.07v3.59h6.83ZM461,105.73h-1.84v-.92h-14V82.21h1.95V102.9h12V82.21H461ZM458.64,100l-1.16,1.27a22.13,22.13,0,0,0-1.81-3.17,22.21,22.21,0,0,1-2.23,3.54L452,100.45a10.33,10.33,0,0,0,.88-1.15c-.41-.45-1.05-1.08-1.91-1.87a27.49,27.49,0,0,1-1.88,4.06l-1.36-1A23.35,23.35,0,0,0,450.39,93l1.68.45a20,20,0,0,1-.52,2.19l2.16,2.21a17,17,0,0,0,1.8-4.51l1.6.58a12.23,12.23,0,0,1-.76,2.4A37.8,37.8,0,0,1,458.64,100Zm-.73-7.7h-9.39V90.42h9.39Zm-2.79-11.64h-2.73c-.25,1.11-.49,2-.71,2.77l2,2.15A17,17,0,0,0,455.12,80.61Zm23.55,1.06-1.15,1.71a72.27,72.27,0,0,1-7.69-9.84,46.19,46.19,0,0,1-7,10.2l-1.23-1.57A42.36,42.36,0,0,0,469,70.38l2,.6-.2.51A63.33,63.33,0,0,0,478.67,81.67Zm-1.36,9.06a99.79,99.79,0,0,1-6.31,9.65,50.45,50.45,0,0,1,4,4.08l-1.48,1.37a57.71,57.71,0,0,0-9.77-8.62l1.37-1.48a36.81,36.81,0,0,1,4.35,3.38A73.51,73.51,0,0,0,475,90.73h-12V88.81h14.24Zm-2.07-6.35H464.87V82.54h10.37Z"/><path class="cls-1" d="M502.83,91.94l-1.32,1.64a57.31,57.31,0,0,0-6.23-5.72v18h-2.09V87A45.7,45.7,0,0,1,485,98.21l-1.56-1.43q4.93-4.74,9.59-13.88h-9V80.83h9.16V75.06a66.08,66.08,0,0,1-7.27.77l-.6-2.09a55.63,55.63,0,0,0,16-3l1.08,2a32.25,32.25,0,0,1-7.11,1.91v6.22h7.24V82.9h-7.24v2.36A53,53,0,0,1,502.83,91.94Zm14.73,13.92h-2.17V102.1h-9v3.76h-2.11V75.34h13.28ZM515.39,100V77.47h-9V100Z"/><path class="cls-1" d="M536.55,105.79h-2.07v-11a72.92,72.92,0,0,1-9.13,4.08l-.91-2.56a1.61,1.61,0,0,0,.8-1.44V74.3h2.07V95.83a42.25,42.25,0,0,0,7.17-3.36V70.61h2.07ZM558.67,104l-1.36,1.89a28,28,0,0,1-9.24-6.93,33.59,33.59,0,0,1-9,6.8l-1.48-1.68a30.58,30.58,0,0,0,9.2-6.84,34.85,34.85,0,0,1-4.28-10.27l2-.61a32.86,32.86,0,0,0,3.64,9.12q3.89-5.73,4.61-16.91h-8.21a39.85,39.85,0,0,1-5,10.2L538,87.13a41,41,0,0,0,6.37-16.6l2.07.37a45.58,45.58,0,0,1-1.23,5.59h13.16v2.05h-3.44q-1.23,13.35-5.48,18.71A24.12,24.12,0,0,0,558.67,104Z"/><path class="cls-1" d="M598.79,104l-1.35,1.85A44.89,44.89,0,0,1,582,82.13q-5.14,15.11-16.65,23.25l-1.6-1.64a38.77,38.77,0,0,0,7-6.1A41,41,0,0,0,576,90.4a46.09,46.09,0,0,0,3.62-8.24,28.2,28.2,0,0,0,1.46-5.3l-.24-3.09h-3.73V71.63H583Q583.08,91.29,598.79,104Z"/><path class="cls-1" d="M156.66,91.45l-3-2.15c1.78-5.54,1.1-9.5-2.08-11.82-4.55-3.32-10.72-.77-18.37,7.55V48.26A8.28,8.28,0,0,0,125,40H84.21a1.65,1.65,0,0,0-1.14.47L58.7,64.85A1.61,1.61,0,0,0,58.23,66V126.3a8.26,8.26,0,0,0,8.26,8.26h40.33l.1.49.93.68L106,138.29a1.07,1.07,0,0,0,.23,1.5,1.07,1.07,0,0,0,1.5-.23l1.87-2.56.93.67.63-.07c6.4-.73,20.93-17,26.28-23.21h.2a5.06,5.06,0,0,0,3.71-2.17,5.36,5.36,0,0,0,1.29-3.75c0-.1,0-.2-.06-.3,2-2.56,3.68-4.78,4.76-6.44a65.11,65.11,0,0,0,5.18-9.32l2.25,1.64a.56.56,0,0,1,.24.46.58.58,0,0,1-.21.48c-4.78,3.94-10.24,9.69-9.17,14.75l3.16-.67c-.56-2.63,2.45-7,8.06-11.59a3.79,3.79,0,0,0,1.39-3.06A3.84,3.84,0,0,0,156.66,91.45Zm-6.94-11.37c1.72,1.26,2.1,3.74,1.19,7.19l-8.39-6.12C145.52,79.23,148,78.83,149.72,80.08ZM82.6,45.51V62.82a1.54,1.54,0,0,1-1.55,1.55H63.74ZM61.46,126.3V67.6H81.05a4.79,4.79,0,0,0,4.78-4.78V43.23H125a5,5,0,0,1,5,5V88.78l-.18.22c-1.25,1.54-2.85,3.78-4.67,6.51-.1,0-.21,0-.31,0a5.39,5.39,0,0,0-3.17,2.38,4.87,4.87,0,0,0-.85,4.38c-3.3,5.41-12.45,20.9-13.93,29H66.49A5,5,0,0,1,61.46,126.3Zm53.08-6,7.69,5.61c-1.51,1.46-3,2.77-4.26,3.89l-5.83-4.25C112.8,124,113.61,122.18,114.54,120.29Zm-4.63,13a17.94,17.94,0,0,1,1.41-5.63l4.93,3.59a18,18,0,0,1-4.92,3.08Zm13.89-8.87-8.29-6c2.11-4.18,4.74-8.87,7.74-13.79l11.3,8.23C130.79,117.14,127.12,121.08,123.8,124.37Zm15-14.14a2.82,2.82,0,0,1-1.05.89L123.84,101a3,3,0,0,1,.53-1.27,2.89,2.89,0,0,1,.94-.94l14.1,10.27A3,3,0,0,1,138.8,110.23ZM144.63,100c-1,1.49-2.44,3.48-4.26,5.79l-12.22-8.91c1.64-2.44,3.08-4.44,4.2-5.83a58.81,58.81,0,0,1,7.46-7.85l10,7.29A57.92,57.92,0,0,1,144.63,100Z"/><path class="cls-1" d="M74.89,77.28h41.7a1.62,1.62,0,0,0,0-3.23H74.89a1.62,1.62,0,0,0,0,3.23Z"/><path class="cls-1" d="M74.89,88.89h41.7a1.61,1.61,0,0,0,0-3.22H74.89a1.61,1.61,0,0,0,0,3.22Z"/><path class="cls-1" d="M116.59,100.51a1.62,1.62,0,0,0,0-3.23H74.89a1.62,1.62,0,0,0,0,3.23Z"/></g></g></svg>