<svg xmlns="http://www.w3.org/2000/svg" viewBox="0 0 249.35 85.92"><defs><style>.cls-1{fill:#231815;}.cls-2{fill:#e72410;}</style></defs><title>ibrain-logo</title><g id="圖層_2" data-name="圖層 2"><g id="圖層_1-2" data-name="圖層 1"><path class="cls-1" d="M53.67,34.55c-6.71,0-12.26,2.71-16.86,8.27V17.25H27.62V84.91h9.19V78a21.4,21.4,0,0,0,16.86,7.89c11.39,0,23.5-9,23.5-25.73S65.06,34.55,53.67,34.55Zm14.13,26c0,10.1-6.33,17.14-15.4,17.14-7.8,0-15.86-6.44-15.86-17.23S44.6,43.29,52.4,43.29C61.32,43.29,67.8,50.53,67.8,60.51Z"/><path class="cls-1" d="M97,44.6v-9H87.85V84.92H97V65c0-12.46,6.86-20.52,17.49-20.52h1.65V34.78l-1.06,0C107.78,34.44,101.27,38.09,97,44.6Z"/><path class="cls-1" d="M230.29,34.55a18.5,18.5,0,0,0-15,6.85V35.56h-9.18V84.92h9.18V56.82c0-8,5.33-13.67,13-13.67s11.87,4.78,11.87,13.12V84.92h9.19V54.54C249.35,42.4,241.87,34.55,230.29,34.55Z"/><path class="cls-2" d="M7.14,17.25a7.14,7.14,0,1,0,7.14,7.14A7.15,7.15,0,0,0,7.14,17.25Z"/><rect class="cls-2" x="2.35" y="37.57" width="9.58" height="47.34"/><rect class="cls-2" x="163.41" y="0.01" width="9.56" height="79.82"/><circle class="cls-2" cx="188.6" cy="7.15" r="7.14"/><path class="cls-2" d="M151.73,45.06a7.14,7.14,0,1,0,7.14,7.14A7.15,7.15,0,0,0,151.73,45.06Z"/><path class="cls-2" d="M168.07,71.63a7.15,7.15,0,1,0,7.14,7.14A7.14,7.14,0,0,0,168.07,71.63Z"/><rect class="cls-2" x="183.81" y="20.26" width="9.58" height="64.65"/><polygon class="cls-2" points="132.2 47.91 108.48 84.92 119.16 84.92 142.7 47.91 132.2 47.91"/><polygon class="cls-2" points="162.15 0 135.43 41.87 146.41 41.87 172.97 0 162.15 0"/><polygon class="cls-2" points="134.59 47.91 129.56 56.49 154.52 56.49 154.52 47.91 134.59 47.91"/></g></g></svg>