<svg xmlns="http://www.w3.org/2000/svg" viewBox="0 0 368.71 75.16"><defs><style>.cls-1{fill:#231815;}.cls-2{fill:#e62310;}</style></defs><title>ibrain-logo-full</title><g id="圖層_2" data-name="圖層 2"><g id="text"><path class="cls-1" d="M2.27,39.23H24.44l1.64,2.14Q23.94,56.66,4.23,69.15L0,64.42a57.53,57.53,0,0,0,11.37-7.26,38.8,38.8,0,0,0,6.25-7.07A16.64,16.64,0,0,0,20,45.73.65.65,0,0,0,20,45a2.34,2.34,0,0,0-1.39-.32H2.27ZM35.36,46V67a7.2,7.2,0,0,1-2.65,5.93q-2,1.77-6.57,1.77a45.83,45.83,0,0,1-10.23-1.26l-.38-6.06Q25.32,70.11,28,68.77a4.64,4.64,0,0,0,1.64-3.72V33.73c0-.59-.31-.88-.94-.88H4v-5.5H33.59a1.66,1.66,0,0,1,1.77,2v2.21Q39.59,43.9,44.2,50.59,49.81,58.8,60.87,67l-4.93,3.72Q42.25,59.61,35.36,46ZM11.11,20.91l.83-5.61Q16.41,15.61,28,17a187.91,187.91,0,0,1,19.89,3.1l-1.19,5.55A205.44,205.44,0,0,0,11.11,20.91ZM56.26,26.6l4,3.85A87.39,87.39,0,0,1,46.91,43.2l-3.72-4.1A89.29,89.29,0,0,0,56.26,26.6Z"/><path class="cls-1" d="M88.28,69.76c-.25-.58-.5-1.15-.75-1.7-.55-1-1-1.85-1.27-2.53H78.18c-.37,0-.57-.21-.57-.63V54.55a.51.51,0,0,1,.57-.57h46.48c.41,0,.63.19.63.57V64.9a.56.56,0,0,1-.63.63h-8.34q-.45,1.2-1.26,3a8.31,8.31,0,0,0-.64,1.26H131.6v4.49H71.18V69.76ZM72.69,47.16h57.65v4.23H72.69Zm39.53-10.29h-5.94v-4h5.94V29.8h-5.94v-4h5.94V22.47h-5.94v-4h5.94V14.83h4.48v3.66H122v4h-5.3v3.35h5v4h-5v3.09h5v4h-5v3.22h6.82a.73.73,0,0,0,.82-.82V15.9h5V42.24a1.85,1.85,0,0,1-2.09,2.08H75.6a1.82,1.82,0,0,1-2-2.08V15.9h5V39.27c0,.55.25.82.76.82H86.2V36.87H80.52v-4H86.2V29.54H80.77v-4H86.2v-3.1H80.52v-4H86.2v-3.4h4.48v3.4h5v4h-5v3.1h5v4h-5v3.35H96v4H90.68v3.22h7.9v-25h5v25h8.65Zm8.33,21.34H82.29c-.17,0-.24.06-.19.19v2.65c0,.13,0,.21.19.25h38.26c.17,0,.25-.12.25-.25V58.4C120.8,58.27,120.72,58.21,120.55,58.21ZM93.65,69.76h15.28c.72-1.43,1.41-2.84,2.09-4.23H91.69C92.11,66.33,92.77,67.74,93.65,69.76Z"/><path class="cls-1" d="M197.53,30.22c-5.87,0-10.72,2.38-14.74,7.24V15.09h-8V74.28h8v-6a18.72,18.72,0,0,0,14.74,6.9c10,0,20.56-7.89,20.56-22.51S207.5,30.22,197.53,30.22ZM209.9,52.94c0,8.82-5.54,15-13.48,15-6.82,0-13.87-5.64-13.87-15.07s7-15,13.87-15C204.23,37.87,209.9,44.2,209.9,52.94Z"/><path class="cls-1" d="M235.47,39v-7.9h-8V74.28h8V56.88c0-10.9,6-17.94,15.3-17.94h1.44V30.43l-.92,0C244.87,30.13,239.17,33.32,235.47,39Z"/><path class="cls-1" d="M352,30.23a16.2,16.2,0,0,0-13.08,6v-5.1h-8V74.28h8V49.7c0-7,4.66-12,11.34-12s10.38,4.19,10.38,11.48V74.28h8V47.71C368.71,37.09,362.16,30.23,352,30.23Z"/><path class="cls-2" d="M156.83,15.09a6.25,6.25,0,1,0,6.25,6.24A6.26,6.26,0,0,0,156.83,15.09Z"/><rect class="cls-2" x="152.64" y="32.87" width="8.38" height="41.42"/><rect class="cls-2" x="293.53" y="0.01" width="8.36" height="69.82"/><circle class="cls-2" cx="315.57" cy="6.26" r="6.25"/><path class="cls-2" d="M283.31,39.41a6.25,6.25,0,1,0,6.25,6.25A6.27,6.27,0,0,0,283.31,39.41Z"/><path class="cls-2" d="M297.61,62.66a6.25,6.25,0,1,0,6.25,6.25A6.25,6.25,0,0,0,297.61,62.66Z"/><rect class="cls-2" x="311.38" y="17.73" width="8.38" height="56.56"/><polygon class="cls-2" points="266.23 41.91 245.48 74.28 254.82 74.28 275.42 41.91 266.23 41.91"/><polygon class="cls-2" points="292.43 0 269.06 36.63 278.67 36.63 301.9 0 292.43 0"/><polygon class="cls-2" points="268.32 41.91 263.93 49.41 285.76 49.41 285.76 41.91 268.32 41.91"/></g></g></svg>