<svg xmlns="http://www.w3.org/2000/svg" viewBox="0 0 118.39 106.89"><defs><style>.cls-1{fill:#d72a17;}</style></defs><title>icon-kv4</title><g id="圖層_2" data-name="圖層 2"><g id="text"><path class="cls-1" d="M84,26.18V50.84a1.73,1.73,0,0,0,3.45,0V27.91h12.69V42.4a1.72,1.72,0,1,0,3.44,0V26.18a1.72,1.72,0,0,0-1.72-1.72H85.73A1.73,1.73,0,0,0,84,26.18Z"/><path class="cls-1" d="M14.31,57.51a7.83,7.83,0,0,0,6.78-11.76L36.36,31.66a7.82,7.82,0,0,0,11.4-2.84L59.48,31.9c0,.1,0,.19,0,.28a7.84,7.84,0,1,0,14.63-3.9l15.24-14A7.89,7.89,0,1,0,87,11.74l-15.24,14a7.82,7.82,0,0,0-11.41,2.83L48.63,25.48c0-.09,0-.18,0-.27A7.84,7.84,0,1,0,34,29.12L18.76,43.22a7.84,7.84,0,1,0-4.45,14.29ZM93.79,3.45A4.39,4.39,0,1,1,89.4,7.84,4.4,4.4,0,0,1,93.79,3.45ZM67.3,27.79a4.39,4.39,0,1,1-4.39,4.39A4.4,4.4,0,0,1,67.3,27.79Zm-26.49-7a4.39,4.39,0,1,1-4.39,4.39A4.4,4.4,0,0,1,40.81,20.82ZM14.31,45.28a4.39,4.39,0,1,1-4.39,4.39A4.4,4.4,0,0,1,14.31,45.28Z"/><path class="cls-1" d="M115.58,77.06a15.61,15.61,0,0,0-6.28-4.62,63.73,63.73,0,0,0-8-2.45c-2.12-.53-3.78-1-4.93-1.39a5.87,5.87,0,0,1-2-1.14.86.86,0,0,1-.27-.76A1.9,1.9,0,0,1,95,65a6.37,6.37,0,0,1,3.78-1,10.73,10.73,0,0,1,4,.63A22.89,22.89,0,0,1,106,66.29a3,3,0,0,0,4-.85L114.39,59a3,3,0,0,0,.46-2.26,2.93,2.93,0,0,0-1.27-1.88,27.33,27.33,0,0,0-8.47-3.64V48.92A2.94,2.94,0,0,0,102.17,46H94.55a2.94,2.94,0,0,0-2.94,2.94V51.4a19.47,19.47,0,0,0-8.76,5,15,15,0,0,0-4.52,10.93,13.4,13.4,0,0,0,2.89,8.9,16.19,16.19,0,0,0,6.42,4.67,70.75,70.75,0,0,0,8.08,2.52c2.14.59,3.77,1.07,4.84,1.42a5.73,5.73,0,0,1,1.92,1,.41.41,0,0,1,.17.41,1.76,1.76,0,0,1-.8,1.66,7.36,7.36,0,0,1-4.19.9A16,16,0,0,1,93,88.19a22,22,0,0,1-4-1.72,3,3,0,0,0-3.86.93l-4.4,6.51a3,3,0,0,0-.44,2.26A2.87,2.87,0,0,0,81.54,98a25.51,25.51,0,0,0,4,2H77.09V50.52a1.72,1.72,0,0,0-1.72-1.72H59.23a1.72,1.72,0,0,0-1.72,1.72v49.54H50.6V43a1.73,1.73,0,0,0-1.73-1.72H32.74A1.72,1.72,0,0,0,31,43v57.11H24.1V67.46a1.72,1.72,0,0,0-1.72-1.73H6.25a1.72,1.72,0,0,0-1.73,1.73v32.6H1.72a1.73,1.73,0,0,0,0,3.45H91.8V104a3,3,0,0,0,3,2.94h7.61A2.94,2.94,0,0,0,105.3,104v-2.47A19.26,19.26,0,0,0,114,96.63a14.71,14.71,0,0,0,4.4-10.78A13.41,13.41,0,0,0,115.58,77.06ZM61,52.25H73.64v47.81H61Zm-26.5-7.58H47.15v55.39H34.46ZM8,69.18H20.65v30.88H8Zm103.58,25a16,16,0,0,1-7.89,4.14l-1.81.42v4.69h-6.6V98.9l-2-.29a27.87,27.87,0,0,1-5.15-1.26,22.61,22.61,0,0,1-4.24-1.95l3.84-5.69A25,25,0,0,0,92,91.49a19.85,19.85,0,0,0,5.68.82,10.65,10.65,0,0,0,6.17-1.53,5.18,5.18,0,0,0,2.27-4.48,3.82,3.82,0,0,0-1.37-3,9.14,9.14,0,0,0-3.08-1.7c-1.13-.37-2.82-.87-5-1.48a66,66,0,0,1-7.69-2.4A12.54,12.54,0,0,1,83.86,74a10.09,10.09,0,0,1-2.08-6.68,11.66,11.66,0,0,1,3.52-8.5,16.16,16.16,0,0,1,8-4.3l1.79-.43V49.42h6.61V54l1.88.37a23.53,23.53,0,0,1,7.72,3.08l-3.89,5.65A26.23,26.23,0,0,0,104,61.42a14.4,14.4,0,0,0-5.27-.86,9.64,9.64,0,0,0-5.83,1.63,5.35,5.35,0,0,0-2.29,4.51A4.3,4.3,0,0,0,92,70a9.22,9.22,0,0,0,3.25,1.87c1.24.43,3,.92,5.22,1.48A58.27,58.27,0,0,1,108,75.65a12.08,12.08,0,0,1,4.9,3.61,10.05,10.05,0,0,1,2,6.59A11.37,11.37,0,0,1,111.55,94.19Z"/></g></g></svg>