<svg xmlns="http://www.w3.org/2000/svg" viewBox="0 0 120.39 114.24"><defs><style>.cls-1{fill:#d72a17;}</style></defs><title>icon-kv3</title><g id="圖層_2" data-name="圖層 2"><g id="text"><path class="cls-1" d="M117.13,79.47a18.19,18.19,0,0,0-7.31-5.37,72.71,72.71,0,0,0-9.38-2.87c-2.5-.63-4.46-1.18-5.81-1.65a7,7,0,0,1-2.46-1.38,1.17,1.17,0,0,1-.37-1A2.41,2.41,0,0,1,92.92,65a7.53,7.53,0,0,1,4.55-1.17,12.93,12.93,0,0,1,4.77.75,29.35,29.35,0,0,1,3.86,2,3.29,3.29,0,0,0,4.39-.94l5.23-7.6a3.3,3.3,0,0,0,.51-2.52,3.21,3.21,0,0,0-1.42-2.09c-.24-.16-.49-.28-.73-.43a57.12,57.12,0,1,0-29.42,54.21,37.63,37.63,0,0,0,4.84,1.21V111a3.28,3.28,0,0,0,3.28,3.28h8.94A3.28,3.28,0,0,0,105,111v-3a22.36,22.36,0,0,0,10.27-5.69,17.09,17.09,0,0,0,5.12-12.54A15.61,15.61,0,0,0,117.13,79.47ZM101.5,43h-9a3.29,3.29,0,0,0-3.28,3.29v3q-.8.22-1.56.48a77,77,0,0,0-5.1-21.24A93.12,93.12,0,0,0,98,22.74,53.14,53.14,0,0,1,110.19,50.9a31.29,31.29,0,0,0-5.41-1.82v-2.8A3.29,3.29,0,0,0,101.5,43ZM77,78.27a19.64,19.64,0,0,0,3.26,3.07c-.4,1.15-.81,2.29-1.27,3.42a94.78,94.78,0,0,0-20-2.53V59H76a17.55,17.55,0,0,0-2.37,9A15.59,15.59,0,0,0,77,78.27Zm-1.08,23.52a3.18,3.18,0,0,0,1.43,2.06,27.64,27.64,0,0,0,2.74,1.52,53.77,53.77,0,0,1-12.53,4.16,77.55,77.55,0,0,0,16-26.27c.33.14.63.32,1,.45a81.67,81.67,0,0,0,9.47,3c2.52.69,4.44,1.25,5.7,1.67A6.91,6.91,0,0,1,102,89.6a.65.65,0,0,1,.26.61,2.25,2.25,0,0,1-1,2.11,9.08,9.08,0,0,1-5,1.1,19,19,0,0,1-5.56-.81,25,25,0,0,1-4.75-2,3.29,3.29,0,0,0-4.3,1l-5.17,7.64A3.28,3.28,0,0,0,75.93,101.79ZM36.78,88.16a90.36,90.36,0,0,1,18.5-2.25v24.6c-.88,0-1.74-.08-2.61-.15A73.46,73.46,0,0,1,36.78,88.16ZM52.67,3.88q1.3-.1,2.61-.15V28.34a91.07,91.07,0,0,1-18.5-2.26A73.76,73.76,0,0,1,52.67,3.88ZM77.53,26.07A91,91,0,0,1,59,28.34V3.73c.87,0,1.74.08,2.6.15A73.64,73.64,0,0,1,77.53,26.07ZM67.54,4.7A53.41,53.41,0,0,1,95.46,19.89a90.31,90.31,0,0,1-14.3,5.26A77.35,77.35,0,0,0,67.54,4.7ZM55.28,32V55.28H29.91a73.67,73.67,0,0,1,5.37-25.76A94.38,94.38,0,0,0,55.28,32ZM26.22,55.28H3.73A53.19,53.19,0,0,1,16.25,22.75a93.37,93.37,0,0,0,15.44,5.84A77.24,77.24,0,0,0,26.22,55.28Zm0,3.68a77.29,77.29,0,0,0,5.47,26.7,93.33,93.33,0,0,0-15.44,5.83A53.17,53.17,0,0,1,3.73,59Zm3.69,0H55.28V82.22a94.38,94.38,0,0,0-20,2.5A73.62,73.62,0,0,1,29.91,59ZM59,85.91a91.46,91.46,0,0,1,18.54,2.28,74.13,74.13,0,0,1-15.93,22.16q-1.3.11-2.61.15Zm20-30.7-.07.07H59V32a94.29,94.29,0,0,0,20-2.51,73.21,73.21,0,0,1,5.12,21.84A21.48,21.48,0,0,0,78.92,55.21ZM46.71,4.71A77.11,77.11,0,0,0,33.15,25.17a90.17,90.17,0,0,1-14.32-5.26A53.44,53.44,0,0,1,46.71,4.71ZM18.83,94.34a89.45,89.45,0,0,1,14.31-5.26,77.5,77.5,0,0,0,13.57,20.45A53.35,53.35,0,0,1,18.83,94.34Zm93.84,5.29a19.19,19.19,0,0,1-9.37,4.92l-2,.46v5.55H93.18V105.2L91,104.88a33.85,33.85,0,0,1-6.09-1.49A27.84,27.84,0,0,1,79.71,101l4.72-7a28.71,28.71,0,0,0,5.15,2.16,22.75,22.75,0,0,0,6.62,1c3.07,0,5.48-.59,7.15-1.77a5.91,5.91,0,0,0,2.59-5.12,4.32,4.32,0,0,0-1.54-3.4,10.52,10.52,0,0,0-3.56-2c-1.33-.44-3.31-1-5.92-1.75a75.21,75.21,0,0,1-9.07-2.82,15.11,15.11,0,0,1-6-4.38,12,12,0,0,1-2.48-8A13.93,13.93,0,0,1,81.54,57.8,19.28,19.28,0,0,1,91,52.7l2-.47V46.68h8.13v5.41l2.06.41a28.06,28.06,0,0,1,9.3,3.74l-4.78,6.94a30.1,30.1,0,0,0-4.07-2,16.56,16.56,0,0,0-6.13-1A11.12,11.12,0,0,0,90.73,62a6.12,6.12,0,0,0-2.62,5.16,4.86,4.86,0,0,0,1.57,3.73,10.63,10.63,0,0,0,3.75,2.16c1.45.5,3.51,1.08,6.12,1.73a71.92,71.92,0,0,1,8.91,2.72,14.62,14.62,0,0,1,5.83,4.3,12,12,0,0,1,2.41,7.87A13.61,13.61,0,0,1,112.67,99.63Z"/></g></g></svg>