<svg xmlns="http://www.w3.org/2000/svg" viewBox="0 0 120.47 120.47"><defs><style>.cls-1{fill:#d72a17;}</style></defs><title>icon-kv2</title><g id="圖層_2" data-name="圖層 2"><g id="text"><path class="cls-1" d="M62.57,62.54a1.94,1.94,0,0,0-1.94,1.94A4.65,4.65,0,1,1,56,59.84,1.95,1.95,0,1,0,56,56a8.53,8.53,0,1,0,8.53,8.53A1.94,1.94,0,0,0,62.57,62.54Z"/><path class="cls-1" d="M105.85,28.5a2,2,0,0,0,1.37-.57L119.9,15.25a1.94,1.94,0,0,0-1.15-3.3l-9.16-1.07-1.07-9.16a1.94,1.94,0,0,0-3.3-1.15L92.54,13.25A2,2,0,0,0,92,14.84l.89,7.58a56.08,56.08,0,1,0,5.18,5.18l7.57.88Zm-.73-22.34.68,5.76L96.62,21.1,96,15.33Zm-11,56.38A38.06,38.06,0,0,0,84.3,38.92l9.85-9.85A51.89,51.89,0,0,1,108,62.54ZM81.55,36.17a38,38,0,0,0-23.62-9.81V12.44A51.83,51.83,0,0,1,91.4,26.32Zm-12,30.26H73A17.15,17.15,0,0,1,57.93,81.49V78.07a1.95,1.95,0,1,0-3.89,0v3.42A17.14,17.14,0,0,1,39,66.43H42.4a1.95,1.95,0,0,0,0-3.89H39A17.13,17.13,0,0,1,54,47.48V50.9a1.95,1.95,0,1,0,3.89,0V47.48a17,17,0,0,1,8.7,3.61l-12,12a1.94,1.94,0,1,0,2.75,2.75l12-12A17.09,17.09,0,0,1,73,62.54H69.51a1.95,1.95,0,1,0,0,3.89Zm-.12-18.1a20.89,20.89,0,0,0-11.46-4.76V30.26A34.17,34.17,0,0,1,78.8,38.92ZM54,43.57a21,21,0,0,0-19,19H21.76A34.32,34.32,0,0,1,54,30.26Zm-19,22.86a21,21,0,0,0,19,19V98.71A34.32,34.32,0,0,1,21.76,66.43Zm22.86,19a21.05,21.05,0,0,0,19-19H90.21A34.32,34.32,0,0,1,57.93,98.71Zm19-22.86a21,21,0,0,0-4.76-11.47l9.41-9.4a34.17,34.17,0,0,1,8.66,20.87ZM54,12.44V26.36A38.24,38.24,0,0,0,17.86,62.54H3.94A52.14,52.14,0,0,1,54,12.44Zm-50.1,54H17.86A38.24,38.24,0,0,0,54,102.61v13.92A52.14,52.14,0,0,1,3.94,66.43Zm54,50.1V102.61A38.25,38.25,0,0,0,94.11,66.43H108A52.14,52.14,0,0,1,57.93,116.53ZM99.37,23.84l9.17-9.17,5.77.67-9.17,9.17Z"/></g></g></svg>