<svg xmlns="http://www.w3.org/2000/svg" viewBox="0 0 195 195"><defs><style>.cls-1{fill:#2a3646;}.cls-2{fill:#fff;}</style></defs><title>need-2</title><g id="圖層_2" data-name="圖層 2"><g id="text"><rect class="cls-1" width="195" height="195" rx="16"/><path class="cls-2" d="M69,87.86h41.46a1.61,1.61,0,1,0,0-3.22H69a1.61,1.61,0,1,0,0,3.22Z"/><path class="cls-2" d="M102.68,97H69a1.62,1.62,0,1,0,0,3.23h33.69a1.62,1.62,0,1,0,0-3.23Z"/><path class="cls-2" d="M100.45,109.29H69a1.61,1.61,0,1,0,0,3.22h31.46a1.61,1.61,0,1,0,0-3.22Z"/><path class="cls-2" d="M144.55,117.06a16.47,16.47,0,0,0-6.61-4.7,67.05,67.05,0,0,0-8.48-2.51c-2.26-.55-4-1-5.26-1.45a6.4,6.4,0,0,1-2.22-1.2,1,1,0,0,1-.34-.9,2.12,2.12,0,0,1,1-1.92,7.09,7.09,0,0,1,4.12-1,11.92,11.92,0,0,1,4.3.66,25.31,25.31,0,0,1,3.5,1.72,3,3,0,0,0,4-.83l4.73-6.65a2.84,2.84,0,0,0,.46-2.21,2.79,2.79,0,0,0-1.28-1.83,29.28,29.28,0,0,0-9.08-3.76V88a2.92,2.92,0,0,0-3-2.88h-1.81V53.41a6,6,0,0,0-6.11-5.91H74.94a1.71,1.71,0,0,0-1.18.47L48,72.91a1.62,1.62,0,0,0-.49,1.14v67.54a6,6,0,0,0,6.11,5.91h77a2.92,2.92,0,0,0,3-2.87V142a20.32,20.32,0,0,0,9.28-5,14.74,14.74,0,0,0,4.63-11A13.34,13.34,0,0,0,144.55,117.06ZM73.27,53V70.83a1.64,1.64,0,0,1-1.67,1.61H53.19ZM50.83,141.59V75.67H71.6a4.93,4.93,0,0,0,5-4.84V50.73h45.9a2.73,2.73,0,0,1,2.78,2.68V85.13h-3a2.92,2.92,0,0,0-3,2.88v2.67A20.77,20.77,0,0,0,110,95.82,15.1,15.1,0,0,0,105.24,107a13.36,13.36,0,0,0,3,9.05,16.8,16.8,0,0,0,6.77,4.76,74.44,74.44,0,0,0,8.57,2.59c2.27.6,4,1.1,5.15,1.47a6.21,6.21,0,0,1,2.1,1.1.56.56,0,0,1,.24.53,2,2,0,0,1-.92,1.85,8.48,8.48,0,0,1-4.56,1,18.07,18.07,0,0,1-5-.7,23.49,23.49,0,0,1-4.31-1.78,3,3,0,0,0-3.88.9l-4.67,6.69a2.83,2.83,0,0,0-.45,2.22,2.76,2.76,0,0,0,1.29,1.8A28.34,28.34,0,0,0,114.3,141a33.74,33.74,0,0,0,5.26,1.32v1.91H53.61A2.73,2.73,0,0,1,50.83,141.59Zm89.69-6.89A17.42,17.42,0,0,1,132,139l-1.79.4v4.86h-7.36v-4.69l-2-.28a31.11,31.11,0,0,1-5.51-1.3,26.14,26.14,0,0,1-4.69-2.11l4.27-6.12a27,27,0,0,0,4.66,1.89,21.49,21.49,0,0,0,6,.83,11.46,11.46,0,0,0,6.47-1.55,5.1,5.1,0,0,0,2.34-4.48,3.71,3.71,0,0,0-1.39-3,9.51,9.51,0,0,0-3.22-1.72c-1.21-.39-3-.9-5.35-1.53a71.74,71.74,0,0,1-8.21-2.47,13.59,13.59,0,0,1-5.44-3.83,10.34,10.34,0,0,1-2.25-7,12,12,0,0,1,3.79-8.87,17.69,17.69,0,0,1,8.55-4.46l1.78-.41V88.36h7.36V93.1l1.86.36a25.5,25.5,0,0,1,8.41,3.27L136,102.8a28.9,28.9,0,0,0-3.68-1.78,15.59,15.59,0,0,0-5.54-.88,10.25,10.25,0,0,0-6.1,1.65,5.28,5.28,0,0,0-2.37,4.51,4.2,4.2,0,0,0,1.41,3.27,9.53,9.53,0,0,0,3.4,1.88c1.31.44,3.17,1,5.54,1.53a64.07,64.07,0,0,1,8.05,2.38,13,13,0,0,1,5.27,3.76,10.3,10.3,0,0,1,2.19,6.89A11.67,11.67,0,0,1,140.52,134.7Z"/></g></g></svg>