<svg xmlns="http://www.w3.org/2000/svg" viewBox="0 0 330 250.69"><defs><style>.cls-1{fill:#fdbe11;}.cls-2{fill:#2a3646;}.cls-3{fill:#fff;}.cls-4{fill:#c9c9c9;}.cls-5{fill:#4975bf;}.cls-6{fill:#d72a17;}</style></defs><title>targeting</title><g id="圖層_2" data-name="圖層 2"><g id="text"><path class="cls-1" d="M260.68,134.88h50.68a11.06,11.06,0,0,1,11.06,11.06v19.58a11.06,11.06,0,0,1-11.06,11.06H260.68a0,0,0,0,1,0,0V134.88A0,0,0,0,1,260.68,134.88Z" transform="translate(447.27 -135.83) rotate(90)"/><path class="cls-2" d="M293.37,188.31h-3.64A20.78,20.78,0,0,1,269,167.56v-42.7a1.72,1.72,0,0,1,1.72-1.72h41.7a1.72,1.72,0,0,1,1.72,1.72v42.7A20.78,20.78,0,0,1,293.37,188.31Zm-20.95-61.73v41a17.33,17.33,0,0,0,17.31,17.31h3.64a17.33,17.33,0,0,0,17.31-17.31v-41Z"/><path class="cls-2" d="M290.33,182.73h0a17.48,17.48,0,0,1-5.58-.88s-.05,0-.07,0a13.41,13.41,0,0,1-6.4-4.38,1.78,1.78,0,0,1-.36-1.27,1.71,1.71,0,0,1,.63-1.15,1.8,1.8,0,0,1,2.43.27,10.08,10.08,0,0,0,4.8,3.27h0l.07,0a14.57,14.57,0,0,0,4.48.71,1.72,1.72,0,1,1,0,3.44Zm-13-9.23a1.72,1.72,0,1,1,1.65-2.18,1.7,1.7,0,0,1-1.18,2.11A1.28,1.28,0,0,1,277.35,173.5Zm-.67-6.81A1.71,1.71,0,0,1,275,165V152.92a1.72,1.72,0,1,1,3.44,0V165A1.72,1.72,0,0,1,276.68,166.69Zm0-17.21a1.72,1.72,0,1,1,1.72-1.72A1.71,1.71,0,0,1,276.68,149.48Zm0-6.88a1.72,1.72,0,0,1-1.72-1.72v-6a1.72,1.72,0,1,1,3.44,0v6A1.73,1.73,0,0,1,276.68,142.6Z"/><path class="cls-2" d="M270.06,169c-10.14-4.08-17-14.6-17-26.17V131.65h17.6v3.44H256.54v7.77c0,10.18,5.95,19.41,14.81,23Z"/><path class="cls-2" d="M313,169l-1.29-3.2c8.86-3.56,14.81-12.79,14.81-23v-7.77H312.4v-3.44H330v11.21C330,154.43,323.18,165,313,169Z"/><polygon class="cls-1" points="288.32 219.58 286.14 186.43 296.96 186.43 294.78 219.58 288.32 219.58"/><path class="cls-2" d="M294.78,221.3h-6.46a1.72,1.72,0,0,1-1.71-1.6l-2.19-33.16a1.76,1.76,0,0,1,.46-1.29,1.72,1.72,0,0,1,1.26-.54H297a1.71,1.71,0,0,1,1.72,1.83l-2.19,33.16A1.72,1.72,0,0,1,294.78,221.3Zm-4.84-3.44h3.22l2-29.71H288Z"/><path class="cls-3" d="M289.9,216.53h6a0,0,0,0,1,0,0v14.89a0,0,0,0,1,0,0h-6a2.74,2.74,0,0,1-2.74-2.74v-9.42A2.74,2.74,0,0,1,289.9,216.53Z" transform="translate(515.52 -67.58) rotate(90)"/><path class="cls-2" d="M300.72,230.08H282.38v-5.79a6.44,6.44,0,0,1,6.43-6.43h5.47a6.45,6.45,0,0,1,6.44,6.43Zm-14.9-3.44h11.45v-2.35a3,3,0,0,0-3-3h-5.47a3,3,0,0,0-3,3Z"/><rect class="cls-1" x="287.6" y="219.08" width="7.89" height="26.47" transform="translate(523.86 -59.24) rotate(90)"/><path class="cls-2" d="M304.78,238H278.31a1.72,1.72,0,0,1-1.72-1.72v-7.9a1.72,1.72,0,0,1,1.72-1.72h26.47a1.72,1.72,0,0,1,1.73,1.72v7.9A1.72,1.72,0,0,1,304.78,238ZM280,234.54h23v-4.46H280Z"/><path class="cls-2" d="M293.87,131.55a1.72,1.72,0,1,1,1.72-1.72A1.72,1.72,0,0,1,293.87,131.55Zm-5.16,0h-12a1.72,1.72,0,0,1,0-3.44h12a1.72,1.72,0,1,1,0,3.44Z"/><rect class="cls-3" x="56.59" y="108.79" width="189.69" height="118.49"/><path class="cls-2" d="M247.54,228.54H55.32v-121H247.54ZM57.86,226H245V110.06H57.86Z"/><rect class="cls-3" x="56.59" y="99.35" width="189.69" height="9.44"/><path class="cls-2" d="M247.54,110.06H55.32v-12H247.54ZM57.86,107.52H245v-6.9H57.86Z"/><rect class="cls-3" x="56.59" y="227.27" width="189.69" height="9.44"/><path class="cls-2" d="M247.54,238H55.32V226H247.54ZM57.86,235.44H245v-6.9H57.86Z"/><path class="cls-4" d="M224.59,217.13H75.22V121.35H224.59ZM77.76,214.59h144.3v-90.7H77.76Z"/><rect class="cls-4" x="89.87" y="122.62" width="2.54" height="92.22"/><rect class="cls-4" x="104.52" y="122.62" width="2.54" height="93.23"/><rect class="cls-4" x="119.17" y="122.62" width="2.54" height="93.23"/><rect class="cls-4" x="133.82" y="122.62" width="2.54" height="93.23"/><rect class="cls-4" x="148.47" y="122.62" width="2.54" height="93.23"/><rect class="cls-4" x="163.12" y="122.62" width="2.54" height="93.23"/><rect class="cls-4" x="177.77" y="122.62" width="2.54" height="93.23"/><rect class="cls-4" x="192.42" y="122.62" width="2.54" height="93.23"/><rect class="cls-4" x="207.07" y="122.62" width="2.54" height="93.23"/><path class="cls-2" d="M207.12,174.49l2.25,2.25,2.21-2.22.76.75-2.22,2.22,2.28,2.28-.75.76-2.28-2.28-2.22,2.21-.75-.75,2.21-2.22-2.25-2.25Z"/><path class="cls-2" d="M162.12,144.1l2.25,2.25,2.22-2.22.75.75-2.21,2.22,2.28,2.28-.75.76-2.29-2.29-2.21,2.22-.76-.75,2.22-2.22-2.25-2.25Z"/><path class="cls-2" d="M103.52,137.06l2.25,2.25,2.22-2.22.75.76-2.21,2.21,2.28,2.29-.75.75-2.29-2.28L103.56,143l-.76-.75,2.22-2.22-2.25-2.25Z"/><rect class="cls-5" x="207.03" y="134.86" width="2.54" height="2.54" transform="translate(-40.38 127.29) rotate(-31.13)"/><path class="cls-5" d="M125.59,178l-1.15-2.27,4.62-2.33,1.15,2.27Zm6.93-3.5-1.15-2.26,3.15-1.59a1.22,1.22,0,0,1,.57-.13h1.65V173h-1.35ZM149.31,173h-2.22V170.5H149l2.23-1.35,1.31,2.17L150,172.85A1.27,1.27,0,0,1,149.31,173Zm-4.8,0h-5.18V170.5h5.18Zm10.2-3-1.31-2.18,4.43-2.67,1.31,2.17Zm6.65-4-1.31-2.17,4.42-2.68,1.32,2.17Zm6.64-4-1.31-2.18,4.43-2.67,1.31,2.17Zm6.65-4-1.32-2.17,4.43-2.68,1.32,2.17Zm6.64-4L180,151.76l4.43-2.68,1.31,2.17Zm6.64-4-1.31-2.17,4.43-2.68,1.31,2.18Zm6.65-4-1.31-2.17,4.42-2.68,1.32,2.17Zm6.64-4-1.31-2.17,4.43-2.67,1.31,2.17Z"/><path class="cls-5" d="M120.44,180.43a1.28,1.28,0,0,1-.86-.34l-1.87-1.71,1.72-1.87,1.22,1.12,1.48-.75,1.15,2.27L121,180.29A1.3,1.3,0,0,1,120.44,180.43Z"/><path class="cls-5" d="M116.15,177,113,174.09l1.72-1.87,3.12,2.86Zm-4.67-4.29-3.12-2.85,1.72-1.88,3.11,2.86Z"/><path class="cls-5" d="M105.21,168.5l-2-1.57,1.57-2a1.28,1.28,0,0,1,.9-.48,1.26,1.26,0,0,1,1,.33l1.87,1.71-1.72,1.88-.86-.8Z"/><path class="cls-5" d="M95.33,181l-2-1.57,3.29-4.16,2,1.57Zm4.94-6.24-2-1.57,3.29-4.16,2,1.57Z"/><rect class="cls-5" x="90.63" y="182" width="2.54" height="2.54" transform="translate(-108.83 141.52) rotate(-51.62)"/><path class="cls-2" d="M87.06,177.51l4,4,4-4,1.35,1.35-4,4L96.57,187l-1.35,1.35-4.11-4.11-4,4-1.35-1.35,4-4-4-4Z"/><rect class="cls-5" x="120.88" y="199.38" width="2.54" height="2.54" transform="translate(-106.06 256.33) rotate(-72.38)"/><path class="cls-5" d="M124.48,197.5l-2.42-.77,1.47-4.64,2.42.76Zm2.21-7-2.42-.77,1.47-4.64,2.42.77Zm2.21-7-2.42-.77,1.47-4.64,2.42.76Zm2.21-7-2.42-.77,1.47-4.64,2.42.77Zm2.21-7-2.42-.77,1.48-4.65,2.42.77Z"/><path class="cls-5" d="M135.53,162.67l-2.42-.77.77-2.42a1.27,1.27,0,0,1,.65-.75l2.27-1.13,1.13,2.28-1.79.89Z"/><rect class="cls-5" x="139.6" y="154.97" width="5.64" height="2.54" transform="translate(-54.51 79.33) rotate(-26.32)"/><path class="cls-5" d="M149.56,155.45l-.46-1.1-1.07.53-1.13-2.28,2.28-1.12a1.24,1.24,0,0,1,1-.06,1.32,1.32,0,0,1,.73.7l1,2.33Z"/><path class="cls-5" d="M161.31,183.13l-2-4.62,2.34-1,2,4.62Zm-2.94-6.92-2-4.62,2.34-1,2,4.62Zm-2.93-6.92-2-4.62,2.34-1,2,4.61Zm-2.94-6.92-2-4.62,2.34-1,2,4.61Z"/><path class="cls-5" d="M164.45,188.54h-.2a1.28,1.28,0,0,1-1-.76l-1-2.34,2.33-1,.2.47.33-.38,1.92,1.66-1.66,1.92A1.28,1.28,0,0,1,164.45,188.54Z"/><path class="cls-5" d="M168.73,184.27l-1.91-1.66,3.33-3.84,1.91,1.66Zm5-5.76-1.92-1.66,3.33-3.84,1.92,1.67Zm5-5.75-1.92-1.67,3.33-3.83,1.92,1.66Zm5-5.76-1.91-1.66,3.32-3.84,1.92,1.66Zm5-5.76-1.92-1.66,3.33-3.84,1.91,1.67Zm5-5.75-1.92-1.66,3.33-3.84,1.92,1.66Zm5-5.76-1.91-1.66,3.32-3.84,1.92,1.66Zm5-5.75-1.92-1.67,3.33-3.84,1.91,1.67Z"/><rect class="cls-5" x="207.28" y="135.16" width="2.54" height="2.54" transform="translate(-31.15 204.64) rotate(-49.08)"/><circle class="cls-4" cx="208.17" cy="135.47" r="4.61"/><path class="cls-2" d="M208.18,141.35a5.88,5.88,0,1,1,5.87-5.88A5.88,5.88,0,0,1,208.18,141.35Zm0-9.22a3.34,3.34,0,1,0,3.33,3.34A3.34,3.34,0,0,0,208.18,132.13Z"/><path class="cls-3" d="M278.68,175c0-2.24,1.58-5.81,1.58-11.18a17.09,17.09,0,0,0-2.52-9.36c-1.32-15.05-20-20.78-35-20.78-23.12,0-39.15,15.74-39.15,34.88,0,20.39,13.12,28.59,13.12,37.6l.16,30.55H248c.34-6.85-.94-14.27,8.54-14.27l16.25,0c1,0,3.63-1.74,3.63-5.61,0-2.82-1.88-6.36-1.88-6.49,0-2.28,4.16-2.12,4.16-4.47,0-1.46-2.1-2.39-2.1-2.75,0-1.21,2.49-1.12,2.49-2.89,0-.94-.47-2.11-.47-3.06,0-3.78,7.3.6,7.3-6.18C285.91,185.11,278.68,181.77,278.68,175Z"/><path class="cls-2" d="M249.19,238H215.57l-.17-31.81c0-3.26-2-6.49-4.42-10.59-3.88-6.42-8.7-14.42-8.7-27,0-20.61,17.38-36.15,40.42-36.15,17,0,34.73,6.69,36.27,21.64a18.2,18.2,0,0,1,2.56,9.77,35.73,35.73,0,0,1-1.07,8.18,16.38,16.38,0,0,0-.51,3c0,3.08,1.73,5.38,3.55,7.82s3.68,4.92,3.68,8.19c0,5-3.64,5.38-5.59,5.56-1.71.16-1.71.27-1.71.62a6.73,6.73,0,0,0,.21,1.26,8.41,8.41,0,0,1,.26,1.8,3.2,3.2,0,0,1-2,2.81,3.86,3.86,0,0,1,1.59,2.83c0,2-1.68,2.82-2.78,3.4-.79.4-1.21.66-1.34.91h0a17.88,17.88,0,0,1,1.83,6.64c0,4.51-3.19,6.87-4.9,6.87H256.53c-6.67,0-7.07,3.73-7.19,10.32,0,.91,0,1.83-.09,2.75Zm-31.1-2.54h28.68l0-1.46c.11-6,.25-12.81,9.73-12.81l16.25,0c.47-.08,2.37-1.35,2.37-4.34a15.79,15.79,0,0,0-1.61-5.59,1.9,1.9,0,0,1-.28-.9c0-1.9,1.59-2.73,2.75-3.33,1-.51,1.41-.78,1.41-1.14s-.72-.93-1.07-1.2c-.51-.4-1-.81-1-1.55a2.66,2.66,0,0,1,1.72-2.25c.7-.38.77-.48.77-.64a6.67,6.67,0,0,0-.2-1.25,8.51,8.51,0,0,1-.27-1.81c0-2.77,2.51-3,4-3.15,2.05-.19,3.28-.31,3.28-3,0-2.43-1.54-4.48-3.17-6.67-1.9-2.53-4.06-5.41-4.06-9.34a17.91,17.91,0,0,1,.57-3.56,33,33,0,0,0,1-7.62,15.82,15.82,0,0,0-2.32-8.68l-.17-.26,0-.31c-1.36-15.49-21.88-19.63-33.78-19.63-21.6,0-37.88,14.45-37.88,33.62,0,11.89,4.62,19.56,8.33,25.71,2.57,4.26,4.79,7.94,4.79,11.89Z"/><path class="cls-2" d="M270.51,149.06a1.28,1.28,0,0,1-1-.49c-4.43-5.67-15-9.33-26.81-9.33a1.27,1.27,0,1,1,0-2.54c10,0,22.87,2.71,28.81,10.31a1.26,1.26,0,0,1-.21,1.78A1.3,1.3,0,0,1,270.51,149.06Z"/><rect class="cls-3" x="229.07" y="196.63" width="16.82" height="3.89"/><path class="cls-2" d="M247.16,201.79H227.8v-6.43h19.36Zm-16.82-2.54h14.28V197.9H230.34Z"/><path class="cls-3" d="M229.07,205.5h16.82a0,0,0,0,1,0,0v3.16a3.43,3.43,0,0,1-3.43,3.43h-10a3.43,3.43,0,0,1-3.43-3.43V205.5A0,0,0,0,1,229.07,205.5Z"/><path class="cls-2" d="M241.53,213.36h-8.1a5.63,5.63,0,0,1-5.63-5.62v-3.51h19.36v3.51A5.63,5.63,0,0,1,241.53,213.36Zm-11.19-6.59v1a3.09,3.09,0,0,0,3.09,3.09h8.1a3.09,3.09,0,0,0,3.09-3.09v-1Z"/><path class="cls-1" d="M229.07,191.93h17v-.51a17.76,17.76,0,0,1,3.06-10,13.77,13.77,0,0,0,2.38-7.76A13.93,13.93,0,1,0,226,181.45a17.81,17.81,0,0,1,3.06,10Z"/><rect class="cls-2" x="236.28" y="180.35" width="2.54" height="25.15"/><path class="cls-2" d="M237.55,183l-6.33-11.78h12.67Zm-2.08-9.24,2.08,3.88,2.09-3.88Z"/><circle class="cls-3" cx="63.02" cy="221.8" r="27.62" transform="translate(-92.54 51.6) rotate(-26.57)"/><circle class="cls-4" cx="63.02" cy="221.8" r="27.62" transform="translate(-92.54 51.6) rotate(-26.57)"/><path class="cls-2" d="M63,250.69a28.89,28.89,0,1,1,27.42-19.76h0A28.94,28.94,0,0,1,63,250.69Zm0-55.25a26.35,26.35,0,1,0,25,34.69h0a26.38,26.38,0,0,0-25-34.69Z"/><circle class="cls-3" cx="63.02" cy="221.8" r="19.98"/><path class="cls-2" d="M63,243.05a21.26,21.26,0,1,1,20.18-14.53A21.16,21.16,0,0,1,63,243.05Zm0-40a18.72,18.72,0,1,0,17.74,24.64h0A18.74,18.74,0,0,0,63,203.08Z"/><path class="cls-3" d="M75.66,226a13.32,13.32,0,1,0-16.85,8.43A13.33,13.33,0,0,0,75.66,226Z"/><path class="cls-4" d="M75.66,226a13.32,13.32,0,1,0-16.85,8.43A13.33,13.33,0,0,0,75.66,226Z"/><path class="cls-2" d="M63,236.4a14.71,14.71,0,0,1-4.62-.76,14.59,14.59,0,1,1,18.45-9.23h0A14.61,14.61,0,0,1,63,236.4Zm0-26.66a12.06,12.06,0,1,0,11.44,15.87h0a12.05,12.05,0,0,0-7.62-15.25A12.27,12.27,0,0,0,63,209.74Z"/><path class="cls-3" d="M71.45,224.61a8.88,8.88,0,1,0-11.24,5.61A8.89,8.89,0,0,0,71.45,224.61Z"/><path class="cls-2" d="M63,232a10.23,10.23,0,0,1-3.22-.52A10.15,10.15,0,1,1,72.65,225h0A10.14,10.14,0,0,1,63,232Zm0-17.77a7.62,7.62,0,1,0,7.23,10h0a7.63,7.63,0,0,0-7.23-10Z"/><path class="cls-4" d="M66.59,223a3.76,3.76,0,1,0-4.76,2.38A3.77,3.77,0,0,0,66.59,223Z"/><path class="cls-2" d="M63,226.83a5.11,5.11,0,0,1-1.58-.25A5,5,0,1,1,64.61,217a5.05,5.05,0,0,1,3.19,6.37h0A5,5,0,0,1,63,226.83Zm0-7.53a2.59,2.59,0,0,0-1.12.26,2.5,2.5,0,1,0,3.49,3h0a2.49,2.49,0,0,0-.14-1.91A2.5,2.5,0,0,0,63,219.3Z"/><path class="cls-2" d="M61.3,221.22a1.25,1.25,0,0,1-1-.5L32.24,184a1.27,1.27,0,0,1,2-1.54l28,36.68a1.27,1.27,0,0,1-.23,1.78A1.26,1.26,0,0,1,61.3,221.22Z"/><path class="cls-2" d="M60.78,219.28l.72-1.84.07,0,.8,2.84L63.61,223l-2.25-1.9-2.53-1.52,0-.06Z"/><path class="cls-2" d="M35.47,187.44h-.2l-5.1-.79a1.26,1.26,0,1,1,.38-2.5l3.94.6.89-4a1.27,1.27,0,1,1,2.47.56l-1.15,5.11A1.26,1.26,0,0,1,35.47,187.44Z"/><path class="cls-2" d="M37.81,190.46l-.19,0-5.1-.78a1.27,1.27,0,0,1,.38-2.51l3.94.6.88-3.95a1.27,1.27,0,0,1,2.48.56l-1.15,5.11A1.27,1.27,0,0,1,37.81,190.46Z"/><path class="cls-3" d="M204.48,201.64h-.08a1.49,1.49,0,0,0,.17-.64c0-3-9.34-5.38-20.85-5.38S162.87,198,162.87,201v38.45c0,3,9.35,5.38,20.89,5.38s20.88-2.41,20.88-5.38Z"/><path class="cls-2" d="M183.76,246.09c-10.67,0-22.15-2.08-22.15-6.65V201c0-4.57,11.46-6.65,22.11-6.65s22.12,2.08,22.12,6.65a2.48,2.48,0,0,1-.09.65l.15,37.8C205.9,244,194.42,246.09,183.76,246.09Zm0-49.22c-12.92,0-19.58,2.89-19.58,4.12v38.45c0,1.23,6.68,4.11,19.62,4.11s19.61-2.88,19.61-4.11l-.16-36.55-.78,0,.82-1.77a.93.93,0,0,0,.05-.13C203.3,199.76,196.64,196.87,183.72,196.87Z"/><path class="cls-2" d="M183.72,207.63c-10.65,0-22.11-2.08-22.11-6.64s11.46-6.65,22.11-6.65,22.12,2.08,22.12,6.65S194.37,207.63,183.72,207.63Zm0-10.76c-12.92,0-19.58,2.89-19.58,4.12s6.66,4.11,19.58,4.11,19.58-2.89,19.58-4.11S196.64,196.87,183.72,196.87Z"/><path class="cls-2" d="M183.72,215.33c-10.65,0-22.11-2.08-22.11-6.65a1.27,1.27,0,1,1,2.53,0c0,1.23,6.66,4.11,19.58,4.11s19.58-2.88,19.58-4.11a1.27,1.27,0,0,1,2.54,0C205.84,213.25,194.37,215.33,183.72,215.33Z"/><path class="cls-2" d="M183.72,223c-10.65,0-22.11-2.08-22.11-6.65a1.27,1.27,0,1,1,2.53,0c0,1.23,6.66,4.11,19.58,4.11s19.58-2.88,19.58-4.11a1.27,1.27,0,1,1,2.54,0C205.84,220.94,194.37,223,183.72,223Z"/><path class="cls-2" d="M183.72,230.71c-10.65,0-22.11-2.08-22.11-6.65a1.27,1.27,0,1,1,2.53,0c0,1.23,6.66,4.11,19.58,4.11s19.58-2.88,19.58-4.11a1.27,1.27,0,0,1,2.54,0C205.84,228.63,194.37,230.71,183.72,230.71Z"/><path class="cls-2" d="M183.72,238.4c-10.65,0-22.11-2.08-22.11-6.65a1.27,1.27,0,1,1,2.53,0c0,1.23,6.66,4.11,19.58,4.11s19.58-2.88,19.58-4.11a1.27,1.27,0,0,1,2.54,0C205.84,236.32,194.37,238.4,183.72,238.4Z"/><path class="cls-2" d="M165.67,208a1.27,1.27,0,0,1-1.27-1.27v-2.9a1.27,1.27,0,0,1,2.54,0v2.9A1.27,1.27,0,0,1,165.67,208Z"/><path class="cls-2" d="M169.24,209.22A1.26,1.26,0,0,1,168,208v-2.9a1.27,1.27,0,1,1,2.54,0V208A1.26,1.26,0,0,1,169.24,209.22Z"/><path class="cls-2" d="M173.4,210.18a1.27,1.27,0,0,1-1.27-1.27V206a1.27,1.27,0,1,1,2.54,0v2.9A1.27,1.27,0,0,1,173.4,210.18Z"/><path class="cls-2" d="M178.28,210.67a1.26,1.26,0,0,1-1.27-1.26v-2.9a1.27,1.27,0,0,1,2.54,0v2.9A1.26,1.26,0,0,1,178.28,210.67Z"/><path class="cls-2" d="M201.66,207.89a1.27,1.27,0,0,1-1.27-1.27v-2.9a1.27,1.27,0,0,1,2.54,0v2.9A1.27,1.27,0,0,1,201.66,207.89Z"/><path class="cls-2" d="M198.09,209.11a1.27,1.27,0,0,1-1.27-1.27v-2.9a1.27,1.27,0,0,1,2.54,0v2.9A1.27,1.27,0,0,1,198.09,209.11Z"/><path class="cls-2" d="M193.93,210.06a1.26,1.26,0,0,1-1.26-1.27v-2.9a1.27,1.27,0,1,1,2.53,0v2.9A1.27,1.27,0,0,1,193.93,210.06Z"/><path class="cls-2" d="M189.05,210.56a1.27,1.27,0,0,1-1.27-1.27v-2.9a1.27,1.27,0,1,1,2.54,0v2.9A1.27,1.27,0,0,1,189.05,210.56Z"/><path class="cls-2" d="M183.72,210.91a1.27,1.27,0,0,1-1.27-1.27v-2.9a1.27,1.27,0,0,1,2.54,0v2.9A1.27,1.27,0,0,1,183.72,210.91Z"/><path class="cls-2" d="M165.67,215.75a1.27,1.27,0,0,1-1.27-1.27v-2.9a1.27,1.27,0,0,1,2.54,0v2.9A1.27,1.27,0,0,1,165.67,215.75Z"/><path class="cls-2" d="M169.24,217A1.27,1.27,0,0,1,168,215.7v-2.9a1.27,1.27,0,1,1,2.54,0v2.9A1.27,1.27,0,0,1,169.24,217Z"/><path class="cls-2" d="M173.4,217.93a1.27,1.27,0,0,1-1.27-1.27v-2.9a1.27,1.27,0,1,1,2.54,0v2.9A1.27,1.27,0,0,1,173.4,217.93Z"/><path class="cls-2" d="M178.28,218.42a1.27,1.27,0,0,1-1.27-1.27v-2.9a1.27,1.27,0,0,1,2.54,0v2.9A1.27,1.27,0,0,1,178.28,218.42Z"/><path class="cls-2" d="M201.66,215.64a1.27,1.27,0,0,1-1.27-1.27v-2.9a1.27,1.27,0,0,1,2.54,0v2.9A1.27,1.27,0,0,1,201.66,215.64Z"/><path class="cls-2" d="M198.09,216.85a1.26,1.26,0,0,1-1.27-1.26v-2.9a1.27,1.27,0,0,1,2.54,0v2.9A1.26,1.26,0,0,1,198.09,216.85Z"/><path class="cls-2" d="M193.93,217.81a1.26,1.26,0,0,1-1.26-1.27v-2.9a1.27,1.27,0,1,1,2.53,0v2.9A1.27,1.27,0,0,1,193.93,217.81Z"/><path class="cls-2" d="M189.05,218.3a1.26,1.26,0,0,1-1.27-1.26v-2.9a1.27,1.27,0,1,1,2.54,0V217A1.26,1.26,0,0,1,189.05,218.3Z"/><path class="cls-2" d="M183.72,218.65a1.27,1.27,0,0,1-1.27-1.27v-2.9a1.27,1.27,0,0,1,2.54,0v2.9A1.27,1.27,0,0,1,183.72,218.65Z"/><path class="cls-2" d="M165.67,223.5a1.27,1.27,0,0,1-1.27-1.27v-2.9a1.27,1.27,0,0,1,2.54,0v2.9A1.27,1.27,0,0,1,165.67,223.5Z"/><path class="cls-2" d="M169.24,224.72a1.27,1.27,0,0,1-1.27-1.27v-2.9a1.27,1.27,0,1,1,2.54,0v2.9A1.27,1.27,0,0,1,169.24,224.72Z"/><path class="cls-2" d="M173.4,225.67a1.27,1.27,0,0,1-1.27-1.27v-2.9a1.27,1.27,0,1,1,2.54,0v2.9A1.27,1.27,0,0,1,173.4,225.67Z"/><path class="cls-2" d="M178.28,226.17A1.27,1.27,0,0,1,177,224.9V222a1.27,1.27,0,0,1,2.54,0v2.9A1.27,1.27,0,0,1,178.28,226.17Z"/><path class="cls-2" d="M201.66,223.38a1.27,1.27,0,0,1-1.27-1.27v-2.9a1.27,1.27,0,0,1,2.54,0v2.9A1.27,1.27,0,0,1,201.66,223.38Z"/><path class="cls-2" d="M198.09,224.6a1.27,1.27,0,0,1-1.27-1.27v-2.9a1.27,1.27,0,0,1,2.54,0v2.9A1.27,1.27,0,0,1,198.09,224.6Z"/><path class="cls-2" d="M193.93,225.56a1.26,1.26,0,0,1-1.26-1.27v-2.9a1.27,1.27,0,1,1,2.53,0v2.9A1.27,1.27,0,0,1,193.93,225.56Z"/><path class="cls-2" d="M189.05,226.05a1.27,1.27,0,0,1-1.27-1.27v-2.9a1.27,1.27,0,1,1,2.54,0v2.9A1.27,1.27,0,0,1,189.05,226.05Z"/><path class="cls-2" d="M183.72,226.4a1.27,1.27,0,0,1-1.27-1.27v-2.9a1.27,1.27,0,0,1,2.54,0v2.9A1.27,1.27,0,0,1,183.72,226.4Z"/><path class="cls-2" d="M165.67,231.25A1.27,1.27,0,0,1,164.4,230v-2.9a1.27,1.27,0,0,1,2.54,0V230A1.27,1.27,0,0,1,165.67,231.25Z"/><path class="cls-2" d="M169.24,232.46a1.27,1.27,0,0,1-1.27-1.27v-2.9a1.27,1.27,0,1,1,2.54,0v2.9A1.27,1.27,0,0,1,169.24,232.46Z"/><path class="cls-2" d="M173.4,233.42a1.27,1.27,0,0,1-1.27-1.27v-2.9a1.27,1.27,0,1,1,2.54,0v2.9A1.27,1.27,0,0,1,173.4,233.42Z"/><path class="cls-2" d="M178.28,233.91a1.27,1.27,0,0,1-1.27-1.27v-2.9a1.27,1.27,0,0,1,2.54,0v2.9A1.27,1.27,0,0,1,178.28,233.91Z"/><path class="cls-2" d="M201.66,231.13a1.27,1.27,0,0,1-1.27-1.27V227a1.27,1.27,0,0,1,2.54,0v2.9A1.27,1.27,0,0,1,201.66,231.13Z"/><path class="cls-2" d="M198.09,232.35a1.27,1.27,0,0,1-1.27-1.27v-2.9a1.27,1.27,0,0,1,2.54,0v2.9A1.27,1.27,0,0,1,198.09,232.35Z"/><path class="cls-2" d="M193.93,233.3a1.26,1.26,0,0,1-1.26-1.27v-2.9a1.27,1.27,0,1,1,2.53,0V232A1.27,1.27,0,0,1,193.93,233.3Z"/><path class="cls-2" d="M189.05,233.8a1.27,1.27,0,0,1-1.27-1.27v-2.9a1.27,1.27,0,1,1,2.54,0v2.9A1.27,1.27,0,0,1,189.05,233.8Z"/><path class="cls-2" d="M183.72,234.15a1.27,1.27,0,0,1-1.27-1.27V230a1.27,1.27,0,0,1,2.54,0v2.9A1.27,1.27,0,0,1,183.72,234.15Z"/><path class="cls-2" d="M165.67,239a1.27,1.27,0,0,1-1.27-1.27v-2.9a1.27,1.27,0,0,1,2.54,0v2.9A1.27,1.27,0,0,1,165.67,239Z"/><path class="cls-2" d="M169.24,240.21a1.27,1.27,0,0,1-1.27-1.27V236a1.27,1.27,0,0,1,2.54,0v2.9A1.27,1.27,0,0,1,169.24,240.21Z"/><path class="cls-2" d="M173.4,241.16a1.26,1.26,0,0,1-1.27-1.26V237a1.27,1.27,0,0,1,2.54,0v2.91A1.26,1.26,0,0,1,173.4,241.16Z"/><path class="cls-2" d="M178.28,241.66a1.27,1.27,0,0,1-1.27-1.27v-2.9a1.27,1.27,0,0,1,2.54,0v2.9A1.27,1.27,0,0,1,178.28,241.66Z"/><path class="cls-2" d="M201.66,238.88a1.27,1.27,0,0,1-1.27-1.27v-2.9a1.27,1.27,0,0,1,2.54,0v2.9A1.27,1.27,0,0,1,201.66,238.88Z"/><path class="cls-2" d="M198.09,240.09a1.27,1.27,0,0,1-1.27-1.27v-2.9a1.27,1.27,0,0,1,2.54,0v2.9A1.26,1.26,0,0,1,198.09,240.09Z"/><path class="cls-2" d="M193.93,241.05a1.26,1.26,0,0,1-1.26-1.27v-2.9a1.27,1.27,0,1,1,2.53,0v2.9A1.27,1.27,0,0,1,193.93,241.05Z"/><path class="cls-2" d="M189.05,241.54a1.27,1.27,0,0,1-1.27-1.27v-2.9a1.27,1.27,0,1,1,2.54,0v2.9A1.27,1.27,0,0,1,189.05,241.54Z"/><path class="cls-2" d="M183.72,241.89a1.27,1.27,0,0,1-1.27-1.27v-2.9a1.27,1.27,0,0,1,2.54,0v2.9A1.27,1.27,0,0,1,183.72,241.89Z"/><path class="cls-3" d="M149,115.49,141.76,99l-6-15.91a1.15,1.15,0,0,0-2.21.51l.37,4.11v0c.15.48,4,12.93,3.28,13.57s3.21,6.48.12,10.27-11,4.52-12.26-5c-.33-2.42-1.35-7.35-1.4-7.57v0l-1.23-3.54v0l-3.34-30.6a2.85,2.85,0,0,0-4.55-2,.24.24,0,0,0-.06.11l-.58,7.11v0c0,.37.57,17.86-1.72,21.5s-2.92,4.69-9.36,4.07c-.53.07.63-6.76.71-7.18v0l-.3-2.16v0c.07-.73,2.4-26.51,1.81-27.54s1.93-5.68,4.34-8.59,27.11-19.41,27.79-19.86l0,0c.21-.07,2.51-.8,4.64-1.52a6.07,6.07,0,0,1,4.22.12l6.9,2.78h0l28.25,14.54h0L187.72,49h0c1.49.22,3.59,1.05,4.82.2l13.82-9.52a.15.15,0,0,1,.19,0L227.83,61.4a.15.15,0,0,1,0,.23L204.3,76.4a8.68,8.68,0,0,0-2.86,2.92c-.92,1.55-2.92,4.11-7.13,7.12-3.91,2.79-10.5,1.69-13.11.36a12.19,12.19,0,0,1-3.55-2.32c-.26-.36-3.49-1.09-9.73-2.65a.14.14,0,0,0-.11,0l-1.55,1.05a.16.16,0,0,0,0,.2l1.35,2.39a.15.15,0,0,0,.16.08c8.27-1.61,12.11,4,9.58,9l-.07.06-9,4.76h0a4.79,4.79,0,0,1-2.34.3l-4-.47a.16.16,0,0,1-.09,0l-5.27-5.74,0,0-6.67-12.66a3.56,3.56,0,0,0-4-1.8h0a.15.15,0,0,0-.09.22l5.15,9.59,4.8,9.26h0c.07.13,2.49,4,2.75,6.55.58,5.69-1.51,10.82-9.26,11A.15.15,0,0,1,149,115.49Z"/><path class="cls-2" d="M149.15,116.86a1.4,1.4,0,0,1-1.3-.85h0l-7.25-16.5L134.85,84.4l.28,3.07c3.29,10.68,3.57,13.34,3.24,14.27.06.27.21.72.34,1.11.79,2.39,2.1,6.39-.44,9.52a8.49,8.49,0,0,1-8.54,2.75c-1.88-.53-5.16-2.32-6-8.36-.31-2.25-1.23-6.75-1.37-7.41l-1.2-3.48c0-.05,0-.09,0-.14s0-.12,0-.17L117.79,65a1.57,1.57,0,0,0-.94-1.28,1.63,1.63,0,0,0-1.19,0l-.53,6.47c.09,3.2.42,18.43-1.91,22.15-2.56,4.08-3.69,5.33-10.56,4.66h0a1.41,1.41,0,0,1-.85-.4c-.45-.47-.84-.87.4-8.09l-.27-2a1,1,0,0,1,0-.17v-.15c1.1-12.2,2.09-25.27,1.87-27-1.1-2.74,4.51-9.77,4.57-9.84,2.35-2.84,23.75-17.23,28-20.09l.22-.12.16-.07c.22-.07,2.5-.8,4.63-1.52a7.31,7.31,0,0,1,5.09.15l6.9,2.79.12,0L181.74,45h0l6.35,2.75a10.58,10.58,0,0,1,1.1.22c.92.2,2.17.48,2.65.15l13.82-9.51a1.41,1.41,0,0,1,1.81.17l21.24,21.69a1.39,1.39,0,0,1,.4,1.16,1.41,1.41,0,0,1-.66,1L205,77.48A7.35,7.35,0,0,0,202.53,80c-1,1.71-3.14,4.4-7.48,7.5-4.51,3.22-11.62,1.89-14.43.46a15.73,15.73,0,0,1-3.82-2.49c-.3-.12-1-.31-1.87-.55a7.7,7.7,0,0,1,3,2.36,7.36,7.36,0,0,1,.5,7.91,1.39,1.39,0,0,1-.23.31,1.91,1.91,0,0,1-.38.31l-9,4.75a.56.56,0,0,1-.16.07,6.05,6.05,0,0,1-2.95.38l-4-.47a1.58,1.58,0,0,1-.87-.44l-5.27-5.75-.11-.13a1,1,0,0,1-.1-.17l-6.67-12.66a2.27,2.27,0,0,0-.94-1L152,88.19l4.79,9.23c.29.47,2.63,4.32,2.91,7,.39,3.84-.4,7-2.3,9.15s-4.58,3.16-8.19,3.24Zm1-1.88Zm-15.5-33.91a2.36,2.36,0,0,1,2.22,1.56l6.05,15.91,6.92,15.74a7.9,7.9,0,0,0,5.61-2.34c1.79-2,1.9-5,1.68-7.21-.2-1.89-1.92-5-2.57-6l0,0,0-.05-4.8-9.26-5.14-9.57a1.39,1.39,0,0,1-.05-1.24,1.4,1.4,0,0,1,.95-.81,4.85,4.85,0,0,1,5.5,2.43l6.59,12.53L162.46,98l3.61.42a3.53,3.53,0,0,0,1.73-.22l8.52-4.53a4.79,4.79,0,0,0-.41-4.92c-1.47-2-4.36-2.67-7.94-2a1.4,1.4,0,0,1-1.5-.69l-1.36-2.39a1.43,1.43,0,0,1,.44-1.88l1.54-1a1.62,1.62,0,0,1,1-.22l3.38.83c6.12,1.52,6.7,1.68,7.17,2.34h0a13.31,13.31,0,0,0,3.08,1.92c2.4,1.22,8.39,2.17,11.8-.26a23.83,23.83,0,0,0,6.78-6.74,9.94,9.94,0,0,1,3.27-3.34l22.33-14-19.61-20-13,9c-1.39,1-3.19.56-4.64.24-.38-.09-.75-.17-1.08-.22l-.13,0-.23-.08-6.54-2.84-28.3-14.57h0L145.54,30a4.77,4.77,0,0,0-3.33-.1c-1.91.64-4,1.3-4.53,1.49-12.07,8.08-25.83,17.67-27.36,19.52-2.28,2.75-4.12,6.38-4.14,7.32.24.71.46,3.94-1.71,28l.28,2c0,.06,0,.12,0,.17s0,.12,0,.15c-.42,2.46-.73,4.72-.82,5.91,4.66.37,5.08-.3,7.11-3.53,1.54-2.45,1.76-13.79,1.55-20.82V70l.59-7.11a1.45,1.45,0,0,1,.55-1,4.12,4.12,0,0,1,6.58,2.84l3.33,30.5,1.18,3.41s0,0,0,.06a.61.61,0,0,1,0,.11c0,.21,1.08,5.2,1.41,7.66.47,3.46,1.91,5.63,4.15,6.26a6,6,0,0,0,5.88-1.91c1.67-2,.66-5.11,0-7.13-.4-1.21-.71-2.14-.33-2.86-.06-1.43-1.72-7.55-3.3-12.67a1,1,0,0,1,0-.22l-.38-4.19a2.35,2.35,0,0,1,1.86-2.56A2.22,2.22,0,0,1,134.67,81.07Zm1.62,19.3Zm40.32-15.16h0Zm-8.78-1.84.46.81a14.47,14.47,0,0,1,3.39-.11l-.77-.19-2.8-.7Zm-21-4.78h0ZM103.9,59.33h0ZM207.12,40.74h0Z"/><circle class="cls-1" cx="131.3" cy="83.62" r="23.43" transform="translate(-7.89 153.33) rotate(-59.09)"/><path class="cls-2" d="M131.28,108.33a24.71,24.71,0,1,1,23.46-16.91A24.54,24.54,0,0,1,131.28,108.33Zm0-46.88a22.17,22.17,0,1,0,21,29.17h0a22.18,22.18,0,0,0-21-29.17Z"/><path class="cls-2" d="M127.21,78.62a4.29,4.29,0,0,0-2.35,2.53,2.06,2.06,0,0,0,1.31,2.92c3.09,1,4.8-6.18,10-4.45a4.8,4.8,0,0,1,3.39,5.56l2.65.88-.69,2.06L139,87.27a8.39,8.39,0,0,1-3.44,3.8l-1.56-2a6.5,6.5,0,0,0,2.86-3.28c.55-1.67,0-2.77-1.38-3.23-3.4-1.13-5.24,6-10.08,4.42a4.6,4.6,0,0,1-3.24-5.3l-2.63-.88.69-2.06,2.57.86A6.35,6.35,0,0,1,126,76.52Z"/><path class="cls-3" d="M167.19,66.34l-21.64-8.12-12.91,9.66a63.57,63.57,0,0,1,3.67,6.7C138.2,79,135,82,133.18,83c-1.57.88-1.71.24-1.71.24l-5.66-7.36-1.45-.21L116.46,65a4.49,4.49,0,0,1-.85-3.21v-.05a6.3,6.3,0,0,1,2.83-4.53l23.67-15.33.29-.41a8,8,0,0,0,1.13-6.94l0-.07a6.41,6.41,0,0,0-3.94-4.16,2.28,2.28,0,0,0-1-.13l-1.45.11,4.56-1.47a6.75,6.75,0,0,1,4.37-.06c2.66.87,3.9,1.57,40.39,18.3,5.41,2.77,17.57-10.41,17.57-10.41l13,13.8L196.54,66.12c-2.94,10.54-14.14,11.06-20.3,7.62C172.77,71.8,167.19,66.34,167.19,66.34Z"/><path class="cls-2" d="M131.89,84.78a1.9,1.9,0,0,1-.77-.16,1.63,1.63,0,0,1-.74-.68l-5.27-6.84-.94-.14a1.29,1.29,0,0,1-.84-.5l-7.9-10.75a5.81,5.81,0,0,1-1.08-4.13,7.57,7.57,0,0,1,3.41-5.48l23.47-15.21.14-.2a6.75,6.75,0,0,0,1-5.84,5.22,5.22,0,0,0-3.19-3.41,1,1,0,0,0-.43-.06l-1.46.12a1.29,1.29,0,0,1-1.34-1,1.28,1.28,0,0,1,.86-1.45l4.57-1.47a8,8,0,0,1,5.15-.06c2,.66,3.22,1.22,18,8L187,45.85c3.19,1.63,11.33-4.94,16.11-10.12a1.23,1.23,0,0,1,.92-.41h0a1.28,1.28,0,0,1,.92.4l13,13.8a1.26,1.26,0,0,1-.15,1.88L197.65,66.87a13.5,13.5,0,0,1-7.79,8.88,16.88,16.88,0,0,1-14.23-.9c-3.26-1.81-8.1-6.41-9.14-7.41l-20.73-7.79-11.43,8.56a55.83,55.83,0,0,1,3.15,5.86c2.19,5.11-1.45,8.83-3.68,10.08A4.16,4.16,0,0,1,131.89,84.78Zm.82-1.77Zm0,0h0Zm0,0Zm-7.65-8.47.93.13a1.27,1.27,0,0,1,.82.48l5.38,7,.37-.19c.18-.1,4.43-2.55,2.59-6.86a65.61,65.61,0,0,0-3.58-6.52,1.27,1.27,0,0,1,.31-1.69l12.91-9.67A1.28,1.28,0,0,1,146,57l21.63,8.13a1.07,1.07,0,0,1,.44.28c.06,0,5.5,5.36,8.79,7.2a14.52,14.52,0,0,0,12,.76,11.06,11.06,0,0,0,6.44-7.62,1.29,1.29,0,0,1,.45-.67l19.39-14.87-11.11-11.8c-3.43,3.54-12.79,12.43-18.14,9.69-9.75-4.46-17-7.8-22.43-10.29-14.71-6.77-15.91-7.32-17.78-7.94a5.53,5.53,0,0,0-3.55.06l-.28.09a7.66,7.66,0,0,1,2.86,4,9.34,9.34,0,0,1-1.29,8.12l-.29.4a1.33,1.33,0,0,1-.34.33L119.14,58.23a5,5,0,0,0-2.26,3.61,3.25,3.25,0,0,0,.6,2.36Z"/><polygon class="cls-6" points="213.84 23.24 249.07 58.36 235.33 73.83 201.47 36.32 213.84 23.24"/><polygon class="cls-2" points="235.66 0 272.2 33.49 249.07 58.36 213.85 23.21 235.66 0"/><path class="cls-2" d="M33.49,124.41C15,124.41,0,109,0,90.15S15,55.89,33.49,55.89,67,71.26,67,90.15,52,124.41,33.49,124.41Zm0-66c-17.07,0-30.95,14.23-30.95,31.72s13.88,31.72,31,31.72,30.95-14.23,30.95-31.72S50.56,58.43,33.49,58.43Z"/><path class="cls-2" d="M33.49,119.19c-15.59,0-28.27-13-28.27-29s12.68-29,28.27-29,28.27,13,28.27,29S49.08,119.19,33.49,119.19Zm0-55.55C19.3,63.64,7.76,75.53,7.76,90.15s11.54,26.5,25.73,26.5,25.73-11.89,25.73-26.5S47.68,63.64,33.49,63.64Z"/><rect class="cls-2" x="32.22" y="62.38" width="2.54" height="55.55"/><path class="cls-2" d="M30.77,118.48a60.09,60.09,0,0,1-.53-56.61l2.25,1.18A57.54,57.54,0,0,0,33,117.27Z"/><path class="cls-2" d="M36.27,118.48,34,117.26a57.54,57.54,0,0,0,.5-54.21l2.26-1.17A60.1,60.1,0,0,1,36.27,118.48Z"/><rect class="cls-2" x="6.49" y="88.88" width="54.01" height="2.54"/><path class="cls-2" d="M33.49,86.12A121.75,121.75,0,0,1,7.38,83.27l.55-2.48a118.17,118.17,0,0,0,51.12,0l.54,2.48A121.59,121.59,0,0,1,33.49,86.12Z"/><path class="cls-2" d="M59,99.76a118.37,118.37,0,0,0-51,0l-.55-2.48a120.92,120.92,0,0,1,52.06,0Z"/><path class="cls-2" d="M33.49,74.31a33.54,33.54,0,0,1-17.4-4.87l1.32-2.17a31,31,0,0,0,32.16,0l1.32,2.17A33.57,33.57,0,0,1,33.49,74.31Z"/><path class="cls-2" d="M16.36,112.07,15,110A33.58,33.58,0,0,1,52,110l-1.39,2.12A31.05,31.05,0,0,0,16.36,112.07Z"/><path class="cls-2" d="M27.4,118.43a34,34,0,0,1,0-56.56L28.79,64a31.48,31.48,0,0,0,0,52.31Z"/><path class="cls-2" d="M39.58,118.43l-1.39-2.13a31.48,31.48,0,0,0-.14-52.4l1.37-2.13a34,34,0,0,1,.16,56.66Z"/><path class="cls-6" d="M37.5,78.26c-1.07-17.22-1.9-19.47-.32-23A9.77,9.77,0,1,1,55,63.38C53.56,66.5,52.88,66.41,37.5,78.26Z"/><path class="cls-3" d="M42.84,56.12A4.28,4.28,0,1,0,48.51,54,4.27,4.27,0,0,0,42.84,56.12Z"/><path class="cls-2" d="M46.73,63.45a5.56,5.56,0,0,1-5-7.85h0a5.55,5.55,0,1,1,5,7.85Zm0-8.57a3,3,0,0,0-1.06.19A3,3,0,0,0,44,56.65h0a3,3,0,0,0,1.5,4,3,3,0,0,0,4-1.5,3,3,0,0,0-2.74-4.26Z"/></g></g></svg>