<svg xmlns="http://www.w3.org/2000/svg" viewBox="0 0 682.01 308.84"><defs><style>.cls-1{font-size:12px;}.cls-1,.cls-3{fill:#666;font-family:ArialMT, Arial;}.cls-2{letter-spacing:-0.07em;}.cls-3{font-size:16px;}.cls-4{letter-spacing:-0.02em;}.cls-5{font-family:MicrosoftJhengHeiRegular, Microsoft JhengHei;}.cls-6,.cls-7,.cls-8,.cls-9{fill:none;}.cls-6{stroke:#d72a17;}.cls-6,.cls-7{stroke-linejoin:bevel;stroke-width:3px;}.cls-7{stroke:#065da4;}.cls-8{stroke:#bfbfbf;}.cls-8,.cls-9{stroke-miterlimit:10;}.cls-9{stroke:#666;}</style></defs><title>target2</title><g id="圖層_2" data-name="圖層 2"><g id="text"><text class="cls-1" transform="translate(30.72 301.37) rotate(-45)">2018/3/6</text><text class="cls-1" transform="translate(82.01 301.37) rotate(-45)">2018/4/6</text><text class="cls-1" transform="translate(133.3 301.37) rotate(-45)">2018/5/6</text><text class="cls-1" transform="translate(184.6 301.37) rotate(-45)">2018/6/6</text><text class="cls-1" transform="translate(235.89 301.37) rotate(-45)">2018/7/6</text><text class="cls-1" transform="translate(287.18 301.37) rotate(-45)">2018/8/6</text><text class="cls-1" transform="translate(338.47 301.37) rotate(-45)">2018/9/6</text><text class="cls-1" transform="translate(387.4 306.09) rotate(-45)">2018/10/6</text><text class="cls-1" transform="translate(439.01 305.46) rotate(-45)">2018/<tspan class="cls-2" x="30.03" y="0">1</tspan><tspan x="35.81" y="0">1/6</tspan></text><text class="cls-1" transform="translate(489.99 306.09) rotate(-45)">2018/12/6</text><text class="cls-1" transform="translate(543.64 301.37) rotate(-45)">2019/1/6</text><text class="cls-1" transform="translate(594.93 301.37) rotate(-45)">2019/2/6</text><text class="cls-1" transform="translate(646.22 301.37) rotate(-45)">2019/3/6</text><text class="cls-3" transform="translate(514.85 41.24)">S&amp;<tspan class="cls-4" x="21.34" y="0">P</tspan><tspan x="31.73" y="0" xml:space="preserve"> 500 </tspan><tspan class="cls-5" x="67.31" y="0">指數</tspan></text><text class="cls-3" transform="translate(514.85 14.24)">S&amp;<tspan class="cls-4" x="21.34" y="0">P</tspan><tspan x="31.73" y="0" xml:space="preserve"> 500 ETF</tspan><tspan class="cls-5" x="97.53" y="0">含息報酬</tspan></text><line class="cls-6" x1="458.13" y1="8.98" x2="505.13" y2="8.98"/><line class="cls-7" x1="458.13" y1="36.45" x2="505.13" y2="36.45"/><line class="cls-8" x1="55.8" y1="205.92" x2="676.39" y2="205.92"/><line class="cls-8" x1="55.8" y1="161.92" x2="676.39" y2="161.92"/><line class="cls-8" x1="55.8" y1="119.92" x2="676.39" y2="119.92"/><line class="cls-8" x1="55.8" y1="74.92" x2="676.39" y2="74.92"/><line class="cls-9" x1="111.95" y1="254.95" x2="111.95" y2="249.92"/><line class="cls-9" x1="162.5" y1="254.95" x2="162.5" y2="249.92"/><line class="cls-9" x1="215.06" y1="254.95" x2="215.06" y2="249.92"/><line class="cls-9" x1="264.62" y1="254.95" x2="264.62" y2="249.92"/><line class="cls-9" x1="318.18" y1="254.95" x2="318.18" y2="249.92"/><line class="cls-9" x1="626.74" y1="254.95" x2="626.74" y2="249.92"/><line class="cls-9" x1="574.74" y1="254.95" x2="574.74" y2="249.92"/><line class="cls-9" x1="522.74" y1="254.95" x2="522.74" y2="249.92"/><line class="cls-9" x1="471.74" y1="254.95" x2="471.74" y2="249.92"/><line class="cls-9" x1="419.74" y1="254.95" x2="419.74" y2="249.92"/><line class="cls-9" x1="369.74" y1="254.95" x2="369.74" y2="249.92"/><line class="cls-9" x1="673.29" y1="254.95" x2="673.29" y2="249.92"/><text class="cls-1" transform="translate(6.67 255.57)">88.00%</text><text class="cls-1" transform="translate(6.67 211.57)">93.00%</text><text class="cls-1" transform="translate(6.67 167.57)">98.00%</text><text class="cls-1" transform="translate(0 123.57)">103.00%</text><text class="cls-1" transform="translate(0 79.57)">108.00%</text><polyline class="cls-7" points="59.8 149.62 62.8 149.62 65.8 131.39 70.8 132.35 74.8 142.91 77.8 142.91 82.8 153.47 84.8 153.47 89.8 193.91 94.8 173.75 95.8 187.19 97.8 189.11 99.8 179.51 105.8 195.83 108.8 182.39 111.8 168.83 112.8 187.07 117.8 183.23 119.8 169.79 120.8 175.55 122.8 167.87 123.8 168.83 124.8 170.83 128.8 163.07 131.8 154.43 132.8 153.47 133.8 155.39 136.8 165.95 142.11 165.95 142.8 178.55 144.8 176.63 146.8 166.91 148.46 165.44 150.8 168.83 152.8 170.75 154.8 171.71 157.8 178.47 158.8 178.47 159.8 167.87 163.81 165.44 166.8 164.99 169.8 148.67 172.8 145.79 176.8 145.79 178.8 151.55 179.8 148.67 181.8 148.67 183.8 150.59 187.8 145.79 192.8 145.79 201.8 157.31 203.8 146.75 205.8 152.51 206.8 143.87 213.8 139.07 215.8 132.35 219.8 128.51 223.8 128.51 225.8 127.55 227.8 130.43 229.8 128.51 233.8 129.43 236.8 134.35 237.8 134.35 240.8 141.11 241.97 135.08 242.97 135.08 247.8 151.67 248.8 149.75 250.8 156.47 251.8 152.63 254.8 147.75 258.8 146.79 259.8 146.79 260.8 149.67 264.8 142.95 265.8 137.27 272.8 123.72 273.8 125.63 274.8 130.43 275.8 122.75 276.8 120.83 278.8 122.75 281.8 121.8 282.8 123.72 285.8 117 288.8 120.83 294.8 119.88 296.8 115.08 297.8 107.4 298.8 109.32 301.8 116.03 306.8 121.83 307.8 117.03 308.8 118.95 309.8 116.08 310.8 119.92 312.8 110.32 318.8 104.56 319.8 103.6 322.8 105.52 323.72 108.15 324.86 111.6 329.59 114.51 331.77 109.42 333.67 116.24 334.43 108.51 337.84 104.78 343.3 102.15 346.17 102.6 346.74 103.69 348.07 98.69 354.61 90.51 356.69 84.49 358.87 88.05 363.79 88.96 366.83 92.05 371.5 98.42 375.26 97.78 379.99 93.51 380.66 93.51 381.42 88.39 384.07 88.39 388.52 92.78 391.84 86.96 393.73 80.05 395.06 80.05 403.77 86.23 411.83 81.87 412.58 80.96 414 83.05 415.62 81.14 417.04 85.78 418.36 94.05 423.76 94.05 426.13 95.33 428.12 145.25 429.35 144.61 430.68 132.63 436.08 138.16 437.97 118.88 440.53 131.34 444.23 133.52 447.54 136.07 449.81 140.34 450.76 168.8 452.66 150.62 454.55 168.8 459.76 173.35 461.15 167.13 465.42 142.12 466.88 148.7 471.38 143.03 473.94 136.48 475.65 118.93 480 134.23 481.71 144.93 487.29 154.07 488.15 144.12 490.43 141.85 494.34 156.55 497.22 175.33 498.64 169.88 502.34 177.24 507.87 159.15 510.48 137.76 512.04 142.03 519.58 123.57 520.19 154.96 524.79 153.87 524.75 176.01 531.1 174.28 534.23 170.46 535.27 170.46 535.52 183.33 541.24 200.26 543.61 201.52 544.31 211.91 545.45 217.28 547.34 234.65 548.8 243.29 550.32 248.92 554.93 248.91 556.39 227.34 558.76 222.86 560.37 223.96 565.77 215.77 568.05 215.86 569.85 216.77 570.51 234.23 571.17 234.14 571.17 207.61 577.14 201.06 578.18 194.42 581.59 187.42 583.96 187.51 588.32 192.06 590.5 183.4 593.15 179.96 595.43 163.87 596.37 164.23 602.63 175.42 603.38 172.87 603.86 173.96 605.94 172.05 605.94 169.41 607.65 166.59 613.8 172.78 615.13 161.41 617.4 153.04 626.03 144.31 627.96 145.04 629.15 149.04 629.15 151.13 634.36 151.13 636.16 150.31 637.39 139.86 640.99 136.67 642.41 130.22 650.85 126.67 652.46 129.13 654.83 123.76 660.61 122.85 664.58 124.85 666.95 120.31 671.5 123.03 672.92 124.85 674.34 128.31 674.34 131.22"/><polyline class="cls-6" points="59.8 145.43 62.8 145.43 65.8 126.45 70.8 127.45 74.8 138.45 77.8 138.45 82.8 149.45 84.8 149.45 89.8 188.45 94.8 167.45 95.8 181.45 97.8 183.45 99.8 173.45 105.8 190.45 108.8 176.45 111.8 165.45 112.8 184.45 117.8 180.45 119.8 166.45 120.8 172.45 122.8 164.45 123.8 165.45 125.8 165.45 128.8 159.45 131.8 150.45 132.8 149.45 133.8 151.45 136.8 162.45 142.11 162.45 142.8 172.45 144.8 170.45 146.8 163.45 148.46 161.92 150.8 165.45 152.8 167.45 154.8 168.45 157.8 174.45 158.8 174.45 159.8 164.45 163.81 161.92 166.8 161.45 169.8 144.45 172.8 141.45 176.8 141.45 178.8 147.45 179.8 144.45 181.8 144.45 183.8 146.45 187.8 141.45 192.8 141.45 201.8 153.45 203.8 142.45 205.8 148.45 206.8 139.45 213.8 134.45 215.8 127.45 219.8 123.45 223.8 123.45 225.8 122.45 227.8 125.45 229.8 123.45 233.8 125.45 236.8 127.45 237.8 127.45 240.8 133.45 241.8 131.45 242.8 131.45 247.8 144.45 248.8 142.45 250.8 149.45 251.8 145.45 254.8 142.45 258.8 141.45 259.8 141.45 260.8 144.45 264.8 137.45 265.8 129.45 272.8 118.45 273.8 120.45 274.8 125.45 275.8 117.45 276.8 115.45 278.8 117.45 281.8 116.45 282.8 118.45 285.8 111.45 288.8 115.45 294.8 114.45 296.8 109.45 297.8 101.45 298.8 103.45 301.8 110.45 306.8 115.45 307.8 110.45 308.8 112.45 309.8 109.45 310.8 113.45 312.8 103.45 318.8 97.45 319.8 96.45 322.8 98.45 323.72 101.19 324.86 104.79 329.59 107.82 331.77 102.52 333.67 109.62 334.43 101.57 337.84 97.69 343.3 94.94 346.17 95.41 346.74 96.55 348.07 91.34 354.61 82.81 356.69 77.59 358.87 81.3 363.79 82.24 366.83 83.38 371.5 90.01 375.26 89.35 379.99 84.9 380.66 84.9 381.42 79.57 384.07 79.57 388.52 84.14 391.84 78.08 393.73 70.88 395.06 70.88 403.77 77.32 411.83 72.77 412.58 71.82 414 74 415.62 72.01 417.04 76.84 418.36 85.47 423.76 85.47 426.13 86.79 428.12 136.72 429.35 136.05 430.68 123.57 436.08 129.33 437.97 109.24 440.53 122.22 444.23 124.5 447.54 127.15 449.81 131.6 450.76 158.41 452.66 143.35 454.55 158.41 459.76 163.15 460.33 150.83 464.59 131.79 465.73 137.1 470.56 132.74 473.12 125.92 474.83 107.63 479.18 123.57 482.5 133.88 486.76 140.7 487.33 133.88 489.61 131.51 495.1 146.85 496.33 162.87 497.75 159.26 501.45 164.85 507.98 148.09 509.59 128.85 512.15 129.14 518.69 114.08 520.3 142.69 523.9 142.59 524.75 164.19 531.1 162.39 534.23 158.41 535.27 158.41 536.31 173.24 541.9 190.45 544.27 191.76 545.31 210.33 546.45 215.92 548.34 234.01 550.8 243.01 552.32 248.92 553.93 248.92 556.39 216.01 558.76 210.42 560.37 211.57 565.77 203.03 568.05 203.13 569.85 204.08 570.51 222.26 571.17 222.17 571.17 195.45 577.14 188.63 578.18 181.72 581.59 174.42 583.96 174.52 588.32 179.25 590.5 170.24 593.15 166.65 595.43 149.89 596.37 150.26 602.63 161.92 603.38 159.26 603.86 160.4 605.94 158.41 605.94 155.66 607.65 152.73 613.8 159.17 615.13 147.33 617.4 138.61 626.03 129.52 627.96 130.28 629.15 134.44 629.15 136.62 634.36 136.62 636.16 135.77 637.39 124.88 640.99 121.56 642.41 114.83 650.85 111.14 652.46 113.7 654.83 108.11 660.61 107.16 664.58 109.24 666.95 104.51 671.5 107.35 672.92 109.24 674.34 112.84 674.34 115.88"/><line class="cls-9" x1="55.8" y1="249.92" x2="676.39" y2="249.92"/><line class="cls-9" x1="59.8" y1="57.45" x2="59.8" y2="254.45"/></g></g></svg>