<svg xmlns="http://www.w3.org/2000/svg" viewBox="0 0 330 211.14"><defs><style>.cls-1{fill:#fff;}.cls-2{fill:#2a3646;}.cls-3{fill:#c9c9c9;}.cls-4{fill:#52c8d1;}.cls-5{fill:#065da4;}.cls-6{fill:#d72a17;}</style></defs><title>price-method</title><g id="圖層_2" data-name="圖層 2"><g id="text"><rect class="cls-1" x="17.44" y="148.58" width="9.87" height="39.18"/><path class="cls-2" d="M28.47,188.92H16.28v-41.5H28.47Zm-9.86-2.33h7.53V149.75H18.61Z"/><rect class="cls-3" x="11.56" y="181.21" width="21.63" height="6.55"/><path class="cls-2" d="M33.19,188.92H11.56a1.16,1.16,0,0,1-1.17-1.16v-6.55A1.17,1.17,0,0,1,11.56,180H33.19a1.17,1.17,0,0,1,1.17,1.17v6.55A1.16,1.16,0,0,1,33.19,188.92Zm-20.47-2.33H32v-4.22H12.72Z"/><rect class="cls-1" x="47.46" y="148.58" width="9.87" height="39.18"/><path class="cls-2" d="M58.5,188.92H46.3v-41.5H58.5Zm-9.87-2.33h7.54V149.75H48.63Z"/><rect class="cls-4" x="41.58" y="181.21" width="21.63" height="6.55"/><path class="cls-2" d="M63.22,188.92H41.58a1.16,1.16,0,0,1-1.16-1.16v-6.55A1.17,1.17,0,0,1,41.58,180H63.22a1.17,1.17,0,0,1,1.16,1.17v6.55A1.16,1.16,0,0,1,63.22,188.92Zm-20.47-2.33h19.3v-4.22H42.75Z"/><rect class="cls-1" x="77.49" y="148.58" width="9.87" height="39.18"/><path class="cls-2" d="M88.52,188.92H76.32v-41.5h12.2Zm-9.87-2.33h7.54V149.75H78.65Z"/><rect class="cls-3" x="71.6" y="181.21" width="21.63" height="6.55"/><path class="cls-2" d="M93.24,188.92H71.6a1.16,1.16,0,0,1-1.16-1.16v-6.55A1.17,1.17,0,0,1,71.6,180H93.24a1.17,1.17,0,0,1,1.16,1.17v6.55A1.16,1.16,0,0,1,93.24,188.92Zm-20.47-2.33h19.3v-4.22H72.77Z"/><rect class="cls-1" x="5.95" y="187.61" width="93.36" height="6.09"/><path class="cls-2" d="M100.48,194.87H4.79v-8.43h95.69ZM7.12,192.54h91v-3.77h-91Z"/><rect class="cls-3" x="1.16" y="193.7" width="102.94" height="6.09"/><path class="cls-2" d="M104.1,201H1.17A1.16,1.16,0,0,1,0,199.8v-6.1a1.16,1.16,0,0,1,1.17-1.16H104.1a1.17,1.17,0,0,1,1.17,1.16v6.1A1.17,1.17,0,0,1,104.1,201ZM2.33,198.63H102.94v-3.76H2.33Z"/><rect class="cls-3" x="9.03" y="142.49" width="87.21" height="6.09"/><path class="cls-2" d="M96.24,149.75H9a1.17,1.17,0,0,1-1.17-1.17v-6.09A1.17,1.17,0,0,1,9,141.32H96.24a1.16,1.16,0,0,1,1.16,1.17v6.09A1.17,1.17,0,0,1,96.24,149.75Zm-86-2.33H95.07v-3.77H10.19Z"/><polygon class="cls-3" points="17.44 142.49 52.63 111.6 87.35 142.49 17.44 142.49"/><path class="cls-2" d="M87.35,143.65H17.44a1.16,1.16,0,0,1-.77-2l35.19-30.89a1.18,1.18,0,0,1,1.55,0l34.72,30.89a1.16,1.16,0,0,1-.78,2Zm-66.82-2.33H84.29L52.63,113.15Z"/><path class="cls-2" d="M71.6,136.79a1.19,1.19,0,0,1-.77-.29l-8.4-7.45A1.17,1.17,0,1,1,64,127.31l8.4,7.44a1.17,1.17,0,0,1,.09,1.65A1.16,1.16,0,0,1,71.6,136.79Z"/><path class="cls-2" d="M42.69,128.21a1.17,1.17,0,0,1-.77-2.05L52.4,117l7.52,6.67a1.16,1.16,0,0,1-1.54,1.74l-6-5.31-8.94,7.78A1.17,1.17,0,0,1,42.69,128.21Z"/><path class="cls-2" d="M30.82,138.54a1.19,1.19,0,0,1-.88-.4,1.17,1.17,0,0,1,.12-1.65l8-6.93a1.17,1.17,0,0,1,1.53,1.76l-8,6.93A1.19,1.19,0,0,1,30.82,138.54Z"/><path class="cls-3" d="M252.62,15.69V11c0-5.37-12.07-9.68-17.42-9.74h0l47.38,0h0c5.35.06,8.75,4.41,8.75,9.78v4.74Z"/><path class="cls-2" d="M292.5,16.85H251.45V11c0-4.33-11.18-8.52-16.26-8.58H234V0h1.16l48.55,0V.08c5.13.63,8.75,5,8.75,10.87Zm-38.72-2.33h36.39V11c0-5-3.13-8.56-7.6-8.62h-.22l-37.52,0c4.68,1.92,8.95,4.93,8.95,8.59Z"/><path class="cls-1" d="M226.27,66V11a9.78,9.78,0,0,1,9.66-9.78h46.43c-5.34.06-8,4.41-8,9.78V66a12.34,12.34,0,0,1-12.34,12.33H217.2v-.44A12.33,12.33,0,0,0,226.27,66Z"/><path class="cls-2" d="M217.2,79.5A1.16,1.16,0,0,1,216,78.33v-.44a1.16,1.16,0,0,1,.86-1.12A11.21,11.21,0,0,0,225.11,66V11A11,11,0,0,1,235.83,0h46.53a1.17,1.17,0,0,1,0,2.33c-5,.06-6.82,4.49-6.82,8.62V66a13.52,13.52,0,0,1-13.5,13.5ZM236,2.33H236A8.65,8.65,0,0,0,227.44,11V66a13.53,13.53,0,0,1-5.93,11.17h40.55A11.18,11.18,0,0,0,273.23,66V11c0-3.72,1.14-6.71,3.14-8.62Z"/><path class="cls-1" d="M254.05,67.41v1.14c0,5.37,3.42,9.72,8.77,9.78H215.59a9.78,9.78,0,0,1-9.67-9.78V67.41Z"/><path class="cls-2" d="M215.59,79.5a11,11,0,0,1-10.83-11V67.41a1.16,1.16,0,0,1,1.16-1.16h48.13a1.16,1.16,0,0,1,1.16,1.16v1.14c0,5,3.14,8.56,7.62,8.62A1.16,1.16,0,0,1,264,78.34a1.18,1.18,0,0,1-1.17,1.16H215.59Zm-8.5-10.92a8.64,8.64,0,0,0,8.51,8.59h40.92a11.23,11.23,0,0,1-3.64-8.59Z"/><path class="cls-2" d="M266.77,50h-2.33V47.65h2.33Zm-4.66,0H250.46V47.65h11.65Zm-14,0H245.8V47.65h2.33Zm-14,0h-.81V47.65h.81Z"/><path class="cls-2" d="M266.77,55.39h-2.33V53.06h2.33Zm-4.66,0H250.46V53.06h11.65Zm-14,0H245.8V53.06h2.33Zm-14,0h-.81V53.06h.81Z"/><path class="cls-2" d="M266.77,60.79h-2.33V58.46h2.33Zm-4.66,0H250.46V58.46h11.65Zm-14,0H245.8V58.46h2.33Zm-14,0h-.81V58.46h.81Z"/><rect class="cls-1" x="233.54" y="48.7" width="12.84" height="11.09"/><path class="cls-2" d="M246.38,61H233.54a1.16,1.16,0,0,1-1.16-1.16V48.7a1.16,1.16,0,0,1,1.16-1.16h12.84a1.16,1.16,0,0,1,1.17,1.16V59.79A1.16,1.16,0,0,1,246.38,61Zm-11.67-2.33h10.51V49.87H234.71Z"/><path class="cls-5" d="M239.19,16.11a14.59,14.59,0,1,0,24,15.73l-13.43-5.71Z"/><path class="cls-6" d="M249.78,11.53a14.55,14.55,0,0,0-10.59,4.58l10.59,10,13.43,5.71a14.59,14.59,0,0,0-13.43-20.31Z"/><path class="cls-2" d="M249.78,10.52a15.61,15.61,0,1,0,15.61,15.61A15.62,15.62,0,0,0,249.78,10.52Zm13.58,15.61a13.28,13.28,0,0,1-.71,4.3l-12.33-5.18-9.77-9a13.56,13.56,0,0,1,22.81,9.93ZM249.78,39.71a13.57,13.57,0,0,1-10.62-22L249.21,27l12.65,5.32A13.58,13.58,0,0,1,249.78,39.71Z"/><rect class="cls-1" x="87.9" y="76.42" width="182.94" height="114.27"/><path class="cls-2" d="M272,191.86H86.73V75.26H272ZM89.06,189.53H269.67V77.59H89.06Z"/><rect class="cls-1" x="87.9" y="67.32" width="182.94" height="9.1"/><path class="cls-2" d="M272,77.59H86.73V66.16H272ZM89.06,75.26H269.67V68.49H89.06Z"/><rect class="cls-1" x="87.9" y="190.7" width="182.94" height="9.1"/><path class="cls-2" d="M272,201H86.73V189.53H272ZM89.06,198.63H269.67v-6.77H89.06Z"/><path class="cls-3" d="M249.87,180.85H105.93V88.6H249.87Zm-141.61-2.33H247.54V90.93H108.26Z"/><rect class="cls-3" x="120.05" y="89.77" width="2.33" height="88.94"/><rect class="cls-3" x="134.18" y="89.77" width="2.33" height="89.92"/><rect class="cls-3" x="148.31" y="89.77" width="2.33" height="89.92"/><rect class="cls-3" x="162.44" y="89.77" width="2.33" height="89.92"/><rect class="cls-3" x="176.57" y="89.77" width="2.33" height="89.92"/><rect class="cls-3" x="190.7" y="89.77" width="2.33" height="89.92"/><rect class="cls-3" x="204.83" y="89.77" width="2.33" height="89.92"/><rect class="cls-3" x="218.96" y="89.77" width="2.33" height="89.92"/><rect class="cls-3" x="233.08" y="89.77" width="2.33" height="89.92"/><rect class="cls-6" x="105.91" y="153.17" width="1.16" height="2.33" transform="translate(-77.53 118.35) rotate(-44.33)"/><path class="cls-6" d="M109.31,153.21l-1.63-1.66,1.58-1.55,1.63,1.66Zm3.16-3.09-1.63-1.67,1.59-1.54,1.62,1.66Zm3.17-3.1L114,145.36l1.58-1.55,1.63,1.67Zm3.16-3.09-1.63-1.66,1.58-1.55,1.63,1.67Z"/><path class="cls-6" d="M122,140.84l0-.05,0,0-.74-.85-.78-.81.83-.81A1.08,1.08,0,0,1,122,138a1.18,1.18,0,0,1,.84.4l.76.89-.85.72Z"/><path class="cls-6" d="M132,152.65l-1.69-2,1.77-1.52,1.69,2Zm-3.38-3.94-1.69-2,1.76-1.52,1.7,2Zm-3.39-3.94-1.69-2,1.77-1.51,1.69,2Z"/><path class="cls-6" d="M135.35,155.9a1.18,1.18,0,0,1-.89-.4l-.75-.89.66-.56.31-.82.44.17.35-.3.57.66.82.31-.43,1.09a1.15,1.15,0,0,1-.88.73Z"/><path class="cls-6" d="M137.74,151.79l-2.17-.84.88-2.28,2.18.84Zm1.77-4.56-2.17-.85.89-2.28,2.17.84Zm1.78-4.57-2.18-.84.89-2.29,2.17.85Zm1.77-4.57-2.18-.84.89-2.28,2.17.84Zm1.77-4.56-2.17-.84.88-2.29,2.17.84ZM146.6,129l-2.17-.84.88-2.28,2.17.84Zm1.77-4.56-2.17-.85.88-2.28,2.18.84Z"/><path class="cls-6" d="M149,119.89l-.33-.64L148,119l.42-1.09a1.16,1.16,0,0,1,2.12-.11l.54,1-.65.33-.26.67-.6-.23Z"/><path class="cls-6" d="M161.08,143.44l-1-2,2.07-1.07,1,2Zm-2-3.93-1-2,2.08-1.06,1,2Zm-2-3.92-1-2,2.07-1.07,1,2Zm-2-3.93-1-2,2.07-1.06,1,2Zm-2-3.92-1-2,2.07-1.07,1,2Zm-2-3.92-1-2,2.08-1.06,1,2Z"/><path class="cls-6" d="M163.66,147.07h0a1.17,1.17,0,0,1-1-.63l-.53-1,.75-.39.46-.71.42.26.44-.22.39.75.72.45-.63,1A1.14,1.14,0,0,1,163.66,147.07Z"/><path class="cls-6" d="M166.45,143.68l-2-1.25,1.18-1.86,2,1.25Zm2.36-3.72-2-1.25,1.18-1.86,2,1.25Zm2.36-3.72-2-1.25,1.18-1.86,2,1.24Zm2.36-3.73-2-1.25,1.18-1.86,2,1.25Zm2.36-3.72-2-1.25,1.18-1.86,2,1.25Z"/><path class="cls-6" d="M178.26,125.06l-.5-.31-.55.2-.27-.72-.65-.41.62-1a1.17,1.17,0,0,1,2.08.22l.4,1.1-.72.26Z"/><path class="cls-6" d="M189.59,158.58l-.77-2.1,2.19-.81.77,2.1ZM188,154.37l-.77-2.1,2.19-.8.77,2.1Zm-1.54-4.2-.78-2.1,2.19-.81.77,2.11ZM185,146l-.78-2.1,2.19-.81.77,2.1Zm-1.55-4.21-.77-2.1,2.18-.8.78,2.1Zm-1.55-4.2-.77-2.1,2.18-.81.78,2.11Zm-1.55-4.2-.77-2.1,2.19-.81.77,2.1Zm-1.55-4.2-.77-2.11,2.19-.8.77,2.1Z"/><path class="cls-6" d="M191.86,162.53a1.17,1.17,0,0,1-1.09-.76l-.4-1.09.53-.2.15-.54.76.21.74-.28.2.53.55.15-.31,1.12a1.17,1.17,0,0,1-1.08.86Z"/><path class="cls-6" d="M193.94,158.2l-2.25-.62.64-2.35,2.25.62Zm1.29-4.7-2.25-.62.64-2.35,2.25.62Zm1.28-4.7-2.25-.62.65-2.35,2.25.61Zm1.29-4.71-2.25-.61.64-2.35,2.25.61Zm1.29-4.7-2.25-.61.64-2.35,2.25.61Zm1.28-4.7-2.24-.62.64-2.35,2.25.62Zm1.29-4.7-2.25-.62.65-2.35,2.24.62Zm1.29-4.7-2.25-.62.64-2.35,2.25.62Zm1.28-4.71L202,120l.64-2.35,2.25.61Zm1.29-4.7-2.25-.61.65-2.35,2.24.61Z"/><path class="cls-6" d="M205.67,111.36l-.4-.6-.71-.2.31-1.12a1.17,1.17,0,0,1,2.09-.34l.65,1-.61.41-.19.7-.61-.17Z"/><path class="cls-6" d="M217.08,128.47l-1.43-2.13,1.94-1.3,1.43,2.14Zm-2.85-4.27-1.43-2.14,1.94-1.3,1.42,2.14Zm-2.86-4.28L210,117.78l1.94-1.29,1.42,2.14Zm-2.85-4.28-1.42-2.14,1.93-1.29,1.43,2.14Z"/><path class="cls-6" d="M220.12,132.1a1.15,1.15,0,0,1-1-.52l-.64-1,1.93-1.29.09.13.14-.07,1,2.11-1,.5A1.25,1.25,0,0,1,220.12,132.1Z"/><path class="cls-6" d="M224.08,130.35l-1-2.11,2.4-1.14,1,2.11Zm4.81-2.29-1-2.1,2.4-1.14,1,2.1Z"/><path class="cls-6" d="M234.2,125.88l-.22-.23-.28.13-1-2.1,1.05-.5a1.18,1.18,0,0,1,1.35.25l.8.85Z"/><path class="cls-6" d="M245.63,138l-1.43-1.51,1.69-1.6,1.43,1.52Zm-2.86-3-1.43-1.52,1.7-1.6,1.43,1.52Zm-2.86-3-1.43-1.52,1.7-1.59,1.43,1.51Zm-2.85-3-1.43-1.51,1.7-1.6,1.42,1.52Z"/><rect class="cls-6" x="247.14" y="138.59" width="2.33" height="1.16" transform="translate(-27.85 208.16) rotate(-43.3)"/><polygon class="cls-1" points="259.63 108.28 259.63 199.8 328.83 199.8 328.83 112.49 320.85 108.28 259.63 108.28"/><path class="cls-2" d="M328.83,201h-69.2a1.16,1.16,0,0,1-1.16-1.16V108.28a1.16,1.16,0,0,1,1.16-1.16h61.22a1.17,1.17,0,0,1,.55.13l8,4.21a1.17,1.17,0,0,1,.62,1V199.8A1.16,1.16,0,0,1,328.83,201Zm-68-2.33h66.87V113.19l-7.1-3.74H260.8Z"/><polygon class="cls-1" points="320.85 108.28 328.83 112.49 320.85 116.73 320.85 108.28"/><path class="cls-2" d="M320.85,117.89a1.2,1.2,0,0,1-.6-.16,1.16,1.16,0,0,1-.56-1v-8.45a1.15,1.15,0,0,1,.56-1,1.18,1.18,0,0,1,1.15,0l8,4.21a1.16,1.16,0,0,1,.62,1,1.18,1.18,0,0,1-.62,1l-8,4.24A1.17,1.17,0,0,1,320.85,117.89Zm1.17-7.68v4.58l4.32-2.3Z"/><rect class="cls-3" x="268.48" y="125.03" width="49.64" height="34.04"/><rect class="cls-2" x="275.65" y="130.99" width="4.77" height="2.33"/><rect class="cls-2" x="285.39" y="130.99" width="4.77" height="2.33"/><rect class="cls-2" x="295.14" y="130.99" width="4.77" height="2.33"/><rect class="cls-2" x="304.88" y="130.99" width="4.77" height="2.33"/><rect class="cls-2" x="275.65" y="140.89" width="4.77" height="2.33"/><rect class="cls-2" x="285.39" y="140.89" width="4.77" height="2.33"/><rect class="cls-2" x="295.14" y="140.89" width="4.77" height="2.33"/><rect class="cls-2" x="304.88" y="140.89" width="4.77" height="2.33"/><rect class="cls-2" x="275.65" y="150.79" width="4.77" height="2.33"/><rect class="cls-2" x="285.39" y="150.79" width="4.77" height="2.33"/><rect class="cls-2" x="295.14" y="150.79" width="4.77" height="2.33"/><rect class="cls-2" x="304.88" y="150.79" width="4.77" height="2.33"/><rect class="cls-2" x="280.41" y="167.55" width="37.7" height="2.33"/><rect class="cls-2" x="280.41" y="174.48" width="37.7" height="2.33"/><rect class="cls-2" x="280.41" y="181.4" width="37.7" height="2.33"/><rect class="cls-1" x="204.83" y="60.71" width="77.28" height="21.75"/><path class="cls-2" d="M283.28,83.63H203.66V59.55h79.62ZM206,81.3h75V61.88H206Z"/><rect class="cls-2" x="235.12" y="73.12" width="14.76" height="2.33"/><rect class="cls-2" x="235.12" y="67.73" width="14.76" height="2.33"/><rect class="cls-2" x="256.09" y="67.73" width="14.76" height="2.33"/><rect class="cls-2" x="256.09" y="73.12" width="14.76" height="2.33"/><path class="cls-6" d="M221,76.46a1.81,1.81,0,0,1-1.11-.39l-9.48-7.76a1.75,1.75,0,0,1,2.21-2.71L220.41,72l7.7-15.91a1.75,1.75,0,0,1,3.15,1.52l-8.67,17.91a1.72,1.72,0,0,1-1.2.94A1.55,1.55,0,0,1,221,76.46Z"/><path class="cls-1" d="M139,90.5a6,6,0,0,1-1.37,8.33L103.68,123.2a6,6,0,0,1-8.33-1.37h0a6,6,0,0,1,1.37-8.33l33.94-24.36A6,6,0,0,1,139,90.5Z"/><path class="cls-2" d="M100.21,125.49a6.6,6.6,0,0,1-1.17-.1,7.13,7.13,0,0,1-3-12.83L130,88.19a7.14,7.14,0,0,1,10,1.63h0a7.13,7.13,0,0,1-1.63,10l-33.94,24.37A7.11,7.11,0,0,1,100.21,125.49Zm33.92-36.31a4.8,4.8,0,0,0-2.79.9L97.4,114.45a4.73,4.73,0,0,0-1.94,3.12,4.79,4.79,0,0,0,.83,3.58,4.72,4.72,0,0,0,3.13,1.94,4.8,4.8,0,0,0,3.58-.83l33.94-24.37a4.81,4.81,0,0,0-2.81-8.71Z"/><path class="cls-1" d="M152.3,96.47a6,6,0,0,1-1.36,8.33L117,129.17a6,6,0,0,1-8.33-1.37h0a6,6,0,0,1,1.37-8.33L144,95.11a6,6,0,0,1,8.32,1.36Z"/><path class="cls-2" d="M113.53,131.45a7.15,7.15,0,0,1-5.81-3,7.13,7.13,0,0,1,1.64-9.95L143.3,94.16a7.13,7.13,0,1,1,8.32,11.59l-33.94,24.37A7.11,7.11,0,0,1,113.53,131.45Zm33.92-36.3a4.76,4.76,0,0,0-2.79.9l-33.94,24.37a4.8,4.8,0,0,0-1.94,3.12,4.75,4.75,0,0,0,.84,3.58,4.8,4.8,0,0,0,6.7,1.11l33.94-24.37a4.81,4.81,0,0,0,1.1-6.71h0a4.8,4.8,0,0,0-3.12-1.94A5.35,5.35,0,0,0,147.45,95.15Z"/><path class="cls-1" d="M149.3,114.38a6,6,0,0,1-1.37,8.33L114,147.08a6,6,0,0,1-8.33-1.37h0a6,6,0,0,1,1.36-8.33L141,113a6,6,0,0,1,8.33,1.37Z"/><path class="cls-2" d="M110.52,149.36a7.14,7.14,0,0,1-4.18-12.93l33.95-24.36a7.13,7.13,0,0,1,10,1.63h0a7.12,7.12,0,0,1-1.63,10L114.67,148A7.12,7.12,0,0,1,110.52,149.36Zm33.92-36.3a4.73,4.73,0,0,0-2.79.9L107.7,138.33a4.8,4.8,0,0,0,5.61,7.8l33.94-24.37a4.8,4.8,0,0,0,1.94-3.12,4.75,4.75,0,0,0-.84-3.58h0A4.79,4.79,0,0,0,144.44,113.06Z"/><path class="cls-1" d="M146.34,132.83a6,6,0,0,1-1.37,8.33L111,165.53a6,6,0,0,1-8.33-1.37h0a6,6,0,0,1,1.37-8.33L138,131.46a6,6,0,0,1,8.33,1.37Z"/><path class="cls-2" d="M107.57,167.81a7.91,7.91,0,0,1-1.18-.09,7.14,7.14,0,0,1-3-12.84l33.94-24.37a7.13,7.13,0,0,1,9.95,1.64h0a7.12,7.12,0,0,1-1.63,9.95l-33.94,24.37A7.1,7.1,0,0,1,107.57,167.81Zm33.91-36.3a4.75,4.75,0,0,0-2.79.9l-33.94,24.37a4.8,4.8,0,1,0,5.6,7.8l33.94-24.37a4.8,4.8,0,0,0,1.94-3.12,4.75,4.75,0,0,0-.84-3.58h0A4.79,4.79,0,0,0,141.48,131.51Z"/><path class="cls-1" d="M135.27,174a4.09,4.09,0,0,1-4.12,4.08H78A4.09,4.09,0,0,1,73.91,174V79.62A4.1,4.1,0,0,1,78,75.53h53.13a4.1,4.1,0,0,1,4.12,4.09Z"/><path class="cls-2" d="M131.15,179.22H78A5.28,5.28,0,0,1,72.74,174V79.62A5.28,5.28,0,0,1,78,74.37h53.13a5.28,5.28,0,0,1,5.28,5.25V174A5.28,5.28,0,0,1,131.15,179.22ZM78,76.7a2.94,2.94,0,0,0-3,2.92V174a2.94,2.94,0,0,0,3,2.92h53.13A2.94,2.94,0,0,0,134.1,174V79.62a2.94,2.94,0,0,0-2.95-2.92Z"/><rect class="cls-3" x="80.27" y="87.27" width="48.64" height="77.45"/><path class="cls-2" d="M130.07,165.88h-51V86.1h51Zm-48.64-2.33h46.31V88.43H81.43Z"/><rect class="cls-1" x="89.31" y="112.04" width="30.56" height="8.37"/><path class="cls-2" d="M121,121.58H88.14v-10.7H121Zm-30.57-2.33H118.7v-6H90.47Z"/><rect class="cls-2" x="103.42" y="112.04" width="2.33" height="8.37"/><circle class="cls-3" cx="104.78" cy="83.42" r="13.3" transform="translate(-28.29 98.53) rotate(-45)"/><path class="cls-2" d="M104.78,97.89a14.47,14.47,0,1,1,14.47-14.47A14.48,14.48,0,0,1,104.78,97.89Zm0-26.61a12.14,12.14,0,1,0,12.14,12.14A12.15,12.15,0,0,0,104.78,71.28Z"/><path class="cls-2" d="M106.75,80.32A2.44,2.44,0,0,0,105,79.5a1.17,1.17,0,0,0-1.34,1.23c0,1.85,4.19,1.48,4.19,4.59a2.71,2.71,0,0,1-2.39,2.82v1.59h-1.23V88.19A4.7,4.7,0,0,1,101.53,87l.8-1.2a3.68,3.68,0,0,0,2.28,1c1,0,1.49-.49,1.49-1.32,0-2-4.19-1.74-4.19-4.64a2.63,2.63,0,0,1,2.28-2.7V76.54h1.23v1.54a3.58,3.58,0,0,1,2.24,1.21Z"/><path class="cls-1" d="M101.5,175.48c8.37,5.92,20.35,16.14,29.91,24.32h46.17l-5.38-8.5c-.7-3.51-2.85-6.76-2.85-10.27,0-2.6,1.75-5.22,1.75-10.84a22.54,22.54,0,0,0-1.54-8.17l-12.9-20.53c-1.08-1.73-3.9-1.91-6.31-.42l-.79.5c-2.4,1.5-3.48,4.11-2.4,5.84l8.77,14-.5-.1-12.85-20.45c-1.08-1.73-3.9-1.92-6.31-.42l-.79.5c-2.4,1.5-3.48,4.11-2.4,5.84l7.22,11.49-.33-.07-8.79-14c-1.08-1.73-3.91-1.92-6.31-.41l-.79.49c-2.4,1.5-3.48,4.11-2.4,5.84l8,12.7-.32.17L112.4,135.79c-1.08-1.73-3.9-1.92-6.3-.42l-.8.5c-2.4,1.5-3.47,4.11-2.4,5.84l19.87,31.86s2.24,5.52-4.48.49v0l-10.74-8c-1.72-1.1-4.34-.06-5.87,2.33l-.51.78C99.63,171.55,99.78,174.38,101.5,175.48Z"/><path class="cls-2" d="M177.58,201H131.41a1.16,1.16,0,0,1-.75-.28c-9-7.69-21.31-18.22-29.82-24.23a4.19,4.19,0,0,1-1.77-2.69,7.06,7.06,0,0,1,1.11-5.22l.51-.78a7.42,7.42,0,0,1,3.41-2.93,4.45,4.45,0,0,1,4.07.25L118.79,173a.82.82,0,0,1,.2.12,12.35,12.35,0,0,0,3,1.8,4.65,4.65,0,0,0-.22-.83l-19.81-31.77a4.43,4.43,0,0,1-.2-4.07,7.35,7.35,0,0,1,3-3.38l.79-.49a7.33,7.33,0,0,1,4.34-1.18,4.41,4.41,0,0,1,3.57,2l7.12,11.41a7.47,7.47,0,0,1,3-3.33l.78-.49c2.84-1.78,6.11-1.55,7.68.44a7.47,7.47,0,0,1,2.94-3.3l.78-.49c3-1.87,6.47-1.53,7.91.78L146,144a7.33,7.33,0,0,1,3-3.43l.78-.49A7,7,0,0,1,155,139a4.15,4.15,0,0,1,2.68,1.84l12.9,20.52a2,2,0,0,1,.1.21,23.51,23.51,0,0,1,1.61,8.58A27.13,27.13,0,0,1,171.1,178a12.16,12.16,0,0,0-.59,3.06,16.42,16.42,0,0,0,1.44,5.66,28.85,28.85,0,0,1,1.34,4.16l5.28,8.32a1.17,1.17,0,0,1-1,1.79Zm-45.74-2.33h43.63l-4.26-6.71a1.16,1.16,0,0,1-.16-.4,24.34,24.34,0,0,0-1.28-4,18.42,18.42,0,0,1-1.59-6.49,13.92,13.92,0,0,1,.67-3.67,25.19,25.19,0,0,0,1.08-7.17,21.18,21.18,0,0,0-1.42-7.64l-12.84-20.44a1.91,1.91,0,0,0-1.23-.8,4.79,4.79,0,0,0-3.47.75l-.79.5a4.78,4.78,0,0,0-2.2,2.78,1.86,1.86,0,0,0,.17,1.45l8.77,14a1.16,1.16,0,0,1-1.21,1.76l-.51-.1a1.17,1.17,0,0,1-.76-.52l-12.85-20.45c-.73-1.17-2.88-1.19-4.7-.05l-.79.5a4.8,4.8,0,0,0-2.21,2.78,1.94,1.94,0,0,0,.18,1.46l7.22,11.48a1.18,1.18,0,0,1,0,1.29,1.15,1.15,0,0,1-1.19.47l-.33-.07a1.1,1.1,0,0,1-.74-.52l-8.8-14c-.73-1.16-2.88-1.18-4.7,0l-.79.5a4.76,4.76,0,0,0-2.21,2.78,2,2,0,0,0,.17,1.46l8,12.69a1.11,1.11,0,0,1,.14.92,1.15,1.15,0,0,1-.58.73l-.32.17a1.17,1.17,0,0,1-1.53-.42l-16.93-27.16a2.23,2.23,0,0,0-1.75-.88,5.18,5.18,0,0,0-3,.83l-.79.5a5.19,5.19,0,0,0-2,2.29,2.21,2.21,0,0,0,0,1.95L123.76,173a.51.51,0,0,1,.09.18c.26.63,1,2.79-.31,3.81-1.13.86-2.86.32-5.77-1.82a1,1,0,0,1-.19-.12l-10.74-8a2.2,2.2,0,0,0-1.88,0,5.09,5.09,0,0,0-2.31,2l-.51.78a4.85,4.85,0,0,0-.8,3.46,1.94,1.94,0,0,0,.79,1.24l0,0C110.66,180.53,122.84,190.93,131.84,198.63Z"/><path class="cls-1" d="M56.73,199.8,74.46,176a4,4,0,0,1-.55-2V155.64c3.75-4,4.88-11.07,4.88-17.51a53.12,53.12,0,0,0-1.39-11L81,113h0l13.55-5.48A6.19,6.19,0,0,0,90.18,96L79,100.52a17.07,17.07,0,0,0-5,2.1,7.36,7.36,0,0,0-1.83,1.71L60.22,119.7a8.2,8.2,0,0,0-1.67,4.42l-1.46,23L13.81,199.8Z"/><path class="cls-2" d="M56.73,201H13.81a1.17,1.17,0,0,1-.9-1.9l43-52.35,1.44-22.66A9.21,9.21,0,0,1,59.3,119l12-15.51a8.39,8.39,0,0,1,2-1.83,18.34,18.34,0,0,1,5.32-2.24L89.74,94.9A7.36,7.36,0,0,1,95,108.64l-13,5.25-3.41,13.2a54.52,54.52,0,0,1,1.36,11c0,5.66-.86,13.31-4.89,18V174a2.91,2.91,0,0,0,.4,1.46,1.17,1.17,0,0,1-.08,1.28L57.66,200.49A1.14,1.14,0,0,1,56.73,201Zm-40.45-2.33H56.14l17-22.76a5.44,5.44,0,0,1-.36-1.91V155.64a1.15,1.15,0,0,1,.31-.79c3.78-4.06,4.58-11.33,4.58-16.72a52,52,0,0,0-1.36-10.78,1.06,1.06,0,0,1,0-.56l3.63-14a1,1,0,0,1,.2-.41,1.07,1.07,0,0,1,.41-.35l13.63-5.52a5,5,0,0,0-3.55-9.4l-11.2,4.53-.13,0a16.39,16.39,0,0,0-4.7,2A6,6,0,0,0,73.08,105l-.1.12L61.14,120.41a7,7,0,0,0-1.42,3.79l-1.47,23a1.17,1.17,0,0,1-.27.66Z"/><path class="cls-1" d="M273.8,169.9h-.07a1.48,1.48,0,0,0,.15-.6c0-2.76-8.66-5-19.34-5s-19.34,2.23-19.34,5V205c0,2.76,8.67,5,19.37,5S274,207.74,274,205Z"/><path class="cls-2" d="M254.57,211.14c-9.89,0-20.53-1.93-20.53-6.16V169.3c0-4.23,10.63-6.16,20.5-6.16s20.51,1.93,20.51,6.16a2.47,2.47,0,0,1-.08.6l.14,35.07C275.11,209.21,264.47,211.14,254.57,211.14Zm0-45.67c-12,0-18.17,2.68-18.17,3.83V205c0,1.14,6.19,3.83,18.2,3.83s18.21-2.69,18.21-3.83l-.14-33.93h-.73l.77-1.63,0-.12C272.72,168.15,266.53,165.47,254.54,165.47Z"/><path class="cls-2" d="M254.54,175.46c-9.87,0-20.5-1.93-20.5-6.16s10.63-6.16,20.5-6.16,20.51,1.93,20.51,6.16S264.42,175.46,254.54,175.46Zm0-10c-12,0-18.17,2.68-18.17,3.83s6.18,3.83,18.17,3.83,18.18-2.69,18.18-3.83S266.53,165.47,254.54,165.47Z"/><path class="cls-2" d="M254.54,182.59c-9.87,0-20.5-1.92-20.5-6.15a1.17,1.17,0,1,1,2.33,0c0,1.14,6.18,3.82,18.17,3.82s18.18-2.68,18.18-3.82a1.17,1.17,0,1,1,2.33,0C275.05,180.67,264.42,182.59,254.54,182.59Z"/><path class="cls-2" d="M254.54,189.73c-9.87,0-20.5-1.93-20.5-6.16a1.17,1.17,0,0,1,2.33,0c0,1.15,6.18,3.83,18.17,3.83s18.18-2.68,18.18-3.83a1.17,1.17,0,0,1,2.33,0C275.05,187.8,264.42,189.73,254.54,189.73Z"/><path class="cls-2" d="M254.54,196.86c-9.87,0-20.5-1.92-20.5-6.15a1.17,1.17,0,1,1,2.33,0c0,1.14,6.18,3.82,18.17,3.82s18.18-2.68,18.18-3.82a1.17,1.17,0,1,1,2.33,0C275.05,194.94,264.42,196.86,254.54,196.86Z"/><path class="cls-2" d="M254.54,204c-9.87,0-20.5-1.93-20.5-6.16a1.17,1.17,0,0,1,2.33,0c0,1.15,6.18,3.83,18.17,3.83s18.18-2.68,18.18-3.83a1.17,1.17,0,0,1,2.33,0C275.05,202.07,264.42,204,254.54,204Z"/><path class="cls-2" d="M237.8,175.8a1.16,1.16,0,0,1-1.17-1.16V172a1.17,1.17,0,1,1,2.33,0v2.69A1.16,1.16,0,0,1,237.8,175.8Z"/><path class="cls-2" d="M241.1,176.93a1.16,1.16,0,0,1-1.16-1.16v-2.69a1.17,1.17,0,1,1,2.33,0v2.69A1.16,1.16,0,0,1,241.1,176.93Z"/><path class="cls-2" d="M245,177.82a1.16,1.16,0,0,1-1.16-1.17V174a1.17,1.17,0,0,1,2.33,0v2.69A1.17,1.17,0,0,1,245,177.82Z"/><path class="cls-2" d="M249.5,178.28a1.17,1.17,0,0,1-1.17-1.17v-2.69a1.17,1.17,0,0,1,2.33,0v2.69A1.16,1.16,0,0,1,249.5,178.28Z"/><path class="cls-2" d="M271.19,175.69a1.16,1.16,0,0,1-1.17-1.16v-2.69a1.17,1.17,0,1,1,2.33,0v2.69A1.16,1.16,0,0,1,271.19,175.69Z"/><path class="cls-2" d="M267.88,176.82a1.16,1.16,0,0,1-1.17-1.16V173a1.17,1.17,0,1,1,2.33,0v2.69A1.16,1.16,0,0,1,267.88,176.82Z"/><path class="cls-2" d="M264,177.71a1.17,1.17,0,0,1-1.17-1.17v-2.69a1.17,1.17,0,0,1,2.33,0v2.69A1.16,1.16,0,0,1,264,177.71Z"/><path class="cls-2" d="M259.48,178.17a1.16,1.16,0,0,1-1.16-1.17v-2.69a1.17,1.17,0,0,1,2.33,0V177A1.17,1.17,0,0,1,259.48,178.17Z"/><path class="cls-2" d="M254.54,178.49a1.16,1.16,0,0,1-1.16-1.16v-2.69a1.17,1.17,0,1,1,2.33,0v2.69A1.16,1.16,0,0,1,254.54,178.49Z"/><path class="cls-2" d="M237.8,183a1.17,1.17,0,0,1-1.17-1.17v-2.69a1.17,1.17,0,0,1,2.33,0v2.69A1.16,1.16,0,0,1,237.8,183Z"/><path class="cls-2" d="M241.1,184.12a1.16,1.16,0,0,1-1.16-1.17v-2.69a1.17,1.17,0,0,1,2.33,0V183A1.17,1.17,0,0,1,241.1,184.12Z"/><path class="cls-2" d="M245,185a1.16,1.16,0,0,1-1.16-1.16v-2.69a1.17,1.17,0,1,1,2.33,0v2.69A1.16,1.16,0,0,1,245,185Z"/><path class="cls-2" d="M249.5,185.46a1.16,1.16,0,0,1-1.17-1.16v-2.69a1.17,1.17,0,1,1,2.33,0v2.69A1.16,1.16,0,0,1,249.5,185.46Z"/><path class="cls-2" d="M271.19,182.88a1.16,1.16,0,0,1-1.17-1.16V179a1.17,1.17,0,0,1,2.33,0v2.7A1.16,1.16,0,0,1,271.19,182.88Z"/><path class="cls-2" d="M267.88,184a1.16,1.16,0,0,1-1.17-1.16v-2.7a1.17,1.17,0,0,1,2.33,0v2.7A1.16,1.16,0,0,1,267.88,184Z"/><path class="cls-2" d="M264,184.9a1.17,1.17,0,0,1-1.17-1.17V181a1.17,1.17,0,1,1,2.33,0v2.69A1.17,1.17,0,0,1,264,184.9Z"/><path class="cls-2" d="M259.48,185.36a1.17,1.17,0,0,1-1.16-1.17V181.5a1.17,1.17,0,1,1,2.33,0v2.69A1.17,1.17,0,0,1,259.48,185.36Z"/><path class="cls-2" d="M254.54,185.68a1.16,1.16,0,0,1-1.16-1.16v-2.7a1.17,1.17,0,0,1,2.33,0v2.7A1.16,1.16,0,0,1,254.54,185.68Z"/><path class="cls-2" d="M237.8,190.18a1.17,1.17,0,0,1-1.17-1.17v-2.69a1.17,1.17,0,0,1,2.33,0V189A1.16,1.16,0,0,1,237.8,190.18Z"/><path class="cls-2" d="M241.1,191.31a1.17,1.17,0,0,1-1.16-1.17v-2.69a1.17,1.17,0,1,1,2.33,0v2.69A1.17,1.17,0,0,1,241.1,191.31Z"/><path class="cls-2" d="M245,192.19A1.16,1.16,0,0,1,243.8,191v-2.69a1.17,1.17,0,1,1,2.33,0V191A1.16,1.16,0,0,1,245,192.19Z"/><path class="cls-2" d="M249.5,192.65a1.16,1.16,0,0,1-1.17-1.16V188.8a1.17,1.17,0,1,1,2.33,0v2.69A1.16,1.16,0,0,1,249.5,192.65Z"/><path class="cls-2" d="M271.19,190.07A1.17,1.17,0,0,1,270,188.9v-2.69a1.17,1.17,0,0,1,2.33,0v2.69A1.16,1.16,0,0,1,271.19,190.07Z"/><path class="cls-2" d="M267.88,191.2a1.17,1.17,0,0,1-1.17-1.17v-2.69a1.17,1.17,0,0,1,2.33,0V190A1.16,1.16,0,0,1,267.88,191.2Z"/><path class="cls-2" d="M264,192.08a1.16,1.16,0,0,1-1.17-1.16v-2.69a1.17,1.17,0,1,1,2.33,0v2.69A1.16,1.16,0,0,1,264,192.08Z"/><path class="cls-2" d="M259.48,192.54a1.16,1.16,0,0,1-1.16-1.16v-2.69a1.17,1.17,0,1,1,2.33,0v2.69A1.16,1.16,0,0,1,259.48,192.54Z"/><path class="cls-2" d="M254.54,192.87a1.16,1.16,0,0,1-1.16-1.17V189a1.17,1.17,0,0,1,2.33,0v2.69A1.17,1.17,0,0,1,254.54,192.87Z"/><path class="cls-2" d="M237.8,197.36a1.16,1.16,0,0,1-1.17-1.16v-2.69a1.17,1.17,0,1,1,2.33,0v2.69A1.16,1.16,0,0,1,237.8,197.36Z"/><path class="cls-2" d="M241.1,198.49a1.16,1.16,0,0,1-1.16-1.16v-2.69a1.17,1.17,0,1,1,2.33,0v2.69A1.16,1.16,0,0,1,241.1,198.49Z"/><path class="cls-2" d="M245,199.38a1.16,1.16,0,0,1-1.16-1.17v-2.69a1.17,1.17,0,0,1,2.33,0v2.69A1.17,1.17,0,0,1,245,199.38Z"/><path class="cls-2" d="M249.5,199.84a1.17,1.17,0,0,1-1.17-1.17V196a1.17,1.17,0,0,1,2.33,0v2.69A1.16,1.16,0,0,1,249.5,199.84Z"/><path class="cls-2" d="M271.19,197.26a1.17,1.17,0,0,1-1.17-1.17V193.4a1.17,1.17,0,1,1,2.33,0v2.69A1.17,1.17,0,0,1,271.19,197.26Z"/><path class="cls-2" d="M267.88,198.38a1.16,1.16,0,0,1-1.17-1.16v-2.69a1.17,1.17,0,1,1,2.33,0v2.69A1.16,1.16,0,0,1,267.88,198.38Z"/><path class="cls-2" d="M264,199.27a1.16,1.16,0,0,1-1.17-1.16v-2.7a1.17,1.17,0,0,1,2.33,0v2.7A1.16,1.16,0,0,1,264,199.27Z"/><path class="cls-2" d="M259.48,199.73a1.16,1.16,0,0,1-1.16-1.16v-2.7a1.17,1.17,0,0,1,2.33,0v2.7A1.16,1.16,0,0,1,259.48,199.73Z"/><path class="cls-2" d="M254.54,200.05a1.16,1.16,0,0,1-1.16-1.16V196.2a1.17,1.17,0,1,1,2.33,0v2.69A1.16,1.16,0,0,1,254.54,200.05Z"/><path class="cls-2" d="M237.8,204.55a1.16,1.16,0,0,1-1.17-1.16v-2.7a1.17,1.17,0,0,1,2.33,0v2.7A1.16,1.16,0,0,1,237.8,204.55Z"/><path class="cls-2" d="M241.1,205.68a1.16,1.16,0,0,1-1.16-1.17v-2.69a1.17,1.17,0,0,1,2.33,0v2.69A1.17,1.17,0,0,1,241.1,205.68Z"/><path class="cls-2" d="M245,206.57a1.17,1.17,0,0,1-1.16-1.17v-2.69a1.17,1.17,0,1,1,2.33,0v2.69A1.17,1.17,0,0,1,245,206.57Z"/><path class="cls-2" d="M249.5,207a1.17,1.17,0,0,1-1.17-1.17v-2.69a1.17,1.17,0,1,1,2.33,0v2.69A1.17,1.17,0,0,1,249.5,207Z"/><path class="cls-2" d="M271.19,204.44a1.16,1.16,0,0,1-1.17-1.16v-2.69a1.17,1.17,0,1,1,2.33,0v2.69A1.16,1.16,0,0,1,271.19,204.44Z"/><path class="cls-2" d="M267.88,205.57a1.16,1.16,0,0,1-1.17-1.16v-2.69a1.17,1.17,0,1,1,2.33,0v2.69A1.16,1.16,0,0,1,267.88,205.57Z"/><path class="cls-2" d="M264,206.46a1.17,1.17,0,0,1-1.17-1.17V202.6a1.17,1.17,0,0,1,2.33,0v2.69A1.16,1.16,0,0,1,264,206.46Z"/><path class="cls-2" d="M259.48,206.92a1.16,1.16,0,0,1-1.16-1.17v-2.69a1.17,1.17,0,0,1,2.33,0v2.69A1.17,1.17,0,0,1,259.48,206.92Z"/><path class="cls-2" d="M254.54,207.24a1.16,1.16,0,0,1-1.16-1.16v-2.69a1.17,1.17,0,1,1,2.33,0v2.69A1.16,1.16,0,0,1,254.54,207.24Z"/></g></g></svg>