<svg xmlns="http://www.w3.org/2000/svg" viewBox="0 0 363.51 116.71"><defs><style>.cls-1{fill:#2a3646;}</style></defs><title>charge-desc</title><g id="圖層_2" data-name="圖層 2"><g id="text"><path class="cls-1" d="M50.83,116.19H28.65V32.6A76.36,76.36,0,0,1,0,49.41V29.28q8.69-2.84,18.87-10.77T32.84,0h18Z"/><path class="cls-1" d="M68.38,91.27a9.26,9.26,0,0,1,2.16-6.46,7.44,7.44,0,0,1,5.81-2.38,6.93,6.93,0,0,1,5.48,2.22,8.91,8.91,0,0,1,2,6.15,9.19,9.19,0,0,1-2.18,6.35,7.35,7.35,0,0,1-5.74,2.44,6.92,6.92,0,0,1-5.47-2.29A8.72,8.72,0,0,1,68.38,91.27Zm3-.21a7,7,0,0,0,1.28,4.46,4.22,4.22,0,0,0,3.47,1.6,4.11,4.11,0,0,0,3.48-1.65,7.38,7.38,0,0,0,1.25-4.56,7.16,7.16,0,0,0-1.24-4.47,4.07,4.07,0,0,0-3.4-1.59,4.24,4.24,0,0,0-3.53,1.7A7.19,7.19,0,0,0,71.36,91.06ZM98,82.92,76.71,116.45H73.53L94.84,82.92Zm-9.86,25.47a9.47,9.47,0,0,1,2.15-6.49,7.3,7.3,0,0,1,5.78-2.44,6.89,6.89,0,0,1,5.47,2.25,9.17,9.17,0,0,1,2,6.25,9,9,0,0,1-2.2,6.34,7.4,7.4,0,0,1-5.71,2.41,7,7,0,0,1-5.42-2.28A8.67,8.67,0,0,1,88.16,108.39Zm2.94-.19a6.84,6.84,0,0,0,1.3,4.4,4.2,4.2,0,0,0,3.45,1.61,4.09,4.09,0,0,0,3.48-1.66,7.46,7.46,0,0,0,1.25-4.56,7,7,0,0,0-1.23-4.45A4.09,4.09,0,0,0,96,102a4.27,4.27,0,0,0-3.57,1.67A7.23,7.23,0,0,0,91.1,108.2Z"/><path class="cls-1" d="M153.27,19.92q-4.61.63-9,.87l-.1-1.18c1.24-.06,2.49-.13,3.75-.23v-.81h-3v-1h3V17h-3.69V16H148v-.62h-3v-1h3v-.67h1.59v.67h2.83v1h-2.83V16h3.06v1h-3.06v.59h2.83v1h-2.83v.65c1.08-.07,2.32-.2,3.71-.39Zm6.11,8a1.16,1.16,0,0,1-.25.78,1,1,0,0,1-.6.38,7.24,7.24,0,0,1-1.4.08,13.12,13.12,0,0,1-1.34-.05l-.56-1.34c.37,0,1.13,0,2.29,0a.27.27,0,0,0,.31-.31v-.66H153v3H151.4v-3h-4.76v2.38H145V25.7h6.38v-.64h-5.17V21.25h4.4a8.33,8.33,0,0,0,.49-.79l1.65.16-.39.63h5.71v3.81H153v.64h6.34Zm-2.86-5.22v-.54h-8.66v.54Zm0,1.34v-.55h-8.66v.55Zm-.31-5.83-1.23.91a10.81,10.81,0,0,0-1.82-1.52l1.2-.84A9.21,9.21,0,0,1,156.21,18.26Zm4-1.72H159v2.73a1.5,1.5,0,0,1-.49,1.14q-.5.45-2.67.36l-.54-1.51H157c.28,0,.42-.16.42-.46V16.54h-4.21V15.13h4.21v-1.4H159v1.4h1.25Z"/><path class="cls-1" d="M167.79,14.08A30.68,30.68,0,0,1,166.14,17v6.85h-1.61V19.22q-.34.39-1.2,1.2l-1-1.37a17.45,17.45,0,0,0,3.89-5.47Zm-1.61,10.8a16.08,16.08,0,0,1-2.27,4.5l-1.39-.92a14.7,14.7,0,0,0,2.13-4.05ZM178.37,15a19,19,0,0,1-1.06,3.32l-1.57-.52a10.13,10.13,0,0,0,.49-1.27h-6a12.5,12.5,0,0,1-2.3,2.63l-1.19-1.11a16.37,16.37,0,0,0,3.46-4.48l1.48.63a8.77,8.77,0,0,1-.46.8ZM175.3,26.94a6.17,6.17,0,0,1-.63,2,1.65,1.65,0,0,1-1,.67,16.16,16.16,0,0,1-3.12.18,7.31,7.31,0,0,1-2.88-.37c-.49-.25-.73-.83-.73-1.74V24.3h1.63v3.26a.55.55,0,0,0,.36.57,7.6,7.6,0,0,0,1.81.13,15.19,15.19,0,0,0,2-.08.86.86,0,0,0,.63-.45,4.06,4.06,0,0,0,.32-1.42Zm-4-7.77a18.65,18.65,0,0,1-3,4.07l-1.25-1.07a17,17,0,0,0,2.8-3.9ZM173,26.24l-1.28,1a20.13,20.13,0,0,0-2.12-2.77l1.21-1A17.2,17.2,0,0,1,173,26.24Zm.81-2.35h-1.68V17.25h1.68Zm4.95-1.79-1.33.94a24.08,24.08,0,0,0-2.88-3.78l1.31-.87A24.57,24.57,0,0,1,178.72,22.1Zm.05,6.5-1.41.85a23.1,23.1,0,0,0-2.48-4.21l1.35-.89A21,21,0,0,1,178.77,28.6Z"/><path class="cls-1" d="M197.22,29.58H181.08V28.16H183V24h12.27v4.21h1.93Zm-7.2-6.8h-8.2V14.1H190v1.32h-3.12V16.6h2.29v3.68h-2.29v1.18H190Zm-4.67-6.18V15.42h-2V16.6Zm2.25,2.45V17.83h-4.25v1.22Zm-2.25,2.41V20.28h-2v1.18Zm1.28,6.7V25.37h-2v2.79Zm3.54,0V25.37h-2v2.79Zm7-10.63h-5a10.92,10.92,0,0,1-1.64,2.17l-1-1.2A11.21,11.21,0,0,0,192,13.64l1.57.28a14.15,14.15,0,0,1-.72,2.1h4.3Zm-.41,4.33h-5.92V20.35h5.92Zm-3.1,3.51h-1.92v2.79h1.92Z"/><path class="cls-1" d="M204.89,22c-.41.21-1,.47-1.68.79v5.46a1.66,1.66,0,0,1-.24.94,1.18,1.18,0,0,1-.6.49,4.55,4.55,0,0,1-1.35.13c-.33,0-.64,0-1,0l-.4-1.68c.65.06,1.15.09,1.51.09a.35.35,0,0,0,.3-.16.48.48,0,0,0,.13-.33V23.45q-1,.4-1.89.66l-.31-1.55a16.39,16.39,0,0,0,2.2-.78V18.24h-2V16.67h2V13.73h1.6v2.94h1.42v1.57h-1.42v2.9c.67-.29,1.23-.54,1.68-.76Zm10.73,7.53H204.8V28h4.65v-3.2h-4v-1.6h9.75v1.6h-4.07V28h4.49Zm-.12-7.7h-3.24a1.18,1.18,0,0,1-.91-.43,1.47,1.47,0,0,1-.38-1V17.2h-1.24a5.49,5.49,0,0,1-.89,3.09,6.06,6.06,0,0,1-2.45,2.23l-1.09-1.18a4.84,4.84,0,0,0,2.13-1.71,4.21,4.21,0,0,0,.81-2.43h-1.39V19h-1.66V15.69h4.26a5.81,5.81,0,0,0-.84-1.61l1.65-.53a16.68,16.68,0,0,1,1.1,2.14h4.08v3.36h-1.67V17.2H212.5V20c0,.27.12.4.37.4h2.63Z"/><path class="cls-1" d="M234.13,17.34H226.9v2.25h6.15v6.66c0,1.45-.59,2.17-1.76,2.17l-2.22,0-.53-1.69c.83.05,1.6.08,2.32.08a.56.56,0,0,0,.32-.12.36.36,0,0,0,.16-.29V21.23H226.9v8.64h-1.67V21.23h-4.41v7.15h-1.69V19.59h6.1V17.34h-7.17V15.73h7.2a9.2,9.2,0,0,0-1-1.65l1.8-.44a17.55,17.55,0,0,1,1.12,2.09h6.95Z"/><path class="cls-1" d="M241.57,19.38H240V23.3c.23-.13.63-.39,1.22-.8l.26,1.59a35.93,35.93,0,0,1-4.64,2.78l-.51-1.48a17.83,17.83,0,0,0,2.12-1.11v-4.9h-1.79V17.9h1.79V13.81H240V17.9h1.55Zm11,2.92H245.9a9.6,9.6,0,0,1-.65.92h7c-.05,1.35-.12,2.58-.2,3.7a11,11,0,0,1-.26,2,1.43,1.43,0,0,1-.43.56,1.79,1.79,0,0,1-.81.36,14.37,14.37,0,0,1-2.21.1l-.52-1.47c.33,0,.67,0,1,0q1.16,0,1.41-.3a12.53,12.53,0,0,0,.37-3.61h-.5A10.66,10.66,0,0,1,244.75,30l-1.14-1.07a9.86,9.86,0,0,0,4.88-4.3h-1.16a13.65,13.65,0,0,1-5.68,4.23l-1.06-1.15a13.26,13.26,0,0,0,4.95-3.08H244a18.17,18.17,0,0,1-2,1.51L240.89,25a10.82,10.82,0,0,0,3.28-2.66h-2.89V21h11.3ZM251.64,20h-9.35v-6h9.35Zm-1.57-3.6v-1h-6.21v1Zm0,2.25v-1h-6.21v1Z"/><path class="cls-1" d="M258.87,23.72A25.5,25.5,0,0,1,256.22,30L255,28.88A26.83,26.83,0,0,0,257.5,23Zm.36-3.1L258.18,22A18.91,18.91,0,0,0,255,19.59l1-1.35A18.65,18.65,0,0,1,259.23,20.62Zm.22-4.3-1.09,1.18a21.31,21.31,0,0,0-3.08-2.7l1.11-1.13A15.6,15.6,0,0,1,259.45,16.32Zm11.82,12.35L270.36,30a18.42,18.42,0,0,1-4.44-2.46,17.09,17.09,0,0,1-4.2,2.41l-.91-1.35a18.94,18.94,0,0,0,3.93-2.1,12.51,12.51,0,0,1-2.82-4.81h-.33q-.16,5.71-1.91,8.24l-1.46-.79q1.8-2.78,1.8-7.95v-5.6h4.33V13.83H266v1.78h4.92a27.32,27.32,0,0,1-1.08,3.79l-1.62-.35a10.53,10.53,0,0,0,.69-1.87H266v3h3.92A13.84,13.84,0,0,1,267,26.52,16.63,16.63,0,0,0,271.27,28.67Zm-6.92-8.51v-3h-2.7v3Zm3.56,1.55h-4.42a10.92,10.92,0,0,0,2.37,3.81A9.68,9.68,0,0,0,267.91,21.71Z"/><path class="cls-1" d="M282.39,18h-3.57v1.05H282V24.5h-3.19v1H282v1.29h-3.19V28a32.31,32.31,0,0,0,3.28-.47l.07,1.31q-4,.68-8.46,1.11l-.33-1.33,4-.41V26.82h-3.22V25.53h3.22v-1h-3.22V19.07h3.22V18h-3.7V16.67h3.7V15.61c-.8.11-1.76.19-2.89.25L274,14.57a45.59,45.59,0,0,0,7.52-.88l.63,1.18c-.88.21-2,.4-3.37.58v1.22h3.57Zm-5.05,3.18v-.95h-1.73v.95Zm0,2.08v-.94h-1.73v.94Zm3.17-2.07v-1h-1.69v1Zm0,2.07v-.94h-1.69v.94Zm8.71-6.08q0,3.86-.17,7.44a30.1,30.1,0,0,1-.32,4.13,1.44,1.44,0,0,1-.62.86,2.79,2.79,0,0,1-1.49.3c-.31,0-.64,0-1,0l-.46-1.57c.47,0,.84.05,1.12.05.53,0,.85-.06.94-.2a18.87,18.87,0,0,0,.32-3.3q.19-3.09.13-6.14H286.1A23.93,23.93,0,0,1,283.64,30l-1.43-.7a20.05,20.05,0,0,0,2.29-10.54h-1.61V17.2h1.64c0-1.51,0-2.64,0-3.37h1.61c0,1.16,0,2.28-.06,3.37Z"/><path class="cls-1" d="M159.9,50.28a43.47,43.47,0,0,1-.31,5.12,2.56,2.56,0,0,1-.79,1.72,3.32,3.32,0,0,1-1.9.42c-.4,0-.76,0-1.08,0l-.47-1.6c.22,0,.87,0,1.94,0a.56.56,0,0,0,.56-.34,21.1,21.1,0,0,0,.35-3.76H147.8A10.41,10.41,0,0,1,145,54.57L144,53.27a14.24,14.24,0,0,0,5.19-7.81h-4.58V43.89h2.79a10.34,10.34,0,0,0-1.7-1.62l1.28-1a8.67,8.67,0,0,1,1.8,1.7l-1.11.92h1.92c.22-.9.39-1.78.53-2.62l1.62.3a21.63,21.63,0,0,1-.46,2.32h7c-.19,1.12-.41,2.18-.67,3.18h1.55c-.1.84-.29,1.91-.55,3.21ZM149.26,53a17.14,17.14,0,0,1-2,4.68l-1.36-.84a22.64,22.64,0,0,0,1.85-4.28Zm8-4.38h-7.44c-.25.53-.54,1.09-.89,1.7h8ZM152,57l-1.57.31a18.5,18.5,0,0,0-.51-4.38l1.53-.16A18.48,18.48,0,0,1,152,57Zm4.19-11.57h-5.34a15.26,15.26,0,0,1-.5,1.61h5.49C156,46.58,156.09,46.05,156.21,45.46Zm-1.28,10.77-1.59.5a19.58,19.58,0,0,0-.9-3.77l1.48-.25A16.52,16.52,0,0,1,154.93,56.23Zm2.48-1.09-1.48.53a12.65,12.65,0,0,0-1-2.86l1.46-.44A12.54,12.54,0,0,1,157.41,55.14Z"/><path class="cls-1" d="M167.79,41.78a30.68,30.68,0,0,1-1.65,2.94v6.86l-1.61,0V46.92q-.34.39-1.2,1.2l-1-1.37a17.52,17.52,0,0,0,3.89-5.46Zm-1.61,10.81a16,16,0,0,1-2.27,4.49l-1.39-.92a14.7,14.7,0,0,0,2.13-4Zm12.19-9.88A18.67,18.67,0,0,1,177.31,46l-1.57-.51a11.48,11.48,0,0,0,.49-1.27h-6a12.43,12.43,0,0,1-2.3,2.62l-1.19-1.11a16.46,16.46,0,0,0,3.46-4.47l1.48.63a8.17,8.17,0,0,1-.46.79ZM175.3,54.64a6.35,6.35,0,0,1-.63,2,1.68,1.68,0,0,1-1,.66,16.16,16.16,0,0,1-3.12.18,7.31,7.31,0,0,1-2.88-.37c-.49-.25-.73-.83-.73-1.74V52h1.63v3.27a.54.54,0,0,0,.36.56,7.07,7.07,0,0,0,1.81.13,13.52,13.52,0,0,0,2-.08.86.86,0,0,0,.63-.45,4.06,4.06,0,0,0,.32-1.42Zm-4-7.77a18.74,18.74,0,0,1-3,4.08l-1.25-1.08a17.11,17.11,0,0,0,2.8-3.89ZM173,53.94l-1.28,1a19,19,0,0,0-2.12-2.77l1.21-1A17.2,17.2,0,0,1,173,53.94Zm.81-2.34h-1.68V45h1.68Zm4.95-1.8-1.33,1A24.15,24.15,0,0,0,174.51,47l1.31-.87A25.08,25.08,0,0,1,178.72,49.8Zm.05,6.5-1.41.85a23.44,23.44,0,0,0-2.48-4.21l1.35-.88A20.9,20.9,0,0,1,178.77,56.3Z"/><path class="cls-1" d="M189.36,56.25l-1.44.57c-.24-.75-.47-1.37-.69-1.88-2,.86-3.8,1.55-5.43,2.09l-.56-1.48a.82.82,0,0,0,.42-.71V41.75h6.94v8.61h-5.28v4.46c1-.36,2.14-.78,3.31-1.27a10.44,10.44,0,0,0-.95-1.86l1.43-.61A24.66,24.66,0,0,1,189.36,56.25Zm-2.38-11v-2h-3.66v2Zm0,3.61V46.72h-3.66v2.11Zm9.78,5a1.89,1.89,0,0,1-.61,1.68,4.13,4.13,0,0,1-2.09.4l-1.19,0-.46-1.66c.74,0,1.5.05,2.25.05a.42.42,0,0,0,.32-.16.51.51,0,0,0,.14-.36V43.37H191.9V57.59h-1.62V41.77h6.48Z"/><path class="cls-1" d="M204.76,56.25h-1.57V55.4h-1.55v1.29H200V42.51h4.72Zm-1.57-7.87V44l-1.55,0v4.38Zm0,5.52v-4h-1.55v4Zm12.43-2.38h-1.77v4.34a1.88,1.88,0,0,1-.27,1.06,1.27,1.27,0,0,1-.69.51,6.88,6.88,0,0,1-1.62.13c-.42,0-.8,0-1.15,0L209.63,56c.85,0,1.59,0,2.22,0,.27,0,.41-.15.41-.44v-4H205.5V50h6.76V48.86h1.59V50h1.77Zm-.18-6.78h-4.1v2H215V48.2h-8.8V46.74h3.55v-2h-4V43.26h4V41.45h1.59v1.81h4.12Zm-5.42,10-1.34.89A18.76,18.76,0,0,0,206.33,53L207.6,52A13.9,13.9,0,0,1,210,54.73Z"/><path class="cls-1" d="M223.57,44.6H218V43.16h2.09a9.34,9.34,0,0,0-.61-1.34l1.64-.44c.29.61.54,1.2.76,1.78h1.67Zm-.41,2.71h-4.75V45.87h4.75Zm0,2.75h-4.75V48.57h4.75Zm0,7.13h-1.55v-.74H220v1.14h-1.57V51.28h4.71Zm-1.55-2.25v-2.2H220v2.2Zm12.1,1.24a1.35,1.35,0,0,1-.47,1.12,1.77,1.77,0,0,1-1.1.36c-.34,0-.81,0-1.41,0l-.53-1.55,1.66,0A.3.3,0,0,0,232,56c.06-.07.1-.12.1-.18V49.25H226c-.05,3.94-.48,6.77-1.31,8.5l-1.33-1a20.42,20.42,0,0,0,1-7.42V42h9.27Zm-5.45-11.25V43.52H226v1.41Zm0,2.91V46.38H226v1.46Zm3.21,7.35h-4.82V50.56h4.82ZM230,53.8V52h-1.82V53.8Zm2.15-8.87V43.52h-2.31v1.41Zm0,2.91V46.38h-2.31v1.46Z"/><path class="cls-1" d="M245.08,43.52h-3.55v.71h3v3.35h-3v.14a24.49,24.49,0,0,1,2.94,1.13l-.65,1.23a20,20,0,0,0-2.29-1V51h-1.47V48.88a10.87,10.87,0,0,1-3,2.1l-.83-1.2a10.82,10.82,0,0,0,3.2-2.2h-2.42V44.23h3v-.71H236.4V42.24h3.66v-.81h1.47v.81h3.55Zm7.48,13.65h-16.1V55.83h2.84V53.54h1.61v2.29h2.79V52.72h-6.95v-1.3h15.51v1.3h-6.9v.92h6.13V54.9h-6.13v.93h7.2Zm-12.5-10.8v-.94h-1.49v.94Zm3,0v-.94h-1.52v.94Zm9.66,3.34L252,51a9.59,9.59,0,0,1-3.29-1.64A13.13,13.13,0,0,1,245.16,51l-.78-1.33a12.82,12.82,0,0,0,3.21-1.28,6.67,6.67,0,0,1-1-1.68l1.25-.63a6.26,6.26,0,0,0,.83,1.37A5.53,5.53,0,0,0,250,44.58h-2.22a16.59,16.59,0,0,1-2.05,2.7l-1-1.15a13.46,13.46,0,0,0,2.83-4.84l1.44.4a12,12,0,0,1-.61,1.54h4.06v1.35h-1a7,7,0,0,1-1.6,3.8A7.13,7.13,0,0,0,252.71,49.71Z"/><path class="cls-1" d="M261,46h-2v3.12c.43-.14,1-.36,1.7-.66l.18,1.64c-.68.29-1.3.54-1.88.74v5.08a1.62,1.62,0,0,1-.28,1,1.38,1.38,0,0,1-.67.5,4.56,4.56,0,0,1-1.23.12l-1.15,0-.55-1.59,2,0c.21,0,.31-.1.31-.3V51.41c-.93.29-1.63.49-2.11.61l-.46-1.57c1.09-.28,2-.53,2.57-.76V46H255V44.39h2.44v-3H259v3h2Zm10.25,10.18-.75,1.4A14.88,14.88,0,0,1,266,55.47,16.72,16.72,0,0,1,261,57.56l-1-1.45a12.69,12.69,0,0,0,4.52-1.69,8.82,8.82,0,0,1-2.38-3.81h-.65V49.08h8.37v1.39a11.89,11.89,0,0,1-2.7,3.91A14.87,14.87,0,0,0,271.27,56.14Zm-.22-8.07h-2.24c-1,0-1.48-.52-1.48-1.57V43.21h-2.87q.1,3.69-2.54,5.09l-1.18-1.18a3.94,3.94,0,0,0,1.62-1.4,4.06,4.06,0,0,0,.47-2.12V41.69H269v4.57a.21.21,0,0,0,.23.24h1.87Zm-3,2.54h-4.13a5.79,5.79,0,0,0,2,2.83A10.53,10.53,0,0,0,268.05,50.61Z"/><path class="cls-1" d="M289.66,47.09l-.77,1.48a12.8,12.8,0,0,1-1.61-.46v6.94h-7.79l.79.92a23.92,23.92,0,0,1-6.15,1.78l-.79-1.48a21.59,21.59,0,0,0,5-1.22h-2.71v-7h3.49l-.71-1a8.51,8.51,0,0,0,4.83-2.88l1.68.37a3.19,3.19,0,0,1-.41.63A15.25,15.25,0,0,0,289.66,47.09Zm-10.8-.52h-5.38V45.06h5.38Zm-.16-2.94h-5V42.15h5Zm6.92,6.4v-.65h-8.23V50Zm0,1.88v-.68h-8.23v.68Zm0,1.92v-.72h-8.23v.72Zm3.72-10a20.31,20.31,0,0,1-1.62,2.07l-1.39-.83,1-1.24H281.5a13.72,13.72,0,0,1-1.62,1.62l-1.26-1.07a11,11,0,0,0,2.76-3.14l1.51.52a1.74,1.74,0,0,1-.35.65h6.8Zm-2.24,4.23a14,14,0,0,1-3.6-1.78,10,10,0,0,1-3,1.78Zm2.45,8.32-.88,1.43a28.79,28.79,0,0,0-5.41-1.13l.85-1.39A23.63,23.63,0,0,1,289.55,56.39Z"/><path class="cls-1" d="M294.25,53.57a13.47,13.47,0,0,1-1,4.1l-1.46-.75a13.34,13.34,0,0,0,.94-3.72Zm4.84-1.6-1.41.58a5.36,5.36,0,0,0-.25-.95,43.72,43.72,0,0,1-5.07,1.25l-.42-1.46a16.16,16.16,0,0,0,3.45-3.76c-.88.14-1.88.29-3,.44l-.3-1.33a15.78,15.78,0,0,0,3.3-5.4l1.7.54a19.46,19.46,0,0,1-2.58,4.36,15.24,15.24,0,0,0,2-.32,16.74,16.74,0,0,0,1.07-1.83l1.48.78a26.34,26.34,0,0,1-4.24,5.88,17.89,17.89,0,0,0,2.17-.56,6.45,6.45,0,0,0-.29-.79l1.38-.54A25.3,25.3,0,0,1,299.09,52Zm-2.52,4.87-1.51.37a15.21,15.21,0,0,0-.39-3.75l1.37-.28A17.85,17.85,0,0,1,296.57,56.84Zm2.22-1.74-1.31.52a14.62,14.62,0,0,0-.7-2.4L298,52.8A19.31,19.31,0,0,1,298.79,55.1Zm9.2,2.09h-9.46V55.64h1V42h7.43V55.64H308Zm-2.72-10.86V43.54h-4.12v2.79Zm0,4.47V47.92h-4.12V50.8Zm0,4.84V52.32h-4.12v3.32Z"/><path class="cls-1" d="M326.77,46.57l-1,1.42a32.72,32.72,0,0,1-7.37-4.54,39.89,39.89,0,0,1-7.09,4.45l-1.11-1.35a25.43,25.43,0,0,0,7.9-5.21l1.76.63c-.1.12-.2.24-.3.34A30,30,0,0,0,326.77,46.57Zm-2.29,11.07h-1.72v-1h-8.62v1h-1.76V50.13h12.1Zm-1.72-2.57V51.72h-8.62v3.35Zm-.05-6.89h-8.44V46.59h8.44Z"/><path class="cls-1" d="M160.27,82.88H153v2.4H151.4v-2.4h-7.2v-1.4h7.2v-1h-5.52V74.35h12.73v6.13H153v1h7.23Zm-8.78-9.5h-6.26V69.51h6.26ZM149.87,72V70.9h-3V72Zm1.53,4.76V75.69h-3.89v1.09Zm0,2.35V78.05h-3.89v1.08Zm7.74-5.75H153V69.51h6.19ZM157,76.78V75.69H153v1.09Zm0,2.35V78.05H153v1.08Zm.55-7.11V70.9h-2.95V72Z"/><path class="cls-1" d="M170.43,71.67h-4.79a8.76,8.76,0,0,1-1.86,1.92l-1.31-1A9.64,9.64,0,0,0,165.38,69l1.62.44a5.48,5.48,0,0,1-.47.9h3.9Zm8.32,11.62h-7.31v2H169.8v-2h-7.21V82h7.21v-.88h-6.59V79.85h6.59V79H164V77.84h5.76v-.79h-7.21V75.81h7.21V75H164V73.77h5.78v-.88h1.64v.91h5.66v2h1.64v1.24H177.1v2h-5.66v.83h6.65v1.28h-6.65V82h7.31Zm-9.93-10.07-1.63.35a8.72,8.72,0,0,0-.86-1.35L168,71.9A11,11,0,0,1,168.82,73.22Zm9.84-1.55H173A9.69,9.69,0,0,1,171.86,73l-1.36-.87A9.93,9.93,0,0,0,172.78,69l1.53.52c0,.1-.17.37-.39.82h4.74Zm-3.21,4.14V75h-4v.79Zm0,2v-.79h-4v.79Zm1.09-4.64-1.65.34a6.9,6.9,0,0,0-.95-1.34l1.73-.25A8.09,8.09,0,0,1,176.54,73.2Z"/><path class="cls-1" d="M196.27,81H190v4.23h-1.66V81H182V71.81h6.33V69.2H190v2.61h6.27Zm-7.93-5.41V73.35h-4.63v2.27Zm0,3.88V77.12h-4.63V79.5Zm6.24-3.88V73.35H190v2.27Zm0,3.88V77.12H190V79.5Z"/><path class="cls-1" d="M204.63,80.87h-3.34l1,.65a14.46,14.46,0,0,1-1.62,3.82l-1.35-.94a13.89,13.89,0,0,0,1.55-3.53H200V69.64h4.64Zm-1.53-8V71.19h-1.57v1.73Zm0,3.19V74.35h-1.57v1.76Zm0,3.24V77.54h-1.57v1.81Zm2.27,4.88-1.45.61a12.22,12.22,0,0,0-1.34-3.1l1.34-.61A14.28,14.28,0,0,1,205.37,84.23Zm10.31-1.83h-1.17v1.2a1.89,1.89,0,0,1-.39,1.33,2.15,2.15,0,0,1-1.55.41q-.45,0-1.14-.06l-.55-1.55c.3,0,.63,0,1,0a2.45,2.45,0,0,0,.93-.09.36.36,0,0,0,.14-.32v-1H207.7v2.92h-1.61V82.4H205V81.09h1.09V76.84h3.47v-1H205V74.53h2.44v-.9H206v-1.2h1.53v-.89h-2V70.28h2v-1h1.59v1h2.66v-1h1.58v1h2.2v1.26h-2.2v.89h1.5v1.2h-1.5v.9h2.37v1.32h-4.49v1h3.32v4.25h1.17ZM209.56,79v-.85H207.7V79Zm0,2.07v-.85H207.7v.85Zm2.17-8.7v-.85h-2.66v.85Zm0,2.14v-.9h-2.66v.9Zm1.2,4.49v-.85h-1.74V79Zm0,2.07v-.85h-1.74v.85Z"/><path class="cls-1" d="M228.29,78l-1.23,1.21a15.4,15.4,0,0,0-3.1-2.78l1.21-1.22A15.91,15.91,0,0,1,228.29,78Z"/><path class="cls-1" d="M252.86,83.46l-.46,1.6c-.66,0-1.36,0-2.09,0a45.52,45.52,0,0,1-5.3-.19,6.86,6.86,0,0,1-4.79-3,18,18,0,0,1-2.45,3.52l-1.31-1.07a11.86,11.86,0,0,0,3.41-7.15l1.68.21A16.83,16.83,0,0,1,241,80,5.86,5.86,0,0,0,244.1,83V76h-4.95V74.42h10.73V76h-4.1v2.4h5.69v1.54h-5.69V83.3c1.45.14,3,.2,4.66.2C251.25,83.5,252.06,83.49,252.86,83.46Zm-.7-8.34H250.5V72.34H238.64v2.78H236.9V70.8h6.78a11.58,11.58,0,0,0-.81-1.42l1.64-.39a8.46,8.46,0,0,1,1,1.81h6.62Z"/><path class="cls-1" d="M260.17,84H258.6v-.84h-1.55V84.4h-1.6V70.21h4.72Zm-1.57-7.87V71.71l-1.55,0v4.37Zm0,5.53v-4h-1.55v4ZM271,79.23h-1.78v4.34a1.77,1.77,0,0,1-.27,1.05,1.22,1.22,0,0,1-.68.51,6.36,6.36,0,0,1-1.62.13c-.42,0-.8,0-1.15,0L265,83.71c.85,0,1.59,0,2.22,0,.27,0,.41-.14.41-.44v-4h-6.76V77.75h6.76V76.57h1.58v1.18H271Zm-.18-6.78h-4.1v2h3.61V75.9h-8.79V74.44h3.55v-2h-4V71h4.05V69.15h1.59V71h4.12Zm-5.42,10-1.34.88a19.33,19.33,0,0,0-2.35-2.66l1.27-.94A13.92,13.92,0,0,1,265.43,82.44Z"/><path class="cls-1" d="M289.8,83.46l-.46,1.6c-.66,0-1.36,0-2.09,0a45.4,45.4,0,0,1-5.3-.19,6.86,6.86,0,0,1-4.79-3,18.39,18.39,0,0,1-2.45,3.52l-1.32-1.07a11.82,11.82,0,0,0,3.42-7.15l1.68.21a16.83,16.83,0,0,1-.6,2.64A5.86,5.86,0,0,0,281,83V76h-5V74.42h10.73V76h-4.1v2.4h5.69v1.54h-5.69V83.3c1.45.14,3,.2,4.66.2C288.19,83.5,289,83.49,289.8,83.46Zm-.71-8.34h-1.65V72.34H275.58v2.78h-1.74V70.8h6.78a11.58,11.58,0,0,0-.81-1.42l1.64-.39a8.46,8.46,0,0,1,1,1.81h6.61Z"/><path class="cls-1" d="M300.32,78.35l-.72,1.34a26.72,26.72,0,0,0-3.34-2,15.19,15.19,0,0,1-3.85,2.08l-.78-1.36A11.16,11.16,0,0,0,294.79,77l-1.41-.63c-.23.19-.41.32-.53.41l-1.11-1.06a10.75,10.75,0,0,0,3.1-3.56l1.36.42a2.57,2.57,0,0,1-.29.64h3.16v1.37a19.22,19.22,0,0,1-1.64,2.1C298.55,77.25,299.52,77.82,300.32,78.35Zm-.4-5.64h-1.59v-.88h-4.45v1h-1.61V70.4h3a5.13,5.13,0,0,0-.46-1l1.57-.35a5.55,5.55,0,0,1,.53,1.39h3Zm-.87,12.55h-1.6v-.57h-2.8v.55H293v-5.5h6Zm-1.72-10.7H295a6.87,6.87,0,0,1-.61.71c.79.32,1.34.55,1.66.7A8.67,8.67,0,0,0,297.33,74.56Zm.12,8.67V81.17h-2.8v2.06ZM308,71h-3.05a13.2,13.2,0,0,1-.42,1.54h2.86v9.29h-4.75l1,.94a12.38,12.38,0,0,1-3.27,2.61l-1.07-1.26a10.37,10.37,0,0,0,3.09-2.29h-1.67V72.54h2.15c.16-.53.3-1,.42-1.54h-2.87V69.51H308Zm-2.22,4.12V74h-3.44v1.16Zm0,2.61V76.48h-3.44v1.25Zm0,2.68V79.06h-3.44v1.35Zm2.39,3.69-1,1.26a12.1,12.1,0,0,0-2.91-2l.95-1.22A12,12,0,0,1,308.16,84.1Z"/><path class="cls-1" d="M326.58,79.71l-.95,1.34a45.33,45.33,0,0,0-6.43-4.45v8.66h-1.73V76a28.66,28.66,0,0,1-6.34,5l-1-1.39q6.25-3.62,8.62-8.43h-8.3V69.57H326.2v1.62h-5.5a23.1,23.1,0,0,1-1.5,2.63v.9A44.07,44.07,0,0,1,326.58,79.71Z"/><path class="cls-1" d="M335.2,85.3h-1.64V80.74a23.44,23.44,0,0,1-4.07,1.94L329,81.2a.9.9,0,0,0,.32-.66V70.4h1.58v9.91a18.86,18.86,0,0,0,2.65-1.38V69.18h1.64Zm10-1.33-.91,1.43a13.89,13.89,0,0,1-4-2.68,13.3,13.3,0,0,1-3.77,2.66L335.53,84a10.61,10.61,0,0,0,3.64-2.51,12.12,12.12,0,0,1-1.75-4l1.45-.7a10.42,10.42,0,0,0,1.33,3.38,15.12,15.12,0,0,0,1.73-6.8h-3a20.45,20.45,0,0,1-2.16,4.73l-1.15-1.33a23.15,23.15,0,0,0,2.63-7.68l1.66.2a17.82,17.82,0,0,1-.56,2.47H345v1.61H343.6q-.44,5.53-2.29,8.07A11.74,11.74,0,0,0,345.19,84Z"/><path class="cls-1" d="M363.17,74a4.89,4.89,0,0,1-.41,2.5,1.47,1.47,0,0,1-.84.46l-.74.1V83.2h-8L354,84a20.67,20.67,0,0,1-6.08,1.39l-.7-1.3a24.07,24.07,0,0,0,5-.88h-2.61V77.8a17,17,0,0,1-1.76.34l-.65-1.46a7.09,7.09,0,0,0,4.33-1.57h-3.56l.59-3.09h4v-.88h-4.8V70.05h4.8v-.9h1.59v.9h2.61v-.9h1.58v.9h4.27v3.08h-4.27V74Zm-10.78-.87H349.9l-.13.87h2.4A6.94,6.94,0,0,0,352.39,73.13Zm7.15,5.2v-.75h-8.35v.75Zm0,1.87v-.81h-8.35v.81Zm0,1.85v-.79h-8.35v.79Zm2-6.94h-3.25V76H356.7v-.9h-3.35a6.23,6.23,0,0,1-1.2,1.34h8.27l-.27-.71a2.88,2.88,0,0,0,1.17-.08A.61.61,0,0,0,361.53,75.11ZM356.7,74v-.87H354a4.42,4.42,0,0,1-.19.87Zm0-2v-.86h-2.61V72Zm6.81,12.21-.7,1.24a30.45,30.45,0,0,0-5.62-.85l.63-1.24A29.93,29.93,0,0,1,363.51,84.23ZM361,72v-.86h-2.67V72Z"/><path class="cls-1" d="M152.6,98.82h-2.79v1.88h2.31V113h-1.49v-.84h-4.57V113H144.6V100.7h2.26V98.82h-2.7V97.33h8.44Zm-2,11.8v-4.11h-.87a1.07,1.07,0,0,1-.81-.32,1.13,1.13,0,0,1-.3-.81v-3.16H148a8.65,8.65,0,0,1-1.16,5l-.8-.84v4.19Zm-3.81-8.4h-.76V106A6.63,6.63,0,0,0,146.82,102.22Zm3.31,6.94h-3.56v-1.38h3.56Zm-1.48-8.46V98.82H148v1.88Zm2,4.35v-2.83h-.82v2.39a.39.39,0,0,0,.45.44Zm9.6,3.8a8.58,8.58,0,0,1-.31,2.9,1.56,1.56,0,0,1-.83.92,10.28,10.28,0,0,1-2.67.2,7.65,7.65,0,0,1-2.1-.17,1.3,1.3,0,0,1-.66-.53,1.79,1.79,0,0,1-.23-.94V103H158V98.9h-4.72V97.33h6.31v7.18H155v6.25c0,.25.06.41.2.46a3.82,3.82,0,0,0,1.21.1,5,5,0,0,0,1.68-.16,1,1,0,0,0,.37-.7,19.46,19.46,0,0,0,.14-2.18Z"/><path class="cls-1" d="M166.25,108.28a21.59,21.59,0,0,1-2.38,4.14l-1.37-.89a19.85,19.85,0,0,0,2.31-3.92Zm10.53-1.11H164.57v-9H168a8.54,8.54,0,0,0,.86-1.57l1.8.34a6.46,6.46,0,0,1-.67,1.23h6.75Zm-1.59-6.42V99.62h-9v1.13Zm0,2.5v-1.16h-9v1.16Zm0,2.5v-1.16h-9v1.16Zm.23,4.52a2.32,2.32,0,0,1-2.57,2.55H168.9a2,2,0,0,1-1.39-.46A1.74,1.74,0,0,1,167,111v-3.16h1.62v2.93a.45.45,0,0,0,.25.45,3.11,3.11,0,0,0,1.11.12l2.76,0a1.17,1.17,0,0,0,.66-.21c.21-.14.35-.64.42-1.49Zm-2.34-.64-1.41.86a16.8,16.8,0,0,0-1.87-2.27l1.34-.85A12.16,12.16,0,0,1,173.08,109.63Zm5.86,2-1.44.8a18,18,0,0,0-2.55-3.88l1.42-.81A19.5,19.5,0,0,1,178.94,111.62Z"/><path class="cls-1" d="M195.67,113H194v-.93h-9.7V113H182.6V98.86h4.45a8.71,8.71,0,0,0,.92-2.09l1.8.3a7.13,7.13,0,0,1-.81,1.79h6.71ZM194,102.62v-2.15h-9.7v2.15Zm0,3.83v-2.27h-9.7v2.27Zm0,4V108h-9.7v2.46Z"/><path class="cls-1" d="M208.52,101.13h-3.58v1.05h3.19v5.43h-3.19v1h3.19v1.29h-3.19v1.17a32.31,32.31,0,0,0,3.28-.47l.07,1.32q-4,.66-8.46,1.1l-.33-1.33,4-.41v-1.38h-3.22v-1.29h3.22v-1h-3.22v-5.43h3.22v-1.05h-3.7V99.78h3.7v-1c-.79.1-1.76.18-2.89.24l-.4-1.29a45.59,45.59,0,0,0,7.51-.88l.63,1.19c-.88.2-2,.39-3.37.57v1.22h3.58Zm-5.06,3.18v-1h-1.73v1Zm0,2.08v-.94h-1.73v.94Zm3.17-2.06v-1h-1.69v1Zm0,2.06v-.94h-1.69v.94Zm8.71-6.08c0,2.58-.07,5-.17,7.44a33,33,0,0,1-.31,4.13,1.46,1.46,0,0,1-.63.86,2.67,2.67,0,0,1-1.48.31c-.32,0-.65,0-1,0l-.46-1.57c.47,0,.84.06,1.12.06.54,0,.85-.07.94-.21a18.87,18.87,0,0,0,.32-3.3c.13-2.06.17-4.11.13-6.13h-1.59a23.88,23.88,0,0,1-2.46,11.23l-1.43-.7a20,20,0,0,0,2.29-10.53H209v-1.54h1.64c0-1.51,0-2.64,0-3.37h1.61c0,1.16,0,2.28-.06,3.37Z"/><path class="cls-1" d="M222,104l-1.13,1.2a18.15,18.15,0,0,0-3-2.52l1.14-1.19A16.72,16.72,0,0,1,222,104Zm-.53,3a40.08,40.08,0,0,1-2.06,6.19l-1.43-1A34.73,34.73,0,0,0,220,106Zm.61-7.72-1.21,1.1a17.65,17.65,0,0,0-2.52-2.52l1.24-1.09A15.44,15.44,0,0,1,222,99.28Zm11.94.2h-3.83v.72c0,.24.11.36.32.36h3.33v1.35h-3.95a1.28,1.28,0,0,1-.87-.33,1.25,1.25,0,0,1-.36-1V99.48h-2.83l.89.58a12,12,0,0,1-3.22,2.56h9.11v4.21h-5a12.55,12.55,0,0,1-2.18,1.94v2.46a27.07,27.07,0,0,0,3.15-.94l.16,1.55a44.15,44.15,0,0,1-5,1.33l-.48-1.37a1,1,0,0,0,.48-.81v-1.18c-.86.41-1.38.65-1.57.72l-1-1.39a11.75,11.75,0,0,0,4.05-2.31h-1.9v-4.11l-1.06.48-1-1.25a11.3,11.3,0,0,0,3.84-2.47h-2.81V98.05h4.51a8.84,8.84,0,0,0-.44-1l1.71-.31a8.38,8.38,0,0,1,.52,1.35H234Zm-3,5.88v-1.3h-6v1.3Zm3.33,6.41-.95,1.42a10,10,0,0,1-5.51-5.54l1.49-.61a8,8,0,0,0,1,1.79,13.77,13.77,0,0,0,2-1.56l1.2,1.06a15.6,15.6,0,0,1-2.16,1.67A8.85,8.85,0,0,0,234.28,111.77Z"/><path class="cls-1" d="M252.67,111.82l-1.29,1.23A20.43,20.43,0,0,1,244.65,103a17.6,17.6,0,0,1-7.14,9.92l-1.2-1.29a17,17,0,0,0,6.77-8.8,14.74,14.74,0,0,0,.91-3.54l-.05-.36H241.7V97.27h3.79a19.4,19.4,0,0,0,2.1,8.64A20.36,20.36,0,0,0,252.67,111.82Z"/><path class="cls-1" d="M271.05,108.59H269.3v2.88a1.62,1.62,0,0,1-.27.94,1.31,1.31,0,0,1-.7.53,6.25,6.25,0,0,1-1.7.14,10.45,10.45,0,0,1-1.4-.08l-.61-1.6c.66,0,1.23.06,1.72.06a3.27,3.27,0,0,0,1.1-.11.4.4,0,0,0,.21-.38v-2.38h-9.34V113h-1.64v-4.41H255v-1.51h1.69v-6.45h5.48V98.84h-7.23V97.35H271v1.49h-7.17v1.79h5.47v6.45h1.75Zm-8.9-4.78v-1.7h-3.84v1.7Zm0,3.27v-1.76h-3.84v1.76Zm5.5-3.27v-1.7h-3.82v1.7Zm0,3.27v-1.76h-3.82v1.76Z"/><path class="cls-1" d="M279.49,101.37h-2v3.12c.43-.14,1-.36,1.69-.66l.19,1.64c-.68.29-1.3.54-1.88.74v5.08a1.7,1.7,0,0,1-.28,1,1.38,1.38,0,0,1-.67.5,4.56,4.56,0,0,1-1.23.12l-1.15,0-.55-1.58,2,0c.21,0,.31-.1.31-.3v-4.18c-.93.29-1.63.5-2.11.62l-.46-1.57c1.09-.28,1.95-.54,2.57-.76v-3.73h-2.44V99.8h2.44v-3h1.59v3h2Zm10.25,10.18L289,113a14.88,14.88,0,0,1-4.55-2.07,16.71,16.71,0,0,1-4.93,2.08l-1-1.45a12.49,12.49,0,0,0,4.52-1.68,8.82,8.82,0,0,1-2.38-3.81H280v-1.53h8.37v1.39a12,12,0,0,1-2.7,3.91A15.19,15.19,0,0,0,289.74,111.55Zm-.22-8.07h-2.24c-1,0-1.48-.52-1.48-1.57V98.62h-2.87q.1,3.69-2.54,5.09l-1.18-1.18a3.94,3.94,0,0,0,1.62-1.4A4.1,4.1,0,0,0,281.3,99V97.1h6.12v4.57a.21.21,0,0,0,.23.24h1.87Zm-3,2.54h-4.13a5.79,5.79,0,0,0,2,2.83A10.69,10.69,0,0,0,286.52,106Z"/><path class="cls-1" d="M308.13,102.5l-.77,1.47a11.31,11.31,0,0,1-1.61-.46v6.95H298l.79.92a23.54,23.54,0,0,1-6.15,1.77l-.79-1.47a22.1,22.1,0,0,0,5-1.22h-2.71v-7h3.49l-.71-1a8.51,8.51,0,0,0,4.83-2.88l1.68.37a2.75,2.75,0,0,1-.41.62A15,15,0,0,0,308.13,102.5Zm-10.8-.52H292v-1.51h5.38ZM297.17,99h-5V97.56h5Zm6.92,6.39v-.64h-8.23v.64Zm0,1.89v-.69h-8.23v.69Zm0,1.92v-.72h-8.23v.72Zm3.72-10a20.09,20.09,0,0,1-1.62,2.06l-1.39-.83,1-1.23H300a13.72,13.72,0,0,1-1.62,1.62l-1.26-1.07a10.87,10.87,0,0,0,2.75-3.14l1.52.51a1.67,1.67,0,0,1-.35.65h6.8Zm-2.24,4.23A14.59,14.59,0,0,1,302,101.7a9.81,9.81,0,0,1-3,1.78ZM308,111.8l-.88,1.43a28,28,0,0,0-5.41-1.13l.85-1.39A23.63,23.63,0,0,1,308,111.8Z"/><polygon class="cls-1" points="139.11 14.54 128 28.95 119.43 23.56 122.92 19.79 127.71 24.93 138.2 13.29 139.11 14.54"/><polygon class="cls-1" points="139.11 42.38 128 56.79 119.43 51.4 122.92 47.63 127.71 52.77 138.2 41.13 139.11 42.38"/><polygon class="cls-1" points="139.11 70.22 128 84.63 119.43 79.24 122.92 75.47 127.71 80.61 138.2 68.97 139.11 70.22"/><polygon class="cls-1" points="139.11 98.06 128 112.47 119.43 107.08 122.92 103.31 127.71 108.45 138.2 96.81 139.11 98.06"/></g></g></svg>