<svg xmlns="http://www.w3.org/2000/svg" viewBox="0 0 281.91 350"><defs><style>.cls-1,.cls-4{fill:#fff;}.cls-2{fill:#2a3646;}.cls-3{opacity:0.1;}.cls-4{font-size:20px;font-family:MicrosoftJhengHeiRegular, Microsoft JhengHei;}.cls-5{letter-spacing:-0.05em;}</style></defs><title>flow3</title><g id="圖層_2" data-name="圖層 2"><g id="text"><polygon class="cls-1" points="269.92 175 230 214.92 230 226.91 281.91 175 230 123.09 230 135.08 269.92 175"/><path class="cls-2" d="M230,214.92,269.92,175,230,135.08V17A17,17,0,0,0,213,0H17A17,17,0,0,0,0,17V333a17,17,0,0,0,17,17H213a17,17,0,0,0,17-17V214.92Z"/><g class="cls-3"><path class="cls-1" d="M152,275.42a62.86,62.86,0,0,1-2,17,37.67,37.67,0,0,1-5.47,12,22.82,22.82,0,0,1-8,7.1,20.21,20.21,0,0,1-9.42,2.34,15.31,15.31,0,0,1-6.83-1.55,15,15,0,0,1-5.43-4.67,23.69,23.69,0,0,1-3.57-7.77A41.07,41.07,0,0,1,110,289,62.76,62.76,0,0,1,112,272a38.1,38.1,0,0,1,5.47-12,23,23,0,0,1,7.93-7.13,19.94,19.94,0,0,1,9.44-2.37,14.68,14.68,0,0,1,12.24,6.22,23.48,23.48,0,0,1,3.59,7.8A41.2,41.2,0,0,1,152,275.42Zm-4.2-.22a38.89,38.89,0,0,0-1-9.52,20.45,20.45,0,0,0-2.85-6.62,12,12,0,0,0-4.25-3.87,11.08,11.08,0,0,0-5.23-1.27,15.51,15.51,0,0,0-7.56,2,18.74,18.74,0,0,0-6.48,6.31,36.39,36.39,0,0,0-4.53,10.95,64.77,64.77,0,0,0-1.71,15.94,38.78,38.78,0,0,0,1,9.55,20.2,20.2,0,0,0,2.85,6.63,11.8,11.8,0,0,0,4.24,3.86,11.36,11.36,0,0,0,5.24,1.24,15.45,15.45,0,0,0,7.55-2,18.84,18.84,0,0,0,6.49-6.28,36.15,36.15,0,0,0,4.53-10.93A65,65,0,0,0,147.8,275.2Z"/><path class="cls-1" d="M166.5,267.23a25.64,25.64,0,0,1,2.89-7.05,20.66,20.66,0,0,1,4.46-5.26,19.18,19.18,0,0,1,5.74-3.28,19.42,19.42,0,0,1,6.66-1.14,17.44,17.44,0,0,1,5.63.88,12.9,12.9,0,0,1,4.53,2.58,12,12,0,0,1,3,4.25,14.7,14.7,0,0,1,1.1,5.87,18.35,18.35,0,0,1-1,6.33,15.84,15.84,0,0,1-7.05,8.38,20.19,20.19,0,0,1-5.24,2.11,16.36,16.36,0,0,1,4.84,1.75,12,12,0,0,1,3.46,2.89,11.86,11.86,0,0,1,2.08,3.87,15.19,15.19,0,0,1,.7,4.71,18.56,18.56,0,0,1-1.66,7.86,20,20,0,0,1-4.49,6.27,20.83,20.83,0,0,1-6.57,4.14,21.39,21.39,0,0,1-7.95,1.48,19.08,19.08,0,0,1-8-1.42,13.15,13.15,0,0,1-4.9-3.7,14.62,14.62,0,0,1-2.65-5.1,38.38,38.38,0,0,1-1.23-5.63l1.67-.66a2.56,2.56,0,0,1,1.46-.17,1.18,1.18,0,0,1,.94,1,14.56,14.56,0,0,1,.4,1.62,18.57,18.57,0,0,0,.68,2.45,15,15,0,0,0,1.29,2.8,10,10,0,0,0,2.23,2.63,11.63,11.63,0,0,0,3.44,1.95,14.23,14.23,0,0,0,5,.76,15.55,15.55,0,0,0,6.88-1.46,16.46,16.46,0,0,0,8.32-9.05,16.06,16.06,0,0,0,1.09-5.73,12.5,12.5,0,0,0-.78-4.47,8.91,8.91,0,0,0-2.57-3.59,12.6,12.6,0,0,0-4.62-2.41,23.53,23.53,0,0,0-6.92-.88l.35-2.93a22.88,22.88,0,0,0,7.1-1.18,15.11,15.11,0,0,0,5.25-3.07,13.15,13.15,0,0,0,3.29-4.71,15.82,15.82,0,0,0,1.14-6.15,12.36,12.36,0,0,0-.86-4.8,9.34,9.34,0,0,0-2.32-3.37,9.51,9.51,0,0,0-3.44-2,13.11,13.11,0,0,0-4.2-.66,14.08,14.08,0,0,0-5,.9,15.58,15.58,0,0,0-4.31,2.49,16.21,16.21,0,0,0-3.37,3.84,18.93,18.93,0,0,0-2.21,4.9,2.78,2.78,0,0,1-.88,1.23,2.14,2.14,0,0,1-1.36.22Z"/></g><path class="cls-1" d="M136,74.49V97.56a1.46,1.46,0,1,0,2.91,0V76.11h10.71V89.67a1.47,1.47,0,1,0,2.92,0V74.49A1.54,1.54,0,0,0,151,72.88H137.41A1.54,1.54,0,0,0,136,74.49Z"/><path class="cls-1" d="M77.09,103.8c3.65,0,6.62-3.29,6.62-7.34a8,8,0,0,0-.89-3.66l12.9-13.18a6.18,6.18,0,0,0,3.75,1.3,6.59,6.59,0,0,0,5.87-4l9.9,2.89c0,.08,0,.17,0,.25,0,4.05,3,7.34,6.62,7.34s6.62-3.29,6.62-7.34a7.87,7.87,0,0,0-.89-3.64l12.88-13.1a6.18,6.18,0,0,0,3.77,1.31c3.65,0,6.62-3.29,6.62-7.34s-3-7.33-6.62-7.33-6.62,3.29-6.62,7.33a7.9,7.9,0,0,0,.88,3.65l-12.88,13.1a6.15,6.15,0,0,0-3.76-1.31,6.57,6.57,0,0,0-5.87,4l-9.9-2.89c0-.09,0-.17,0-.26,0-4-3-7.33-6.62-7.33s-6.62,3.29-6.62,7.33a7.89,7.89,0,0,0,.89,3.66L80.84,90.43a6.11,6.11,0,0,0-3.75-1.3c-3.65,0-6.62,3.29-6.62,7.33S73.44,103.8,77.09,103.8Zm67.14-50.57a4.13,4.13,0,1,1-3.71,4.1A3.93,3.93,0,0,1,144.23,53.23ZM121.85,76a4.13,4.13,0,1,1-3.71,4.1A3.93,3.93,0,0,1,121.85,76ZM99.47,69.48a4.13,4.13,0,1,1-3.71,4.1A3.93,3.93,0,0,1,99.47,69.48ZM77.09,92.36a4.13,4.13,0,1,1-3.71,4.1A3.93,3.93,0,0,1,77.09,92.36Z"/><path class="cls-1" d="M162.63,122.09a13.38,13.38,0,0,0-5.31-4.32,49.47,49.47,0,0,0-6.75-2.29c-1.79-.5-3.19-.94-4.16-1.31a4.76,4.76,0,0,1-1.72-1.06.84.84,0,0,1-.23-.71,1.84,1.84,0,0,1,.75-1.63,5,5,0,0,1,3.2-.89,8.39,8.39,0,0,1,3.37.58,20.39,20.39,0,0,1,2.75,1.55,2.36,2.36,0,0,0,3.34-.79l3.75-6a3,3,0,0,0,.39-2.12,2.7,2.7,0,0,0-1.07-1.75,21.64,21.64,0,0,0-7.15-3.41V95.77A2.64,2.64,0,0,0,151.3,93h-6.43a2.64,2.64,0,0,0-2.49,2.76v2.32a16.07,16.07,0,0,0-7.4,4.68A14.88,14.88,0,0,0,131.17,113a13.43,13.43,0,0,0,2.44,8.32,13.66,13.66,0,0,0,5.42,4.37,53.75,53.75,0,0,0,6.83,2.36c1.8.55,3.18,1,4.08,1.33a4.8,4.8,0,0,1,1.63,1,.42.42,0,0,1,.14.38,1.67,1.67,0,0,1-.68,1.55,5.66,5.66,0,0,1-3.54.85,12.38,12.38,0,0,1-4-.63,17.14,17.14,0,0,1-3.4-1.6,2.34,2.34,0,0,0-3.26.86l-3.71,6.09a3,3,0,0,0-.37,2.12,2.69,2.69,0,0,0,1.08,1.74,21.38,21.38,0,0,0,3.35,1.9h-7.11V97.27a1.55,1.55,0,0,0-1.46-1.62H115a1.55,1.55,0,0,0-1.46,1.62v46.34h-5.84V90.18a1.54,1.54,0,0,0-1.46-1.61H92.66a1.54,1.54,0,0,0-1.46,1.61v53.43H85.36v-30.5a1.55,1.55,0,0,0-1.46-1.62H70.28a1.55,1.55,0,0,0-1.46,1.62v30.5H66.46a1.62,1.62,0,0,0,0,3.22h76.08v.41A2.64,2.64,0,0,0,145,150h6.43a2.64,2.64,0,0,0,2.49-2.76v-2.31a15.8,15.8,0,0,0,7.34-4.53A14.58,14.58,0,0,0,165,130.31,13.46,13.46,0,0,0,162.63,122.09ZM116.49,98.88H127.2v44.73H116.49ZM94.11,91.79h10.71v51.82H94.11ZM71.73,114.72H82.45v28.89H71.73Zm87.5,23.4a13.23,13.23,0,0,1-6.67,3.87l-1.53.4v4.38h-5.58v-4.25l-1.68-.27a21.13,21.13,0,0,1-4.36-1.18,18.79,18.79,0,0,1-3.58-1.82l3.25-5.33a18.93,18.93,0,0,0,3.62,1.67,15,15,0,0,0,4.79.77,8.33,8.33,0,0,0,5.22-1.44,5,5,0,0,0,1.91-4.19,3.76,3.76,0,0,0-1.15-2.82,7.59,7.59,0,0,0-2.61-1.59c-1-.35-2.38-.82-4.26-1.39a51.46,51.46,0,0,1-6.49-2.24,10.83,10.83,0,0,1-4.28-3.44,10.19,10.19,0,0,1-1.75-6.25,11.58,11.58,0,0,1,3-8,13.43,13.43,0,0,1,6.73-4l1.51-.4V96.24h5.58v4.28l1.59.35a18.76,18.76,0,0,1,6.52,2.87L155.69,109a21.44,21.44,0,0,0-2.83-1.57,11,11,0,0,0-4.45-.81,7.58,7.58,0,0,0-4.93,1.53,5.2,5.2,0,0,0-1.93,4.22,4.25,4.25,0,0,0,1.16,3.08,7.57,7.57,0,0,0,2.75,1.74c1,.4,2.53.87,4.41,1.39a45.93,45.93,0,0,1,6.38,2.16,10.39,10.39,0,0,1,4.13,3.38,10.12,10.12,0,0,1,1.71,6.16A11.28,11.28,0,0,1,159.23,138.12Z"/><text class="cls-4" transform="translate(54.93 186.64)">系統運算提供<tspan class="cls-5"><tspan x="-26" y="30">個人化專屬投資組合</tspan></tspan></text></g></g></svg>