<svg xmlns="http://www.w3.org/2000/svg" viewBox="0 0 660 241.98"><defs><style>.cls-1{fill:#fff;}.cls-2{fill:#2a3646;}.cls-3{opacity:0.1;}</style></defs><title>flow3-min</title><g id="圖層_2" data-name="圖層 2"><g id="架構"><polygon class="cls-1" points="123.74 227.84 75.91 180 61.76 180 123.74 241.98 185.72 180 171.57 180 123.74 227.84"/><path class="cls-2" d="M631.72,0H28.28A28.28,28.28,0,0,0,0,28.28V151.72A28.28,28.28,0,0,0,28.28,180H75.91l47.83,47.83L171.58,180H631.72A28.28,28.28,0,0,0,660,151.72V28.28A28.28,28.28,0,0,0,631.72,0Z"/><g class="cls-3"><path class="cls-1" d="M546.58,82.22a101.3,101.3,0,0,1-3.28,27.31,60.52,60.52,0,0,1-8.8,19.26,36.76,36.76,0,0,1-12.77,11.4A32.46,32.46,0,0,1,506.59,144a24.58,24.58,0,0,1-11-2.5,23.93,23.93,0,0,1-8.73-7.5,38.42,38.42,0,0,1-5.74-12.49,66.1,66.1,0,0,1-2.07-17.5,101,101,0,0,1,3.27-27.24,61.11,61.11,0,0,1,8.8-19.29A37.09,37.09,0,0,1,503.88,46a32,32,0,0,1,15.17-3.8,23.62,23.62,0,0,1,19.68,10,38,38,0,0,1,5.77,12.53A66.47,66.47,0,0,1,546.58,82.22Zm-6.76-.35a62.24,62.24,0,0,0-1.66-15.31,32.73,32.73,0,0,0-4.57-10.63,19.31,19.31,0,0,0-6.83-6.23,17.92,17.92,0,0,0-8.41-2,25,25,0,0,0-12.15,3.23A30,30,0,0,0,495.79,61a58.32,58.32,0,0,0-7.29,17.6,104.23,104.23,0,0,0-2.75,25.62,62.22,62.22,0,0,0,1.66,15.35A32.87,32.87,0,0,0,492,130.27a19,19,0,0,0,6.83,6.19,18.14,18.14,0,0,0,8.41,2,24.86,24.86,0,0,0,12.15-3.24,30.23,30.23,0,0,0,10.42-10.1,58.05,58.05,0,0,0,7.28-17.57A104.49,104.49,0,0,0,539.82,81.87Z"/><path class="cls-1" d="M569.87,69.06a41.67,41.67,0,0,1,4.65-11.34,33.26,33.26,0,0,1,7.18-8.44A30.57,30.57,0,0,1,590.92,44a31.29,31.29,0,0,1,10.7-1.83,28.47,28.47,0,0,1,9,1.4A20.86,20.86,0,0,1,618,47.73a18.89,18.89,0,0,1,4.86,6.83A23.68,23.68,0,0,1,624.57,64a29.24,29.24,0,0,1-1.65,10.17,25.35,25.35,0,0,1-11.34,13.48A32.56,32.56,0,0,1,603.17,91,26.38,26.38,0,0,1,611,93.84a18.79,18.79,0,0,1,8.9,10.87,24.56,24.56,0,0,1,1.13,7.57,29.86,29.86,0,0,1-2.67,12.63A32,32,0,0,1,611.09,135a33.15,33.15,0,0,1-10.56,6.65,34.16,34.16,0,0,1-12.78,2.4q-7.82,0-12.77-2.29a21.21,21.21,0,0,1-7.89-6,23.7,23.7,0,0,1-4.26-8.2,64.3,64.3,0,0,1-2-9l2.68-1.05a4.14,4.14,0,0,1,2.36-.28,1.92,1.92,0,0,1,1.51,1.62,22.14,22.14,0,0,1,.63,2.6,33.4,33.4,0,0,0,1.09,3.94,26,26,0,0,0,2.08,4.51,16,16,0,0,0,3.59,4.22,18.5,18.5,0,0,0,5.53,3.13,22.54,22.54,0,0,0,8,1.24,25,25,0,0,0,11-2.36,26.4,26.4,0,0,0,13.37-14.54,25.75,25.75,0,0,0,1.76-9.22,20,20,0,0,0-1.26-7.18,14.35,14.35,0,0,0-4.12-5.77,20.14,20.14,0,0,0-7.43-3.87,38.14,38.14,0,0,0-11.12-1.41l.56-4.72a36.76,36.76,0,0,0,11.41-1.9A24.15,24.15,0,0,0,611,82.57,21.12,21.12,0,0,0,616.26,75a25.47,25.47,0,0,0,1.83-9.88,19.74,19.74,0,0,0-1.37-7.71A15,15,0,0,0,613,52a15.19,15.19,0,0,0-5.53-3.21,21.3,21.3,0,0,0-6.75-1.05,22.68,22.68,0,0,0-8.1,1.44,24.6,24.6,0,0,0-6.93,4,25.94,25.94,0,0,0-5.42,6.16,30.86,30.86,0,0,0-3.56,7.89,4.26,4.26,0,0,1-1.41,2,3.41,3.41,0,0,1-2.18.35Z"/></g><path class="cls-1" d="M216.51,69.52a36.42,36.42,0,0,1-11.39,6.25L203.79,74q7.77-2.86,11-5.84Zm21.13-3.09-1.8,1.21a32.06,32.06,0,0,0-2.36-3.12q-7.77.81-10.76,1.07V75.73a2.05,2.05,0,0,1-.59,1.48,2.56,2.56,0,0,1-1.31.76,14.27,14.27,0,0,1-2.67.16c-.73,0-1.41,0-2-.06L215.24,76c.74,0,1.51.06,2.32.06a17.09,17.09,0,0,0,2.52-.1c.31-.06.47-.37.47-.91v-9.2q-8.79.54-13.24.7l-.63-1.76a111.34,111.34,0,0,0,14.4-6.42q-6.93.41-12.37.54l-.52-1.46a42.93,42.93,0,0,0,14.49-8.28l2,1.15a46.1,46.1,0,0,1-10,6.44l3.74-.16c1.19-.06,2.36-.14,3.51-.23a17.68,17.68,0,0,0,3.65-.48c1.72-1.09,3.38-2.25,5-3.5l1.85,1.29Q226,58.58,213.15,64.32q9.69-.34,18.73-1.52a32.78,32.78,0,0,0-3-2.91l1.8-1.21A44.81,44.81,0,0,1,237.64,66.43Zm-12.21-22.3q-5.58,5.06-16.79,8L207,50.28q11.16-2.43,16.61-7.33Zm13.21,30-1.37,1.72a45.92,45.92,0,0,0-10.08-6.25l1.37-1.68A51,51,0,0,1,238.64,74.13Z"/><path class="cls-1" d="M248.19,68.64A40,40,0,0,1,245.76,78l-1.89-.68a37.65,37.65,0,0,0,2.36-9.2Zm9.64-2.48L256,66.8a16.88,16.88,0,0,0-.65-2.32,105.72,105.72,0,0,1-10.56,2.75l-.59-1.83a62.31,62.31,0,0,0,7.87-9.89c-2.11.44-4.46.84-7.07,1.18l-.52-1.9A42.11,42.11,0,0,0,251.08,43l1.87.69a40.93,40.93,0,0,1-5.84,10.72,50.34,50.34,0,0,0,6.29-1.15,23.53,23.53,0,0,0,1.6-3l1.84.8a61.46,61.46,0,0,1-9.16,13.48,51.36,51.36,0,0,0,7-2c-.27-.78-.61-1.61-1-2.48l1.8-.76A35.9,35.9,0,0,1,257.83,66.16Zm-4.72,10.19-2,.41a30,30,0,0,0-1.29-8.16l2-.31A50.31,50.31,0,0,1,253.11,76.35Zm4.57-3.16-1.88.6a36.76,36.76,0,0,0-1.6-5.68l1.84-.55A35.67,35.67,0,0,1,257.68,73.19ZM278.6,49.67H266.35a50.22,50.22,0,0,1-5.35,9,108.88,108.88,0,0,0,12.52-1.33,33,33,0,0,0-3-3.71l1.76-1.12a52.82,52.82,0,0,1,5.88,8.36l-1.68,1.23a21.52,21.52,0,0,0-1.84-3l-3.71.58V74.63c0,.59.31.88.92.88h2.83a1.23,1.23,0,0,0,.92-.35,5.57,5.57,0,0,0,.59-2.44,46,46,0,0,0,.29-4.73l2,.73a26.68,26.68,0,0,1-.61,6.16A3.38,3.38,0,0,1,276.42,77a8,8,0,0,1-3.33.5,6.61,6.61,0,0,1-3.26-.56,2.37,2.37,0,0,1-.88-2.15V60c-2.22.26-3.59.39-4.12.39q0,12-7.44,17.79L256,76.72a17.83,17.83,0,0,0,5-6.29,23.83,23.83,0,0,0,1.79-9.88c-.67.11-2.13.19-4.4.26L258,59a33.53,33.53,0,0,0,6.21-9.32h-6.77v-2h7.69c.46-1,1.08-2.61,1.88-4.73l2,.61c-.68,1.85-1.24,3.22-1.68,4.12H278.6Z"/><path class="cls-1" d="M319.2,75.44l-.64,1.91H303.48q-9.28,0-13.65-4.43a29,29,0,0,1-4.51,5.44L283.67,77a22.26,22.26,0,0,0,7.49-13.21h-6.61v-1.6q3.27-4.21,6.12-8.63h-6.84V51.69h9.32v1.87q-2.76,4.21-5.88,8.24h6v2a32.79,32.79,0,0,1-2.52,7.33,11.29,11.29,0,0,0,4.81,3.23A25.46,25.46,0,0,0,304,75.44ZM292,48.68l-1.41,1.48a54.36,54.36,0,0,0-5.43-5.68L286.39,43A41.2,41.2,0,0,1,292,48.68ZM318.28,70.2H307.35v3.63h-2V70.2H294.59V68.4h10.76v-3H296.6V54.56h8.75V51.39H298.6V49.75h6.75V47.31h2v2.44h6.85v1.64h-6.85v3.17h8.73V65.4h-8.73v3h10.93Zm-.89-19.61h-2V46h-18v4.55h-2V44.13h22Zm-12,8.54V56.2h-6.71v2.93Zm0,4.59V60.81h-6.71v2.91Zm8.81-4.59V56.2h-6.81v2.93Zm0,4.59V60.81h-6.81v2.91Z"/><path class="cls-1" d="M340.92,47.72H329.79a33.48,33.48,0,0,1-4.47,4.51l-1.65-1.5a22.71,22.71,0,0,0,6.8-7.85l1.84.8a16,16,0,0,1-1.19,2.17h9.8Zm17.68,24H348.48V78h-2.05V71.72h-10q-1.23,4.91-9.16,6.39l-1-2c4.66-.67,7.32-2.14,8-4.44H323.67V69.89h10.81a15.14,15.14,0,0,0,.07-2.4h2.09q0,1.14-.09,2.4h9.88v-2.4h2.05v2.4H358.6Zm-4.09-5.37H328.07V52.56h26.44Zm-2.16-9.59v-2.4H330.16v2.4Zm0,3.87V58.29H330.16v2.34Zm0,4V62.19H330.16V64.6Zm-16-13.83-1.72.95a9.47,9.47,0,0,0-1.95-2.52l1.68-1A10.57,10.57,0,0,1,336.31,50.77Zm22.36-3H345.76q-1.83,2-3.53,3.59l-1.72-1.27a21.46,21.46,0,0,0,6-7.2l1.89.91A23.91,23.91,0,0,1,347.07,46h11.6ZM352.52,51l-1.72,1a28.93,28.93,0,0,0-1.85-2.6l1.76-.8A9.87,9.87,0,0,1,352.52,51Z"/><path class="cls-1" d="M375.8,52h-4.45v7.28A36.07,36.07,0,0,0,375,57l.43,2.09a43.9,43.9,0,0,1-4,2.59V75.59a2.27,2.27,0,0,1-.51,1.5,2.42,2.42,0,0,1-1.1.81,10.63,10.63,0,0,1-2.51.19q-1,0-1.8-.06l-.64-2.11c.34,0,1.53,0,3.57,0a.94.94,0,0,0,.66-.37,1.11,1.11,0,0,0,.34-.7v-12a32.24,32.24,0,0,1-4.92,2.71l-.77-1.87a57.88,57.88,0,0,0,5.69-3.25V52h-5.2V50h5.2V43.15h2V50h4.45Zm22.95,23.59-.68,2.13H392.8a30.24,30.24,0,0,1-8.27-.91q-3.11-.9-5.37-4.7a20.08,20.08,0,0,1-3.73,6.1L373.71,77a18.45,18.45,0,0,0,4.73-12l2,.19a30.44,30.44,0,0,1-.56,4.4q2.24,4.56,5.6,5.33V62.6H375.16V60.55h22.52V62.6H387.56v4.67h8.83v2h-8.83v6a26.62,26.62,0,0,0,4.79.35Zm-3.43-18.14H378V44.09h17.33Zm-2-7.89V46.08H380.08V49.6Zm0,5.87v-3.9H380.08v3.9Z"/><path class="cls-1" d="M414.12,43.72a40.16,40.16,0,0,1-1.95,4.45l-1.33,2.68V78h-2V54.36a70.43,70.43,0,0,1-4.24,5.8L403.48,58q4.71-5.33,8.71-14.92Zm9,24.08a43.5,43.5,0,0,1-8.75,10.56l-1.6-1.4a45.37,45.37,0,0,0,8.55-10.12Zm15.37-3.24H412.87v-2h6.8V53.29h-6.19v-2h6.19v-8h2.13v8h7.68v-8h2.2v8h5.84v2h-5.84v9.23h6.8Zm-9-2V53.29H421.8v9.23ZM438.6,77l-1.72,1.23a63,63,0,0,0-9.12-10.27l1.75-1.2A56.44,56.44,0,0,1,438.6,77Z"/><path class="cls-1" d="M212.07,103.52c-.15.82-.54,2.27-1.17,4.36L210,111v27.25h-2.05V116.12a38.62,38.62,0,0,1-3.12,5.57l-1.19-1.94q3.85-6.16,6.52-16.72Zm25.37,34.73h-2.09v-2.7H216.08v2.7H214V104.52h23.45Zm-2.12-4.65v-27H216.08v27Zm-1.76-18.93h-7v4.61h4.84v10.88H220V119.28h4.55v-4.61h-6.68v-2h6.64v-3.92h2v3.92h7Zm-4.24,13.4v-6.8H222v6.8Z"/><path class="cls-1" d="M278.83,136.57l-1.56,1.58a39.34,39.34,0,0,1-16-24.16q-2.53,14-15.91,24.08l-1.45-1.72a38.93,38.93,0,0,0,8.32-7.77,34.36,34.36,0,0,0,5.74-10.28q2-5.62,2.11-15.19h2.23a40.32,40.32,0,0,0,4.41,19.62A38.5,38.5,0,0,0,278.83,136.57Z"/><path class="cls-1" d="M295.43,103.64q-.78,2.16-2.36,5.64l-1.6,3.4v25.57h-2.15V116.43A45.53,45.53,0,0,1,285.2,122l-1.45-1.68q5.34-6.09,9.57-17.29Zm23.4,25.23a25.35,25.35,0,0,1-.59,5.61c-.4,1.72-1.18,2.7-2.34,3a68.71,68.71,0,0,1-9.51.37c-1.24,0-2.31,0-3.2,0a2.85,2.85,0,0,1-2.11-.86,3.14,3.14,0,0,1-.76-2.23v-31.6h2.2v13.58h15.55v2.11H302.52V134.6a1.14,1.14,0,0,0,.28.73.85.85,0,0,0,.64.35h2.66a69.82,69.82,0,0,0,9.25-.31c.8-.21,1.25-2.66,1.37-7.35Z"/><path class="cls-1" d="M358.71,130.92h-8.43v3.91c0,2.24-1.25,3.36-3.73,3.36-1,0-2.22,0-3.72-.08l-.95-2c.84,0,1.89.06,3.14.06a9.13,9.13,0,0,0,2.74-.22.83.83,0,0,0,.39-.8v-4.24H324v-1.87h24.2v-2h2.13v2h8.43Zm-.52-23.36H342.44v2.76h12.64V121.2H353a29.58,29.58,0,0,1,4.88,5.37l-1.68,1.15a15.81,15.81,0,0,0-1.91-2.4q-16.12,1.23-29,1.29l-.53-1.86q7.29.06,15.6-.31V121.2H327.64V110.32h12.71v-2.76H324.48v-1.83h15.87v-2.48h2.09v2.48h15.75Zm-17.84,7.23v-2.68H329.71v2.68Zm0,4.61v-2.83H329.71v2.83Zm-2.59,16.07-1.33,1.61a29.67,29.67,0,0,0-5.88-4l1.33-1.54A28.54,28.54,0,0,1,337.76,135.47ZM353,114.79v-2.68H342.44v2.68Zm0,4.61v-2.83H342.44v2.83Zm-.47,4.2c-.74-.74-1.24-1.21-1.48-1.41l1.31-1h-9.95v3.12Q348.74,124,352.56,123.6Z"/><path class="cls-1" d="M396.92,110h-28.6v15a33.44,33.44,0,0,1-2.56,13.22l-1.64-1.27a46.2,46.2,0,0,0,2.31-15V104.13h30.49Zm-2.05-1.68v-2.48H368.32v2.48Zm2.52,16.5q0,3.17-.24,6.73c-.15,2.37-.27,3.85-.33,4.43a2.23,2.23,0,0,1-.78,1.46,2.51,2.51,0,0,1-1.68.58h-2.29l-.68-1.79h2.85a.6.6,0,0,0,.55-.42,18,18,0,0,0,.4-3.42q.21-3,.24-6H383.52V128h8.08v4.61h-2.85a22,22,0,0,1,2.13,3.4l-1.44.88q-.19-.4-.69-1.29-8.82,1.13-17.44,1.72l-.6-1.5c2.24-.11,5.85-.41,10.84-.92v-2.29h-8.07v-4.49a27,27,0,0,1-3.89,1.86l-.88-1.49a20.67,20.67,0,0,0,8.17-5.6h-5.16v-5h25.39v5H379.24a12.72,12.72,0,0,1-1.52,1.87Zm-16.35-9q-3.93.72-10,1.42l-.53-1.5c3.27-.39,6.64-.88,10.12-1.45Zm-.12-3.77-.45,1.6a68.54,68.54,0,0,0-9.71-1.15l.55-1.64A80.77,80.77,0,0,1,380.92,112Zm-1.48,9.39v-2.07h-6v2.07Zm2.11,6.6v-1.64h-5.79c-1,.87-1.67,1.42-2,1.64Zm0,3.21v-1.8h-6.16v1.8Zm5.72-9.81v-2.07h-6.11v2.07Zm-2.07-4.74h-1.92V111.2h1.92Zm4.59,14.55v-1.8h-6.27v1.8Zm-1.6,1.4h-4.67v2l4.24-.46-.61-.92Zm10-20.08a94.2,94.2,0,0,1-10.28,1l-.64-1.56a77.54,77.54,0,0,0,10.25-1Zm.52,3.32-.48,1.53a83.39,83.39,0,0,0-10.59-1.53l.27-1.56A79.27,79.27,0,0,1,398.71,115.88Zm-3.43,5.55v-2.07h-6.2v2.07Z"/><path class="cls-1" d="M417.07,112.19h-5.19v8l3.83-1.56.48,2q-2.74,1.22-4.31,1.78v12.3a3.41,3.41,0,0,1-.85,2.67c-.57.47-1.8.71-3.7.71a15.93,15.93,0,0,1-1.9-.1l-.76-2.11c1.85.08,3.15.12,3.89.12a1.2,1.2,0,0,0,.88-.4,1.3,1.3,0,0,0,.39-.93V123.25q-2.19.94-5.55,2l-.64-2c2.39-.74,4.46-1.48,6.19-2.21v-8.85H404v-2h5.8v-6.91h2.05v6.91h5.19Zm22.05,24.12-1.25,2a37.49,37.49,0,0,1-10.15-5.14,40,40,0,0,1-12,5.17l-1.21-1.89q7.69-2,11.45-4.67a22.75,22.75,0,0,1-6.41-9.65h-1.31V120h17.48q-.5,6.75-6.25,11.83A39.62,39.62,0,0,0,439.12,136.31Zm-.68-18.71h-4q-3.13,0-3.13-3v-8.44h-7.95q-.23,8.2-4.92,12.28L416.76,117a10.5,10.5,0,0,0,3.3-4.45,22.57,22.57,0,0,0,1.21-8.38h12.17V114.6a.92.92,0,0,0,.28.52.77.77,0,0,0,.52.32h4.2Zm-5.25,4.55H421.92a17.89,17.89,0,0,0,5.91,8.32A14.94,14.94,0,0,0,433.19,122.15Z"/><path class="cls-1" d="M472.87,132.52H457l1,1.31a52.61,52.61,0,0,1-13.12,4.57l-1-1.89a42.77,42.77,0,0,0,12.21-4h-6.21V117.88h23Zm-17.55-18.43h-11.2v-2h11.2Zm-.32-7.21H444.92V105H455ZM470.8,122v-2.29H452V122Zm0,4.27v-2.48H452v2.48Zm0,4.32v-2.52H452v2.52Zm8.07-15.27-.88,2q-7.68-1.14-11.95-4.67a18.63,18.63,0,0,1-9.16,4.55l-1.08-1.91q7.36-1.14,10.16-6l2.19.39a5.5,5.5,0,0,1-.92,1.57Q471.27,114.56,478.87,115.36ZM478,108a31,31,0,0,1-3.75,4.53l-1.52-1.44a32.1,32.1,0,0,0,2.91-3.4H461a20.32,20.32,0,0,1-3.65,3.59L456,109.93a20.81,20.81,0,0,0,5.8-7.05l1.95.68-1.27,2.21H478Zm.61,28.58-1,1.83a76.16,76.16,0,0,0-11.6-3.36l1-1.79A71.63,71.63,0,0,1,478.64,136.61Z"/><path class="cls-1" d="M488.07,128.68A55.55,55.55,0,0,1,486,138l-2.05-.76a46.1,46.1,0,0,0,2.28-9.16Zm11-19.4a109,109,0,0,1-11.12,14.92q3.39-.61,7.89-1.89c-.2-.61-.53-1.45-1-2.52l1.81-.66a36.93,36.93,0,0,1,2.23,6.75l-1.91.55c-.23-1-.41-1.74-.57-2.23q-5.73,1.59-11.52,2.68l-.59-1.76a60.25,60.25,0,0,0,8.2-9.76q-6.21,1-7.65,1.25l-.43-1.94a45.31,45.31,0,0,0,7.24-11.75l2,.64a56.37,56.37,0,0,1-6.33,10.57q2.61-.3,6.56-.94.9-1.23,3.2-4.83Zm-5.55,27-2.09.37a51,51,0,0,0-1-8.28l2-.34A59.24,59.24,0,0,1,493.48,136.24Zm4.84-3.36-1.89.6A34.73,34.73,0,0,0,495.2,128l1.76-.58A31.24,31.24,0,0,1,498.32,132.88ZM518.71,137H498v-2h2.81V104.13h14.79V135h3.08Zm-5.15-23v-7.83H503V114Zm0,10.29V116H503v8.24Zm0,10.76v-8.77H503V135Z"/><path class="cls-1" d="M558.87,114.71l-1.35,1.76a47.73,47.73,0,0,1-16.29-10.66q-5.4,5.44-16.19,10.7l-1.33-1.8a48.36,48.36,0,0,0,17.48-11.95l2,.8a2.43,2.43,0,0,1-.59.88A47.07,47.07,0,0,0,558.87,114.71Zm-5,23.54h-2.11v-2.66H530.8v2.66h-2.16v-15.9h25.19Zm-2.11-4.77v-9H530.8v9Zm-.08-16.68H530.92v-2.13h20.72Z"/><path class="cls-1" d="M131.28,64.49V87.56a1.61,1.61,0,1,0,3.21,0V66.11h11.78V79.67a1.61,1.61,0,1,0,3.21,0V64.49a1.61,1.61,0,0,0-1.61-1.61h-15A1.61,1.61,0,0,0,131.28,64.49Z"/><path class="cls-1" d="M66.53,93.8a7.34,7.34,0,0,0,6.3-11L87,69.62A7.23,7.23,0,0,0,97.6,67l10.89,2.89c0,.08,0,.17,0,.25a7.29,7.29,0,1,0,13.59-3.64l14.17-13.1a7.2,7.2,0,0,0,4.14,1.31A7.34,7.34,0,1,0,134.07,51l-14.16,13.1a7.23,7.23,0,0,0-10.6,2.65L98.42,63.84c0-.08,0-.17,0-.26a7.29,7.29,0,1,0-13.59,3.66L70.66,80.43a7.21,7.21,0,0,0-4.13-1.3,7.34,7.34,0,0,0,0,14.67Zm73.85-50.57a4.11,4.11,0,1,1-4.08,4.1A4.09,4.09,0,0,1,140.38,43.23ZM115.76,66a4.11,4.11,0,1,1-4.08,4.1A4.09,4.09,0,0,1,115.76,66ZM91.15,59.48a4.11,4.11,0,1,1-4.08,4.1A4.09,4.09,0,0,1,91.15,59.48ZM66.53,82.36a4.11,4.11,0,1,1-4.08,4.1A4.09,4.09,0,0,1,66.53,82.36Z"/><path class="cls-1" d="M160.62,112.09a14.56,14.56,0,0,0-5.83-4.32,59.05,59.05,0,0,0-7.43-2.29c-2-.5-3.52-.94-4.58-1.31a5.32,5.32,0,0,1-1.89-1.06.8.8,0,0,1-.26-.71,1.79,1.79,0,0,1,.84-1.63,5.84,5.84,0,0,1,3.51-.89,9.93,9.93,0,0,1,3.7.58,23.11,23.11,0,0,1,3,1.55,2.74,2.74,0,0,0,3.67-.79l4.12-6a2.78,2.78,0,0,0,.43-2.12,2.66,2.66,0,0,0-1.18-1.75,24.82,24.82,0,0,0-7.86-3.41V85.77A2.75,2.75,0,0,0,148.16,83h-7.08a2.75,2.75,0,0,0-2.73,2.76v2.32a17.91,17.91,0,0,0-8.14,4.68A14.11,14.11,0,0,0,126,103a12.6,12.6,0,0,0,2.69,8.32,14.89,14.89,0,0,0,6,4.37,62.74,62.74,0,0,0,7.5,2.36c2,.55,3.5,1,4.5,1.33a5.38,5.38,0,0,1,1.78,1,.39.39,0,0,1,.16.38,1.62,1.62,0,0,1-.75,1.55,6.67,6.67,0,0,1-3.89.85,14.91,14.91,0,0,1-4.35-.63,19.65,19.65,0,0,1-3.73-1.6,2.72,2.72,0,0,0-3.59.86l-4.08,6.09a2.74,2.74,0,0,0-.41,2.12,2.69,2.69,0,0,0,1.19,1.74,24,24,0,0,0,3.68,1.9h-7.82V87.27a1.62,1.62,0,0,0-1.6-1.62h-15a1.61,1.61,0,0,0-1.6,1.62v46.34h-6.43V80.18a1.61,1.61,0,0,0-1.6-1.61h-15a1.61,1.61,0,0,0-1.6,1.61v53.43H75.62v-30.5a1.61,1.61,0,0,0-1.6-1.62H59a1.62,1.62,0,0,0-1.6,1.62v30.5h-2.6a1.61,1.61,0,0,0,0,3.22h83.7v.41a2.75,2.75,0,0,0,2.73,2.76h7.07a2.75,2.75,0,0,0,2.74-2.76v-2.31a17.62,17.62,0,0,0,8.07-4.53,13.79,13.79,0,0,0,4.09-10.09A12.59,12.59,0,0,0,160.62,112.09ZM109.87,88.88h11.79v44.73H109.87ZM85.25,81.79H97v51.82H85.25ZM60.64,104.72H72.42v28.89H60.64Zm96.24,23.4a14.92,14.92,0,0,1-7.33,3.87l-1.68.4v4.38h-6.14v-4.25l-1.86-.27a25.4,25.4,0,0,1-4.79-1.18,21.5,21.5,0,0,1-3.93-1.82l3.57-5.33a21.88,21.88,0,0,0,4,1.67,18.06,18.06,0,0,0,5.27.77,9.84,9.84,0,0,0,5.74-1.44,4.87,4.87,0,0,0,2.1-4.19,3.58,3.58,0,0,0-1.26-2.82,8.54,8.54,0,0,0-2.87-1.59c-1.05-.35-2.62-.82-4.69-1.39a61.14,61.14,0,0,1-7.14-2.24,11.66,11.66,0,0,1-4.7-3.44,9.51,9.51,0,0,1-1.93-6.25,11,11,0,0,1,3.26-8,15.14,15.14,0,0,1,7.4-4l1.67-.4V86.24h6.14v4.28l1.75.35a21.66,21.66,0,0,1,7.16,2.87L153,99a24,24,0,0,0-3.12-1.57,13.14,13.14,0,0,0-4.89-.81,8.91,8.91,0,0,0-5.42,1.53,5,5,0,0,0-2.13,4.22,4,4,0,0,0,1.29,3.08,8.37,8.37,0,0,0,3,1.74c1.15.4,2.79.87,4.86,1.39a53.55,53.55,0,0,1,7,2.16,11.26,11.26,0,0,1,4.55,3.38,9.42,9.42,0,0,1,1.88,6.16A10.7,10.7,0,0,1,156.88,128.12Z"/></g></g></svg>