<svg xmlns="http://www.w3.org/2000/svg" viewBox="0 0 282.46 350"><defs><style>.cls-1,.cls-5{fill:#fff;}.cls-2{fill:#2a3646;}.cls-3{opacity:0.1;}.cls-4{fill:none;}.cls-5{font-size:20px;font-family:MicrosoftJhengHeiRegular, Microsoft JhengHei;}</style></defs><title>flow2</title><g id="圖層_2" data-name="圖層 2"><g id="text"><polygon class="cls-1" points="270.47 175 230 215.47 230 227.46 282.46 175 230 122.54 230 134.53 270.47 175"/><path class="cls-2" d="M230,215.47,270.47,175,230,134.53V17A17,17,0,0,0,213,0H17A17,17,0,0,0,0,17V333a17,17,0,0,0,17,17H213a17,17,0,0,0,17-17V215.47Z"/><g class="cls-3"><path class="cls-1" d="M152,275.42a62.86,62.86,0,0,1-2,17,37.67,37.67,0,0,1-5.47,12,22.82,22.82,0,0,1-8,7.1,20.21,20.21,0,0,1-9.42,2.34,15.31,15.31,0,0,1-6.83-1.55,15,15,0,0,1-5.43-4.67,23.69,23.69,0,0,1-3.57-7.77A41.07,41.07,0,0,1,110,289,62.76,62.76,0,0,1,112,272a38.1,38.1,0,0,1,5.47-12,23,23,0,0,1,7.93-7.13,19.94,19.94,0,0,1,9.44-2.37,14.68,14.68,0,0,1,12.24,6.22,23.48,23.48,0,0,1,3.59,7.8A41.2,41.2,0,0,1,152,275.42Zm-4.2-.22a38.89,38.89,0,0,0-1-9.52,20.45,20.45,0,0,0-2.85-6.62,12,12,0,0,0-4.25-3.87,11.08,11.08,0,0,0-5.23-1.27,15.51,15.51,0,0,0-7.56,2,18.74,18.74,0,0,0-6.48,6.31,36.39,36.39,0,0,0-4.53,10.95,64.77,64.77,0,0,0-1.71,15.94,38.78,38.78,0,0,0,1,9.55,20.2,20.2,0,0,0,2.85,6.63,11.8,11.8,0,0,0,4.24,3.86,11.36,11.36,0,0,0,5.24,1.24,15.45,15.45,0,0,0,7.55-2,18.84,18.84,0,0,0,6.49-6.28,36.15,36.15,0,0,0,4.53-10.93A65,65,0,0,0,147.8,275.2Z"/><path class="cls-1" d="M195.32,309.36a1.33,1.33,0,0,1,1.05.4,1.26,1.26,0,0,1,.26,1.05l-.31,2.36H159.4l.22-1.44a2.38,2.38,0,0,1,.33-1,3.68,3.68,0,0,1,.68-.83l22-21.46q3-3,5.58-5.67a43.06,43.06,0,0,0,4.43-5.45,25.59,25.59,0,0,0,2.91-5.7,18.79,18.79,0,0,0,1-6.39,13,13,0,0,0-.88-5,9.87,9.87,0,0,0-2.38-3.52,9.74,9.74,0,0,0-3.51-2.08,13.05,13.05,0,0,0-4.22-.68,14.08,14.08,0,0,0-5,.9,15.06,15.06,0,0,0-4.29,2.49,15.84,15.84,0,0,0-3.33,3.84,19.23,19.23,0,0,0-2.19,4.9,2.25,2.25,0,0,1-.9,1.23,2.3,2.3,0,0,1-1.38.22l-2.06-.31a26,26,0,0,1,2.89-7.05,20.9,20.9,0,0,1,4.47-5.26,19.06,19.06,0,0,1,5.74-3.28,19.52,19.52,0,0,1,6.7-1.14,17.28,17.28,0,0,1,5.67.92,13.05,13.05,0,0,1,4.62,2.72,12.5,12.5,0,0,1,3.11,4.48,16,16,0,0,1,1.14,6.25,21.07,21.07,0,0,1-1.23,7.35,26.85,26.85,0,0,1-3.32,6.31,47.85,47.85,0,0,1-4.87,5.8c-1.84,1.89-3.78,3.82-5.82,5.81l-20.41,19.92a23.82,23.82,0,0,1,2.91-.52,25.41,25.41,0,0,1,3-.18Z"/></g><path class="cls-1" d="M116.94,101.92a1.61,1.61,0,0,0-1.61,1.61,3.86,3.86,0,1,1-3.86-3.86,1.61,1.61,0,1,0,0-3.22,7.08,7.08,0,1,0,7.08,7.08A1.61,1.61,0,0,0,116.94,101.92Z"/><path class="cls-1" d="M152.86,73.65a1.57,1.57,0,0,0,1.14-.47l10.53-10.52a1.62,1.62,0,0,0,.38-1.67,1.59,1.59,0,0,0-1.34-1.07L156,59l-.89-7.6a1.61,1.61,0,0,0-2.74-1L141.82,61a1.61,1.61,0,0,0-.47,1.32l.74,6.29a46.53,46.53,0,1,0,4.3,4.3l6.29.73Zm-.6-18.54.56,4.79-7.61,7.61-.56-4.79Zm-9.14,46.81A31.6,31.6,0,0,0,135,82.3l8.17-8.17a43.1,43.1,0,0,1,11.53,27.79ZM132.7,80a31.6,31.6,0,0,0-19.61-8.14V60.32a43.09,43.09,0,0,1,27.78,11.53Zm-10,25.12h2.89a14.24,14.24,0,0,1-12.5,12.5V114.8a1.62,1.62,0,0,0-3.23,0v2.84a14.24,14.24,0,0,1-12.51-12.5h2.85a1.61,1.61,0,0,0,0-3.22H97.35a14.26,14.26,0,0,1,12.51-12.51v2.84a1.62,1.62,0,1,0,3.23,0V89.41a14.13,14.13,0,0,1,7.22,3l-10,10a1.61,1.61,0,0,0,0,2.28,1.64,1.64,0,0,0,1.14.47,1.62,1.62,0,0,0,1.14-.47l10-10a14.13,14.13,0,0,1,3,7.23H122.7a1.61,1.61,0,1,0,0,3.22Zm-.1-15a17.33,17.33,0,0,0-9.51-4v-11a28.28,28.28,0,0,1,17.32,7.19Zm-12.74-4a17.46,17.46,0,0,0-15.75,15.75h-11a28.49,28.49,0,0,1,26.8-26.8Zm-15.75,19a17.47,17.47,0,0,0,15.75,15.75v11a28.5,28.5,0,0,1-26.8-26.8Zm19,15.75a17.46,17.46,0,0,0,15.74-15.75h11a28.5,28.5,0,0,1-26.79,26.8Zm15.74-19a17.33,17.33,0,0,0-4-9.52l7.81-7.81a28.34,28.34,0,0,1,7.19,17.33Zm-19-41.6V71.88a31.73,31.73,0,0,0-30,30H68.27A43.29,43.29,0,0,1,109.86,60.32ZM68.27,105.14H79.83a31.72,31.72,0,0,0,30,30v11.56A43.27,43.27,0,0,1,68.27,105.14Zm44.82,41.59V135.17a31.73,31.73,0,0,0,30-30h11.56A43.29,43.29,0,0,1,113.09,146.73Zm34.4-76.94,7.61-7.61,4.79.56-7.61,7.61Z"/><rect class="cls-4" x="109.85" y="250.5" width="120.15" height="99.5"/><text class="cls-5" transform="translate(54.93 186.64)">選擇理財目標</text><rect class="cls-4" width="230" height="150"/></g></g></svg>