<svg xmlns="http://www.w3.org/2000/svg" viewBox="0 0 660 241.98"><defs><style>.cls-1{fill:#fff;}.cls-2{fill:#4f6b84;}.cls-3{opacity:0.1;}</style></defs><title>flow5-min</title><g id="圖層_2" data-name="圖層 2"><g id="架構"><polygon class="cls-1" points="123.74 227.83 75.91 180 61.76 180 123.74 241.98 185.72 180 171.57 180 123.74 227.83"/><path class="cls-2" d="M631.72,0H28.28A28.28,28.28,0,0,0,0,28.28V151.72A28.28,28.28,0,0,0,28.28,180H75.91l47.83,47.83L171.58,180H631.72A28.28,28.28,0,0,0,660,151.72V28.28A28.28,28.28,0,0,0,631.72,0Z"/><g class="cls-3"><path class="cls-1" d="M546.58,82.22a101.3,101.3,0,0,1-3.28,27.31,60.52,60.52,0,0,1-8.8,19.26,36.76,36.76,0,0,1-12.77,11.4A32.46,32.46,0,0,1,506.59,144a24.58,24.58,0,0,1-11-2.5,23.93,23.93,0,0,1-8.73-7.5,38.42,38.42,0,0,1-5.74-12.49,66.1,66.1,0,0,1-2.07-17.5,101,101,0,0,1,3.27-27.24,61.11,61.11,0,0,1,8.8-19.29A37.09,37.09,0,0,1,503.88,46a32,32,0,0,1,15.17-3.8,23.62,23.62,0,0,1,19.68,10,38,38,0,0,1,5.77,12.53A66.47,66.47,0,0,1,546.58,82.22Zm-6.76-.35a62.24,62.24,0,0,0-1.66-15.31,32.73,32.73,0,0,0-4.57-10.63,19.31,19.31,0,0,0-6.83-6.23,17.92,17.92,0,0,0-8.41-2,25,25,0,0,0-12.15,3.23A30,30,0,0,0,495.79,61a58.32,58.32,0,0,0-7.29,17.6,104.23,104.23,0,0,0-2.75,25.62,62.22,62.22,0,0,0,1.66,15.35A32.87,32.87,0,0,0,492,130.27a19,19,0,0,0,6.83,6.19,18.14,18.14,0,0,0,8.41,2,24.86,24.86,0,0,0,12.15-3.24,30.23,30.23,0,0,0,10.42-10.1,58.05,58.05,0,0,0,7.28-17.57A104.49,104.49,0,0,0,539.82,81.87Z"/><path class="cls-1" d="M625.27,43.29l-.35,2.82a3.34,3.34,0,0,1-1.16,2.29,4.62,4.62,0,0,1-3.06.88H587.89l-9.57,33.43a65.91,65.91,0,0,1,15.77-2.18,30.28,30.28,0,0,1,11.26,1.94,21.93,21.93,0,0,1,8.06,5.35,22.24,22.24,0,0,1,4.83,8.09,31.16,31.16,0,0,1,1.61,10.17,40,40,0,0,1-3,15.84,36.38,36.38,0,0,1-8,12,34.67,34.67,0,0,1-11.58,7.53A36.58,36.58,0,0,1,583.6,144a33.73,33.73,0,0,1-7.18-.74,34.75,34.75,0,0,1-6.26-2,31.06,31.06,0,0,1-5.25-2.82,30.4,30.4,0,0,1-4.12-3.27l2.25-2.68a2.62,2.62,0,0,1,2.12-1.05,4.46,4.46,0,0,1,2.29,1.05,36.55,36.55,0,0,0,3.76,2.36,30.33,30.33,0,0,0,5.6,2.36,25.54,25.54,0,0,0,7.78,1.06,28.39,28.39,0,0,0,11.12-2.19,26.14,26.14,0,0,0,9.08-6.3,30.09,30.09,0,0,0,6.12-10,36.34,36.34,0,0,0,2.26-13.23,26.32,26.32,0,0,0-1.27-8.31,17.6,17.6,0,0,0-3.84-6.55,17.42,17.42,0,0,0-6.54-4.29A25.76,25.76,0,0,0,592.19,86a50.21,50.21,0,0,0-7.89.67,73.09,73.09,0,0,0-9,2.08l-3.94-1.34,12.53-44.07Z"/></g><path class="cls-1" d="M238.71,102.68l-.48,2.13q-3.61.09-6.88.09a96.22,96.22,0,0,1-10-.36,28.08,28.08,0,0,1-5.92-1.38,13.57,13.57,0,0,1-5.18-3.35,34.36,34.36,0,0,1-5.41,5.6l-1.43-1.64a27.91,27.91,0,0,0,5.31-5.53,26.72,26.72,0,0,1-3.75-7.87l1.88-.76a19.06,19.06,0,0,0,3,6.68A26.16,26.16,0,0,0,212.15,86h-7.4V84.16a103.9,103.9,0,0,0,7.4-10.76H204v-2H214.4v2a120,120,0,0,1-7,10.61h6.93q-.39,8.82-3.09,14a14.48,14.48,0,0,0,4.27,3,17.2,17.2,0,0,0,5.07,1.43,103.74,103.74,0,0,0,10.62.34Q235.14,102.81,238.71,102.68ZM238.4,81h-2.85v5.68h-9.12V90h9.92v2h-9.92v3.29h11.29v2H226.43v4h-2v-4h-9.93v-2h9.93V92H216V90h8.4V86.68H216.8v-2h7.64V81h-9.89V79h9.89V75.49h-7.6v-2h7.6v-3h2v3h9.12V79h2.85Zm-4.88-2v-3.4h-7.09V79Zm0,5.72V81h-7.09v3.69Z"/><path class="cls-1" d="M278.75,104.2H244v-2H255a74,74,0,0,0-5.41-20.88l1.25-.88h-5.52v-2h15.91a41.36,41.36,0,0,0-3.47-7.64l2.07-.64a50.85,50.85,0,0,1,3.61,8.28h13.91v2h-5.2l1.21,1a154,154,0,0,1-5.92,20.8h11.31Zm-7.4-23.71H251.76q4.34,13.17,5.35,21.76h8.05A137.59,137.59,0,0,0,271.35,80.49Z"/><path class="cls-1" d="M318.71,98.05h-8.43V102c0,2.24-1.25,3.36-3.73,3.36-1,0-2.22,0-3.72-.07l-.95-2c.84,0,1.89.06,3.14.06a9.3,9.3,0,0,0,2.74-.21.84.84,0,0,0,.39-.8V98.05H284V96.17h24.2v-2h2.13v2h8.43Zm-.52-23.36H302.44v2.75h12.64V88.32H313a29.92,29.92,0,0,1,4.88,5.37l-1.68,1.16a16.51,16.51,0,0,0-1.91-2.41q-16.12,1.23-29,1.29l-.53-1.85q7.29.06,15.6-.32V88.32H287.64V77.44h12.71V74.69H284.48V72.85h15.87V70.37h2.09v2.48h15.75Zm-17.84,7.23V79.24H289.71v2.68Zm0,4.6V83.69H289.71v2.83Zm-2.59,16.08-1.33,1.6a29.61,29.61,0,0,0-5.88-4l1.33-1.55A28.62,28.62,0,0,1,297.76,102.6ZM313,81.92V79.24H302.44v2.68Zm0,4.6V83.69H302.44v2.83Zm-.47,4.2c-.74-.74-1.24-1.21-1.48-1.4l1.31-1h-9.95v3.13Q308.74,91.1,312.56,90.72Z"/><path class="cls-1" d="M356.92,77.09h-28.6v15a33.44,33.44,0,0,1-2.56,13.22L324.12,104a46.2,46.2,0,0,0,2.31-15V71.25h30.49Zm-2.05-1.68V72.93H328.32v2.48Zm2.52,16.51c0,2.1-.08,4.35-.24,6.72s-.27,3.86-.33,4.44a2.21,2.21,0,0,1-.78,1.45,2.51,2.51,0,0,1-1.68.59h-2.29l-.68-1.8h2.85a.6.6,0,0,0,.55-.42,18,18,0,0,0,.4-3.42c.14-2,.22-4,.24-6H343.52v1.64h8.08v4.61h-2.85a21.56,21.56,0,0,1,2.13,3.4l-1.44.87c-.13-.27-.36-.7-.69-1.28q-8.82,1.13-17.44,1.71l-.6-1.5c2.24-.11,5.85-.41,10.84-.92V99.77h-8.07v-4.5a25,25,0,0,1-3.89,1.86l-.88-1.48A20.68,20.68,0,0,0,336.88,90h-5.16V85h25.39v5H339.24a12.83,12.83,0,0,1-1.52,1.88Zm-16.35-9q-3.93.72-10,1.43l-.53-1.51q4.9-.59,10.12-1.44Zm-.12-3.77-.45,1.6a71.58,71.58,0,0,0-9.71-1.15l.55-1.64A82.94,82.94,0,0,1,340.92,79.16Zm-1.48,9.4V86.49h-6v2.07Zm2.11,6.6V93.52h-5.79c-1,.87-1.67,1.42-2,1.64Zm0,3.2v-1.8h-6.16v1.8Zm5.72-9.8V86.49h-6.11v2.07Zm-2.07-4.75h-1.92V78.32h1.92Zm4.59,14.55v-1.8h-6.27v1.8Zm-1.6,1.41h-4.67v2l4.24-.47-.61-.92Zm10-20.08a94.17,94.17,0,0,1-10.28,1l-.64-1.56a77.53,77.53,0,0,0,10.25-1Zm.52,3.32-.48,1.52A81.6,81.6,0,0,0,347.64,83l.27-1.56A76.24,76.24,0,0,1,358.71,83Zm-3.43,5.55V86.49h-6.2v2.07Z"/><path class="cls-1" d="M377.07,79.32h-5.19v8l3.83-1.57.48,2q-2.74,1.21-4.31,1.78v12.31a3.37,3.37,0,0,1-.85,2.66c-.57.48-1.8.72-3.7.72a18.35,18.35,0,0,1-1.9-.1l-.76-2.11c1.85.08,3.15.12,3.89.12a1.24,1.24,0,0,0,.88-.4,1.3,1.3,0,0,0,.39-.93V90.37a57.08,57.08,0,0,1-5.55,2l-.64-2c2.39-.74,4.46-1.48,6.19-2.2V79.32H364v-2h5.8V70.37h2.05v6.92h5.19Zm22.05,24.12-1.25,2a37.21,37.21,0,0,1-10.15-5.14,39.77,39.77,0,0,1-12,5.18l-1.21-1.89q7.69-2,11.45-4.67a22.87,22.87,0,0,1-6.41-9.65h-1.31V87.13h17.48A17.19,17.19,0,0,1,389.51,99,39.62,39.62,0,0,0,399.12,103.44Zm-.68-18.71h-4c-2.09,0-3.13-1-3.13-3V73.28h-7.95q-.23,8.2-4.92,12.29l-1.68-1.49a10.43,10.43,0,0,0,3.3-4.45,22.53,22.53,0,0,0,1.21-8.38h12.17V81.72a.94.94,0,0,0,.28.53.79.79,0,0,0,.52.31h4.2Zm-5.25,4.55H381.92a17.94,17.94,0,0,0,5.91,8.32A15,15,0,0,0,393.19,89.28Z"/><path class="cls-1" d="M432.87,99.65H417l1,1.31a53.42,53.42,0,0,1-13.12,4.57l-1-1.9a42.44,42.44,0,0,0,12.21-4h-6.21V85h23ZM415.32,81.21h-11.2v-2h11.2ZM415,74H404.92V72.09H415Zm15.8,15.15V86.88H412v2.28Zm0,4.28V91H412v2.48Zm0,4.32V95.24H412v2.52Zm8.07-15.28-.88,2Q430.31,83.3,426,79.77a18.71,18.71,0,0,1-9.16,4.55L415.8,82.4q7.36-1.12,10.16-6l2.19.39a5.63,5.63,0,0,1-.92,1.56Q431.27,81.67,438.87,82.48ZM438,75.16a32.15,32.15,0,0,1-3.75,4.53l-1.52-1.45a32,32,0,0,0,2.91-3.39H421a20.66,20.66,0,0,1-3.65,3.59L416,77.05a20.81,20.81,0,0,0,5.8-7l1.95.69-1.27,2.2H438Zm.61,28.57-1,1.84a76.16,76.16,0,0,0-11.6-3.36l1-1.8A72.66,72.66,0,0,1,438.64,103.73Z"/><path class="cls-1" d="M448.07,95.8a55.48,55.48,0,0,1-2.07,9.36L444,104.4a46.27,46.27,0,0,0,2.28-9.16Zm11-19.39a109.62,109.62,0,0,1-11.12,14.92q3.39-.63,7.89-1.89c-.2-.62-.53-1.46-1-2.52l1.81-.67A37,37,0,0,1,458.87,93l-1.91.55c-.23-1-.41-1.75-.57-2.23q-5.73,1.58-11.52,2.68l-.59-1.76a60.34,60.34,0,0,0,8.2-9.77c-4.14.67-6.69,1.08-7.65,1.25l-.43-1.93A45.19,45.19,0,0,0,451.64,70l2,.65a56,56,0,0,1-6.33,10.56c1.74-.19,3.93-.51,6.56-.94q.9-1.23,3.2-4.82Zm-5.55,27-2.09.37a51.14,51.14,0,0,0-1-8.28l2-.33A58.85,58.85,0,0,1,453.48,103.36Zm4.84-3.36-1.89.61a34.49,34.49,0,0,0-1.23-5.45l1.76-.59A31.24,31.24,0,0,1,458.32,100Zm20.39,4.12H458v-2h2.81V71.25h14.79v30.92h3.08Zm-5.15-23V73.28H463v7.83Zm0,10.3V83.17H463v8.24Zm0,10.76V93.4H463v8.77Z"/><path class="cls-1" d="M518.87,81.84l-1.35,1.76a47.75,47.75,0,0,1-16.29-10.67q-5.4,5.44-16.19,10.7l-1.33-1.79a48.38,48.38,0,0,0,17.48-12l2,.81a2.4,2.4,0,0,1-.59.87A47.09,47.09,0,0,0,518.87,81.84Zm-5,23.53h-2.11v-2.65H490.8v2.65h-2.16V89.47h25.19Zm-2.11-4.76v-9H490.8v9Zm-.08-16.68H490.92V81.8h20.72Z"/><path class="cls-1" d="M112,84.73a1.71,1.71,0,0,1-.78-.2,1.63,1.63,0,0,1-.83-1.41V41.62a1.64,1.64,0,0,1,.52-1.19,1.54,1.54,0,0,1,1.22-.42,49.91,49.91,0,0,1,36.31,20.14,1.61,1.61,0,0,1-.44,2.33l-35.14,22A1.64,1.64,0,0,1,112,84.73Zm1.61-41.34V80.21l31.18-19.53A46.72,46.72,0,0,0,113.6,43.39Z"/><path class="cls-1" d="M129.32,135.17a1.52,1.52,0,0,1-.59-.12,1.57,1.57,0,0,1-.91-.91L111.37,92.05a1.62,1.62,0,0,1,.65-2l38.26-24a1.62,1.62,0,0,1,1.27-.18,1.58,1.58,0,0,1,1,.8A50.12,50.12,0,0,1,130,135,1.57,1.57,0,0,1,129.32,135.17Zm-14.46-43,15.31,39.19A47.2,47.2,0,0,0,155,89.92a46.29,46.29,0,0,0-4.53-20.11Z"/><path class="cls-1" d="M108.23,140a50.07,50.07,0,0,1-3.89-100,1.61,1.61,0,0,1,1.22.42,1.64,1.64,0,0,1,.52,1.19v48.3a2.13,2.13,0,0,0,.15.79l17.57,45a1.61,1.61,0,0,1-1,2.13A50,50,0,0,1,108.23,140Zm-5.37-96.61a46.85,46.85,0,0,0,5.37,93.38,46.54,46.54,0,0,0,11.93-1.54L103.22,91.88h0a5.49,5.49,0,0,1-.36-2Z"/></g></g></svg>