<svg xmlns="http://www.w3.org/2000/svg" viewBox="0 0 282.36 350"><defs><style>.cls-1,.cls-4{fill:#fff;}.cls-2{fill:#4f6b84;}.cls-3{opacity:0.1;}.cls-4{font-size:20px;font-family:MicrosoftJhengHeiRegular, Microsoft JhengHei;letter-spacing:-0.05em;}</style></defs><title>flow4</title><g id="圖層_2" data-name="圖層 2"><g id="text"><polygon class="cls-1" points="270.37 175 230 215.37 230 227.36 282.36 175 230 122.64 230 134.63 270.37 175"/><path class="cls-2" d="M230,215.37,270.37,175,230,134.63V17A17,17,0,0,0,213,0H17A17,17,0,0,0,0,17V333a17,17,0,0,0,17,17H213a17,17,0,0,0,17-17V215.37Z"/><g class="cls-3"><path class="cls-1" d="M152,275.42a62.86,62.86,0,0,1-2,17,37.67,37.67,0,0,1-5.47,12,22.82,22.82,0,0,1-8,7.1,20.21,20.21,0,0,1-9.42,2.34,15.31,15.31,0,0,1-6.83-1.55,15,15,0,0,1-5.43-4.67,23.69,23.69,0,0,1-3.57-7.77A41.07,41.07,0,0,1,110,289,62.76,62.76,0,0,1,112,272a38.1,38.1,0,0,1,5.47-12,23,23,0,0,1,7.93-7.13,19.94,19.94,0,0,1,9.44-2.37,14.68,14.68,0,0,1,12.24,6.22,23.48,23.48,0,0,1,3.59,7.8A41.2,41.2,0,0,1,152,275.42Zm-4.2-.22a38.89,38.89,0,0,0-1-9.52,20.45,20.45,0,0,0-2.85-6.62,12,12,0,0,0-4.25-3.87,11.08,11.08,0,0,0-5.23-1.27,15.51,15.51,0,0,0-7.56,2,18.74,18.74,0,0,0-6.48,6.31,36.39,36.39,0,0,0-4.53,10.95,64.77,64.77,0,0,0-1.71,15.94,38.78,38.78,0,0,0,1,9.55,20.2,20.2,0,0,0,2.85,6.63,11.8,11.8,0,0,0,4.24,3.86,11.36,11.36,0,0,0,5.24,1.24,15.45,15.45,0,0,0,7.55-2,18.84,18.84,0,0,0,6.49-6.28,36.15,36.15,0,0,0,4.53-10.93A65,65,0,0,0,147.8,275.2Z"/><path class="cls-1" d="M201.49,292.11l-.26,2.19a1.4,1.4,0,0,1-.37.76,1.18,1.18,0,0,1-.86.29h-9.24l-2.19,17.82H185l2.19-17.82H160.32a1.32,1.32,0,0,1-.92-.29,1.16,1.16,0,0,1-.35-.76l-.17-2,33.72-41.17h3.59l-5,41Zm-13.88,0,4-32.68a18.63,18.63,0,0,1,.53-2.89l-28.86,35.57Z"/></g><path class="cls-1" d="M85.27,122h16.08a1.62,1.62,0,0,0,0-3.23H85.27a1.62,1.62,0,0,0,0,3.23Z"/><path class="cls-1" d="M85.27,130.22H106a1.61,1.61,0,0,0,0-3.22H85.27a1.61,1.61,0,0,0,0,3.22Z"/><path class="cls-1" d="M101.35,57.51a3,3,0,1,0,2.8,3A2.88,2.88,0,0,0,101.35,57.51Z"/><path class="cls-1" d="M163.66,104.76l-6-5.42a3.66,3.66,0,0,0-2.77-.94,3.72,3.72,0,0,0-2.59,1.4h0l-22.16,27.48L117,112.14a3.67,3.67,0,0,0-2.64-1.29,3.78,3.78,0,0,0-2.73,1l-5.86,5.65a4.07,4.07,0,0,0-1.24,2.77,4.15,4.15,0,0,0,1,2.88l13.82,15.93H75.19V74h7.49l-.27,2.2a1.68,1.68,0,0,0,.37,1.28,1.52,1.52,0,0,0,1.15.54h34.84a1.52,1.52,0,0,0,1.15-.54,1.72,1.72,0,0,0,.37-1.28L120,74h7.49v47.89a1.53,1.53,0,1,0,3.06,0V72.37A1.58,1.58,0,0,0,129,70.75h-9.41l-.55-4.42h14.14a1.46,1.46,0,0,1,1.42,1.5v46.42a1.54,1.54,0,1,0,3.07,0V67.83a4.62,4.62,0,0,0-4.49-4.73H118.67l-.35-2.84a1.56,1.56,0,0,0-1.52-1.41h-5.64a9.87,9.87,0,0,0-19.63,0H85.89a1.54,1.54,0,0,0-1.51,1.41L84,63.1H69.49A4.62,4.62,0,0,0,65,67.83v77.44A4.62,4.62,0,0,0,69.49,150h61a3.72,3.72,0,0,0,2.83-1.41l30.8-38.18a4.19,4.19,0,0,0,.89-2.92A4.05,4.05,0,0,0,163.66,104.76ZM87.24,62.08H93a1.58,1.58,0,0,0,1.53-1.62,6.88,6.88,0,1,1,13.74,0,1.58,1.58,0,0,0,1.53,1.62h5.71L117,74.78H85.67ZM68.06,145.27V67.83a1.47,1.47,0,0,1,1.43-1.5H83.63l-.55,4.42H73.66a1.58,1.58,0,0,0-1.53,1.62v68.37a1.57,1.57,0,0,0,1.53,1.61h48.43l3.84,4.43H69.49A1.47,1.47,0,0,1,68.06,145.27Zm93.7-37L131,146.5a.78.78,0,0,1-.55.28.71.71,0,0,1-.56-.26L107.74,121a.88.88,0,0,1-.19-.56.86.86,0,0,1,.24-.54l5.87-5.65a.72.72,0,0,1,.5-.2h0a.69.69,0,0,1,.51.25l15.47,17.84,24.41-30.27h0a.71.71,0,0,1,.51-.27.73.73,0,0,1,.54.18l6.05,5.42a.81.81,0,0,1,.26.53A.84.84,0,0,1,161.76,108.32Z"/><path class="cls-1" d="M110.08,103.39A5.86,5.86,0,0,0,109,99.67a6.54,6.54,0,0,0-2.61-2,30,30,0,0,0-3.89-1.25c-1.13-.3-2-.56-2.64-.79a4.31,4.31,0,0,1-1.56-.94,2.06,2.06,0,0,1-.62-1.57,2.63,2.63,0,0,1,1.06-2.19,4.43,4.43,0,0,1,2.81-.83,6.6,6.6,0,0,1,2.59.45,14.39,14.39,0,0,1,2.4,1.34l2.28-3.47a11.84,11.84,0,0,0-5.51-2.33V83.41H99.39v2.71a8.69,8.69,0,0,0-4.9,2.54,6.72,6.72,0,0,0-1.87,4.78,5.84,5.84,0,0,0,1.12,3.77,6.69,6.69,0,0,0,2.69,2.06,32.34,32.34,0,0,0,4,1.31c1.11.32,2,.58,2.54.79a4.2,4.2,0,0,1,1.49.86,1.8,1.8,0,0,1,.6,1.4,2.56,2.56,0,0,1-1,2.18,5,5,0,0,1-3,.78,9.44,9.44,0,0,1-2.82-.43,13.06,13.06,0,0,1-2.85-1.36l-2.25,3.47a11.36,11.36,0,0,0,3,1.58,14.21,14.21,0,0,0,3.47.79v2.61h3.91v-2.71a8.6,8.6,0,0,0,4.87-2.46A6.53,6.53,0,0,0,110.08,103.39Z"/><text class="cls-4" transform="translate(47.93 186.64)">確認單筆投資與<tspan x="-9.5" y="30">定時定額投資金額</tspan></text></g></g></svg>