<svg xmlns="http://www.w3.org/2000/svg" viewBox="0 0 283.01 350"><defs><style>.cls-1,.cls-4{fill:#fff;}.cls-2{fill:#2a3646;}.cls-3{opacity:0.1;}.cls-4{font-size:20px;font-family:MicrosoftJhengHeiRegular, Microsoft JhengHei;}</style></defs><title>flow1</title><g id="圖層_2" data-name="圖層 2"><g id="text"><polygon class="cls-1" points="271.02 175 230 216.02 230 228.01 283.01 175 230 121.99 230 133.98 271.02 175"/><path class="cls-2" d="M230,216l41-41-41-41V17A17,17,0,0,0,213,0H17A17,17,0,0,0,0,17V333a17,17,0,0,0,17,17H213a17,17,0,0,0,17-17V216Z"/><g class="cls-3"><path class="cls-1" d="M151.85,275.42a63.29,63.29,0,0,1-2,17,37.9,37.9,0,0,1-5.48,12,22.82,22.82,0,0,1-8,7.1,20.14,20.14,0,0,1-9.41,2.34,15.36,15.36,0,0,1-6.84-1.55,15,15,0,0,1-5.43-4.67,23.89,23.89,0,0,1-3.57-7.77A41.07,41.07,0,0,1,109.85,289a62.76,62.76,0,0,1,2-16.95,38.33,38.33,0,0,1,5.47-12,23,23,0,0,1,7.93-7.13,19.94,19.94,0,0,1,9.44-2.37A14.68,14.68,0,0,1,147,256.72a23.48,23.48,0,0,1,3.59,7.8A41.2,41.2,0,0,1,151.85,275.42Zm-4.2-.22a38.41,38.41,0,0,0-1-9.52,20.45,20.45,0,0,0-2.85-6.62,12,12,0,0,0-4.25-3.87,11.08,11.08,0,0,0-5.23-1.27,15.45,15.45,0,0,0-7.55,2,18.76,18.76,0,0,0-6.49,6.31,36.39,36.39,0,0,0-4.53,10.95A64.77,64.77,0,0,0,114,289.13a39.27,39.27,0,0,0,1,9.55,20.42,20.42,0,0,0,2.85,6.63,11.82,11.82,0,0,0,4.25,3.86,11.29,11.29,0,0,0,5.23,1.24,15.51,15.51,0,0,0,7.56-2,18.9,18.9,0,0,0,6.48-6.28,36.15,36.15,0,0,0,4.53-10.93A65,65,0,0,0,147.65,275.2Z"/><path class="cls-1" d="M195.39,310.06l-.4,3.11H165.47l.44-3.11H179l6.18-50.58c.06-.5.13-1,.22-1.51s.19-1,.3-1.56l-13.92,12.18a1.62,1.62,0,0,1-1.27.35,1.45,1.45,0,0,1-.84-.48l-1-1.71,18.44-15.81h3.19L183,310.06Z"/></g><path class="cls-1" d="M163.5,101.45l-3-2.15c1.79-5.54,1.1-9.5-2.08-11.82-4.55-3.32-10.72-.77-18.37,7.55V58.26A8.27,8.27,0,0,0,131.83,50H91.06a1.61,1.61,0,0,0-1.14.47L65.55,74.84A1.61,1.61,0,0,0,65.07,76V136.3a8.27,8.27,0,0,0,8.26,8.26h40.34l.09.49.93.68-1.86,2.56a1.07,1.07,0,0,0,.24,1.5,1.06,1.06,0,0,0,.63.21,1.07,1.07,0,0,0,.87-.44l1.86-2.56.94.68.62-.08c6.4-.73,20.93-17,26.28-23.21h.2a5,5,0,0,0,3.71-2.17,5.36,5.36,0,0,0,1.29-3.75c0-.1,0-.2-.06-.3,2-2.56,3.68-4.78,4.76-6.44a65.11,65.11,0,0,0,5.18-9.32l2.25,1.64a.61.61,0,0,1,.25.46.59.59,0,0,1-.22.48c-4.77,3.94-10.24,9.69-9.17,14.75l3.16-.67c-.56-2.63,2.45-7,8.06-11.59a3.82,3.82,0,0,0-.18-6Zm-6.94-11.37c1.72,1.26,2.1,3.74,1.19,7.19l-8.39-6.12C152.36,89.23,154.84,88.83,156.56,90.08ZM89.45,55.51V72.82a1.55,1.55,0,0,1-1.56,1.55H70.58ZM68.3,136.3V77.6H87.89a4.79,4.79,0,0,0,4.78-4.78V53.23h39.16a5,5,0,0,1,5,5V98.78a2,2,0,0,0-.19.22c-1.24,1.54-2.85,3.78-4.67,6.51-.1,0-.2,0-.3,0a5.4,5.4,0,0,0-3.18,2.38,4.9,4.9,0,0,0-.85,4.38c-3.3,5.41-12.44,20.9-13.93,29H73.33A5,5,0,0,1,68.3,136.3Zm53.08-6,7.7,5.61c-1.52,1.46-3,2.77-4.27,3.89L119,135.54C119.65,134,120.46,132.18,121.38,130.29Zm-4.63,13a18,18,0,0,1,1.42-5.63l4.93,3.59a18.27,18.27,0,0,1-4.92,3.08Zm13.89-8.87-8.29-6c2.12-4.18,4.74-8.87,7.74-13.79l11.3,8.23C137.63,127.14,134,131.08,130.64,134.37Zm15-14.14a3,3,0,0,1-1.05.89L130.69,111a2.84,2.84,0,0,1,.52-1.27,3,3,0,0,1,.94-.94l14.1,10.27A3.06,3.06,0,0,1,145.65,120.23ZM151.47,110c-1,1.49-2.43,3.48-4.26,5.79L135,106.85c1.64-2.44,3.08-4.44,4.2-5.83a58.81,58.81,0,0,1,7.46-7.85l10,7.29A58.06,58.06,0,0,1,151.47,110Z"/><path class="cls-1" d="M81.73,87.28h41.7a1.62,1.62,0,0,0,0-3.23H81.73a1.62,1.62,0,0,0,0,3.23Z"/><path class="cls-1" d="M81.73,98.89h41.7a1.61,1.61,0,0,0,0-3.22H81.73a1.61,1.61,0,0,0,0,3.22Z"/><path class="cls-1" d="M123.43,110.51a1.62,1.62,0,0,0,0-3.23H81.73a1.62,1.62,0,0,0,0,3.23Z"/><text class="cls-4" transform="translate(65 186.64)">填寫性別、<tspan x="0" y="30">年齡和收入</tspan></text></g></g></svg>