<svg xmlns="http://www.w3.org/2000/svg" viewBox="0 0 660 241.98"><defs><style>.cls-1{fill:#fff;}.cls-2{fill:#4f6b84;}.cls-3{opacity:0.1;}</style></defs><title>flow4-min</title><g id="圖層_2" data-name="圖層 2"><g id="架構"><polygon class="cls-1" points="123.74 227.83 75.91 180 61.76 180 123.74 241.98 185.72 180 171.57 180 123.74 227.83"/><path class="cls-2" d="M631.72,0H28.28A28.28,28.28,0,0,0,0,28.28V151.72A28.28,28.28,0,0,0,28.28,180H75.91l47.83,47.83L171.58,180H631.72A28.28,28.28,0,0,0,660,151.72V28.28A28.28,28.28,0,0,0,631.72,0Z"/><g class="cls-3"><path class="cls-1" d="M546.58,82.22a101.3,101.3,0,0,1-3.28,27.31,60.52,60.52,0,0,1-8.8,19.26,36.76,36.76,0,0,1-12.77,11.4A32.46,32.46,0,0,1,506.59,144a24.58,24.58,0,0,1-11-2.5,23.93,23.93,0,0,1-8.73-7.5,38.42,38.42,0,0,1-5.74-12.49,66.1,66.1,0,0,1-2.07-17.5,101,101,0,0,1,3.27-27.24,61.11,61.11,0,0,1,8.8-19.29A37.09,37.09,0,0,1,503.88,46a32,32,0,0,1,15.17-3.8,23.62,23.62,0,0,1,19.68,10,38,38,0,0,1,5.77,12.53A66.47,66.47,0,0,1,546.58,82.22Zm-6.76-.35a62.24,62.24,0,0,0-1.66-15.31,32.73,32.73,0,0,0-4.57-10.63,19.31,19.31,0,0,0-6.83-6.23,17.92,17.92,0,0,0-8.41-2,25,25,0,0,0-12.15,3.23A30,30,0,0,0,495.79,61a58.32,58.32,0,0,0-7.29,17.6,104.23,104.23,0,0,0-2.75,25.62,62.22,62.22,0,0,0,1.66,15.35A32.87,32.87,0,0,0,492,130.27a19,19,0,0,0,6.83,6.19,18.14,18.14,0,0,0,8.41,2,24.86,24.86,0,0,0,12.15-3.24,30.23,30.23,0,0,0,10.42-10.1,58.05,58.05,0,0,0,7.28-17.57A104.49,104.49,0,0,0,539.82,81.87Z"/><path class="cls-1" d="M626.12,109l-.42,3.52a2.3,2.3,0,0,1-.6,1.23,1.86,1.86,0,0,1-1.37.46H608.87l-3.52,28.65h-5.7l3.52-28.65H560a2.08,2.08,0,0,1-1.48-.46,1.78,1.78,0,0,1-.56-1.23l-.29-3.17,54.21-66.17h5.77L609.51,109Zm-22.32,0,6.41-52.51a28.91,28.91,0,0,1,.84-4.65L564.66,109Z"/></g><path class="cls-1" d="M216.64,47.51h-5.17A44.47,44.47,0,0,1,209,57.39h6.93v18h-2V73.62h-4.36v2.52h-2V60.64a33.62,33.62,0,0,1-2.25,3.78l-1.64-1.34q4.5-6.06,5.88-15.57h-5.08V45.44h12.13Zm-2.77,24.16V59.42h-4.28V71.67Zm24.8,4.65h-16v2.26h-2.09V59.27c-1.21,1.11-2.1,1.91-2.68,2.4l-1.31-1.44q6.69-5.76,8.64-11H220v4.61h-2.05v-6.6h8.17c.58-1.59,1-2.81,1.19-3.66l1.89.45a22.54,22.54,0,0,1-1,3.21h9.61v6.6h-2V49.23h-8.32A30.3,30.3,0,0,1,222.68,57h7.07a22.93,22.93,0,0,0-1.39-3.4l1.84-.66A26.58,26.58,0,0,1,231.6,57h6.51v1.94h-6.88v3.71h6.29V64.5h-6.29v3.93h6.29v1.8h-6.29v4.16h7.44ZM229.2,62.63V58.92h-6.52v3.71Zm0,5.8V64.5h-6.52v3.93Zm0,6V70.23h-6.52v4.16Z"/><path class="cls-1" d="M256.27,49.76H243.91v-2h5.37a24.92,24.92,0,0,0-1.6-3.68l1.8-.68a22.14,22.14,0,0,1,1.91,4.36h4.88Zm-.76,5.8H244.79v-2h10.72Zm0,5.68H244.79v-2h10.72Zm-.76,16.35h-2V75.44h-5.28v3.11h-2V65.11h9.28Zm-2-4.16V67.16h-5.28v6.27Zm7.91-7.76a39.38,39.38,0,0,1-3.07,9.73l-1.84-.8a38.1,38.1,0,0,0,2.91-9.41ZM277.19,44.6c-.1,2.94-.28,5.8-.52,8.57a35.27,35.27,0,0,1-.61,4.94,3.33,3.33,0,0,1-.91,1.39,4,4,0,0,1-1.81.93,15.33,15.33,0,0,1-4,.17l-.61-2.13q1.92.09,2.76.09c1.35,0,2.24-.38,2.66-1.15s.76-4.36,1-10.78h-5.41q-.76,12.17-11.39,15.49l-1.21-1.64a17,17,0,0,0,7.37-4.65,24.53,24.53,0,0,0-5-4.28l1.32-1.4a24.68,24.68,0,0,1,4.83,4,17.29,17.29,0,0,0,2-7.52h-9.92v-2Zm-4,26.15a18.18,18.18,0,0,1-.79,5.42A2.83,2.83,0,0,1,271,77.75a11.67,11.67,0,0,1-3.71.37,6.29,6.29,0,0,1-3.58-.74,3.12,3.12,0,0,1-1-2.66V65.15h2v9.76a1,1,0,0,0,.52.91,7.09,7.09,0,0,0,2.94.34c1.21,0,2-.22,2.33-.68s.63-2.21.85-5.25Zm-2.47-4.51-1.44,1.39a33.86,33.86,0,0,0-4.57-5.39l1.33-1.45A27.47,27.47,0,0,1,270.76,66.24ZM278.67,74l-1.91.88a43.85,43.85,0,0,0-3.05-9.27l1.72-.77A49.47,49.47,0,0,1,278.67,74Z"/><path class="cls-1" d="M318.71,73H302.39v5.55h-2.07V73H284V71.06h16.33V67.82H288.11V55.19h26.52V67.82H302.39v3.24h16.32ZM299.59,52.47H286.84V44.6h12.75Zm-2-2V46.55H289v3.89Zm2.76,9.9V57.12H290.2v3.22Zm0,5.53V62.28H290.2v3.59Zm12.24-5.53V57.12H302.39v3.22Zm0,5.53V62.28H302.39v3.59ZM316,52.47H303.28V44.6H316Zm-2.09-1.95V46.59h-8.59v3.93Z"/><path class="cls-1" d="M341.43,48.43H330a24.55,24.55,0,0,1-4.41,4.28L324,51.14a20.94,20.94,0,0,0,6.77-7.75l2,.8a13.7,13.7,0,0,1-1.49,2.36h10.16Zm17.32,11.8h-3.67V64.8H342.52v2.79h14.4l0,1.83H342.52v2.86h16.19v1.79H342.52v4.51h-2V74.07H324V72.28h16.48V69.42H325.84V67.59h14.63V64.8H327.64V63h12.83V60.23H324V58.47h16.48V55.75H327.68V54h12.79V51.9h2V54h12.56v4.48h3.67Zm-21.87-8.07-2.17.7a12.63,12.63,0,0,0-2.48-2.56l2-.88A15.6,15.6,0,0,1,336.88,52.16Zm21.44-3.73H346.27a21.26,21.26,0,0,1-2.56,2.67L342,49.83a17.74,17.74,0,0,0,4.73-6.32l1.84.8a14.58,14.58,0,0,1-1.16,2.24h10.88Zm-5.29,10V55.75H342.52v2.72ZM353,63V60.23H342.52V63Zm.33-11.06-2.2.88a12.52,12.52,0,0,0-2.37-2.63l2-.8A13.17,13.17,0,0,1,353.36,51.94Z"/><path class="cls-1" d="M377.07,52.71h-5.19v8l3.83-1.56.48,2q-2.74,1.22-4.31,1.78v12.3a3.38,3.38,0,0,1-.85,2.67c-.57.48-1.8.71-3.7.71a18.49,18.49,0,0,1-1.9-.09l-.76-2.11c1.85.07,3.15.11,3.89.11a1.2,1.2,0,0,0,.88-.4,1.26,1.26,0,0,0,.39-.92V63.76a57.08,57.08,0,0,1-5.55,2l-.64-2c2.39-.74,4.46-1.48,6.19-2.21V52.71H364v-2h5.8V43.76h2.05v6.91h5.19Zm22.05,24.12-1.25,2a37.21,37.21,0,0,1-10.15-5.14,40,40,0,0,1-12,5.18L374.55,77q7.69-2,11.45-4.67a22.78,22.78,0,0,1-6.41-9.64h-1.31V60.52h17.48a17.15,17.15,0,0,1-6.25,11.83A39.61,39.61,0,0,0,399.12,76.83Zm-.68-18.71h-4c-2.09,0-3.13-1-3.13-3V46.67h-7.95q-.23,8.2-4.92,12.29l-1.68-1.49a10.43,10.43,0,0,0,3.3-4.45,22.53,22.53,0,0,0,1.21-8.38h12.17V55.11a.94.94,0,0,0,.28.53.79.79,0,0,0,.52.31h4.2Zm-5.25,4.55H381.92A17.94,17.94,0,0,0,387.83,71,15,15,0,0,0,393.19,62.67Z"/><path class="cls-1" d="M432.87,73H417l1,1.31a53.42,53.42,0,0,1-13.12,4.57l-1-1.9A42.44,42.44,0,0,0,416,73h-6.21V58.39h23ZM415.32,54.6h-11.2v-2h11.2ZM415,47.39H404.92V45.48H415Zm15.8,15.16V60.26H412v2.29Zm0,4.28V64.35H412v2.48Zm0,4.31V68.62H412v2.52Zm8.07-15.27-.88,2Q430.31,56.7,426,53.15a18.64,18.64,0,0,1-9.16,4.56l-1.08-1.92q7.36-1.12,10.16-6l2.19.39a5.63,5.63,0,0,1-.92,1.56Q431.27,55.07,438.87,55.87ZM438,48.55a32.15,32.15,0,0,1-3.75,4.53l-1.52-1.45a31.13,31.13,0,0,0,2.91-3.4H421a20.38,20.38,0,0,1-3.65,3.6L416,50.44a20.81,20.81,0,0,0,5.8-7l1.95.68-1.27,2.21H438Zm.61,28.57-1,1.84a76.16,76.16,0,0,0-11.6-3.36l1-1.8A72.66,72.66,0,0,1,438.64,77.12Z"/><path class="cls-1" d="M478.56,69.5H443.83v-2h3l-.16-20.8a35.68,35.68,0,0,0,7.95-2.91l1,1.8a47.85,47.85,0,0,1-6.92,2.67q-.07,2.63,0,4.59h6.08v2h-6c.05,1.78.05,3.52,0,5.23h5.76v2h-5.68v5.39h24.73c.08-3.11.11-4.93.11-5.45h-5.48V60h5.52c0-.85,0-2.59,0-5.23h-5.52v-2h5.52c.08-1.09.12-2.23.12-3.43,0-.67,0-1.28,0-1.84H468.4V45.56H476q-.24,15.8-.41,21.91h3Zm-21.37,3.17a42.76,42.76,0,0,1-11.35,6l-1.48-1.76a35.77,35.77,0,0,0,11.15-5.54ZM459.4,57A21.66,21.66,0,0,1,456,66.55l-1.72-1.32a17.12,17.12,0,0,0,3.24-8.72Zm7.07-8.67h-6.88c-.22,1.59-.43,3-.64,4.24h7.28Q466,63.23,465,64.85a3.44,3.44,0,0,1-3.27,1.63c-.83,0-1.39,0-1.68,0l-.68-2c.93,0,1.67.07,2.2.07a1.82,1.82,0,0,0,2-1.25,58.79,58.79,0,0,0,.65-8.71h-7.73q.66-3.44,1.72-11l1.93.19c-.09.86-.2,1.77-.33,2.74h6.64Zm11.64,28.63-1.51,1.45a62.42,62.42,0,0,0-11-5.65l1.44-1.5A66,66,0,0,1,478.11,76.94Z"/><path class="cls-1" d="M238.67,135.79l-.48,2.07q-3.81.1-5.94.1a58.58,58.58,0,0,1-10-.67,17.59,17.59,0,0,1-6.49-2.56,13.76,13.76,0,0,1-4.43-4.66,36.23,36.23,0,0,1-6.23,8.59l-1.64-1.54A31.66,31.66,0,0,0,212.11,121l2.17.23a58.43,58.43,0,0,1-1.93,6.49,12.74,12.74,0,0,0,8.61,7.09V117.47H208.91v-2.13h25v2.13H223.15v6.72H236v2H223.15v9a115.82,115.82,0,0,0,11.72.59C236.13,135.85,237.4,135.83,238.67,135.79ZM237.44,116h-2.09v-6.12H207.44V116h-2.16v-8.13h15a19.45,19.45,0,0,0-1.57-3.83l2.13-.44a19.36,19.36,0,0,1,1.6,4.27h15Z"/><path class="cls-1" d="M254.92,136.71h-2.09v-3.16h-5.56v4H245.2V106.1h9.72Zm-2.09-18V108.19h-5.56V118.7Zm0,12.78V120.71h-5.56v10.77Zm25-21.37h-9.31v5.8h8.24v2H258.07v-2h8.4v-5.8h-9.79V108h9.79v-4.38h2.09V108h9.31Zm.92,14.76h-4.43v10.36a2.84,2.84,0,0,1-1.1,2.66,9.11,9.11,0,0,1-4.23.66c-.63,0-1.4,0-2.31,0l-.84-2.15c1.29.09,2.42.13,3.4.13a6.08,6.08,0,0,0,2.5-.3,1.1,1.1,0,0,0,.53-1V124.87H256.68v-2.05h15.63v-3.71h2.05v3.71h4.43Zm-12,8.09L265,134a33,33,0,0,0-5.17-6.11l1.76-1.21A41.63,41.63,0,0,1,266.76,133Z"/><path class="cls-1" d="M318.67,135.79l-.48,2.07q-3.81.1-5.94.1a58.58,58.58,0,0,1-10-.67,17.59,17.59,0,0,1-6.49-2.56,13.76,13.76,0,0,1-4.43-4.66,36.23,36.23,0,0,1-6.23,8.59l-1.64-1.54A31.66,31.66,0,0,0,292.11,121l2.17.23a58.43,58.43,0,0,1-1.93,6.49,12.74,12.74,0,0,0,8.61,7.09V117.47h-12v-2.13h25v2.13H303.15v6.72H316v2H303.15v9a115.82,115.82,0,0,0,11.72.59C316.13,135.85,317.4,135.83,318.67,135.79ZM317.44,116h-2.09v-6.12H287.44V116h-2.16v-8.13h15a19.45,19.45,0,0,0-1.57-3.83l2.13-.44a19.36,19.36,0,0,1,1.6,4.27h15Z"/><path class="cls-1" d="M341.51,124.46l-1,1.6q-3.11-2.18-7.83-5a35.64,35.64,0,0,1-8,5.45l-1-1.6a42.69,42.69,0,0,0,7.24-4.88c-1.31-.75-2.45-1.38-3.4-1.88a21.87,21.87,0,0,1-1.93,2.11l-1.27-1.3a28.81,28.81,0,0,0,5.64-8.7l1.84.65c-.34.75-.67,1.42-1,2h7.68v1.84a53.21,53.21,0,0,1-4.28,4.92Q338.63,122.35,341.51,124.46Zm-1.43-12.59H338v-3.4H326.55v3.47h-2v-5.46h7.33a11.68,11.68,0,0,0-1.37-2.33l1.84-.72a18.8,18.8,0,0,1,1.56,3h6.17Zm-2,26.68h-2v-2h-7.33v2h-2.07V126.67h11.43Zm-2.15-23.79h-6.17c-.27.5-.65,1.12-1.11,1.83,1.23.62,2.48,1.29,3.75,2A32.4,32.4,0,0,0,335.92,114.76ZM336,134.6v-5.94h-7.33v5.94Zm22.6-28h-7.41a43.72,43.72,0,0,1-1.27,4.88h6.72V131h-8.85l1.2,1.21a35.58,35.58,0,0,1-7.11,6.42l-1.49-1.46a28.9,28.9,0,0,0,6.92-6.17H343V111.51h4.88a23.74,23.74,0,0,0,1.33-4.88h-7.48v-1.91h16.92Zm-3.93,10.45v-3.69h-9.63v3.69Zm0,5.7v-3.9h-9.63v3.9Zm0,6.37v-4.47h-9.63v4.47Zm4.16,8.09-1.43,1.6a37.32,37.32,0,0,0-5.93-5.41l1.25-1.53A32.88,32.88,0,0,1,358.87,137.24Z"/><path class="cls-1" d="M377.07,112.71h-5.19v8l3.83-1.56.48,2q-2.74,1.21-4.31,1.78v12.3a3.38,3.38,0,0,1-.85,2.67c-.57.48-1.8.71-3.7.71a18.49,18.49,0,0,1-1.9-.09l-.76-2.11c1.85.07,3.15.11,3.89.11a1.2,1.2,0,0,0,.88-.4,1.26,1.26,0,0,0,.39-.92V123.76a57.08,57.08,0,0,1-5.55,2l-.64-2c2.39-.74,4.46-1.48,6.19-2.21v-8.84H364v-2h5.8v-6.91h2.05v6.91h5.19Zm22.05,24.12-1.25,2a37.21,37.21,0,0,1-10.15-5.14,40,40,0,0,1-12,5.18l-1.21-1.9q7.69-2,11.45-4.67a22.78,22.78,0,0,1-6.41-9.64h-1.31v-2.15h17.48a17.15,17.15,0,0,1-6.25,11.83A39.61,39.61,0,0,0,399.12,136.83Zm-.68-18.71h-4c-2.09,0-3.13-1-3.13-3v-8.44h-7.95q-.23,8.2-4.92,12.29l-1.68-1.49a10.43,10.43,0,0,0,3.3-4.45,22.53,22.53,0,0,0,1.21-8.38h12.17v10.47a.94.94,0,0,0,.28.53.79.79,0,0,0,.52.31h4.2Zm-5.25,4.55H381.92a17.94,17.94,0,0,0,5.91,8.32A15,15,0,0,0,393.19,122.67Z"/><path class="cls-1" d="M432.87,133H417l1,1.31a53.42,53.42,0,0,1-13.12,4.57l-1-1.9A42.44,42.44,0,0,0,416,133h-6.21V118.39h23ZM415.32,114.6h-11.2v-2h11.2Zm-.32-7.21H404.92v-1.91H415Zm15.8,15.16v-2.29H412v2.29Zm0,4.28v-2.48H412v2.48Zm0,4.31v-2.52H412v2.52Zm8.07-15.27-.88,1.95q-7.68-1.12-11.95-4.67a18.64,18.64,0,0,1-9.16,4.56l-1.08-1.92q7.36-1.12,10.16-6l2.19.39a5.63,5.63,0,0,1-.92,1.56Q431.27,115.07,438.87,115.87Zm-.84-7.32a32.15,32.15,0,0,1-3.75,4.53l-1.52-1.45a31.13,31.13,0,0,0,2.91-3.4H421a20.38,20.38,0,0,1-3.65,3.6L416,110.44a20.81,20.81,0,0,0,5.8-7l1.95.68-1.27,2.21H438Zm.61,28.57-1,1.84a76.16,76.16,0,0,0-11.6-3.36l1-1.8A72.66,72.66,0,0,1,438.64,137.12Z"/><path class="cls-1" d="M478.79,116.28l-1.27,1.87a56.77,56.77,0,0,1-6.44-3.39v1.91h-8.89v5.68h14.28v2H462.19V135.6h15.12v2H445.43v-2h14.69V124.39H446.19v-2h13.93v-5.68H451.6V114.6a50,50,0,0,1-6.52,3.36l-1.37-1.86q11.22-4.41,17.29-12.59l2.23.76-.55.68A40,40,0,0,0,478.79,116.28ZM455.67,133l-2,.8a32.35,32.35,0,0,0-4-6.64l1.89-.88A34,34,0,0,1,455.67,133Zm15-18.54a40,40,0,0,1-9.36-8,40.91,40.91,0,0,1-9.51,8Zm2.61,12.85a33.78,33.78,0,0,1-4.49,6.76L467,133a29.78,29.78,0,0,0,4.55-6.6Z"/><path class="cls-1" d="M501.51,124.46l-1,1.6q-3.11-2.18-7.83-5a35.64,35.64,0,0,1-8,5.45l-1-1.6a42.69,42.69,0,0,0,7.24-4.88c-1.31-.75-2.45-1.38-3.4-1.88a21.87,21.87,0,0,1-1.93,2.11l-1.27-1.3a28.81,28.81,0,0,0,5.64-8.7l1.84.65c-.34.75-.67,1.42-1,2h7.68v1.84a53.21,53.21,0,0,1-4.28,4.92Q498.63,122.35,501.51,124.46Zm-1.43-12.59H498v-3.4H486.55v3.47h-2v-5.46h7.33a11.68,11.68,0,0,0-1.37-2.33l1.84-.72a18.8,18.8,0,0,1,1.56,3h6.17Zm-2,26.68h-2v-2h-7.33v2h-2.07V126.67h11.43Zm-2.15-23.79h-6.17c-.27.5-.65,1.12-1.11,1.83,1.23.62,2.48,1.29,3.75,2A32.4,32.4,0,0,0,495.92,114.76ZM496,134.6v-5.94h-7.33v5.94Zm22.6-28h-7.41a43.72,43.72,0,0,1-1.27,4.88h6.72V131h-8.85l1.2,1.21a35.58,35.58,0,0,1-7.11,6.42l-1.49-1.46a28.9,28.9,0,0,0,6.92-6.17H503V111.51h4.88a23.74,23.74,0,0,0,1.33-4.88h-7.48v-1.91h16.92Zm-3.93,10.45v-3.69h-9.63v3.69Zm0,5.7v-3.9h-9.63v3.9Zm0,6.37v-4.47h-9.63v4.47Zm4.16,8.09-1.43,1.6a37.32,37.32,0,0,0-5.93-5.41l1.25-1.53A32.88,32.88,0,0,1,518.87,137.24Z"/><path class="cls-1" d="M77,112H93.89a1.62,1.62,0,0,0,0-3.23H77A1.62,1.62,0,0,0,77,112Z"/><path class="cls-1" d="M77,120.22H98.8a1.61,1.61,0,0,0,0-3.22H77a1.61,1.61,0,0,0,0,3.22Z"/><path class="cls-1" d="M93.89,47.51a3,3,0,1,0,3,3A2.95,2.95,0,0,0,93.89,47.51Z"/><path class="cls-1" d="M159.32,94.76,153,89.34a4,4,0,0,0-5.63.46h0l-23.27,27.48-13.78-15.14a3.92,3.92,0,0,0-2.77-1.29,4.09,4.09,0,0,0-2.87,1l-6.16,5.65a4,4,0,0,0-.25,5.65l14.5,15.93H66.43V64H74.3L74,66.18A1.61,1.61,0,0,0,75.6,68h36.59a1.61,1.61,0,0,0,1.59-1.82l-.29-2.2h7.87v47.89a1.61,1.61,0,1,0,3.21,0V62.37a1.62,1.62,0,0,0-1.6-1.62h-9.89l-.58-4.42h14.85a1.5,1.5,0,0,1,1.5,1.5v46.42a1.61,1.61,0,1,0,3.21,0V57.83a4.72,4.72,0,0,0-4.71-4.73H112.08l-.36-2.84a1.62,1.62,0,0,0-1.6-1.41H104.2a10.42,10.42,0,0,0-20.61,0H77.67a1.6,1.6,0,0,0-1.59,1.41l-.37,2.84H60.44a4.72,4.72,0,0,0-4.71,4.73v77.44A4.72,4.72,0,0,0,60.44,140h64a4,4,0,0,0,3-1.41l32.34-38.18a4,4,0,0,0,.94-2.92A4,4,0,0,0,159.32,94.76ZM79.08,52.08h6a1.62,1.62,0,0,0,1.6-1.62,7.22,7.22,0,1,1,14.43,0,1.62,1.62,0,0,0,1.6,1.62h6l1.65,12.7H77.43ZM58.94,135.27V57.83a1.5,1.5,0,0,1,1.5-1.5H75.29l-.58,4.42H64.82a1.62,1.62,0,0,0-1.6,1.62v68.37a1.61,1.61,0,0,0,1.6,1.61h50.86l4,4.43H60.44A1.51,1.51,0,0,1,58.94,135.27Zm98.39-37L125,136.5a.83.83,0,0,1-.58.28.77.77,0,0,1-.59-.26L100.61,111a.79.79,0,0,1-.2-.56.83.83,0,0,1,.25-.54l6.16-5.65a.78.78,0,0,1,.52-.2h0a.74.74,0,0,1,.54.25l16.24,17.84,25.63-30.27h0a.74.74,0,0,1,.53-.27.79.79,0,0,1,.57.18l6.35,5.42a.74.74,0,0,1,.27.53A.79.79,0,0,1,157.33,98.32Z"/><path class="cls-1" d="M103.06,93.39a5.7,5.7,0,0,0-1.14-3.72,6.85,6.85,0,0,0-2.74-2,32.16,32.16,0,0,0-4.09-1.25c-1.18-.3-2.11-.56-2.77-.79a4.59,4.59,0,0,1-1.64-.94A2,2,0,0,1,90,83.09a2.6,2.6,0,0,1,1.11-2.19,4.86,4.86,0,0,1,3-.83,7.27,7.27,0,0,1,2.72.45,15.8,15.8,0,0,1,2.52,1.34l2.39-3.47A12.76,12.76,0,0,0,96,76.06V73.41H91.84v2.71a9.29,9.29,0,0,0-5.15,2.54,6.56,6.56,0,0,0-2,4.78,5.64,5.64,0,0,0,1.18,3.77,6.88,6.88,0,0,0,2.82,2.06,35.11,35.11,0,0,0,4.17,1.31c1.17.32,2.06.58,2.67.79a4.35,4.35,0,0,1,1.56.86,1.76,1.76,0,0,1,.63,1.4,2.5,2.5,0,0,1-1.09,2.18,5.39,5.39,0,0,1-3.15.78,10.39,10.39,0,0,1-3-.43,13.68,13.68,0,0,1-3-1.36l-2.36,3.47a12.13,12.13,0,0,0,3.09,1.58,15.53,15.53,0,0,0,3.65.79v2.61h4.1v-2.71a9.19,9.19,0,0,0,5.11-2.46A6.36,6.36,0,0,0,103.06,93.39Z"/></g></g></svg>