<svg xmlns="http://www.w3.org/2000/svg" viewBox="0 0 660 241.98"><defs><style>.cls-1{fill:#fff;}.cls-2{fill:#2a3646;}.cls-3{opacity:0.1;}</style></defs><title>flow2-min</title><g id="圖層_2" data-name="圖層 2"><g id="架構"><polygon class="cls-1" points="123.74 227.84 75.91 180 61.76 180 123.74 241.98 185.72 180 171.57 180 123.74 227.84"/><path class="cls-2" d="M631.72,0H28.28A28.28,28.28,0,0,0,0,28.28V151.72A28.28,28.28,0,0,0,28.28,180H75.91l47.83,47.83L171.58,180H631.72A28.28,28.28,0,0,0,660,151.72V28.28A28.28,28.28,0,0,0,631.72,0Z"/><g class="cls-3"><path class="cls-1" d="M546.58,82.22a101.3,101.3,0,0,1-3.28,27.31,60.52,60.52,0,0,1-8.8,19.26,36.76,36.76,0,0,1-12.77,11.4A32.46,32.46,0,0,1,506.59,144a24.58,24.58,0,0,1-11-2.5,23.93,23.93,0,0,1-8.73-7.5,38.42,38.42,0,0,1-5.74-12.49,66.1,66.1,0,0,1-2.07-17.5,101,101,0,0,1,3.27-27.24,61.11,61.11,0,0,1,8.8-19.29A37.09,37.09,0,0,1,503.88,46a32,32,0,0,1,15.17-3.8,23.62,23.62,0,0,1,19.68,10,38,38,0,0,1,5.77,12.53A66.47,66.47,0,0,1,546.58,82.22Zm-6.76-.35a62.24,62.24,0,0,0-1.66-15.31,32.73,32.73,0,0,0-4.57-10.63,19.31,19.31,0,0,0-6.83-6.23,17.92,17.92,0,0,0-8.41-2,25,25,0,0,0-12.15,3.23A30,30,0,0,0,495.79,61a58.32,58.32,0,0,0-7.29,17.6,104.23,104.23,0,0,0-2.75,25.62,62.22,62.22,0,0,0,1.66,15.35A32.87,32.87,0,0,0,492,130.27a19,19,0,0,0,6.83,6.19,18.14,18.14,0,0,0,8.41,2,24.86,24.86,0,0,0,12.15-3.24,30.23,30.23,0,0,0,10.42-10.1,58.05,58.05,0,0,0,7.28-17.57A104.49,104.49,0,0,0,539.82,81.87Z"/><path class="cls-1" d="M616.19,136.78a2.14,2.14,0,0,1,1.69.63,2,2,0,0,1,.43,1.69l-.5,3.8H558.47l.35-2.32a3.68,3.68,0,0,1,.53-1.55,5.51,5.51,0,0,1,1.09-1.34l35.41-34.49q4.86-4.78,9-9.12a67.69,67.69,0,0,0,7.1-8.76,41.3,41.3,0,0,0,4.69-9.15,30.45,30.45,0,0,0,1.69-10.28,21,21,0,0,0-1.41-8.06,15.34,15.34,0,0,0-9.47-9,20.87,20.87,0,0,0-6.79-1.09,22.68,22.68,0,0,0-8.1,1.44,24.3,24.3,0,0,0-6.9,4,25.9,25.9,0,0,0-5.35,6.16,31.83,31.83,0,0,0-3.52,7.89,3.59,3.59,0,0,1-1.44,2,3.71,3.71,0,0,1-2.22.35l-3.31-.49a41.67,41.67,0,0,1,4.65-11.34,33.26,33.26,0,0,1,7.18-8.44A30.57,30.57,0,0,1,590.85,44a31.48,31.48,0,0,1,10.77-1.83,27.77,27.77,0,0,1,9.12,1.47A21.29,21.29,0,0,1,618.17,48a20.28,20.28,0,0,1,5,7.21,25.62,25.62,0,0,1,1.83,10,34,34,0,0,1-2,11.82,43.62,43.62,0,0,1-5.35,10.14,77.26,77.26,0,0,1-7.81,9.33q-4.44,4.53-9.36,9.32l-32.81,32a38,38,0,0,1,4.68-.84,41.38,41.38,0,0,1,4.82-.28Z"/></g><path class="cls-1" d="M238.83,103.18l-.76,2H224.59a30.06,30.06,0,0,1-9.24-1.13,13.53,13.53,0,0,1-5.68-3.64,17.71,17.71,0,0,1-4.43,5.45l-1.45-1.29Q209,100,210.71,91.75h-5.88v-2a62.6,62.6,0,0,0,5.37-8.11h-6.29v-2h8.53v2a93,93,0,0,1-5.13,8.15h5.37v2a26.73,26.73,0,0,1-2.13,6.8q3.76,4.67,13.16,4.67ZM212,76.71l-1.52,1.35a53,53,0,0,0-5.43-5.47l1.31-1.52A41.75,41.75,0,0,1,212,76.71Zm26.2,18.6H213.56v-2h6.56V90.23h-5.57v-2h5.57V85.7h2v2.52h7.33V85.7h2v2.52h5.8v2h-5.8v3.12h6.72Zm-15.32,2.2A39.28,39.28,0,0,1,215.8,101l-1.36-1.68a38,38,0,0,0,7-3.36Zm2.29-14.16q-3.62.89-9.77,2.19l-.8-1.8a1.68,1.68,0,0,0,.72-1.15V71.75h8.85v7.52h-6.89v3.87c2.51-.5,5.05-1.08,7.61-1.76Zm-2.93-6V73.66h-5V77.3Zm7.21,16V90.23h-7.33v3.12Zm8.2-8.92H229.4a2.07,2.07,0,0,1-1.31-.71,1.91,1.91,0,0,1-.74-1.34V71.75h9.08v7.52h-7.11v2.6a.76.76,0,0,0,.23.47.69.69,0,0,0,.45.25h7.68Zm-.49,14.88-1,1.64a48,48,0,0,0-7.55-3.2l1.07-1.68A40.5,40.5,0,0,1,237.19,99.31Zm-2.75-22V73.66h-5.12V77.3Z"/><path class="cls-1" d="M254.12,79.9h-3.41v8.65c1.27-.54,2.3-1,3.08-1.41l.16,2.13c-.72.38-1.8.85-3.24,1.43v12.4a2.41,2.41,0,0,1-.77,1.78,3.7,3.7,0,0,1-2.61.74h-1.78l-.59-2.07c.95.08,1.91.11,2.87.11a.86.86,0,0,0,1-1V91.46q-2.52,1-4.63,1.72l-.49-2c1.4-.41,3.1-1,5.12-1.75V79.9H244v-2h4.84V70.66h1.92v7.28h3.41Zm24.63,20.6H267.83v5.2h-2.07v-5.2H254.83V98.59h10.93V95.38h-9.37V93.43h5.33a26.5,26.5,0,0,0-1.6-4.24h-4.8V87.3H265.8v-3H257V82.38h8.77V79.54h-10V71.63h22v7.91h-10v2.84h8.56v1.89h-8.56v3h10.32v1.89h-4.87c-.57,1.43-1.2,2.85-1.89,4.24H277v1.95h-9.17v3.21h10.92Zm-16.4-22.83V73.51h-4.63v4.16ZM271,89.19h-8.69a40.49,40.49,0,0,1,1.48,4.24h5.29A29,29,0,0,0,271,89.19Zm-1.88-11.52V73.51H264.4v4.16Zm6.6,0V73.51h-4.64v4.16Z"/><path class="cls-1" d="M295.76,96.18q-4.33,2.49-11.32,6l-.88-1.76q3.68-1.76,5.56-2.87v-11h-4.64v-2h4.64V75.38h-5.29V73.51h11.93v1.87h-4.64v9.16h4.16v2h-4.16v10c1.36-.68,2.82-1.49,4.35-2.44Zm23,8.72h-23v-2h10.45V97.22h-8.93v-2h8.93V90.31h-8.6V71.71h19.36v18.6h-8.73v4.92h9.2v2h-9.2v5.72h10.56ZM306.16,80V73.66h-6.57V80Zm0,8.32V81.91h-6.57v6.36ZM314.87,80V73.66h-6.68V80Zm0,8.32V81.91h-6.68v6.36Z"/><path class="cls-1" d="M339.12,96.18h-8.49l1.05.73a35.32,35.32,0,0,1-6.05,8.75L324,104.23a29.49,29.49,0,0,0,5.76-8H326V72.55h13.16Zm-2.05-16.64v-5h-9v5Zm0,7.33V81.54h-9v5.33Zm0,7.32V88.86h-9v5.33Zm3.56,9.87-1.88,1.13a37.53,37.53,0,0,0-4.59-6.92l1.88-1A48.74,48.74,0,0,1,340.63,104.06Zm18-23.87H355v22.44a2.75,2.75,0,0,1-.73,1.91,2.7,2.7,0,0,1-1.74.94c-.67.08-2.53.1-5.57.06l-.73-2.15c1.44.1,2.59.16,3.48.16,1.65,0,2.6-.14,2.84-.41a1.22,1.22,0,0,0,.36-.76V83.86a44.76,44.76,0,0,1-11.4,14.36L340,96.67a39.08,39.08,0,0,0,12.48-16.48h-11.6V78.1h12.07V70.66H355V78.1h3.64Z"/><path class="cls-1" d="M393.67,105.73h-2.12v-2.67H370.76v2.67H368.6v-34h25.07ZM391.55,81.5V73.74H370.76V81.5Zm0,9.57V83.66H370.76v7.41Zm0,9.92V93.27H370.76V101Z"/><path class="cls-1" d="M416.16,88.22l-1.57,1.36a25.45,25.45,0,0,0-3.16-5.23V105.7h-2V86.26a60.32,60.32,0,0,1-4.32,8.36l-1.44-1.68a42.33,42.33,0,0,0,5.56-12.07h-5.08v-2h5.28V70.73h2V78.9h4v2h-4v.47A38.17,38.17,0,0,1,416.16,88.22Zm7.59,10.33a35.49,35.49,0,0,1-7.11,6.31l-1.4-1.59a30.78,30.78,0,0,0,6.95-6.09ZM438.67,95H428.36V105.7h-2.09V95H415.71V93.06h23Zm-.07-21.48h-7.33v3h6.12v8.73H417.07V76.54h6v-3H416v-2H438.6ZM437.23,90H417.39V88.06h19.84Zm-14.12-6.56v-5h-4v5Zm6.13-6.85v-3h-4.08v3Zm0,6.85v-5h-4.08v5Zm9.59,20-1.48,1.43a42.94,42.94,0,0,0-6.59-6.08l1.39-1.44A55.57,55.57,0,0,1,438.83,103.39Zm-3.44-25h-4.12v5h4.12Z"/><path class="cls-1" d="M110.17,91.92a1.61,1.61,0,0,0-1.61,1.61,3.86,3.86,0,1,1-3.86-3.86,1.61,1.61,0,1,0,0-3.22,7.08,7.08,0,1,0,7.08,7.08A1.61,1.61,0,0,0,110.17,91.92Z"/><path class="cls-1" d="M146.09,63.66a1.58,1.58,0,0,0,1.14-.48l10.53-10.52a1.61,1.61,0,0,0-1-2.74L149.2,49l-.89-7.6a1.61,1.61,0,0,0-2.74-1L135.05,51a1.61,1.61,0,0,0-.47,1.32l.74,6.29a46.53,46.53,0,1,0,4.3,4.3l6.29.73Zm-.6-18.55.56,4.79-7.61,7.61-.56-4.79Zm-9.14,46.81a31.6,31.6,0,0,0-8.14-19.62l8.17-8.17a43.1,43.1,0,0,1,11.53,27.79ZM125.93,70a31.6,31.6,0,0,0-19.61-8.14V50.32A43.09,43.09,0,0,1,134.1,61.85Zm-10,25.12h2.89a14.24,14.24,0,0,1-12.5,12.5V104.8a1.62,1.62,0,0,0-3.23,0v2.84a14.24,14.24,0,0,1-12.51-12.5h2.85a1.61,1.61,0,0,0,0-3.22H90.58a14.26,14.26,0,0,1,12.51-12.51v2.84a1.62,1.62,0,1,0,3.23,0V79.41a14.13,14.13,0,0,1,7.22,3l-10,10a1.61,1.61,0,0,0,0,2.28,1.64,1.64,0,0,0,1.14.47,1.62,1.62,0,0,0,1.14-.47l10-10a14.13,14.13,0,0,1,3,7.23h-2.89a1.61,1.61,0,1,0,0,3.22Zm-.1-15a17.33,17.33,0,0,0-9.51-4v-11a28.34,28.34,0,0,1,17.32,7.19Zm-12.74-4A17.46,17.46,0,0,0,87.34,91.92h-11a28.49,28.49,0,0,1,26.8-26.8Zm-15.75,19a17.47,17.47,0,0,0,15.75,15.75v11a28.5,28.5,0,0,1-26.8-26.8Zm19,15.75a17.46,17.46,0,0,0,15.74-15.75h11.05a28.5,28.5,0,0,1-26.79,26.8Zm15.74-19a17.33,17.33,0,0,0-4-9.52l7.81-7.81a28.34,28.34,0,0,1,7.19,17.33Zm-19-41.6V61.88a31.73,31.73,0,0,0-30,30H61.5A43.29,43.29,0,0,1,103.09,50.32ZM61.5,95.14H73.06a31.72,31.72,0,0,0,30,30v11.56A43.27,43.27,0,0,1,61.5,95.14Zm44.82,41.59V125.17a31.73,31.73,0,0,0,30-30h11.56A43.29,43.29,0,0,1,106.32,136.73Zm34.4-76.94,7.61-7.61,4.79.56-7.61,7.61Z"/></g></g></svg>