<svg xmlns="http://www.w3.org/2000/svg" viewBox="0 0 120.66 120.47"><defs><style>.cls-1{fill:#d72a17;}</style></defs><title>icon-kv5</title><g id="圖層_2" data-name="圖層 2"><g id="text"><path class="cls-1" d="M64.87,53.89a1.87,1.87,0,0,1-.94-.25,1.93,1.93,0,0,1-1-1.7V2A1.93,1.93,0,0,1,63.55.52,1.85,1.85,0,0,1,65,0a60.27,60.27,0,0,1,43.82,24.26,2,2,0,0,1-.54,2.81L65.9,53.59A1.9,1.9,0,0,1,64.87,53.89ZM66.81,4.08V48.44l37.62-23.52A56.39,56.39,0,0,0,66.81,4.08Z"/><path class="cls-1" d="M85.77,114.64a1.94,1.94,0,0,1-.71-.13,2,2,0,0,1-1.1-1.1L64.12,62.7a2,2,0,0,1,.78-2.36l46.16-28.86a2,2,0,0,1,1.54-.22,1.93,1.93,0,0,1,1.21,1,60.33,60.33,0,0,1-27.19,82.22A2,2,0,0,1,85.77,114.64ZM68.33,62.78,86.8,110a56.85,56.85,0,0,0,30-49.86,55.87,55.87,0,0,0-5.46-24.23Z"/><path class="cls-1" d="M60.33,120.47A60.32,60.32,0,0,1,55.64,0,1.94,1.94,0,0,1,57.73,2V60.14a2.62,2.62,0,0,0,.18,1L79.12,115.3a2,2,0,0,1-.06,1.56,2,2,0,0,1-1.19,1A60.47,60.47,0,0,1,60.33,120.47ZM53.84,4.08A56.44,56.44,0,1,0,74.72,114.72L54.29,62.5h0a6.38,6.38,0,0,1-.45-2.36Z"/></g></g></svg>