<?xml version="1.0" encoding="utf-8"?>
<!-- Generator: Adobe Illustrator 23.0.2, SVG Export Plug-In . SVG Version: 6.00 Build 0)  -->
<svg version="1.1" id="圖層_1" xmlns="http://www.w3.org/2000/svg" xmlns:xlink="http://www.w3.org/1999/xlink" x="0px" y="0px"
	 viewBox="0 0 279.8 46.2" style="enable-background:new 0 0 279.8 46.2;" xml:space="preserve">
<style type="text/css">
	.st0{fill:#FFFFFF;}
	.st1{fill:#E72410;}
	.st2{fill:#E42310;}
	.st3{fill:none;stroke:#FFFFFF;stroke-width:1.3531;stroke-miterlimit:10;}
</style>
<title>logo</title>
<g>
	<g>
		<path class="st0" d="M208.9,20.8c-2.3,0-4.2,0.9-5.8,2.8v-8.7H200V38h3.1v-2.3c1.5,1.8,3.5,2.7,5.8,2.7c3.9,0,8-3.1,8-8.8
			C216.9,23.9,212.8,20.8,208.9,20.8z M213.7,29.6c0,3.4-2.2,5.8-5.3,5.8c-2.7,0-5.4-2.2-5.4-5.9s2.8-5.8,5.4-5.8
			C211.5,23.8,213.7,26.2,213.7,29.6z"/>
		<path class="st0" d="M224.4,24.2v-3.1h-3.1V38h3.1v-6c0-4.3,2.3-8,6-8h0.6v-3.1h-0.4C228,20.7,225.8,22,224.4,24.2z"/>
		<path class="st0" d="M272.6,20.8c-2.1,0-3.8,0.8-5.1,2.3v-2h-3.1V38h3.1v-9.6c0-2.7,1.8-4.7,4.4-4.7s4,1.6,4,4.5V38h3.1V27.6
			C279.1,23.5,276.5,20.8,272.6,20.8z"/>
		<path class="st1" d="M192.7,14.9c-1.3,0-2.4,1.1-2.4,2.4s1.1,2.4,2.4,2.4c1.3,0,2.4-1.1,2.4-2.4C195.1,16,194,14.9,192.7,14.9z"/>
		<rect x="191" y="21.8" class="st1" width="3.3" height="16.2"/>
		<path class="st1" d="M257.6,9c-1.3,0-2.4,1.1-2.4,2.4s1.1,2.4,2.4,2.4s2.4-1.1,2.4-2.4C260.1,10.1,259,9,257.6,9z"/>
		<rect x="256" y="15.9" class="st1" width="3.3" height="22.1"/>
		<g>
			<path class="st1" d="M243.6,25.1c-0.8,0-1.5,0.4-1.9,1h-1.5h-3.6v0.1l-1.8,2.9l0,0l-5.7,8.9h3.6l5.7-8.9h3.4c0.4,0.6,1.1,1,1.9,1
				c1.3,0,2.4-1.1,2.4-2.4C246.1,26.2,245,25.1,243.6,25.1z"/>
			<path class="st1" d="M250.9,34.1V9l0,0l0,0h-3.7l-9.1,14.3h3.7l5.8-9.1v19.9c-0.5,0.4-0.8,1.1-0.8,1.8c0,1.3,1.1,2.4,2.4,2.4
				c1.3,0,2.4-1.1,2.4-2.4C251.8,35.2,251.4,34.5,250.9,34.1z"/>
		</g>
	</g>
	<g>
		<g>
			<g>
				<path class="st0" d="M54.2,41.1c0,1.2-0.4,2.1-1.1,2.8c-0.8,0.7-1.8,1-3.1,1h-4.2v-12H50c1.2,0,2.1,0.2,2.6,0.6
					c0.5,0.4,0.8,1,0.8,1.8c0,0.7-0.2,1.2-0.5,1.6c-0.3,0.4-0.8,0.6-1.4,0.8c0.8,0.1,1.5,0.5,2,1C54,39.3,54.2,40.1,54.2,41.1z
					 M50.8,36c0-0.5-0.1-0.8-0.4-1c-0.3-0.2-0.6-0.3-1.1-0.3h-0.9v2.6h0.9c0.5,0,0.9-0.1,1.2-0.4C50.7,36.7,50.8,36.4,50.8,36z
					 M51.5,41c0-0.6-0.2-1.2-0.5-1.5c-0.4-0.4-0.9-0.6-1.7-0.6h-0.9v4.3h1.1c0.8,0,1.3-0.2,1.6-0.6C51.4,42.2,51.5,41.7,51.5,41z"/>
				<path class="st0" d="M63.6,44.9h-2.4v-1.2c-0.2,0.4-0.5,0.7-1,0.9s-1,0.4-1.6,0.4c-1,0-1.8-0.3-2.3-0.8s-0.8-1.3-0.8-2.3v-0.2
					c0-1,0.3-1.8,1-2.4c0.7-0.6,1.6-0.8,2.8-0.8c0.4,0,0.7,0.1,1,0.2c0.3,0.1,0.6,0.2,0.8,0.4v-0.9c0-0.3-0.1-0.6-0.4-0.8
					c-0.3-0.2-0.7-0.3-1.2-0.3c-0.6,0-1.1,0.1-1.5,0.2c-0.4,0.1-0.8,0.3-1.1,0.5v-1.6c0.4-0.2,0.9-0.3,1.4-0.4
					c0.5-0.1,1.1-0.2,1.9-0.2c1.2,0,2,0.3,2.6,0.8s0.8,1.4,0.8,2.5V44.9z M61.2,41.8v-0.2c0-0.6-0.1-1-0.4-1.3
					c-0.3-0.3-0.6-0.4-1.1-0.4s-0.8,0.1-1.1,0.4c-0.3,0.3-0.4,0.7-0.4,1.3v0.2c0,0.6,0.1,1,0.4,1.2c0.3,0.2,0.7,0.3,1.1,0.3
					c0.4,0,0.7-0.1,1-0.4C61,42.8,61.2,42.4,61.2,41.8z"/>
				<path class="st0" d="M73.8,44.9h-2.5v-6.4c0-0.2-0.1-0.5-0.3-0.7c-0.2-0.2-0.5-0.3-0.9-0.3s-0.7,0.1-1,0.2
					c-0.3,0.2-0.5,0.3-0.7,0.6v6.6h-2.5v-9.1h2.4v1.5c0.2-0.4,0.5-0.8,1.1-1.1c0.5-0.3,1.2-0.5,1.9-0.5c0.8,0,1.4,0.2,1.8,0.7
					s0.7,1.2,0.7,2.2V44.9z"/>
				<path class="st0" d="M84.6,44.9h-3l-2.9-3.7v3.7h-2.5v-12h2.5v6.5l3-3.7H84l-3.5,4.1L84.6,44.9z"/>
				<path class="st0" d="M97.1,41.3c0,1.3-0.4,2.2-1.3,2.8c-0.8,0.6-2,0.9-3.5,0.9c-0.9,0-1.6-0.1-2.2-0.2c-0.6-0.1-1.1-0.2-1.5-0.4
					v-2.1c0.3,0.2,0.8,0.4,1.4,0.5c0.6,0.2,1.3,0.2,1.9,0.2c0.9,0,1.5-0.1,1.8-0.3s0.5-0.6,0.5-1.2c0-0.3-0.1-0.7-0.4-0.9
					c-0.2-0.3-0.9-0.6-2-1.1c-0.9-0.4-1.6-0.8-2.1-1.4c-0.5-0.6-0.7-1.3-0.7-2.3c0-0.9,0.4-1.7,1.2-2.3c0.8-0.6,1.9-1,3.2-1
					c0.7,0,1.3,0.1,1.8,0.2c0.5,0.1,0.9,0.2,1.1,0.3v2c-0.5-0.1-0.9-0.2-1.4-0.3c-0.4-0.1-0.9-0.1-1.4-0.1c-0.7,0-1.2,0.1-1.5,0.3
					s-0.5,0.5-0.5,0.8c0,0.4,0.1,0.7,0.4,1c0.2,0.2,0.9,0.5,2.1,1c1.1,0.4,1.8,0.9,2.3,1.5C96.9,39.8,97.1,40.5,97.1,41.3z"/>
				<path class="st0" d="M101.3,33.7c0,0.4-0.1,0.7-0.4,1s-0.6,0.4-0.9,0.4c-0.4,0-0.7-0.1-0.9-0.4c-0.3-0.3-0.4-0.6-0.4-1
					s0.1-0.7,0.4-0.9c0.3-0.3,0.6-0.4,0.9-0.4c0.4,0,0.7,0.1,0.9,0.4C101.2,33.1,101.3,33.4,101.3,33.7z M101.3,44.9h-2.5v-9.1h2.5
					V44.9z"/>
				<path class="st0" d="M111.5,44.9H109v-6.4c0-0.2-0.1-0.5-0.3-0.7c-0.2-0.2-0.5-0.3-0.9-0.3s-0.7,0.1-1,0.2
					c-0.3,0.2-0.5,0.3-0.7,0.6v6.6h-2.5v-9.1h2.4v1.5c0.2-0.4,0.5-0.8,1.1-1.1c0.5-0.3,1.2-0.5,1.9-0.5c0.8,0,1.4,0.2,1.8,0.7
					s0.7,1.2,0.7,2.2V44.9z"/>
				<path class="st0" d="M122.6,40.6c0,1.4-0.4,2.5-1.2,3.3c-0.8,0.8-1.9,1.2-3.3,1.2s-2.5-0.4-3.4-1.2c-0.8-0.8-1.2-1.9-1.2-3.3V40
					c0-1.3,0.4-2.4,1.2-3.3c0.8-0.8,1.9-1.2,3.4-1.2c1.4,0,2.5,0.4,3.4,1.2c0.8,0.8,1.2,1.9,1.2,3.2L122.6,40.6L122.6,40.6z
					 M120,40.4L120,40.4c0-1.3-0.2-2.2-0.6-2.6s-0.8-0.7-1.4-0.7s-1,0.2-1.4,0.7s-0.5,1.3-0.5,2.5v0.1c0,1.3,0.2,2.1,0.5,2.6
					c0.3,0.4,0.8,0.6,1.4,0.6c0.5,0,1-0.2,1.4-0.6C119.9,42.5,120,41.7,120,40.4z"/>
				<path class="st0" d="M132.6,37c0,1-0.3,1.8-0.9,2.3c-0.6,0.5-1.5,0.8-2.7,0.8h-1.6v4.8h-2.7v-12h4.5c1.3,0,2.2,0.3,2.7,0.9
					c0.5,0.6,0.8,1.3,0.8,2.2v1H132.6z M129.8,37.2V36c0-0.5-0.1-0.8-0.4-1c-0.3-0.2-0.7-0.3-1.3-0.3h-0.8v3.7h1
					c0.4,0,0.8-0.1,1.1-0.3C129.7,37.9,129.8,37.6,129.8,37.2z"/>
				<path class="st0" d="M141.6,44.9h-2.4v-1.2c-0.2,0.4-0.5,0.7-1,0.9s-1,0.4-1.6,0.4c-1,0-1.8-0.3-2.3-0.8s-0.8-1.3-0.8-2.3v-0.2
					c0-1,0.3-1.8,1-2.4c0.7-0.6,1.6-0.8,2.8-0.8c0.4,0,0.7,0.1,1,0.2c0.3,0.1,0.6,0.2,0.8,0.4v-0.9c0-0.3-0.1-0.6-0.4-0.8
					c-0.3-0.2-0.7-0.3-1.2-0.3c-0.6,0-1.1,0.1-1.5,0.2c-0.4,0.1-0.8,0.3-1.1,0.5v-1.6c0.4-0.2,0.9-0.3,1.4-0.4
					c0.5-0.1,1.1-0.2,1.9-0.2c1.2,0,2,0.3,2.6,0.8s0.8,1.4,0.8,2.5V44.9z M139.2,41.8v-0.2c0-0.6-0.1-1-0.4-1.3
					c-0.3-0.3-0.6-0.4-1.1-0.4s-0.8,0.1-1.1,0.4c-0.3,0.3-0.4,0.7-0.4,1.3v0.2c0,0.6,0.1,1,0.4,1.2c0.3,0.2,0.7,0.3,1.1,0.3
					c0.4,0,0.7-0.1,1-0.4C139,42.8,139.2,42.4,139.2,41.8z"/>
				<path class="st0" d="M150.8,44.4c-0.1,0.1-0.4,0.2-0.9,0.4s-1,0.3-1.6,0.3c-1.5,0-2.6-0.4-3.5-1.1c-0.9-0.8-1.3-1.9-1.3-3.4
					v-0.4c0-1.4,0.4-2.5,1.3-3.3c0.9-0.8,2-1.3,3.5-1.3c0.6,0,1.1,0.1,1.6,0.2c0.5,0.1,0.8,0.3,1,0.5v1.6c-0.2-0.2-0.5-0.4-0.9-0.5
					s-0.8-0.2-1.2-0.2c-0.8,0-1.4,0.3-1.8,0.8c-0.4,0.6-0.6,1.3-0.6,2.3v0.2c0,1.1,0.2,1.8,0.5,2.3c0.3,0.4,0.9,0.7,1.6,0.7
					c0.5,0,1-0.1,1.4-0.2c0.5-0.2,0.8-0.3,1-0.5v1.6H150.8z"/>
			</g>
		</g>
		<g>
			<g>
				<path class="st0" d="M46.7,13.9H55l0.6,0.8c-0.5,3.8-3.2,7.2-8.1,10.3l-1.6-1.8c1.8-0.9,3.2-1.8,4.2-2.7
					c0.8-0.7,1.6-1.6,2.3-2.6c0.5-0.8,0.8-1.3,0.9-1.6c0-0.1,0-0.2,0-0.3c-0.1-0.1-0.3-0.1-0.5-0.1h-6.1
					C46.7,15.9,46.7,13.9,46.7,13.9z M59.1,16.4v7.8c0,0.9-0.3,1.7-1,2.2c-0.5,0.4-1.3,0.7-2.4,0.7c-1.3,0-2.6-0.2-3.8-0.5l-0.1-2.3
					c2.4,0.7,4,0.8,4.6,0.5c0.4-0.3,0.6-0.8,0.6-1.4V11.8c0-0.2-0.1-0.3-0.4-0.3h-9.2v-2h11c0.5,0,0.7,0.3,0.7,0.7V11
					c1,3.1,2.1,5.4,3.3,7.1c1.4,2,3.5,4.1,6.2,6.1l-1.8,1.4C63.3,22.8,60.8,19.8,59.1,16.4z M50,7l0.3-2c1.1,0.1,3.1,0.3,6,0.6
					c2.8,0.3,5.2,0.7,7.4,1.2l-0.4,2.1C59.2,7.9,54.8,7.3,50,7z M66.8,9.2l1.5,1.4c-1.2,1.5-2.9,3.1-5,4.8L62,13.8
					C64.2,12,65.8,10.5,66.8,9.2z"/>
				<path class="st0" d="M79.7,25.2c-0.1-0.2-0.2-0.4-0.3-0.6c-0.2-0.4-0.4-0.7-0.5-0.9h-3c-0.1,0-0.2-0.1-0.2-0.2v-3.9
					c0-0.1,0.1-0.2,0.2-0.2h17.3c0.2,0,0.2,0.1,0.2,0.2v3.9c0,0.2-0.1,0.2-0.2,0.2h-3.1c-0.1,0.3-0.3,0.7-0.5,1.1
					c-0.1,0.2-0.2,0.3-0.2,0.5h6.4V27H73.4v-1.7h6.3V25.2z M73.9,16.8h21.5v1.6H73.9V16.8z M88.7,13h-2.2v-1.5h2.2v-1.2h-2.2V8.9
					h2.2V7.6h-2.2V6.1h2.2V4.8h1.7v1.4h2v1.5h-2v1.2h1.9v1.5h-1.9v1.2h1.9V13h-1.9v1.2h2.5c0.2,0,0.3-0.1,0.3-0.3V5.2H95V15
					c0,0.5-0.3,0.8-0.8,0.8H75c-0.5,0-0.8-0.3-0.8-0.8V5.2h1.9v8.7c0,0.2,0.1,0.3,0.3,0.3H79V13h-2.1v-1.5H79v-1.2h-2V8.8h2V7.6
					h-2.1V6.1H79V4.9h1.7v1.3h1.9v1.5h-1.9v1.2h1.9v1.5h-1.9v1.2h2V13h-2v1.2h2.9V4.9h1.9v9.3h3.2V13z M91.8,20.9H77.5
					c-0.1,0-0.1,0-0.1,0.1v1c0,0,0,0.1,0.1,0.1h14.3c0.1,0,0.1,0,0.1-0.1L91.8,20.9C91.9,21,91.8,20.9,91.8,20.9z M81.7,25.2h5.7
					c0.3-0.5,0.5-1.1,0.8-1.6H81C81.2,24,81.4,24.5,81.7,25.2z"/>
				<path class="st0" d="M106.7,6.5c-0.9,1.2-2.3,2.5-4.2,3.9l-1.8-1.2c2.6-1.6,4.3-3.1,5.1-4.6h1.9c0,0.1-0.1,0.3-0.2,0.4l0,0
					c1.1,1,2.2,2,3.3,2.8l-1.5,1.4C108.4,8.3,107.5,7.5,106.7,6.5z M100.9,18.6l1.8-0.5c0.5,1.2,0.9,2.7,1.2,4.5l-1.8,0.4
					C101.7,21.1,101.3,19.6,100.9,18.6z M104.9,24.1v-7.2h-3.6V15h3.6v-2.5h-2.5v-1.9h7.1v1.9h-2.6V15h3.3v1.9h-3.3v6.8
					c1.5-0.4,2.5-0.7,3-0.8l0.4,1.9c-3.5,0.9-6.4,1.6-8.6,1.9l-0.3-1.9C102.4,24.6,103.6,24.4,104.9,24.1z M108.5,18.1l1.6,0.6
					c-0.3,1.1-0.7,2.3-1.1,3.4l-1.6-0.7C108,20.1,108.3,19,108.5,18.1z M118.2,20.3c1.5-1.2,2.6-2.2,3.4-3l1.3,1.4
					c-1,1.1-2.2,2.1-3.8,3.3c1.2,1.5,2.6,2.7,4.2,3.8l-1.7,1.4c-1.7-1.3-2.8-2.4-3.3-3c-1.8-2.1-2.7-4.6-2.9-7.6h-2.1v7.9
					c1.3-0.4,2.5-0.8,3.4-1.2l0.6,1.9c-1.9,0.8-4.2,1.6-7,2.1l-0.5-1.9c0.5-0.1,1.1-0.3,1.6-0.4V6c0-0.4,0.2-0.6,0.6-0.6h9.4
					c0.4,0,0.6,0.2,0.6,0.6v9.9c0,0.4-0.2,0.6-0.6,0.6h-3.9C117.5,18,117.8,19.3,118.2,20.3z M113.3,10h6.6V7.7
					c0-0.3-0.2-0.4-0.5-0.4h-5.7c-0.3,0-0.5,0.2-0.5,0.5L113.3,10L113.3,10z M119.9,11.8h-6.6v2.8h6.1c0.3,0,0.5-0.2,0.5-0.5V11.8z"
					/>
				<path class="st0" d="M131.5,17.7c-0.6,0.6-1.1,1.1-1.6,1.5l-1.7-1.3c2.4-2,4.1-4.3,5.2-7l1.9,0.8c-0.6,1.3-1.2,2.4-1.8,3.3v12
					h-2L131.5,17.7L131.5,17.7z M132.6,4.9l1.9,0.7c-1.3,3-2.7,5.2-4.4,6.7l-1.7-1.2C130.3,9.4,131.7,7.3,132.6,4.9z M144.9,13.7
					h-8.6v-2h14.4v2h-3.8v10.8c0,0.9-0.4,1.6-1.1,2.1c-1.3,0.8-3.7,0.8-7.1-0.2v-2.1c1.2,0.4,2.4,0.6,3.6,0.8c1,0.1,1.8,0,2.3-0.4
					c0.1-0.1,0.2-0.4,0.2-0.7V13.7H144.9z M137,6h12.7v2H137V6z"/>
			</g>
		</g>
	</g>
	<g>
		<path class="st2" d="M34.5,17.8c0,9.3-7.6,16.9-16.9,16.9S0.7,27.1,0.7,17.8S8.3,0.9,17.6,0.9C27,0.9,34.5,8.5,34.5,17.8z"/>
		<g>
			<rect x="19.5" y="7" class="st0" width="4.2" height="4.2"/>
			<polygon class="st0" points="4.5,18.7 4.5,22.5 8.3,22.5 8.3,26.2 12,26.2 12,18.7 			"/>
			<polygon class="st0" points="5.5,11.2 5.5,15 15.8,15 15.8,26.2 19.5,26.2 19.5,11.2 			"/>
			<polygon class="st0" points="23.3,15 23.3,26.2 27,26.2 27,18.7 31.7,18.7 31.7,15 			"/>
		</g>
	</g>
	<line class="st3" x1="171.8" y1="44.7" x2="171.8" y2="6.2"/>
</g>
</svg>
