<svg xmlns="http://www.w3.org/2000/svg" viewBox="0 0 195 195"><defs><style>.cls-1{fill:#2a3646;}.cls-2{fill:#fff;}</style></defs><title>need3</title><g id="圖層_2" data-name="圖層 2"><g id="text"><rect class="cls-1" width="195" height="195" rx="16"/><path class="cls-2" d="M136.7,77.8H78.27a1.57,1.57,0,0,1-1.53-1.61v-9.3a1.57,1.57,0,0,1,1.53-1.61H136.7a1.57,1.57,0,0,1,1.53,1.61v9.3A1.57,1.57,0,0,1,136.7,77.8ZM79.8,74.57h55.37V68.51H79.8Z"/><path class="cls-2" d="M136.7,86H78.27a1.62,1.62,0,0,1,0-3.23H136.7a1.62,1.62,0,0,1,0,3.23Z"/><path class="cls-2" d="M136.7,94.24H78.27a1.62,1.62,0,0,1,0-3.23H136.7a1.62,1.62,0,0,1,0,3.23Z"/><path class="cls-2" d="M103.7,108.29H78.27a1.62,1.62,0,0,1,0-3.23H103.7a1.62,1.62,0,0,1,0,3.23Z"/><path class="cls-2" d="M103.7,116.51H78.27a1.62,1.62,0,0,1,0-3.23H103.7a1.62,1.62,0,0,1,0,3.23Z"/><path class="cls-2" d="M103.7,124.73H78.27a1.62,1.62,0,0,1,0-3.23H103.7a1.62,1.62,0,0,1,0,3.23Z"/><path class="cls-2" d="M103.7,133H78.27a1.62,1.62,0,0,1,0-3.23H103.7a1.62,1.62,0,0,1,0,3.23Z"/><path class="cls-2" d="M136.7,108.29H111.26a1.62,1.62,0,0,1,0-3.23H136.7a1.62,1.62,0,0,1,0,3.23Z"/><path class="cls-2" d="M136.7,116.51H111.26a1.62,1.62,0,0,1,0-3.23H136.7a1.62,1.62,0,0,1,0,3.23Z"/><path class="cls-2" d="M136.7,124.73H111.26a1.62,1.62,0,0,1,0-3.23H136.7a1.62,1.62,0,0,1,0,3.23Z"/><path class="cls-2" d="M136.7,133H111.26a1.62,1.62,0,0,1,0-3.23H136.7a1.62,1.62,0,0,1,0,3.23Z"/><path class="cls-2" d="M136,147.5H59c-6.35,0-11.51-5.44-11.51-12.13V75.9A1.57,1.57,0,0,1,49,74.29H67.46V49.11a1.63,1.63,0,0,1,1-1.49,1.48,1.48,0,0,1,1.67.35l3.73,3.93L77.53,48a1.48,1.48,0,0,1,2.17,0l3.73,3.93L87.16,48a1.48,1.48,0,0,1,1.08-.47h0a1.51,1.51,0,0,1,1.08.47l3.73,3.93L96.78,48a1.47,1.47,0,0,1,2.16,0l3.73,3.93L106.4,48a1.47,1.47,0,0,1,2.16,0l3.73,3.93L116,48a1.51,1.51,0,0,1,1.08-.47h0a1.51,1.51,0,0,1,1.09.47l3.72,3.93L125.64,48a1.48,1.48,0,0,1,2.17,0l3.73,3.93L135.27,48a1.47,1.47,0,0,1,2.16,0l3.73,3.93L144.89,48a1.48,1.48,0,0,1,1.67-.35,1.62,1.62,0,0,1,.94,1.49v86.26C147.5,142.06,142.34,147.5,136,147.5Zm-69.17-3.23H136a8.69,8.69,0,0,0,8.45-8.9V53l-2.2,2.31a1.47,1.47,0,0,1-2.16,0l-3.73-3.93-3.73,3.93a1.48,1.48,0,0,1-2.17,0l-3.73-3.93L123,55.32a1.49,1.49,0,0,1-1.09.48h0a1.48,1.48,0,0,1-1.08-.48l-3.73-3.93-3.72,3.93a1.48,1.48,0,0,1-2.17,0l-3.73-3.93-3.73,3.93a1.47,1.47,0,0,1-2.16,0l-3.73-3.93-3.73,3.93a1.48,1.48,0,0,1-1.08.48h0A1.45,1.45,0,0,1,92,55.32l-3.73-3.93-3.73,3.93a1.47,1.47,0,0,1-2.16,0l-3.73-3.93-3.73,3.93a1.48,1.48,0,0,1-2.17,0L70.52,53v82.36A12.37,12.37,0,0,1,66.82,144.27ZM50.56,77.51v57.86a8.46,8.46,0,1,0,16.9,0V77.51Z"/></g></g></svg>