<svg xmlns="http://www.w3.org/2000/svg" viewBox="0 0 195 195"><defs><style>.cls-1{fill:#2a3646;}.cls-2{fill:#fff;}</style></defs><title>need-1</title><g id="圖層_2" data-name="圖層 2"><g id="text"><rect class="cls-1" width="195" height="195" rx="16"/><path class="cls-2" d="M103,109.09h-1.53v1.61c0,7.79-3.39,22-6.19,29.76l-2.73-18,1.24-5.77,0-.36c0-2-2.19-2.38-6.5-2.38s-6.5.37-6.5,2.38l1.28,6.13-2.74,18c-2.79-7.76-6.19-22-6.19-29.76v-1.61H71.66c-8.9,0-15.46,2.17-19.5,6.47-4.74,5-4.68,11.55-4.66,14.32V147.5h79.66V129.88c0-2.77.08-9.28-4.66-14.32C118.47,111.26,111.91,109.09,103,109.09ZM84.15,117.3a31.78,31.78,0,0,1,6.37,0l-1.08,5,3.33,21.94H81.9l3.33-21.94Zm-33.58,27V129.85c0-2.57-.06-7.93,3.78-12,3.23-3.43,8.55-5.28,15.83-5.5.45,9.46,4.47,25,7.41,31.94Zm73.54-14.42v14.42h-27c2.94-6.91,7-22.48,7.41-31.94,7.28.22,12.61,2.07,15.83,5.5C124.18,121.92,124.13,127.28,124.11,129.85Z"/><path class="cls-2" d="M120.46,47.5A26.3,26.3,0,0,0,100,57.38a23.56,23.56,0,0,0-11.58-3.84c-1.74-.16-10.32-.52-13,5.81-5.27,1.87-10.61,7-8.49,20.71a5,5,0,0,0-2.24,3.55,11.7,11.7,0,0,0,.42,5.52c1,3.41,3,5.7,5.24,6.12,4.31,11,10,16.58,17,16.58,6.39,0,11.73-4.67,15.89-13.88a26.05,26.05,0,0,0,17.23,6.54c14.91,0,27-12.78,27-28.5S135.37,47.5,120.46,47.5ZM76.93,62.21,77.7,62l.26-.79c1.63-5,9.34-4.51,10.21-4.44h0c6.15.51,10.71,2.73,13.56,6.58,2.65,3.59,3.72,8.49,3.19,14.57C89.25,76.27,81.06,68,81,67.94L79.51,66.4l-1,1.93a22.1,22.1,0,0,1-8.93,9C68.79,69,71.24,63.92,76.93,62.21Zm10.41,46.4c-5.83,0-10.73-5.22-14.58-15.52l-.44-1.18-1.18.17c-.91.13-2.39-1.34-3.18-3.93a8.54,8.54,0,0,1-.33-3.89c.09-.46.32-1.26.88-1.45a1,1,0,0,1,.22,0l1.71-.14-.32-1.78,0-.13A25.67,25.67,0,0,0,80.3,71.56c3.12,2.61,11.21,8.18,24.21,9.55l-.24,1.52,1.67.14a.87.87,0,0,1,.22,0c.56.19.8,1,.89,1.45a8.7,8.7,0,0,1-.34,3.89c-.78,2.59-2.26,4-3.17,3.93l-1.19-.17-.44,1.18C98.06,103.39,93.16,108.61,87.34,108.61Zm33.12-7.35a23.15,23.15,0,0,1-15.64-6.14c1.93-.59,3.65-2.6,4.65-5.53a2.4,2.4,0,0,0,.8,1,16.45,16.45,0,0,0,3.46,1.73,19.35,19.35,0,0,0,2.7.77v1a2.36,2.36,0,0,0,2.29,2.41h4.73A2.35,2.35,0,0,0,125.74,94V92.76a12.1,12.1,0,0,0,5.27-3.2,10.38,10.38,0,0,0,2.86-7.4A9.54,9.54,0,0,0,132,76.1a10.16,10.16,0,0,0-4.08-3.17,39,39,0,0,0-5-1.62c-1.3-.35-2.32-.65-3-.91a3,3,0,0,1-1.1-.64.35.35,0,0,1,0-.14.79.79,0,0,1,.37-.75,3.43,3.43,0,0,1,2.08-.53,6.24,6.24,0,0,1,2.31.37,14,14,0,0,1,2,1.06,2.24,2.24,0,0,0,3.07-.7l2.76-4.23a2.55,2.55,0,0,0,.36-1.85,2.39,2.39,0,0,0-1-1.55,17.19,17.19,0,0,0-5-2.36V58a2.36,2.36,0,0,0-2.28-2.42H118.6A2.36,2.36,0,0,0,116.31,58v1.26a12.43,12.43,0,0,0-5.31,3.3,10.62,10.62,0,0,0-2.94,7.5A9.54,9.54,0,0,0,110,76.18a10.52,10.52,0,0,0,4.17,3.2A42,42,0,0,0,119.21,81c1.32.39,2.32.7,3,.93a3.1,3.1,0,0,1,1,.54.65.65,0,0,1-.3.63,4,4,0,0,1-2.35.51,9.11,9.11,0,0,1-2.77-.42,12.91,12.91,0,0,1-2.42-1.09,2.21,2.21,0,0,0-3,.77l-2.19,3.4a10,10,0,0,0-.11-2.7A5,5,0,0,0,107.77,80c1-7.78-.2-14.06-3.62-18.69a17.33,17.33,0,0,0-1.75-2,23.32,23.32,0,0,1,18.06-8.64c13.22,0,24,11.33,24,25.26S133.68,101.26,120.46,101.26Zm4.77-21.15a5.94,5.94,0,0,0-2.07-1.2c-.71-.25-1.76-.58-3.17-1a40.44,40.44,0,0,1-4.72-1.54,7.49,7.49,0,0,1-3-2.28A6.33,6.33,0,0,1,111.13,70a7.31,7.31,0,0,1,2.05-5.23,9.5,9.5,0,0,1,4.73-2.68l1.47-.37v-3h3.18V61.7l1.54.32a13.78,13.78,0,0,1,4.23,1.69l-1.9,2.91a15.7,15.7,0,0,0-1.78-.9,8.89,8.89,0,0,0-3.44-.61,6.2,6.2,0,0,0-3.9,1.17,4,4,0,0,0-1.61,3.34,3.35,3.35,0,0,0,1,2.51,5.87,5.87,0,0,0,2.18,1.32c.78.29,1.89.62,3.28,1a36.09,36.09,0,0,1,4.64,1.49,7.08,7.08,0,0,1,2.85,2.22,6.31,6.31,0,0,1,1.15,4,7.08,7.08,0,0,1-2,5.12,9.37,9.37,0,0,1-4.68,2.58l-1.48.36v3h-3.19V90.29L117.86,90a16.06,16.06,0,0,1-3.12-.8,13.87,13.87,0,0,1-2.13-1l1.89-2.94a14.63,14.63,0,0,0,2.37,1,12.12,12.12,0,0,0,3.66.56,6.78,6.78,0,0,0,4.11-1.1,3.93,3.93,0,0,0,1.6-3.33A3.08,3.08,0,0,0,125.23,80.11Z"/></g></g></svg>