<svg xmlns="http://www.w3.org/2000/svg" viewBox="0 0 25 25"><defs><style>.cls-1{fill:#8e8e8e;}.cls-2{fill:#fff;}</style></defs><title>icon-ques</title><g id="圖層_2" data-name="圖層 2"><g id="pop"><circle class="cls-1" cx="12.5" cy="12.5" r="12.5"/><path class="cls-2" d="M10.87,14.23a5.38,5.38,0,0,1,.66-1.36c.26-.38.6-.81,1-1.31s.59-.72.78-1a4,4,0,0,0,.47-.89A2.82,2.82,0,0,0,14,8.62h0a1.78,1.78,0,0,0-.39-1.23,1.4,1.4,0,0,0-1.11-.44,1.32,1.32,0,0,0-1.09.48A2.15,2.15,0,0,0,11,8.79H7.68a6,6,0,0,1,.64-2.64A4,4,0,0,1,10,4.48a5.21,5.21,0,0,1,2.52-.57,6.14,6.14,0,0,1,2.61.51,3.68,3.68,0,0,1,1.65,1.49,4.61,4.61,0,0,1,.57,2.36h0a4.94,4.94,0,0,1-.25,1.63,5.77,5.77,0,0,1-.62,1.27c-.25.36-.57.78-1,1.26s-.68.84-.89,1.15A4.84,4.84,0,0,0,14,14.68,3.9,3.9,0,0,0,13.81,16H10.6A5.58,5.58,0,0,1,10.87,14.23Zm-.25,3.66h3.2v3.2h-3.2Z"/></g></g></svg>